<svg xmlns="http://www.w3.org/2000/svg" xmlns:xlink="http://www.w3.org/1999/xlink" contentStyleType="text/css" data-diagram-type="DESCRIPTION" height="527px" preserveAspectRatio="none" style="width:1124px;height:527px;background:#FFFFFF;" version="1.1" viewBox="0 0 1124 527" width="1124px" zoomAndPan="magnify"><title>Final State &#8212; Target Microservice Architecture</title><defs/><g><g class="title" data-source-line="1"><text fill="#000000" font-family="sans-serif" font-size="14" font-weight="bold" lengthAdjust="spacing" textLength="311.2129" x="399.4365" y="25.1074">Final State &#8212; Target Microservice Architecture</text></g><!--cluster Edge--><g class="cluster" data-entity="Edge" data-source-line="7" data-uid="ent0003" id="cluster_Edge"><rect fill="none" height="233" rx="2.5" ry="2.5" style="stroke:#181818;stroke-width:1;" width="232" x="7" y="164.9915"/><text fill="#000000" font-family="sans-serif" font-size="14" font-weight="bold" lengthAdjust="spacing" textLength="34.2275" x="105.8862" y="182.0989">Edge</text></g><!--cluster Domain Services--><g class="cluster" data-entity="Domain Services" data-source-line="11" data-uid="ent0006" id="cluster_Domain Services"><path d="M265.5,305.9915 L379.334,305.9915 A3.75,3.75 0 0 1 381.834,308.4915 L388.834,330.6126 L989.5,330.6126 A2.5,2.5 0 0 1 992,333.1126 L992,395.4915 A2.5,2.5 0 0 1 989.5,397.9915 L265.5,397.9915 A2.5,2.5 0 0 1 263,395.4915 L263,308.4915 A2.5,2.5 0 0 1 265.5,305.9915" fill="none" style="stroke:#000000;stroke-width:1.5;"/><line style="stroke:#000000;stroke-width:1.5;" x1="263" x2="388.834" y1="330.6126" y2="330.6126"/><text fill="#000000" font-family="sans-serif" font-size="14" font-weight="bold" lengthAdjust="spacing" textLength="112.834" x="267" y="323.0989">Domain Services</text></g><!--entity Gateway--><g class="entity" data-entity="Gateway" data-source-line="8" data-uid="ent0004" id="entity_Gateway"><rect fill="#F1F1F1" height="38.6211" rx="2.5" ry="2.5" style="stroke:#181818;stroke-width:0.5;" width="101.7031" x="121" y="201.9915"/><text fill="#000000" font-family="sans-serif" font-size="14" lengthAdjust="spacing" textLength="81.7031" x="131" y="227.0989">API Gateway</text></g><!--entity Auth--><g class="entity" data-entity="Auth" data-source-line="9" data-uid="ent0005" id="entity_Auth"><rect fill="#F1F1F1" height="38.6211" rx="2.5" ry="2.5" style="stroke:#181818;stroke-width:0.5;" width="200.4893" x="23" y="342.9915"/><text fill="#000000" font-family="sans-serif" font-size="14" lengthAdjust="spacing" textLength="180.4893" x="33" y="368.0989">OIDC Provider (auth-service)</text></g><!--entity Reader--><g class="entity" data-entity="Reader" data-source-line="12" data-uid="ent0007" id="entity_Reader"><rect fill="#F1F1F1" height="38.6211" rx="2.5" ry="2.5" style="stroke:#181818;stroke-width:0.5;" width="109.4756" x="722.5" y="342.9915"/><text fill="#000000" font-family="sans-serif" font-size="14" lengthAdjust="spacing" textLength="89.4756" x="732.5" y="368.0989">reader-service</text></g><!--entity Author--><g class="entity" data-entity="Author" data-source-line="13" data-uid="ent0008" id="entity_Author"><rect fill="#F1F1F1" height="38.6211" rx="2.5" ry="2.5" style="stroke:#181818;stroke-width:0.5;" width="108.7031" x="866.5" y="342.9915"/><text fill="#000000" font-family="sans-serif" font-size="14" lengthAdjust="spacing" textLength="88.7031" x="876.5" y="368.0989">author-service</text></g><!--entity Book--><g class="entity" data-entity="Book" data-source-line="14" data-uid="ent0009" id="entity_Book"><rect fill="#F1F1F1" height="38.6211" rx="2.5" ry="2.5" style="stroke:#181818;stroke-width:0.5;" width="99.3652" x="279.5" y="342.9915"/><text fill="#000000" font-family="sans-serif" font-size="14" lengthAdjust="spacing" textLength="79.3652" x="289.5" y="368.0989">book-service</text></g><!--entity Lending--><g class="entity" data-entity="Lending" data-source-line="15" data-uid="ent0010" id="entity_Lending"><rect fill="#F1F1F1" height="38.6211" rx="2.5" ry="2.5" style="stroke:#181818;stroke-width:0.5;" width="114.1582" x="414" y="342.9915"/><text fill="#000000" font-family="sans-serif" font-size="14" lengthAdjust="spacing" textLength="94.1582" x="424" y="368.0989">lending-service</text></g><!--entity Reporting--><g class="entity" data-entity="Reporting" data-source-line="16" data-uid="ent0011" id="entity_Reporting"><rect fill="#F1F1F1" height="38.6211" rx="2.5" ry="2.5" style="stroke:#181818;stroke-width:0.5;" width="124.2617" x="563" y="342.9915"/><text fill="#000000" font-family="sans-serif" font-size="14" lengthAdjust="spacing" textLength="104.2617" x="573" y="368.0989">reporting-service</text></g><!--entity Clients--><g class="entity" data-entity="Clients" data-source-line="6" data-uid="ent0002" id="entity_Clients"><path d="M143.716,59.8465 C146.4074,52.5528 151.9079,49.7159 157.9535,56.4397 C159.4601,47.6632 165.9607,46.1685 172.436,51.2453 C178.7878,45.6211 184.5639,45.7573 187.3642,54.8482 C194.6365,48.5952 201.0089,51.4169 201.9028,60.7847 C209.3444,63.7584 210.9469,69.4465 205.0944,75.336 C211.9702,82.2843 209.8222,89.0461 201.1344,92.378 C198.2814,100.7839 192.0243,101.9781 186.2396,95.2665 C184.5115,102.7058 178.0922,105.2231 172.3846,99.4346 C165.8047,105.0739 161.0387,103.7864 158.457,95.4501 C152.5327,100.9735 148.035,99.7744 145.566,92.0801 C135.35,90.8902 132.2246,83.3591 139.022,75.4674 C132.543,67.627 135.6722,63.3228 143.716,59.8465" fill="#F1F1F1" style="stroke:#181818;stroke-width:0.5;"/><text fill="#000000" font-family="sans-serif" font-size="14" lengthAdjust="spacing" textLength="42.793" x="150.5" y="81.0989">Clients</text></g><!--entity Bus--><g class="entity" data-entity="Bus" data-source-line="18" data-uid="ent0012" id="entity_Bus"><path d="M484,472.4915 L557.8135,472.4915 C562.8135,472.4915 562.8135,486.802 562.8135,486.802 C562.8135,486.802 562.8135,501.1126 557.8135,501.1126 L484,501.1126 C479,501.1126 479,486.802 479,486.802 C479,486.802 479,472.4915 484,472.4915" fill="#F1F1F1" style="stroke:#181818;stroke-width:0.5;"/><path d="M557.8135,472.4915 C552.8135,472.4915 552.8135,486.802 552.8135,486.802 C552.8135,501.1126 557.8135,501.1126 557.8135,501.1126" fill="none" style="stroke:#181818;stroke-width:0.5;"/><text fill="#000000" font-family="sans-serif" font-size="14" lengthAdjust="spacing" textLength="63.8135" x="484" y="492.5989">Event Bus</text></g><!--entity ReaderDB--><g class="entity" data-entity="ReaderDB" data-source-line="19" data-uid="ent0013" id="entity_ReaderDB"><path d="M898.5,472.9915 C898.5,462.9915 943.1274,462.9915 943.1274,462.9915 C943.1274,462.9915 987.7549,462.9915 987.7549,472.9915 L987.7549,500.6126 C987.7549,510.6126 943.1274,510.6126 943.1274,510.6126 C943.1274,510.6126 898.5,510.6126 898.5,500.6126 L898.5,472.9915" fill="#F1F1F1" style="stroke:#181818;stroke-width:0.5;"/><path d="M898.5,472.9915 C898.5,482.9915 943.1274,482.9915 943.1274,482.9915 C943.1274,482.9915 987.7549,482.9915 987.7549,472.9915" fill="none" style="stroke:#181818;stroke-width:0.5;"/><text fill="#000000" font-family="sans-serif" font-size="14" lengthAdjust="spacing" textLength="69.2549" x="908.5" y="502.0989">Reader DB</text></g><!--entity AuthorDB--><g class="entity" data-entity="AuthorDB" data-source-line="20" data-uid="ent0014" id="entity_AuthorDB"><path d="M1022.5,472.9915 C1022.5,462.9915 1064.793,462.9915 1064.793,462.9915 C1064.793,462.9915 1107.0859,462.9915 1107.0859,472.9915 L1107.0859,500.6126 C1107.0859,510.6126 1064.793,510.6126 1064.793,510.6126 C1064.793,510.6126 1022.5,510.6126 1022.5,500.6126 L1022.5,472.9915" fill="#F1F1F1" style="stroke:#181818;stroke-width:0.5;"/><path d="M1022.5,472.9915 C1022.5,482.9915 1064.793,482.9915 1064.793,482.9915 C1064.793,482.9915 1107.0859,482.9915 1107.0859,472.9915" fill="none" style="stroke:#181818;stroke-width:0.5;"/><text fill="#000000" font-family="sans-serif" font-size="14" lengthAdjust="spacing" textLength="64.5859" x="1032.5" y="502.0989">Author DB</text></g><!--entity BookDB--><g class="entity" data-entity="BookDB" data-source-line="21" data-uid="ent0015" id="entity_BookDB"><path d="M86.5,472.9915 C86.5,462.9915 124.124,462.9915 124.124,462.9915 C124.124,462.9915 161.748,462.9915 161.748,472.9915 L161.748,500.6126 C161.748,510.6126 124.124,510.6126 124.124,510.6126 C124.124,510.6126 86.5,510.6126 86.5,500.6126 L86.5,472.9915" fill="#F1F1F1" style="stroke:#181818;stroke-width:0.5;"/><path d="M86.5,472.9915 C86.5,482.9915 124.124,482.9915 124.124,482.9915 C124.124,482.9915 161.748,482.9915 161.748,472.9915" fill="none" style="stroke:#181818;stroke-width:0.5;"/><text fill="#000000" font-family="sans-serif" font-size="14" lengthAdjust="spacing" textLength="55.248" x="96.5" y="502.0989">Book DB</text></g><!--entity LendingDB--><g class="entity" data-entity="LendingDB" data-source-line="22" data-uid="ent0016" id="entity_LendingDB"><path d="M288.5,472.9915 C288.5,462.9915 335.0825,462.9915 335.0825,462.9915 C335.0825,462.9915 381.665,462.9915 381.665,472.9915 L381.665,500.6126 C381.665,510.6126 335.0825,510.6126 335.0825,510.6126 C335.0825,510.6126 288.5,510.6126 288.5,500.6126 L288.5,472.9915" fill="#F1F1F1" style="stroke:#181818;stroke-width:0.5;"/><path d="M288.5,472.9915 C288.5,482.9915 335.0825,482.9915 335.0825,482.9915 C335.0825,482.9915 381.665,482.9915 381.665,472.9915" fill="none" style="stroke:#181818;stroke-width:0.5;"/><text fill="#000000" font-family="sans-serif" font-size="14" lengthAdjust="spacing" textLength="73.165" x="298.5" y="502.0989">Lending DB</text></g><!--entity ReportDB--><g class="entity" data-entity="ReportDB" data-source-line="23" data-uid="ent0017" id="entity_ReportDB"><path d="M660,472.9915 C660,462.9915 719.0273,462.9915 719.0273,462.9915 C719.0273,462.9915 778.0547,462.9915 778.0547,472.9915 L778.0547,500.6126 C778.0547,510.6126 719.0273,510.6126 719.0273,510.6126 C719.0273,510.6126 660,510.6126 660,500.6126 L660,472.9915" fill="#F1F1F1" style="stroke:#181818;stroke-width:0.5;"/><path d="M660,472.9915 C660,482.9915 719.0273,482.9915 719.0273,482.9915 C719.0273,482.9915 778.0547,482.9915 778.0547,472.9915" fill="none" style="stroke:#181818;stroke-width:0.5;"/><text fill="#000000" font-family="sans-serif" font-size="14" lengthAdjust="spacing" textLength="98.0547" x="670" y="502.0989">Reporting Store</text></g><!--link Clients to Gateway--><g class="link" data-entity-1="Clients" data-entity-2="Gateway" data-source-line="25" data-uid="lnk18" id="link_Clients_Gateway"><path d="M172,100.2715 C172,128.7115 172,169.7215 172,195.7315" fill="none" id="Clients-to-Gateway" style="stroke:#181818;stroke-width:1;"/><polygon fill="#181818" points="172,201.7315,176,192.7315,172,196.7315,168,192.7315,172,201.7315" style="stroke:#181818;stroke-width:1;"/><text fill="#000000" font-family="sans-serif" font-size="13" lengthAdjust="spacing" textLength="84.1382" x="173" y="145.0198">HTTPS + JWT</text></g><!--link Gateway to Auth--><g class="link" data-entity-1="Gateway" data-entity-2="Auth" data-source-line="26" data-uid="lnk19" id="link_Gateway_Auth"><path d="M165.39,241.2415 C156.04,267.7715 141.0347,310.3327 131.6547,336.9427" fill="none" id="Gateway-to-Auth" style="stroke:#181818;stroke-width:1;"/><polygon fill="#181818" points="129.66,342.6015,136.4245,335.4432,131.3222,337.8859,128.8796,332.7836,129.66,342.6015" style="stroke:#181818;stroke-width:1;"/><text fill="#000000" font-family="sans-serif" font-size="13" lengthAdjust="spacing" textLength="42.6436" x="156" y="286.0198">/auth/**</text></g><!--link Gateway to Reader--><g class="link" data-entity-1="Gateway" data-entity-2="Reader" data-source-line="27" data-uid="lnk20" id="link_Gateway_Reader"><path d="M223.27,225.4115 C339.94,232.7315 621.61,254.5115 705,297.9915 C726.72,309.3215 743.1239,324.2059 756.6539,338.5559" fill="none" id="Gateway-to-Reader" style="stroke:#181818;stroke-width:1;"/><polygon fill="#181818" points="760.77,342.9215,757.5062,333.6291,757.3399,339.2835,751.6855,339.1172,760.77,342.9215" style="stroke:#181818;stroke-width:1;"/><text fill="#000000" font-family="sans-serif" font-size="13" lengthAdjust="spacing" textLength="61.4199" x="683" y="286.0198">/readers/**</text></g><!--link Gateway to Author--><g class="link" data-entity-1="Gateway" data-entity-2="Author" data-source-line="28" data-uid="lnk21" id="link_Gateway_Author"><path d="M223.33,223.4915 C325.14,226.2015 559.51,236.0415 753,270.9915 C796.62,278.8715 810.07,276.8015 849,297.9915 C870.37,309.6215 886.6415,324.3067 900.2315,338.5067" fill="none" id="Gateway-to-Author" style="stroke:#181818;stroke-width:1;"/><polygon fill="#181818" points="904.38,342.8415,901.047,333.5737,900.9229,339.2292,895.2674,339.1051,904.38,342.8415" style="stroke:#181818;stroke-width:1;"/><text fill="#000000" font-family="sans-serif" font-size="13" lengthAdjust="spacing" textLength="60.7026" x="833" y="286.0198">/authors/**</text></g><!--link Gateway to Book--><g class="link" data-entity-1="Gateway" data-entity-2="Book" data-source-line="29" data-uid="lnk22" id="link_Gateway_Book"><path d="M193.17,241.2415 C223.22,267.8415 273.4176,312.2842 303.4176,338.8442" fill="none" id="Gateway-to-Book" style="stroke:#181818;stroke-width:1;"/><polygon fill="#181818" points="307.91,342.8215,303.8229,333.8607,304.1664,339.5071,298.5199,339.8505,307.91,342.8215" style="stroke:#181818;stroke-width:1;"/><text fill="#000000" font-family="sans-serif" font-size="13" lengthAdjust="spacing" textLength="52.0317" x="247" y="286.0198">/books/**</text></g><!--link Gateway to Lending--><g class="link" data-entity-1="Gateway" data-entity-2="Lending" data-source-line="30" data-uid="lnk23" id="link_Gateway_Lending"><path d="M223.22,233.8715 C270.17,245.6415 340.6,266.7315 396,297.9915 C417.54,310.1515 434.4438,324.7231 448.7838,338.7031" fill="none" id="Gateway-to-Lending" style="stroke:#181818;stroke-width:1;"/><polygon fill="#181818" points="453.08,342.8915,449.4279,333.7448,449.4998,339.4012,443.8434,339.4731,453.08,342.8915" style="stroke:#181818;stroke-width:1;"/><text fill="#000000" font-family="sans-serif" font-size="13" lengthAdjust="spacing" textLength="65.7681" x="380" y="286.0198">/lendings/**</text></g><!--link Gateway to Reporting--><g class="link" data-entity-1="Gateway" data-entity-2="Reporting" data-source-line="31" data-uid="lnk24" id="link_Gateway_Reporting"><path d="M223.06,223.8915 C297.95,227.8515 440.16,242.7215 546,297.9915 C568.77,309.8815 586.8848,324.7663 602.0048,338.8863" fill="none" id="Gateway-to-Reporting" style="stroke:#181818;stroke-width:1;"/><polygon fill="#181818" points="606.39,342.9815,602.5423,333.9153,602.7357,339.5688,597.0821,339.7622,606.39,342.9815" style="stroke:#181818;stroke-width:1;"/><text fill="#000000" font-family="sans-serif" font-size="13" lengthAdjust="spacing" textLength="57.8018" x="528" y="286.0198">/reports/**</text></g><!--link Reader to ReaderDB--><g class="link" data-entity-1="Reader" data-entity-2="ReaderDB" data-source-line="33" data-uid="lnk25" id="link_Reader_ReaderDB"><path d="M802.38,382.0615 C815.62,390.8015 832.48,400.4815 849,405.9915 C864.27,411.0815 908.61,403.7115 921,413.9915 C935.29,425.8415 939.8246,440.7385 941.6346,456.9585" fill="none" id="Reader-to-ReaderDB" style="stroke:#181818;stroke-width:1;"/><polygon fill="#181818" points="942.3,462.9215,945.2772,453.5334,941.7455,457.9523,937.3266,454.4206,942.3,462.9215" style="stroke:#181818;stroke-width:1;"/></g><!--link Author to AuthorDB--><g class="link" data-entity-1="Author" data-entity-2="AuthorDB" data-source-line="34" data-uid="lnk26" id="link_Author_AuthorDB"><path d="M942.87,382.1015 C968.28,403.7115 1005.6705,435.513 1033.1805,458.923" fill="none" id="Author-to-AuthorDB" style="stroke:#181818;stroke-width:1;"/><polygon fill="#181818" points="1037.75,462.8115,1033.4881,453.9325,1033.9421,459.5711,1028.3035,460.0251,1037.75,462.8115" style="stroke:#181818;stroke-width:1;"/></g><!--link Book to BookDB--><g class="link" data-entity-1="Book" data-entity-2="BookDB" data-source-line="35" data-uid="lnk27" id="link_Book_BookDB"><path d="M292.91,381.9915 C275.26,391.2615 253.81,402.8615 235,413.9915 C208.71,429.5415 184.7609,445.0411 163.0309,459.5411" fill="none" id="Book-to-BookDB" style="stroke:#181818;stroke-width:1;"/><polygon fill="#181818" points="158.04,462.8715,167.7465,461.2032,162.1991,460.0962,163.3061,454.5487,158.04,462.8715" style="stroke:#181818;stroke-width:1;"/></g><!--link Lending to LendingDB--><g class="link" data-entity-1="Lending" data-entity-2="LendingDB" data-source-line="36" data-uid="lnk28" id="link_Lending_LendingDB"><path d="M439.62,382.1715 C426.33,389.8515 410.57,398.6515 396,405.9915 C388.18,409.9315 384.55,408.1815 378,413.9915 C362.97,427.3215 354.1792,441.7653 346.9392,457.2653" fill="none" id="Lending-to-LendingDB" style="stroke:#181818;stroke-width:1;"/><polygon fill="#181818" points="344.4,462.7015,351.833,456.24,346.516,458.1713,344.5847,452.8543,344.4,462.7015" style="stroke:#181818;stroke-width:1;"/></g><!--link Reporting to ReportDB--><g class="link" data-entity-1="Reporting" data-entity-2="ReportDB" data-source-line="37" data-uid="lnk29" id="link_Reporting_ReportDB"><path d="M661.14,382.1715 C674.04,390.4015 687.67,401.1415 697,413.9915 C707.44,428.3815 711.8602,441.9107 714.7702,456.9507" fill="none" id="Reporting-to-ReportDB" style="stroke:#181818;stroke-width:1;"/><polygon fill="#181818" points="715.91,462.8415,718.1275,453.2455,714.9602,457.9325,710.2732,454.7652,715.91,462.8415" style="stroke:#181818;stroke-width:1;"/></g><!--link Lending to Bus--><g class="link" data-entity-1="Lending" data-entity-2="Bus" data-source-line="39" data-uid="lnk30" id="link_Lending_Bus"><path d="M433.92,382.0315 C415.08,392.2915 395.11,404.7915 390,413.9915 C385.9,421.3715 385.28,425.9915 390,432.9915 C409.68,462.1815 442.5704,474.1558 472.8504,480.0458" fill="none" id="Lending-to-Bus" style="stroke:#008000;stroke-width:2;"/><polygon fill="#008000" points="478.74,481.1915,470.6693,475.5466,473.832,480.2368,469.1418,483.3994,478.74,481.1915" style="stroke:#008000;stroke-width:2;"/><text fill="#000000" font-family="sans-serif" font-size="13" lengthAdjust="spacing" textLength="204.4961" x="391" y="429.0198">Borrowed/Returned/Recommended</text></g><!--link Book to Bus--><g class="link" data-entity-1="Book" data-entity-2="Bus" data-source-line="40" data-uid="lnk31" id="link_Book_Bus"><path d="M282.01,382.0315 C256.01,395.0115 231.91,413.4815 248,432.9915 C248.92,434.1115 396.5258,462.3196 472.9158,476.8596" fill="none" id="Book-to-Bus" style="stroke:#008000;stroke-width:2;"/><polygon fill="#008000" points="478.81,477.9815,470.7167,472.3692,473.8982,477.0466,469.2208,480.2281,478.81,477.9815" style="stroke:#008000;stroke-width:2;"/><text fill="#000000" font-family="sans-serif" font-size="13" lengthAdjust="spacing" textLength="128.6416" x="249" y="429.0198">BookCreated/Updated</text></g><!--link Reader to Bus--><g class="link" data-entity-1="Reader" data-entity-2="Bus" data-source-line="41" data-uid="lnk32" id="link_Reader_Bus"><path d="M753.4,382.2615 C733.41,397.4815 703.54,418.6815 675,432.9915 C638.73,451.1815 600.4922,463.9589 568.8322,473.1489" fill="none" id="Reader-to-Bus" style="stroke:#008000;stroke-width:2;"/><polygon fill="#008000" points="563.07,474.8215,572.8283,476.154,567.8718,473.4276,570.5982,468.4711,563.07,474.8215" style="stroke:#008000;stroke-width:2;"/><text fill="#000000" font-family="sans-serif" font-size="13" lengthAdjust="spacing" textLength="141.6479" x="708" y="429.0198">ReaderCreated/Updated</text></g><!--link Reporting to Bus--><g class="link" data-entity-1="Reporting" data-entity-2="Bus" data-source-line="42" data-uid="lnk33" id="link_Reporting_Bus"><path d="M621.64,382.1715 C618.21,397.1415 611.67,418.0315 600,432.9915 C586.79,449.9215 571.8963,460.4464 555.2463,469.5364" fill="none" id="Reporting-to-Bus" style="stroke:#008000;stroke-width:2;"/><polygon fill="#008000" points="549.98,472.4115,559.7962,471.6097,554.3686,470.0155,555.9627,464.5879,549.98,472.4115" style="stroke:#008000;stroke-width:2;"/><text fill="#000000" font-family="sans-serif" font-size="13" lengthAdjust="spacing" textLength="55.6372" x="611" y="429.0198">subscribe</text></g><!--SRC=[TLDDZzCm4BtxLup21HQgtZaWDIqVYq1KRH67rHwSU4YjfdQmdLOhXCIFu1VoInX_9SrsESMUzzxCcvdOITSYl9EAjx1rt27y_Vq7TjmqwE2ph8ssQ4woHbYOUYyTrguto9WzIDLnmuzGwsEd5IgtTG-KoX23gwR52uhTSw7FKZNmdRUMr7MhUm75ifMaimLm2-dC1ZqKRqM31Vna07UBzIsy9tTd_d3lsUdieI-tgoMiZJv9WGQUyzxjPydpYy1TK8JzOXsl3xoXj2jzv5B1Dd9igc2GapuhWt0JGXxqIVKKN8IG1okj3nEef807MbI2cfvWds8iLkoqSOy9cnmbopzwxFqSJZGPAFiuAFeomHslk2KiUeHLMOoEL-K58VhCX7YR4BpR3Flp14nsCvwk4yfWcFuVRR0Oco0QIsk5sUnDNXgyXW-xtNeBB-7ZjntBKS_mzWYU-tdFRsucMEgKqBWg-vYGEaroVKq8dHBi5tO5vau9Jtkprmvofy64lmGEIzP6bzHvSZCQerWma9tGFTUyg4_HiSnOr8zoODyzQmoYUbNfLjpxRBqbHwKsHfzHp3T8JrI50xtD8wbGfDB_K-h3aeRgIFEr4_uxjFIq8gBNci7uqpBRLxOsiaBs3m00]--></g></svg>