<svg xmlns="http://www.w3.org/2000/svg" xmlns:xlink="http://www.w3.org/1999/xlink" contentStyleType="text/css" data-diagram-type="DESCRIPTION" height="542px" preserveAspectRatio="none" style="width:693px;height:542px;background:#FFFFFF;" version="1.1" viewBox="0 0 693 542" width="693px" zoomAndPan="magnify"><title>Phase 3 &#8212; Extract Reader Service (Profiles)</title><defs/><g><g class="title" data-source-line="1"><text fill="#000000" font-family="sans-serif" font-size="14" font-weight="bold" lengthAdjust="spacing" textLength="291.8057" x="193.8948" y="25.1074">Phase 3 &#8212; Extract Reader Service (Profiles)</text></g><!--cluster Edge--><g class="cluster" data-entity="Edge" data-source-line="7" data-uid="ent0003" id="cluster_Edge"><rect fill="none" height="92" rx="2.5" ry="2.5" style="stroke:#181818;stroke-width:1;" width="134" x="158" y="164.9915"/><text fill="#000000" font-family="sans-serif" font-size="14" font-weight="bold" lengthAdjust="spacing" textLength="34.2275" x="207.8862" y="182.0989">Edge</text></g><!--cluster Legacy--><g class="cluster" data-entity="Legacy" data-source-line="10" data-uid="ent0005" id="cluster_Legacy"><polygon fill="none" points="313,317.9915,323,307.9915,441,307.9915,441,515.4915,431,525.4915,313,525.4915,313,317.9915" style="stroke:#181818;stroke-width:1;"/><line style="stroke:#181818;stroke-width:1;" x1="431" x2="441" y1="317.9915" y2="307.9915"/><line style="stroke:#181818;stroke-width:1;" x1="313" x2="431" y1="317.9915" y2="317.9915"/><line style="stroke:#181818;stroke-width:1;" x1="431" x2="431" y1="317.9915" y2="525.4915"/><text fill="#000000" font-family="sans-serif" font-size="14" font-weight="bold" lengthAdjust="spacing" textLength="48.248" x="348.876" y="336.0989">Legacy</text></g><!--cluster Microservices--><g class="cluster" data-entity="Microservices" data-source-line="14" data-uid="ent0008" id="cluster_Microservices"><polygon fill="none" points="16,317.9915,26,307.9915,289,307.9915,289,515.4915,279,525.4915,16,525.4915,16,317.9915" style="stroke:#181818;stroke-width:1;"/><line style="stroke:#181818;stroke-width:1;" x1="279" x2="289" y1="317.9915" y2="307.9915"/><line style="stroke:#181818;stroke-width:1;" x1="16" x2="279" y1="317.9915" y2="317.9915"/><line style="stroke:#181818;stroke-width:1;" x1="279" x2="279" y1="317.9915" y2="525.4915"/><text fill="#000000" font-family="sans-serif" font-size="14" font-weight="bold" lengthAdjust="spacing" textLength="93.3926" x="101.8037" y="336.0989">Microservices</text></g><!--entity Gateway--><g class="entity" data-entity="Gateway" data-source-line="8" data-uid="ent0004" id="entity_Gateway"><rect fill="#F1F1F1" height="38.6211" rx="2.5" ry="2.5" style="stroke:#181818;stroke-width:0.5;" width="101.7031" x="174" y="201.9915"/><text fill="#000000" font-family="sans-serif" font-size="14" lengthAdjust="spacing" textLength="81.7031" x="184" y="227.0989">API Gateway</text></g><!--entity Monolith--><g class="entity" data-entity="Monolith" data-source-line="11" data-uid="ent0006" id="entity_Monolith"><rect fill="#F1F1F1" height="38.6211" rx="2.5" ry="2.5" style="stroke:#181818;stroke-width:0.5;" width="72.917" x="334.5" y="349.9915"/><text fill="#000000" font-family="sans-serif" font-size="14" lengthAdjust="spacing" textLength="52.917" x="344.5" y="375.0989">Monolith</text></g><!--entity MonoDB--><g class="entity" data-entity="MonoDB" data-source-line="12" data-uid="ent0007" id="entity_MonoDB"><path d="M329,471.4915 C329,461.4915 377.1274,461.4915 377.1274,461.4915 C377.1274,461.4915 425.2549,461.4915 425.2549,471.4915 L425.2549,499.1126 C425.2549,509.1126 377.1274,509.1126 377.1274,509.1126 C377.1274,509.1126 329,509.1126 329,499.1126 L329,471.4915" fill="#F1F1F1" style="stroke:#181818;stroke-width:0.5;"/><path d="M329,471.4915 C329,481.4915 377.1274,481.4915 377.1274,481.4915 C377.1274,481.4915 425.2549,481.4915 425.2549,471.4915" fill="none" style="stroke:#181818;stroke-width:0.5;"/><text fill="#000000" font-family="sans-serif" font-size="14" lengthAdjust="spacing" textLength="76.2549" x="339" y="500.5989">Monolith DB</text></g><!--entity Auth--><g class="entity" data-entity="Auth" data-source-line="15" data-uid="ent0009" id="entity_Auth"><rect fill="#F1F1F1" height="38.6211" rx="2.5" ry="2.5" style="stroke:#181818;stroke-width:0.5;" width="96.2549" x="177" y="349.9915"/><text fill="#000000" font-family="sans-serif" font-size="14" lengthAdjust="spacing" textLength="76.2549" x="187" y="375.0989">auth-service</text></g><!--entity AuthDB--><g class="entity" data-entity="AuthDB" data-source-line="16" data-uid="ent0010" id="entity_AuthDB"><path d="M189,471.4915 C189,461.4915 225.0688,461.4915 225.0688,461.4915 C225.0688,461.4915 261.1377,461.4915 261.1377,471.4915 L261.1377,499.1126 C261.1377,509.1126 225.0688,509.1126 225.0688,509.1126 C225.0688,509.1126 189,509.1126 189,499.1126 L189,471.4915" fill="#F1F1F1" style="stroke:#181818;stroke-width:0.5;"/><path d="M189,471.4915 C189,481.4915 225.0688,481.4915 225.0688,481.4915 C225.0688,481.4915 261.1377,481.4915 261.1377,471.4915" fill="none" style="stroke:#181818;stroke-width:0.5;"/><text fill="#000000" font-family="sans-serif" font-size="14" lengthAdjust="spacing" textLength="52.1377" x="199" y="500.5989">Auth DB</text></g><!--entity Reader--><g class="entity" data-entity="Reader" data-source-line="17" data-uid="ent0011" id="entity_Reader"><rect fill="#F1F1F1" height="38.6211" rx="2.5" ry="2.5" style="stroke:#181818;stroke-width:0.5;" width="109.4756" x="32.5" y="349.9915"/><text fill="#000000" font-family="sans-serif" font-size="14" lengthAdjust="spacing" textLength="89.4756" x="42.5" y="375.0989">reader-service</text></g><!--entity ReaderDB--><g class="entity" data-entity="ReaderDB" data-source-line="18" data-uid="ent0012" id="entity_ReaderDB"><path d="M42.5,471.4915 C42.5,461.4915 87.1274,461.4915 87.1274,461.4915 C87.1274,461.4915 131.7549,461.4915 131.7549,471.4915 L131.7549,499.1126 C131.7549,509.1126 87.1274,509.1126 87.1274,509.1126 C87.1274,509.1126 42.5,509.1126 42.5,499.1126 L42.5,471.4915" fill="#F1F1F1" style="stroke:#181818;stroke-width:0.5;"/><path d="M42.5,471.4915 C42.5,481.4915 87.1274,481.4915 87.1274,481.4915 C87.1274,481.4915 131.7549,481.4915 131.7549,471.4915" fill="none" style="stroke:#181818;stroke-width:0.5;"/><text fill="#000000" font-family="sans-serif" font-size="14" lengthAdjust="spacing" textLength="69.2549" x="52.5" y="500.5989">Reader DB</text></g><!--entity Clients--><g class="entity" data-entity="Clients" data-source-line="6" data-uid="ent0002" id="entity_Clients"><path d="M196.716,59.8465 C199.4074,52.5528 204.9079,49.7159 210.9535,56.4397 C212.4601,47.6632 218.9607,46.1685 225.436,51.2453 C231.7878,45.6211 237.5639,45.7573 240.3642,54.8482 C247.6365,48.5952 254.0089,51.4169 254.9028,60.7847 C262.3444,63.7584 263.9469,69.4465 258.0944,75.336 C264.9702,82.2843 262.8222,89.0461 254.1344,92.378 C251.2814,100.7839 245.0243,101.9781 239.2396,95.2665 C237.5115,102.7058 231.0922,105.2231 225.3846,99.4346 C218.8047,105.0739 214.0387,103.7864 211.457,95.4501 C205.5327,100.9735 201.035,99.7744 198.566,92.0801 C188.35,90.8902 185.2246,83.3591 192.022,75.4674 C185.543,67.627 188.6722,63.3228 196.716,59.8465" fill="#F1F1F1" style="stroke:#181818;stroke-width:0.5;"/><text fill="#000000" font-family="sans-serif" font-size="14" lengthAdjust="spacing" textLength="42.793" x="203.5" y="81.0989">Clients</text></g><g class="entity" data-entity="GMN20" data-source-line="31" data-uid="ent0021" id="entity_GMN20"><path d="M457.5,338.4915 L457.5,400.3645 L686.5952,400.3645 L686.5952,348.4915 L676.5952,338.4915 L457.5,338.4915" fill="#FEFFDD" style="stroke:#181818;stroke-width:0.5;"/><path d="M676.5952,338.4915 L676.5952,348.4915 L686.5952,348.4915 L676.5952,338.4915" fill="#FEFFDD" style="stroke:#181818;stroke-width:1;"/><text fill="#000000" font-family="sans-serif" font-size="13" lengthAdjust="spacing" textLength="208.0952" x="463.5" y="357.5198">Owns reader profiles &amp; preferences.</text><text fill="#000000" font-family="sans-serif" font-size="13" lengthAdjust="spacing" textLength="198.0024" x="463.5" y="374.8108">Monolith read paths are redirected</text><text fill="#000000" font-family="sans-serif" font-size="13" lengthAdjust="spacing" textLength="173.4116" x="463.5" y="392.1018">to reader-service via gateway.</text></g><!--link Clients to Gateway--><g class="link" data-entity-1="Clients" data-entity-2="Gateway" data-source-line="21" data-uid="lnk13" id="link_Clients_Gateway"><path d="M225,100.2715 C225,128.7115 225,169.7215 225,195.7315" fill="none" id="Clients-to-Gateway" style="stroke:#181818;stroke-width:1;"/><polygon fill="#181818" points="225,201.7315,229,192.7315,225,196.7315,221,192.7315,225,201.7315" style="stroke:#181818;stroke-width:1;"/><text fill="#000000" font-family="sans-serif" font-size="13" lengthAdjust="spacing" textLength="191.4517" x="226" y="145.0198">HTTPS (Authorization: Bearer ...)</text></g><!--link Gateway to Auth--><g class="link" data-entity-1="Gateway" data-entity-2="Auth" data-source-line="22" data-uid="lnk14" id="link_Gateway_Auth"><path d="M225,241.2815 C225,269.3115 225,315.7815 225,343.7715" fill="none" id="Gateway-to-Auth" style="stroke:#181818;stroke-width:1;"/><polygon fill="#181818" points="225,349.7715,229,340.7715,225,344.7715,221,340.7715,225,349.7715" style="stroke:#181818;stroke-width:1;"/><text fill="#000000" font-family="sans-serif" font-size="13" lengthAdjust="spacing" textLength="42.6436" x="226" y="288.0198">/auth/**</text></g><!--link Gateway to Reader--><g class="link" data-entity-1="Gateway" data-entity-2="Reader" data-source-line="23" data-uid="lnk15" id="link_Gateway_Reader"><path d="M194.21,241.0415 C181.02,249.8015 165.94,260.9715 154,272.9915 C130.45,296.7015 112.4642,324.3511 100.4942,344.6811" fill="none" id="Gateway-to-Reader" style="stroke:#181818;stroke-width:1;"/><polygon fill="#181818" points="97.45,349.8515,105.4633,344.1254,99.9869,345.5428,98.5694,340.0664,97.45,349.8515" style="stroke:#181818;stroke-width:1;"/><text fill="#000000" font-family="sans-serif" font-size="13" lengthAdjust="spacing" textLength="61.4199" x="155" y="288.0198">/readers/**</text></g><!--link Gateway to Monolith--><g class="link" data-entity-1="Gateway" data-entity-2="Monolith" data-source-line="24" data-uid="lnk16" id="link_Gateway_Monolith"><path d="M244.36,241.0915 C254.19,250.5915 266.29,262.3515 277,272.9915 C303.57,299.3915 329.7132,326.0537 348.5632,345.4037" fill="none" id="Gateway-to-Monolith" style="stroke:#181818;stroke-width:1;"/><polygon fill="#181818" points="352.75,349.7015,349.3351,340.4636,349.261,346.12,343.6047,346.0459,352.75,349.7015" style="stroke:#181818;stroke-width:1;"/><text fill="#000000" font-family="sans-serif" font-size="13" lengthAdjust="spacing" textLength="196.5552" x="296" y="288.0198">/books, /authors, /lending, /reports</text></g><!--link Auth to AuthDB--><g class="link" data-entity-1="Auth" data-entity-2="AuthDB" data-source-line="26" data-uid="lnk17" id="link_Auth_AuthDB"><path d="M225,389.0615 C225,408.7415 225,433.8815 225,455.1915" fill="none" id="Auth-to-AuthDB" style="stroke:#181818;stroke-width:1;"/><polygon fill="#181818" points="225,461.1915,229,452.1915,225,456.1915,221,452.1915,225,461.1915" style="stroke:#181818;stroke-width:1;"/></g><!--link Reader to ReaderDB--><g class="link" data-entity-1="Reader" data-entity-2="ReaderDB" data-source-line="27" data-uid="lnk18" id="link_Reader_ReaderDB"><path d="M87,389.0615 C87,408.7415 87,433.8815 87,455.1915" fill="none" id="Reader-to-ReaderDB" style="stroke:#181818;stroke-width:1;"/><polygon fill="#181818" points="87,461.1915,91,452.1915,87,456.1915,83,452.1915,87,461.1915" style="stroke:#181818;stroke-width:1;"/></g><!--link Monolith to MonoDB--><g class="link" data-entity-1="Monolith" data-entity-2="MonoDB" data-source-line="28" data-uid="lnk19" id="link_Monolith_MonoDB"><path d="M371.98,389.0615 C373.01,408.7415 374.3351,433.8897 375.4551,455.1997" fill="none" id="Monolith-to-MonoDB" style="stroke:#181818;stroke-width:1;"/><polygon fill="#181818" points="375.77,461.1915,379.2921,451.9939,375.5076,456.1984,371.3031,452.4138,375.77,461.1915" style="stroke:#181818;stroke-width:1;"/></g><!--link Reader to GMN20--><g class="link" data-entity-1="Reader" data-entity-2="GMN20" data-source-line="31" data-uid="lnk22" id="link_Reader_GMN20"><path d="M100.25,349.8015 C115.85,328.5715 143.94,296.0015 177.5,282.4915 C228.21,262.0715 370.74,268.1715 423.5,282.4915 C463.58,293.3715 503.92,318.0815 532.42,338.4015" fill="none" id="Reader-GMN20" style="stroke:#181818;stroke-width:1;stroke-dasharray:7.0,7.0;"/></g><!--SRC=[NLB1Jjmm4BtxAvvoG83OSEXj3qWi8AXKr1NBhUfXDfvDB88TsLwsMrIf7y4NzaiwJfp0SXlFlFTcvesZYIrZsL1WVC6_ls-u-HKzLH4FJ9ezLknVJCKuNdgtCIs74wN2ax4TUNf6vPuxPzd6LToBZkSgagrR_W093MctCxR6Xjh0IbMjsseKLwqHNYX00JbM4n_5ZQwvmAi2Vbmkl-AM8kze_pEXSwp-AEkqGBznJTK-W- -TTQs9JOyS7rBG56cTjYp69AuNnGYwNangzwRoBWnRXonAszZCSguNljn-4as9KJ358YWyttjum1niFU1cfpDxUFK3gUmBPhEBSMlCSVVuk5pXEBLntlocQ9oTOy7aHQKionCrOXEldsoEyxJ3-UdfGIrtbkemQVWCcBmIoDgvft0s23cVefQjbiEU9Nhdl1nGzTt6jh94xl3UJ7AJwDX1Sc9-bFzZwYR2RTvT-hwp0SDmwF8Fn964l67FLavK2cfIJ4Xq59i0SKEUsgG_nLf0qU7m7dWnX7hOjbIo2z8GwZy0]--></g></svg>