<svg xmlns="http://www.w3.org/2000/svg" xmlns:xlink="http://www.w3.org/1999/xlink" contentStyleType="text/css" data-diagram-type="DESCRIPTION" height="641px" preserveAspectRatio="none" style="width:893px;height:641px;background:#FFFFFF;" version="1.1" viewBox="0 0 893 641" width="893px" zoomAndPan="magnify"><title>Phase 4 &#8212; Extract Author &amp; Book Services</title><defs/><g><g class="title" data-source-line="1"><text fill="#000000" font-family="sans-serif" font-size="14" font-weight="bold" lengthAdjust="spacing" textLength="286.3232" x="296.4946" y="25.1074">Phase 4 &#8212; Extract Author &amp; Book Services</text></g><!--cluster Edge--><g class="cluster" data-entity="Edge" data-source-line="7" data-uid="ent0003" id="cluster_Edge"><rect fill="none" height="92" rx="2.5" ry="2.5" style="stroke:#181818;stroke-width:1;" width="134" x="303" y="146.9915"/><text fill="#000000" font-family="sans-serif" font-size="14" font-weight="bold" lengthAdjust="spacing" textLength="34.2275" x="352.8862" y="164.0989">Edge</text></g><!--cluster Legacy--><g class="cluster" data-entity="Legacy" data-source-line="10" data-uid="ent0005" id="cluster_Legacy"><polygon fill="none" points="16,299.9915,26,289.9915,144,289.9915,144,503.9915,134,513.9915,16,513.9915,16,299.9915" style="stroke:#181818;stroke-width:1;"/><line style="stroke:#181818;stroke-width:1;" x1="134" x2="144" y1="299.9915" y2="289.9915"/><line style="stroke:#181818;stroke-width:1;" x1="16" x2="134" y1="299.9915" y2="299.9915"/><line style="stroke:#181818;stroke-width:1;" x1="134" x2="134" y1="299.9915" y2="513.9915"/><text fill="#000000" font-family="sans-serif" font-size="14" font-weight="bold" lengthAdjust="spacing" textLength="48.248" x="51.876" y="318.0989">Legacy</text></g><!--cluster Microservices--><g class="cluster" data-entity="Microservices" data-source-line="14" data-uid="ent0008" id="cluster_Microservices"><polygon fill="none" points="168,299.9915,178,289.9915,651,289.9915,651,614.9915,641,624.9915,168,624.9915,168,299.9915" style="stroke:#181818;stroke-width:1;"/><line style="stroke:#181818;stroke-width:1;" x1="641" x2="651" y1="299.9915" y2="289.9915"/><line style="stroke:#181818;stroke-width:1;" x1="168" x2="641" y1="299.9915" y2="299.9915"/><line style="stroke:#181818;stroke-width:1;" x1="641" x2="641" y1="299.9915" y2="624.9915"/><text fill="#000000" font-family="sans-serif" font-size="14" font-weight="bold" lengthAdjust="spacing" textLength="93.3926" x="358.8037" y="318.0989">Microservices</text></g><!--entity Gateway--><g class="entity" data-entity="Gateway" data-source-line="8" data-uid="ent0004" id="entity_Gateway"><rect fill="#F1F1F1" height="38.6211" rx="2.5" ry="2.5" style="stroke:#181818;stroke-width:0.5;" width="101.7031" x="319" y="183.9915"/><text fill="#000000" font-family="sans-serif" font-size="14" lengthAdjust="spacing" textLength="81.7031" x="329" y="209.0989">API Gateway</text></g><!--entity Monolith--><g class="entity" data-entity="Monolith" data-source-line="11" data-uid="ent0006" id="entity_Monolith"><rect fill="#F1F1F1" height="38.6211" rx="2.5" ry="2.5" style="stroke:#181818;stroke-width:0.5;" width="72.917" x="49.5" y="331.9915"/><text fill="#000000" font-family="sans-serif" font-size="14" lengthAdjust="spacing" textLength="52.917" x="59.5" y="357.0989">Monolith</text></g><!--entity MonoDB--><g class="entity" data-entity="MonoDB" data-source-line="12" data-uid="ent0007" id="entity_MonoDB"><path d="M32,459.9915 C32,449.9915 80.1274,449.9915 80.1274,449.9915 C80.1274,449.9915 128.2549,449.9915 128.2549,459.9915 L128.2549,487.6126 C128.2549,497.6126 80.1274,497.6126 80.1274,497.6126 C80.1274,497.6126 32,497.6126 32,487.6126 L32,459.9915" fill="#F1F1F1" style="stroke:#181818;stroke-width:0.5;"/><path d="M32,459.9915 C32,469.9915 80.1274,469.9915 80.1274,469.9915 C80.1274,469.9915 128.2549,469.9915 128.2549,459.9915" fill="none" style="stroke:#181818;stroke-width:0.5;"/><text fill="#000000" font-family="sans-serif" font-size="14" lengthAdjust="spacing" textLength="76.2549" x="42" y="489.0989">Monolith DB</text></g><!--entity Auth--><g class="entity" data-entity="Auth" data-source-line="15" data-uid="ent0009" id="entity_Auth"><rect fill="#F1F1F1" height="38.6211" rx="2.5" ry="2.5" style="stroke:#181818;stroke-width:0.5;" width="96.2549" x="184" y="331.9915"/><text fill="#000000" font-family="sans-serif" font-size="14" lengthAdjust="spacing" textLength="76.2549" x="194" y="357.0989">auth-service</text></g><!--entity AuthDB--><g class="entity" data-entity="AuthDB" data-source-line="16" data-uid="ent0010" id="entity_AuthDB"><path d="M184,459.9915 C184,449.9915 220.0688,449.9915 220.0688,449.9915 C220.0688,449.9915 256.1377,449.9915 256.1377,459.9915 L256.1377,487.6126 C256.1377,497.6126 220.0688,497.6126 220.0688,497.6126 C220.0688,497.6126 184,497.6126 184,487.6126 L184,459.9915" fill="#F1F1F1" style="stroke:#181818;stroke-width:0.5;"/><path d="M184,459.9915 C184,469.9915 220.0688,469.9915 220.0688,469.9915 C220.0688,469.9915 256.1377,469.9915 256.1377,459.9915" fill="none" style="stroke:#181818;stroke-width:0.5;"/><text fill="#000000" font-family="sans-serif" font-size="14" lengthAdjust="spacing" textLength="52.1377" x="194" y="489.0989">Auth DB</text></g><!--entity Reader--><g class="entity" data-entity="Reader" data-source-line="17" data-uid="ent0011" id="entity_Reader"><rect fill="#F1F1F1" height="38.6211" rx="2.5" ry="2.5" style="stroke:#181818;stroke-width:0.5;" width="109.4756" x="459.5" y="331.9915"/><text fill="#000000" font-family="sans-serif" font-size="14" lengthAdjust="spacing" textLength="89.4756" x="469.5" y="357.0989">reader-service</text></g><!--entity ReaderDB--><g class="entity" data-entity="ReaderDB" data-source-line="18" data-uid="ent0012" id="entity_ReaderDB"><path d="M411.5,459.9915 C411.5,449.9915 456.1274,449.9915 456.1274,449.9915 C456.1274,449.9915 500.7549,449.9915 500.7549,459.9915 L500.7549,487.6126 C500.7549,497.6126 456.1274,497.6126 456.1274,497.6126 C456.1274,497.6126 411.5,497.6126 411.5,487.6126 L411.5,459.9915" fill="#F1F1F1" style="stroke:#181818;stroke-width:0.5;"/><path d="M411.5,459.9915 C411.5,469.9915 456.1274,469.9915 456.1274,469.9915 C456.1274,469.9915 500.7549,469.9915 500.7549,459.9915" fill="none" style="stroke:#181818;stroke-width:0.5;"/><text fill="#000000" font-family="sans-serif" font-size="14" lengthAdjust="spacing" textLength="69.2549" x="421.5" y="489.0989">Reader DB</text></g><!--entity Author--><g class="entity" data-entity="Author" data-source-line="19" data-uid="ent0013" id="entity_Author"><rect fill="#F1F1F1" height="38.6211" rx="2.5" ry="2.5" style="stroke:#181818;stroke-width:0.5;" width="108.7031" x="315.5" y="331.9915"/><text fill="#000000" font-family="sans-serif" font-size="14" lengthAdjust="spacing" textLength="88.7031" x="325.5" y="357.0989">author-service</text></g><!--entity AuthorDB--><g class="entity" data-entity="AuthorDB" data-source-line="20" data-uid="ent0014" id="entity_AuthorDB"><path d="M291.5,459.9915 C291.5,449.9915 333.793,449.9915 333.793,449.9915 C333.793,449.9915 376.0859,449.9915 376.0859,459.9915 L376.0859,487.6126 C376.0859,497.6126 333.793,497.6126 333.793,497.6126 C333.793,497.6126 291.5,497.6126 291.5,487.6126 L291.5,459.9915" fill="#F1F1F1" style="stroke:#181818;stroke-width:0.5;"/><path d="M291.5,459.9915 C291.5,469.9915 333.793,469.9915 333.793,469.9915 C333.793,469.9915 376.0859,469.9915 376.0859,459.9915" fill="none" style="stroke:#181818;stroke-width:0.5;"/><text fill="#000000" font-family="sans-serif" font-size="14" lengthAdjust="spacing" textLength="64.5859" x="301.5" y="489.0989">Author DB</text></g><!--entity Book--><g class="entity" data-entity="Book" data-source-line="21" data-uid="ent0015" id="entity_Book"><rect fill="#F1F1F1" height="38.6211" rx="2.5" ry="2.5" style="stroke:#181818;stroke-width:0.5;" width="99.3652" x="535.5" y="454.4915"/><text fill="#000000" font-family="sans-serif" font-size="14" lengthAdjust="spacing" textLength="79.3652" x="545.5" y="479.5989">book-service</text></g><!--entity BookDB--><g class="entity" data-entity="BookDB" data-source-line="22" data-uid="ent0016" id="entity_BookDB"><path d="M547.5,570.9915 C547.5,560.9915 585.124,560.9915 585.124,560.9915 C585.124,560.9915 622.748,560.9915 622.748,570.9915 L622.748,598.6126 C622.748,608.6126 585.124,608.6126 585.124,608.6126 C585.124,608.6126 547.5,608.6126 547.5,598.6126 L547.5,570.9915" fill="#F1F1F1" style="stroke:#181818;stroke-width:0.5;"/><path d="M547.5,570.9915 C547.5,580.9915 585.124,580.9915 585.124,580.9915 C585.124,580.9915 622.748,580.9915 622.748,570.9915" fill="none" style="stroke:#181818;stroke-width:0.5;"/><text fill="#000000" font-family="sans-serif" font-size="14" lengthAdjust="spacing" textLength="55.248" x="557.5" y="600.0989">Book DB</text></g><!--entity Clients--><g class="entity" data-entity="Clients" data-source-line="6" data-uid="ent0002" id="entity_Clients"><path d="M341.716,59.8465 C344.4074,52.5528 349.9079,49.7159 355.9535,56.4397 C357.4601,47.6632 363.9607,46.1685 370.436,51.2453 C376.7878,45.6211 382.5639,45.7573 385.3642,54.8482 C392.6365,48.5952 399.0089,51.4169 399.9028,60.7847 C407.3444,63.7584 408.9469,69.4465 403.0944,75.336 C409.9702,82.2843 407.8222,89.0461 399.1344,92.378 C396.2814,100.7839 390.0243,101.9781 384.2396,95.2665 C382.5115,102.7058 376.0922,105.2231 370.3846,99.4346 C363.8047,105.0739 359.0387,103.7864 356.457,95.4501 C350.5327,100.9735 346.035,99.7744 343.566,92.0801 C333.35,90.8902 330.2246,83.3591 337.022,75.4674 C330.543,67.627 333.6722,63.3228 341.716,59.8465" fill="#F1F1F1" style="stroke:#181818;stroke-width:0.5;"/><text fill="#000000" font-family="sans-serif" font-size="14" lengthAdjust="spacing" textLength="42.793" x="348.5" y="81.0989">Clients</text></g><g class="entity" data-entity="GMN30" data-source-line="42" data-uid="ent0031" id="entity_GMN30"><path d="M669.5,451.4915 L669.5,469.9915 L634.76,473.9915 L669.5,477.9915 L669.5,496.0735 A0,0 0 0 0 669.5,496.0735 L886.3125,496.0735 A0,0 0 0 0 886.3125,496.0735 L886.3125,461.4915 L876.3125,451.4915 L669.5,451.4915 A0,0 0 0 0 669.5,451.4915" fill="#FEFFDD" style="stroke:#181818;stroke-width:0.5;"/><path d="M876.3125,451.4915 L876.3125,461.4915 L886.3125,461.4915 L876.3125,451.4915" fill="#FEFFDD" style="stroke:#181818;stroke-width:0.5;"/><text fill="#000000" font-family="sans-serif" font-size="13" lengthAdjust="spacing" textLength="195.8125" x="675.5" y="470.5198">Owns catalog, availability, search.</text><text fill="#000000" font-family="sans-serif" font-size="13" lengthAdjust="spacing" textLength="187.8779" x="675.5" y="487.8108">Integrates read-only with Author.</text></g><!--link Clients to Gateway--><g class="link" data-entity-1="Clients" data-entity-2="Gateway" data-source-line="25" data-uid="lnk17" id="link_Clients_Gateway"><path d="M370,100.1915 C370,124.4315 370,155.5915 370,177.8215" fill="none" id="Clients-to-Gateway" style="stroke:#181818;stroke-width:1;"/><polygon fill="#181818" points="370,183.8215,374,174.8215,370,178.8215,366,174.8215,370,183.8215" style="stroke:#181818;stroke-width:1;"/></g><!--link Gateway to Auth--><g class="link" data-entity-1="Gateway" data-entity-2="Auth" data-source-line="26" data-uid="lnk18" id="link_Gateway_Auth"><path d="M349.94,223.3715 C340.15,232.7315 328.3,244.2915 318,254.9915 C292.93,281.0315 269.0954,307.8311 252.0754,327.3311" fill="none" id="Gateway-to-Auth" style="stroke:#181818;stroke-width:1;"/><polygon fill="#181818" points="248.13,331.8515,257.0617,327.7013,251.4179,328.0845,251.0346,322.4407,248.13,331.8515" style="stroke:#181818;stroke-width:1;"/><text fill="#000000" font-family="sans-serif" font-size="13" lengthAdjust="spacing" textLength="42.6436" x="319" y="270.0198">/auth/**</text></g><!--link Gateway to Reader--><g class="link" data-entity-1="Gateway" data-entity-2="Reader" data-source-line="27" data-uid="lnk19" id="link_Gateway_Reader"><path d="M399.73,223.1415 C412.76,232.0015 427.82,243.2215 440,254.9915 C464.89,279.0415 485.0814,306.7828 498.6814,327.0028" fill="none" id="Gateway-to-Reader" style="stroke:#181818;stroke-width:1;"/><polygon fill="#181818" points="502.03,331.9815,500.3261,322.2811,499.2395,327.8326,493.688,326.746,502.03,331.9815" style="stroke:#181818;stroke-width:1;"/><text fill="#000000" font-family="sans-serif" font-size="13" lengthAdjust="spacing" textLength="61.4199" x="456" y="270.0198">/readers/**</text></g><!--link Gateway to Author--><g class="link" data-entity-1="Gateway" data-entity-2="Author" data-source-line="28" data-uid="lnk20" id="link_Gateway_Author"><path d="M370,223.2815 C370,251.3115 370,297.7815 370,325.7715" fill="none" id="Gateway-to-Author" style="stroke:#181818;stroke-width:1;"/><polygon fill="#181818" points="370,331.7715,374,322.7715,370,326.7715,366,322.7715,370,331.7715" style="stroke:#181818;stroke-width:1;"/><text fill="#000000" font-family="sans-serif" font-size="13" lengthAdjust="spacing" textLength="60.7026" x="371" y="270.0198">/authors/**</text></g><!--link Gateway to Book--><g class="link" data-entity-1="Gateway" data-entity-2="Book" data-source-line="29" data-uid="lnk21" id="link_Gateway_Book"><path d="M421.4,210.0515 C470.07,217.9715 542.05,236.9215 586,281.9915 C631.55,328.6915 660.38,359.4815 636,419.9915 C630.61,433.3715 624.5013,441.2594 614.3713,450.3694" fill="none" id="Gateway-to-Book" style="stroke:#181818;stroke-width:1;"/><polygon fill="#181818" points="609.91,454.3815,619.2767,451.3375,613.6277,451.0381,613.9272,445.3891,609.91,454.3815" style="stroke:#181818;stroke-width:1;"/><text fill="#000000" font-family="sans-serif" font-size="13" lengthAdjust="spacing" textLength="52.0317" x="645" y="357.0198">/books/**</text></g><!--link Gateway to Monolith--><g class="link" data-entity-1="Gateway" data-entity-2="Monolith" data-source-line="30" data-uid="lnk22" id="link_Gateway_Monolith"><path d="M318.7,213.1215 C282.54,220.6415 233.85,233.7615 195,254.9915 C157.69,275.3815 126.2122,306.065 106.3522,327.555" fill="none" id="Gateway-to-Monolith" style="stroke:#181818;stroke-width:1;"/><polygon fill="#181818" points="102.28,331.9615,111.326,328.0666,105.6735,328.2894,105.4507,322.6369,102.28,331.9615" style="stroke:#181818;stroke-width:1;"/><text fill="#000000" font-family="sans-serif" font-size="13" lengthAdjust="spacing" textLength="96.8335" x="196" y="270.0198">/lending, /reports</text></g><!--link Author to AuthorDB--><g class="link" data-entity-1="Author" data-entity-2="AuthorDB" data-source-line="32" data-uid="lnk23" id="link_Author_AuthorDB"><path d="M315.41,364.3415 C295.76,371.5215 275.59,382.9415 264,400.9915 C251.66,420.2115 265.2126,435.3988 286.3326,448.7888" fill="none" id="Author-to-AuthorDB" style="stroke:#181818;stroke-width:1;"/><polygon fill="#181818" points="291.4,452.0015,285.9407,443.8041,287.1772,449.3242,281.6571,450.5607,291.4,452.0015" style="stroke:#181818;stroke-width:1;"/></g><!--link Book to BookDB--><g class="link" data-entity-1="Book" data-entity-2="BookDB" data-source-line="33" data-uid="lnk24" id="link_Book_BookDB"><path d="M585,493.9815 C585,512.5215 585,534.7815 585,554.6715" fill="none" id="Book-to-BookDB" style="stroke:#181818;stroke-width:1;"/><polygon fill="#181818" points="585,560.6715,589,551.6715,585,555.6715,581,551.6715,585,560.6715" style="stroke:#181818;stroke-width:1;"/></g><!--link Reader to ReaderDB--><g class="link" data-entity-1="Reader" data-entity-2="ReaderDB" data-source-line="34" data-uid="lnk25" id="link_Reader_ReaderDB"><path d="M459.47,364.0115 C439.46,371.1715 418.82,382.6515 407,400.9915 C396.35,417.5115 404.7423,431.7506 419.9223,445.7706" fill="none" id="Reader-to-ReaderDB" style="stroke:#181818;stroke-width:1;"/><polygon fill="#181818" points="424.33,449.8415,420.4324,440.7967,420.6569,446.4491,415.0045,446.6736,424.33,449.8415" style="stroke:#181818;stroke-width:1;"/></g><!--link Auth to AuthDB--><g class="link" data-entity-1="Auth" data-entity-2="AuthDB" data-source-line="35" data-uid="lnk26" id="link_Auth_AuthDB"><path d="M230.15,371.0515 C228.05,392.1815 225.2062,420.7512 222.9162,443.6812" fill="none" id="Auth-to-AuthDB" style="stroke:#181818;stroke-width:1;"/><polygon fill="#181818" points="222.32,449.6515,227.1946,441.0935,222.8169,444.6762,219.2342,440.2985,222.32,449.6515" style="stroke:#181818;stroke-width:1;"/></g><!--link Monolith to MonoDB--><g class="link" data-entity-1="Monolith" data-entity-2="MonoDB" data-source-line="36" data-uid="lnk27" id="link_Monolith_MonoDB"><path d="M85.08,371.0515 C84.02,392.1815 82.5979,420.7289 81.4579,443.6589" fill="none" id="Monolith-to-MonoDB" style="stroke:#181818;stroke-width:1;"/><polygon fill="#181818" points="81.16,449.6515,85.602,440.8612,81.4083,444.6576,77.6118,440.4639,81.16,449.6515" style="stroke:#181818;stroke-width:1;"/></g><!--link Reader to Book--><g class="link" data-entity-1="Reader" data-entity-2="Book" data-source-line="38" data-uid="lnk28" id="link_Reader_Book"><path d="M470.25,371.0015 C447.39,383.4315 426.7,400.9615 440,419.9915 C441.48,422.1115 488.3324,438.9835 529.7324,453.6035" fill="none" id="Reader-to-Book" style="stroke:#181818;stroke-width:1;stroke-dasharray:7.0,7.0;"/><polygon fill="#181818" points="535.39,455.6015,528.2356,448.8329,530.6753,453.9365,525.5717,456.3763,535.39,455.6015" style="stroke:#181818;stroke-width:1;"/><text fill="#000000" font-family="sans-serif" font-size="13" lengthAdjust="spacing" textLength="190.7661" x="441" y="416.0198">queries for holdings (read model)</text></g><!--link Author to Book--><g class="link" data-entity-1="Author" data-entity-2="Book" data-source-line="39" data-uid="lnk29" id="link_Author_Book"><path d="M347.18,371.1315 C332.47,385.3815 318.27,405.0515 331,419.9915 C358.3,452.0215 477.17,439.7915 518,449.9915 C523.61,451.3915 523.6784,451.2771 529.4284,453.0571" fill="none" id="Author-to-Book" style="stroke:#181818;stroke-width:1;stroke-dasharray:7.0,7.0;"/><polygon fill="#181818" points="535.16,454.8315,527.7454,448.3489,530.3836,453.3529,525.3796,455.9911,535.16,454.8315" style="stroke:#181818;stroke-width:1;"/><text fill="#000000" font-family="sans-serif" font-size="13" lengthAdjust="spacing" textLength="94.6753" x="332" y="416.0198">author metadata</text></g><!--SRC=[PLFDRjim3BxhAGWVXgresijEEmnerc8ei6B5UYnwO2J65gg8cQGqCuO1UuWzuPvab2mxzNooHFBx8Iadcnp1VOUHu3ty_Vq7RdwaW3h1rI5r7E0Dh9cVuO72YzKKbOhFrkynu0uqx_RioQU7r0j989tGjuvUbSGE3H-jRs6BBf9Isl71GFF9MS751Z12FQi93ysDQQc1dmhWyUh-5ZvZeYFsJxcwdjKlvTb8wHTgKVUr-8uzEvkwKZbU964muIQts8n1k5utOz7rUcAxipfmhBrMKfH1h6gi4EV9p4XpO2JCPo4KN20q56R8RoKqmmwX4JtS1ZoM1IoKEIoqERnMvuhVoDvcwBp86RPijYBpkGn2rNt0QlLncdRzbbZfzWDSPd-NPsUpNEr6iaFtyV-2QhV2ULbGF4awkryaf-r9WIDlv66TPwaz1tb0gfAVTAIXmZSIoxqwF9cLMEbeHCbzaXar9JO17mt6ZipJoUlt0mLB4RQYtR7BhYAypGE0dRmgzsuojiGEKu0T9SnxKV8Ea_nAjkqIy7PSsTUZZw0bxrWQnXUq3ZTMBFRd40c3xYwawjOdQeECAq8MNx5tFHnp7uF-XPAHGHPG_m00]--></g></svg>