<svg xmlns="http://www.w3.org/2000/svg" xmlns:xlink="http://www.w3.org/1999/xlink" contentStyleType="text/css" data-diagram-type="DESCRIPTION" height="577px" preserveAspectRatio="none" style="width:285px;height:577px;background:#FFFFFF;" version="1.1" viewBox="0 0 285 577" width="285px" zoomAndPan="magnify"><title>Phase 0 &#8212; Monolith (Before Migration)</title><defs/><g><g class="title" data-source-line="1"><text fill="#000000" font-family="sans-serif" font-size="14" font-weight="bold" lengthAdjust="spacing" textLength="257.4551" x="10" y="25.1074">Phase 0 &#8212; Monolith (Before Migration)</text></g><!--cluster DC--><g class="cluster" data-entity="DC" data-source-line="7" data-uid="ent0003" id="cluster_DC"><polygon fill="none" points="38.7866,174.9915,48.7866,164.9915,240.7866,164.9915,240.7866,378.9915,230.7866,388.9915,38.7866,388.9915,38.7866,174.9915" style="stroke:#181818;stroke-width:1;"/><line style="stroke:#181818;stroke-width:1;" x1="230.7866" x2="240.7866" y1="174.9915" y2="164.9915"/><line style="stroke:#181818;stroke-width:1;" x1="38.7866" x2="230.7866" y1="174.9915" y2="174.9915"/><line style="stroke:#181818;stroke-width:1;" x1="230.7866" x2="230.7866" y1="174.9915" y2="388.9915"/><text fill="#000000" font-family="sans-serif" font-size="14" font-weight="bold" lengthAdjust="spacing" textLength="83.2344" x="94.1694" y="193.0989">On-Prem DC</text></g><!--entity Monolith--><g class="entity" data-entity="Monolith" data-source-line="8" data-uid="ent0004" id="entity_Monolith"><rect fill="#F1F1F1" height="38.6211" rx="2.5" ry="2.5" style="stroke:#181818;stroke-width:0.5;" width="170.165" x="54.7866" y="206.9915"/><text fill="#000000" font-family="sans-serif" font-size="14" lengthAdjust="spacing" textLength="150.165" x="64.7866" y="232.0989">Monolith Library System</text></g><!--entity MonoDB--><g class="entity" data-entity="MonoDB" data-source-line="9" data-uid="ent0005" id="entity_MonoDB"><path d="M70.7866,334.9915 C70.7866,324.9915 118.9141,324.9915 118.9141,324.9915 C118.9141,324.9915 167.0415,324.9915 167.0415,334.9915 L167.0415,362.6126 C167.0415,372.6126 118.9141,372.6126 118.9141,372.6126 C118.9141,372.6126 70.7866,372.6126 70.7866,362.6126 L70.7866,334.9915" fill="#F1F1F1" style="stroke:#181818;stroke-width:0.5;"/><path d="M70.7866,334.9915 C70.7866,344.9915 118.9141,344.9915 118.9141,344.9915 C118.9141,344.9915 167.0415,344.9915 167.0415,334.9915" fill="none" style="stroke:#181818;stroke-width:0.5;"/><text fill="#000000" font-family="sans-serif" font-size="14" lengthAdjust="spacing" textLength="76.2549" x="80.7866" y="364.0989">Monolith DB</text></g><!--entity Clients--><g class="entity" data-entity="Clients" data-source-line="6" data-uid="ent0002" id="entity_Clients"><path d="M111.5026,59.8465 C114.194,52.5528 119.6945,49.7159 125.7401,56.4397 C127.2467,47.6632 133.7473,46.1685 140.2226,51.2453 C146.5744,45.6211 152.3505,45.7573 155.1508,54.8482 C162.4231,48.5952 168.7955,51.4169 169.6894,60.7847 C177.131,63.7584 178.7335,69.4465 172.881,75.336 C179.7568,82.2843 177.6088,89.0461 168.921,92.378 C166.068,100.7839 159.811,101.9781 154.0263,95.2665 C152.2981,102.7058 145.8788,105.2231 140.1712,99.4346 C133.5913,105.0739 128.8253,103.7864 126.2436,95.4501 C120.3193,100.9735 115.8216,99.7744 113.3526,92.0801 C103.1367,90.8902 100.0112,83.3591 106.8087,75.4674 C100.3296,67.627 103.4588,63.3228 111.5026,59.8465" fill="#F1F1F1" style="stroke:#181818;stroke-width:0.5;"/><text fill="#000000" font-family="sans-serif" font-size="14" lengthAdjust="spacing" textLength="42.793" x="118.2866" y="81.0989">Clients</text></g><!--link Clients to Monolith--><g class="link" data-entity-1="Clients" data-entity-2="Monolith" data-source-line="12" data-uid="lnk6" id="link_Clients_Monolith"><path d="M139.7866,100.1015 C139.7866,129.6415 139.7866,173.6315 139.7866,200.7115" fill="none" id="Clients-to-Monolith" style="stroke:#181818;stroke-width:1;"/><polygon fill="#181818" points="139.7866,206.7115,143.7866,197.7115,139.7866,201.7115,135.7866,197.7115,139.7866,206.7115" style="stroke:#181818;stroke-width:1;"/><text fill="#000000" font-family="sans-serif" font-size="13" lengthAdjust="spacing" textLength="119.8818" x="140.7866" y="145.0198">HTTP (REST/HTML)</text></g><!--link Monolith to MonoDB--><g class="link" data-entity-1="Monolith" data-entity-2="MonoDB" data-source-line="13" data-uid="lnk7" id="link_Monolith_MonoDB"><path d="M136.5466,246.0515 C132.8666,267.1815 127.8752,295.8103 123.8852,318.7403" fill="none" id="Monolith-to-MonoDB" style="stroke:#181818;stroke-width:1;"/><polygon fill="#181818" points="122.8566,324.6515,128.3403,316.4704,123.7138,319.7255,120.4587,315.099,122.8566,324.6515" style="stroke:#181818;stroke-width:1;"/><text fill="#000000" font-family="sans-serif" font-size="13" lengthAdjust="spacing" textLength="104.0381" x="132.7866" y="291.0198">SQL (all domains)</text></g><g class="legend" data-source-line="15"><rect fill="#DDDDDD" height="140.3477" rx="7.5" ry="7.5" style="stroke:#000000;stroke-width:1;" width="170.2959" x="72.3726" y="416.9915"/><line style="stroke:#000000;stroke-width:1;" x1="72.3726" x2="77.3726" y1="431.302" y2="431.302"/><line style="stroke:#000000;stroke-width:1;" x1="72.3726" x2="77.3726" y1="433.302" y2="433.302"/><text fill="#000000" font-family="sans-serif" font-size="14" lengthAdjust="spacing" textLength="152.5166" x="81.2622" y="436.5989">Domains inside Monolith</text><line style="stroke:#000000;stroke-width:1;" x1="237.6685" x2="242.6685" y1="431.302" y2="431.302"/><line style="stroke:#000000;stroke-width:1;" x1="237.6685" x2="242.6685" y1="433.302" y2="433.302"/><ellipse cx="82.8726" cy="451.7337" fill="#000000" rx="2.5" ry="2.5"/><text fill="#000000" font-family="sans-serif" font-size="14" lengthAdjust="spacing" textLength="102.7236" x="89.3726" y="455.72">Auth &amp; Sessions</text><ellipse cx="82.8726" cy="470.3547" fill="#000000" rx="2.5" ry="2.5"/><text fill="#000000" font-family="sans-serif" font-size="14" lengthAdjust="spacing" textLength="111.2617" x="89.3726" y="474.3411">Readers (profiles)</text><ellipse cx="82.8726" cy="488.9758" fill="#000000" rx="2.5" ry="2.5"/><text fill="#000000" font-family="sans-serif" font-size="14" lengthAdjust="spacing" textLength="48.248" x="89.3726" y="492.9622">Authors</text><ellipse cx="82.8726" cy="507.5969" fill="#000000" rx="2.5" ry="2.5"/><text fill="#000000" font-family="sans-serif" font-size="14" lengthAdjust="spacing" textLength="104.2822" x="89.3726" y="511.5833">Books &amp; Catalog</text><ellipse cx="82.8726" cy="526.218" fill="#000000" rx="2.5" ry="2.5"/><text fill="#000000" font-family="sans-serif" font-size="14" lengthAdjust="spacing" textLength="49.8271" x="89.3726" y="530.2044">Lending</text><ellipse cx="82.8726" cy="544.8391" fill="#000000" rx="2.5" ry="2.5"/><text fill="#000000" font-family="sans-serif" font-size="14" lengthAdjust="spacing" textLength="120.6133" x="89.3726" y="548.8254">Reporting/Analytics</text></g><!--SRC=[JP3DIiD04CVl-nH33f8AfPw524qYz91YRN8J3sCoJPPkTiBk5WaY-10-eK_Yz2FLmyBi_7_pdu-WWo7OTEW9xk3dwnlMRDdeq46SqeuTmLgt3eDcErFAxxKTq64FDVS3MxAX3ACuEAe3sjRGFyHtsF2xjYtiq7XIgZPyQ23AZ9Ow7m5wkCJASaCGFTdvnb4FUNOIymm-5C3BTQH2lpbq8vIZ3zI_7fb94wx1W6_7HQ9hGPv64vIdwbEfIp-Opn_-Dhs7LLLj8Du-bjLYLQsBcRfg4vYdWfNF1SHe33JSexPUBcAe9Tk0qsqNP8OaWVoiWJmjIrsTaaJqMrWU9Bw1ahoNc_fJRalOaFCG3uvtsf0OJoYxCv8oxxtKPRAauVQKAwIpdFTYCR0BybiiBPenwDehaS_ZgLy0]--></g></svg>