<svg xmlns="http://www.w3.org/2000/svg" xmlns:xlink="http://www.w3.org/1999/xlink" contentStyleType="text/css" data-diagram-type="DESCRIPTION" height="586px" preserveAspectRatio="none" style="width:1145px;height:586px;background:#FFFFFF;" version="1.1" viewBox="0 0 1145 586" width="1145px" zoomAndPan="magnify"><title>Phase 6 &#8212; Extract Reporting Service &amp; Decommission Monolith</title><defs/><g><g class="title" data-source-line="1"><text fill="#000000" font-family="sans-serif" font-size="14" font-weight="bold" lengthAdjust="spacing" textLength="425.5508" x="352.7246" y="25.1074">Phase 6 &#8212; Extract Reporting Service &amp; Decommission Monolith</text></g><!--cluster Edge--><g class="cluster" data-entity="Edge" data-source-line="23" data-uid="ent0003" id="cluster_Edge"><rect fill="none" height="92" rx="2.5" ry="2.5" style="stroke:#181818;stroke-width:1;" width="134" x="616" y="202.6211"/><text fill="#000000" font-family="sans-serif" font-size="14" font-weight="bold" lengthAdjust="spacing" textLength="34.2275" x="665.8862" y="219.7285">Edge</text></g><!--cluster Microservices--><g class="cluster" data-entity="Microservices" data-source-line="26" data-uid="ent0005" id="cluster_Microservices"><polygon fill="none" points="268,355.6211,278,345.6211,1128,345.6211,1128,559.6211,1118,569.6211,268,569.6211,268,355.6211" style="stroke:#181818;stroke-width:1;"/><line style="stroke:#181818;stroke-width:1;" x1="1118" x2="1128" y1="355.6211" y2="345.6211"/><line style="stroke:#181818;stroke-width:1;" x1="268" x2="1118" y1="355.6211" y2="355.6211"/><line style="stroke:#181818;stroke-width:1;" x1="1118" x2="1118" y1="355.6211" y2="569.6211"/><text fill="#000000" font-family="sans-serif" font-size="14" font-weight="bold" lengthAdjust="spacing" textLength="93.3926" x="647.3037" y="373.7285">Microservices</text></g><!--cluster Legacy--><g class="cluster" data-entity="Legacy" data-source-line="43" data-uid="ent0019" id="cluster_Legacy"><polygon fill="none" points="16,55.6211,26,45.6211,370,45.6211,370,159.6211,360,169.6211,16,169.6211,16,55.6211" style="stroke:#181818;stroke-width:1;"/><line style="stroke:#181818;stroke-width:1;" x1="360" x2="370" y1="55.6211" y2="45.6211"/><line style="stroke:#181818;stroke-width:1;" x1="16" x2="360" y1="55.6211" y2="55.6211"/><line style="stroke:#181818;stroke-width:1;" x1="360" x2="360" y1="55.6211" y2="169.6211"/><text fill="#000000" font-family="sans-serif" font-size="14" font-weight="bold" lengthAdjust="spacing" textLength="48.248" x="164.876" y="73.7285">Legacy</text></g><!--entity Gateway--><g class="entity" data-entity="Gateway" data-source-line="24" data-uid="ent0004" id="entity_Gateway"><rect fill="#F1F1F1" height="38.6211" rx="2.5" ry="2.5" style="stroke:#181818;stroke-width:0.5;" width="101.7031" x="632" y="239.6211"/><text fill="#000000" font-family="sans-serif" font-size="14" lengthAdjust="spacing" textLength="81.7031" x="642" y="264.7285">API Gateway</text></g><!--entity Auth--><g class="entity" data-entity="Auth" data-source-line="27" data-uid="ent0006" id="entity_Auth"><rect fill="#F1F1F1" height="38.6211" rx="2.5" ry="2.5" style="stroke:#181818;stroke-width:0.5;" width="96.2549" x="284" y="387.6211"/><text fill="#000000" font-family="sans-serif" font-size="14" lengthAdjust="spacing" textLength="76.2549" x="294" y="412.7285">auth-service</text></g><!--entity Reader--><g class="entity" data-entity="Reader" data-source-line="28" data-uid="ent0007" id="entity_Reader"><rect fill="#F1F1F1" height="38.6211" rx="2.5" ry="2.5" style="stroke:#181818;stroke-width:0.5;" width="109.4756" x="559.5" y="387.6211"/><text fill="#000000" font-family="sans-serif" font-size="14" lengthAdjust="spacing" textLength="89.4756" x="569.5" y="412.7285">reader-service</text></g><!--entity Author--><g class="entity" data-entity="Author" data-source-line="29" data-uid="ent0008" id="entity_Author"><rect fill="#F1F1F1" height="38.6211" rx="2.5" ry="2.5" style="stroke:#181818;stroke-width:0.5;" width="108.7031" x="415.5" y="387.6211"/><text fill="#000000" font-family="sans-serif" font-size="14" lengthAdjust="spacing" textLength="88.7031" x="425.5" y="412.7285">author-service</text></g><!--entity Book--><g class="entity" data-entity="Book" data-source-line="30" data-uid="ent0009" id="entity_Book"><rect fill="#F1F1F1" height="38.6211" rx="2.5" ry="2.5" style="stroke:#181818;stroke-width:0.5;" width="99.3652" x="703.5" y="387.6211"/><text fill="#000000" font-family="sans-serif" font-size="14" lengthAdjust="spacing" textLength="79.3652" x="713.5" y="412.7285">book-service</text></g><!--entity Lending--><g class="entity" data-entity="Lending" data-source-line="31" data-uid="ent0010" id="entity_Lending"><rect fill="#F1F1F1" height="38.6211" rx="2.5" ry="2.5" style="stroke:#181818;stroke-width:0.5;" width="114.1582" x="839" y="387.6211"/><text fill="#000000" font-family="sans-serif" font-size="14" lengthAdjust="spacing" textLength="94.1582" x="849" y="412.7285">lending-service</text></g><!--entity Reporting--><g class="entity" data-entity="Reporting" data-source-line="32" data-uid="ent0011" id="entity_Reporting"><rect fill="#F1F1F1" height="38.6211" rx="2.5" ry="2.5" style="stroke:#181818;stroke-width:0.5;" width="124.2617" x="988" y="387.6211"/><text fill="#000000" font-family="sans-serif" font-size="14" lengthAdjust="spacing" textLength="104.2617" x="998" y="412.7285">reporting-service</text></g><!--entity Bus--><g class="entity" data-entity="Bus" data-source-line="33" data-uid="ent0012" id="entity_Bus"><path d="M751,515.1211 L824.8135,515.1211 C829.8135,515.1211 829.8135,529.4316 829.8135,529.4316 C829.8135,529.4316 829.8135,543.7422 824.8135,543.7422 L751,543.7422 C746,543.7422 746,529.4316 746,529.4316 C746,529.4316 746,515.1211 751,515.1211" fill="#F1F1F1" style="stroke:#181818;stroke-width:0.5;"/><path d="M824.8135,515.1211 C819.8135,515.1211 819.8135,529.4316 819.8135,529.4316 C819.8135,543.7422 824.8135,543.7422 824.8135,543.7422" fill="none" style="stroke:#181818;stroke-width:0.5;"/><text fill="#000000" font-family="sans-serif" font-size="14" lengthAdjust="spacing" textLength="63.8135" x="751" y="535.2285">Event Bus</text></g><!--entity AuthDB--><g class="entity" data-entity="AuthDB" data-source-line="34" data-uid="ent0013" id="entity_AuthDB"><path d="M284,515.6211 C284,505.6211 320.0688,505.6211 320.0688,505.6211 C320.0688,505.6211 356.1377,505.6211 356.1377,515.6211 L356.1377,543.2422 C356.1377,553.2422 320.0688,553.2422 320.0688,553.2422 C320.0688,553.2422 284,553.2422 284,543.2422 L284,515.6211" fill="#F1F1F1" style="stroke:#181818;stroke-width:0.5;"/><path d="M284,515.6211 C284,525.6211 320.0688,525.6211 320.0688,525.6211 C320.0688,525.6211 356.1377,525.6211 356.1377,515.6211" fill="none" style="stroke:#181818;stroke-width:0.5;"/><text fill="#000000" font-family="sans-serif" font-size="14" lengthAdjust="spacing" textLength="52.1377" x="294" y="544.7285">Auth DB</text></g><!--entity ReaderDB--><g class="entity" data-entity="ReaderDB" data-source-line="35" data-uid="ent0014" id="entity_ReaderDB"><path d="M511.5,515.6211 C511.5,505.6211 556.1274,505.6211 556.1274,505.6211 C556.1274,505.6211 600.7549,505.6211 600.7549,515.6211 L600.7549,543.2422 C600.7549,553.2422 556.1274,553.2422 556.1274,553.2422 C556.1274,553.2422 511.5,553.2422 511.5,543.2422 L511.5,515.6211" fill="#F1F1F1" style="stroke:#181818;stroke-width:0.5;"/><path d="M511.5,515.6211 C511.5,525.6211 556.1274,525.6211 556.1274,525.6211 C556.1274,525.6211 600.7549,525.6211 600.7549,515.6211" fill="none" style="stroke:#181818;stroke-width:0.5;"/><text fill="#000000" font-family="sans-serif" font-size="14" lengthAdjust="spacing" textLength="69.2549" x="521.5" y="544.7285">Reader DB</text></g><!--entity AuthorDB--><g class="entity" data-entity="AuthorDB" data-source-line="36" data-uid="ent0015" id="entity_AuthorDB"><path d="M391.5,515.6211 C391.5,505.6211 433.793,505.6211 433.793,505.6211 C433.793,505.6211 476.0859,505.6211 476.0859,515.6211 L476.0859,543.2422 C476.0859,553.2422 433.793,553.2422 433.793,553.2422 C433.793,553.2422 391.5,553.2422 391.5,543.2422 L391.5,515.6211" fill="#F1F1F1" style="stroke:#181818;stroke-width:0.5;"/><path d="M391.5,515.6211 C391.5,525.6211 433.793,525.6211 433.793,525.6211 C433.793,525.6211 476.0859,525.6211 476.0859,515.6211" fill="none" style="stroke:#181818;stroke-width:0.5;"/><text fill="#000000" font-family="sans-serif" font-size="14" lengthAdjust="spacing" textLength="64.5859" x="401.5" y="544.7285">Author DB</text></g><!--entity BookDB--><g class="entity" data-entity="BookDB" data-source-line="37" data-uid="ent0016" id="entity_BookDB"><path d="M635.5,515.6211 C635.5,505.6211 673.124,505.6211 673.124,505.6211 C673.124,505.6211 710.748,505.6211 710.748,515.6211 L710.748,543.2422 C710.748,553.2422 673.124,553.2422 673.124,553.2422 C673.124,553.2422 635.5,553.2422 635.5,543.2422 L635.5,515.6211" fill="#F1F1F1" style="stroke:#181818;stroke-width:0.5;"/><path d="M635.5,515.6211 C635.5,525.6211 673.124,525.6211 673.124,525.6211 C673.124,525.6211 710.748,525.6211 710.748,515.6211" fill="none" style="stroke:#181818;stroke-width:0.5;"/><text fill="#000000" font-family="sans-serif" font-size="14" lengthAdjust="spacing" textLength="55.248" x="645.5" y="544.7285">Book DB</text></g><!--entity LendingDB--><g class="entity" data-entity="LendingDB" data-source-line="38" data-uid="ent0017" id="entity_LendingDB"><path d="M865.5,515.6211 C865.5,505.6211 912.0825,505.6211 912.0825,505.6211 C912.0825,505.6211 958.665,505.6211 958.665,515.6211 L958.665,543.2422 C958.665,553.2422 912.0825,553.2422 912.0825,553.2422 C912.0825,553.2422 865.5,553.2422 865.5,543.2422 L865.5,515.6211" fill="#F1F1F1" style="stroke:#181818;stroke-width:0.5;"/><path d="M865.5,515.6211 C865.5,525.6211 912.0825,525.6211 912.0825,525.6211 C912.0825,525.6211 958.665,525.6211 958.665,515.6211" fill="none" style="stroke:#181818;stroke-width:0.5;"/><text fill="#000000" font-family="sans-serif" font-size="14" lengthAdjust="spacing" textLength="73.165" x="875.5" y="544.7285">Lending DB</text></g><!--entity ReportDB--><g class="entity" data-entity="ReportDB" data-source-line="39" data-uid="ent0018" id="entity_ReportDB"><path d="M994,515.6211 C994,505.6211 1053.0273,505.6211 1053.0273,505.6211 C1053.0273,505.6211 1112.0547,505.6211 1112.0547,515.6211 L1112.0547,543.2422 C1112.0547,553.2422 1053.0273,553.2422 1053.0273,553.2422 C1053.0273,553.2422 994,553.2422 994,543.2422 L994,515.6211" fill="#F1F1F1" style="stroke:#181818;stroke-width:0.5;"/><path d="M994,515.6211 C994,525.6211 1053.0273,525.6211 1053.0273,525.6211 C1053.0273,525.6211 1112.0547,525.6211 1112.0547,515.6211" fill="none" style="stroke:#181818;stroke-width:0.5;"/><text fill="#000000" font-family="sans-serif" font-size="14" lengthAdjust="spacing" textLength="98.0547" x="1004" y="544.7285">Reporting Store</text></g><!--entity Monolith--><g class="entity" data-entity="Monolith" data-source-line="44" data-uid="ent0020" id="entity_Monolith"><rect fill="#F9F2F2" height="57.2422" rx="2.5" ry="2.5" style="stroke:#D9534F;stroke-width:0.5;" width="142.6201" x="210.5" y="92.1211"/><text fill="#D9534F" font-family="sans-serif" font-size="14" font-style="italic" lengthAdjust="spacing" textLength="120.6201" x="221.5" y="117.2285">&#171;decommissioned&#187;</text><text fill="#D9534F" font-family="sans-serif" font-size="14" lengthAdjust="spacing" textLength="52.917" x="255.3516" y="135.8496">Monolith</text></g><!--entity MonoDB--><g class="entity" data-entity="MonoDB" data-source-line="45" data-uid="ent0021" id="entity_MonoDB"><path d="M32.5,97.6211 C32.5,87.6211 103.8101,87.6211 103.8101,87.6211 C103.8101,87.6211 175.1201,87.6211 175.1201,97.6211 L175.1201,143.8633 C175.1201,153.8633 103.8101,153.8633 103.8101,153.8633 C103.8101,153.8633 32.5,153.8633 32.5,143.8633 L32.5,97.6211" fill="#F9F2F2" style="stroke:#D9534F;stroke-width:0.5;"/><path d="M32.5,97.6211 C32.5,107.6211 103.8101,107.6211 103.8101,107.6211 C103.8101,107.6211 175.1201,107.6211 175.1201,97.6211" fill="none" style="stroke:#D9534F;stroke-width:0.5;"/><text fill="#D9534F" font-family="sans-serif" font-size="14" font-style="italic" lengthAdjust="spacing" textLength="120.6201" x="43.5" y="126.7285">&#171;decommissioned&#187;</text><text fill="#D9534F" font-family="sans-serif" font-size="14" lengthAdjust="spacing" textLength="76.2549" x="65.6826" y="145.3496">Monolith DB</text></g><!--entity Clients--><g class="entity" data-entity="Clients" data-source-line="22" data-uid="ent0002" id="entity_Clients"><path d="M654.716,104.9761 C657.4074,97.6824 662.9079,94.8456 668.9535,101.5693 C670.4601,92.7928 676.9607,91.2981 683.436,96.375 C689.7878,90.7507 695.5639,90.8869 698.3642,99.9779 C705.6365,93.7248 712.0089,96.5465 712.9028,105.9144 C720.3444,108.888 721.9469,114.5762 716.0944,120.4656 C722.9702,127.4139 720.8222,134.1757 712.1344,137.5077 C709.2814,145.9135 703.0243,147.1078 697.2396,140.3961 C695.5115,147.8355 689.0922,150.3528 683.3846,144.5642 C676.8047,150.2035 672.0387,148.916 669.457,140.5797 C663.5327,146.1032 659.035,144.904 656.566,137.2097 C646.35,136.0198 643.2246,128.4888 650.022,120.597 C643.543,112.7567 646.6722,108.4525 654.716,104.9761" fill="#F1F1F1" style="stroke:#181818;stroke-width:0.5;"/><text fill="#000000" font-family="sans-serif" font-size="14" lengthAdjust="spacing" textLength="42.793" x="661.5" y="126.2285">Clients</text></g><g class="entity" data-entity="GMN39" data-source-line="69" data-uid="ent0040" id="entity_GMN39"><path d="M389,89.6211 L389,116.6211 L353.53,120.6211 L389,124.6211 L389,151.4941 A0,0 0 0 0 389,151.4941 L610.8335,151.4941 A0,0 0 0 0 610.8335,151.4941 L610.8335,99.6211 L600.8335,89.6211 L389,89.6211 A0,0 0 0 0 389,89.6211" fill="#FFFBE6" style="stroke:#F0AD4E;stroke-width:0.5;"/><path d="M600.8335,89.6211 L600.8335,99.6211 L610.8335,99.6211 L600.8335,89.6211" fill="#FFFBE6" style="stroke:#F0AD4E;stroke-width:0.5;"/><text fill="#000000" font-family="sans-serif" font-size="13" lengthAdjust="spacing" textLength="179.918" x="395" y="108.6494">Decommissioned in this phase.</text><text fill="#000000" font-family="sans-serif" font-size="13" lengthAdjust="spacing" textLength="200.8335" x="395" y="125.9404">All traffic is routed to microservices</text><text fill="#000000" font-family="sans-serif" font-size="13" lengthAdjust="spacing" textLength="121.3926" x="395" y="143.2314">via the API Gateway.</text></g><!--link Clients to Gateway--><g class="link" data-entity-1="Clients" data-entity-2="Gateway" data-source-line="48" data-uid="lnk22" id="link_Clients_Gateway"><path d="M683,145.4011 C683,172.1311 683,208.9911 683,233.4411" fill="none" id="Clients-to-Gateway" style="stroke:#181818;stroke-width:1;"/><polygon fill="#181818" points="683,239.4411,687,230.4411,683,234.4411,679,230.4411,683,239.4411" style="stroke:#181818;stroke-width:1;"/></g><!--link Gateway to Auth--><g class="link" data-entity-1="Gateway" data-entity-2="Auth" data-source-line="49" data-uid="lnk23" id="link_Gateway_Auth"><path d="M631.97,265.2511 C572.14,273.1511 471.8,292.4511 398,337.6211 C376.73,350.6411 361.2948,367.4115 349.1748,382.8515" fill="none" id="Gateway-to-Auth" style="stroke:#181818;stroke-width:1;"/><polygon fill="#181818" points="345.47,387.5711,354.1736,382.9615,348.5573,383.6381,347.8807,378.0218,345.47,387.5711" style="stroke:#181818;stroke-width:1;"/><text fill="#000000" font-family="sans-serif" font-size="13" lengthAdjust="spacing" textLength="42.6436" x="449" y="325.6494">/auth/**</text></g><!--link Gateway to Reader--><g class="link" data-entity-1="Gateway" data-entity-2="Reader" data-source-line="50" data-uid="lnk24" id="link_Gateway_Reader"><path d="M662.15,279.0511 C653.54,287.8811 644.16,299.0011 638,310.6211 C624.88,335.4011 619.5331,361.6764 616.8031,381.6364" fill="none" id="Gateway-to-Reader" style="stroke:#181818;stroke-width:1;"/><polygon fill="#181818" points="615.99,387.5811,621.1727,379.2062,616.6676,382.6272,613.2465,378.1221,615.99,387.5811" style="stroke:#181818;stroke-width:1;"/><text fill="#000000" font-family="sans-serif" font-size="13" lengthAdjust="spacing" textLength="61.4199" x="639" y="325.6494">/readers/**</text></g><!--link Gateway to Author--><g class="link" data-entity-1="Gateway" data-entity-2="Author" data-source-line="51" data-uid="lnk25" id="link_Gateway_Author"><path d="M631.93,275.8611 C609.1,284.2111 582.55,295.8411 561,310.6211 C529.46,332.2511 504.0306,361.5704 487.6006,382.6304" fill="none" id="Gateway-to-Author" style="stroke:#181818;stroke-width:1;"/><polygon fill="#181818" points="483.91,387.3611,492.5997,382.7255,486.9855,383.4189,486.2922,377.8047,483.91,387.3611" style="stroke:#181818;stroke-width:1;"/><text fill="#000000" font-family="sans-serif" font-size="13" lengthAdjust="spacing" textLength="60.7026" x="562" y="325.6494">/authors/**</text></g><!--link Gateway to Book--><g class="link" data-entity-1="Gateway" data-entity-2="Book" data-source-line="52" data-uid="lnk26" id="link_Gateway_Book"><path d="M692.01,278.9111 C705.45,306.9411 728.016,354.0008 741.436,381.9908" fill="none" id="Gateway-to-Book" style="stroke:#181818;stroke-width:1;"/><polygon fill="#181818" points="744.03,387.4011,743.7459,377.5563,741.8683,382.8925,736.5321,381.015,744.03,387.4011" style="stroke:#181818;stroke-width:1;"/><text fill="#000000" font-family="sans-serif" font-size="13" lengthAdjust="spacing" textLength="52.0317" x="717" y="325.6494">/books/**</text></g><!--link Gateway to Lending--><g class="link" data-entity-1="Gateway" data-entity-2="Lending" data-source-line="53" data-uid="lnk27" id="link_Gateway_Lending"><path d="M722.26,278.6711 C750.66,292.9411 789.27,314.1411 820,337.6211 C840.47,353.2611 857.797,369.0108 872.737,383.3208" fill="none" id="Gateway-to-Lending" style="stroke:#181818;stroke-width:1;"/><polygon fill="#181818" points="877.07,387.4711,873.3373,378.357,873.4592,384.0125,867.8036,384.1343,877.07,387.4711" style="stroke:#181818;stroke-width:1;"/><text fill="#000000" font-family="sans-serif" font-size="13" lengthAdjust="spacing" textLength="65.7681" x="808" y="325.6494">/lendings/**</text></g><!--link Gateway to Reporting--><g class="link" data-entity-1="Gateway" data-entity-2="Reporting" data-source-line="54" data-uid="lnk28" id="link_Gateway_Reporting"><path d="M734.17,266.3111 C794.02,275.2211 894.62,295.4511 971,337.6211 C994.84,350.7811 1013.668,367.7484 1028.648,383.0884" fill="none" id="Gateway-to-Reporting" style="stroke:#181818;stroke-width:1;"/><polygon fill="#181818" points="1032.84,387.3811,1029.4139,378.1474,1029.3467,383.8038,1023.6902,383.7367,1032.84,387.3811" style="stroke:#181818;stroke-width:1;"/><text fill="#000000" font-family="sans-serif" font-size="13" lengthAdjust="spacing" textLength="57.8018" x="950" y="325.6494">/reports/**</text></g><!--link Auth to AuthDB--><g class="link" data-entity-1="Auth" data-entity-2="AuthDB" data-source-line="56" data-uid="lnk29" id="link_Auth_AuthDB"><path d="M330.15,426.6811 C328.05,447.8111 325.2062,476.3808 322.9162,499.3108" fill="none" id="Auth-to-AuthDB" style="stroke:#181818;stroke-width:1;"/><polygon fill="#181818" points="322.32,505.2811,327.1946,496.7231,322.8169,500.3058,319.2342,495.9281,322.32,505.2811" style="stroke:#181818;stroke-width:1;"/></g><!--link Reader to ReaderDB--><g class="link" data-entity-1="Reader" data-entity-2="ReaderDB" data-source-line="57" data-uid="lnk30" id="link_Reader_ReaderDB"><path d="M586.1,426.7511 C576.44,434.7411 566.64,444.9411 561,456.6211 C553.7,471.7411 552.4066,484.7673 553.0766,499.4573" fill="none" id="Reader-to-ReaderDB" style="stroke:#181818;stroke-width:1;"/><polygon fill="#181818" points="553.35,505.4511,556.9358,496.2782,553.1222,500.4563,548.9441,496.6427,553.35,505.4511" style="stroke:#181818;stroke-width:1;"/></g><!--link Author to AuthorDB--><g class="link" data-entity-1="Author" data-entity-2="AuthorDB" data-source-line="58" data-uid="lnk31" id="link_Author_AuthorDB"><path d="M464.45,426.6811 C458.14,447.8111 449.5374,476.6021 442.6874,499.5321" fill="none" id="Author-to-AuthorDB" style="stroke:#181818;stroke-width:1;"/><polygon fill="#181818" points="440.97,505.2811,447.3788,497.8026,442.4012,500.4903,439.7135,495.5127,440.97,505.2811" style="stroke:#181818;stroke-width:1;"/></g><!--link Book to BookDB--><g class="link" data-entity-1="Book" data-entity-2="BookDB" data-source-line="59" data-uid="lnk32" id="link_Book_BookDB"><path d="M703.27,421.9711 C697.45,423.5611 691.6,425.1411 686,426.6211 C633.69,440.4911 601.22,413.9011 568,456.6211 C562.82,463.2911 563.57,468.4311 568,475.6211 C571.99,482.1011 601.4407,496.5019 629.9307,509.4919" fill="none" id="Book-to-BookDB" style="stroke:#181818;stroke-width:1;"/><polygon fill="#181818" points="635.39,511.9811,628.8605,504.6078,630.8406,509.9068,625.5416,511.8869,635.39,511.9811" style="stroke:#181818;stroke-width:1;"/></g><!--link Lending to LendingDB--><g class="link" data-entity-1="Lending" data-entity-2="LendingDB" data-source-line="60" data-uid="lnk33" id="link_Lending_LendingDB"><path d="M953.39,424.1411 C990.78,435.1611 1033.62,449.1111 1039,456.6211 C1043.92,463.4811 1043.68,468.5911 1039,475.6211 C1034.13,482.9311 998.6077,497.2404 964.4477,509.8704" fill="none" id="Lending-to-LendingDB" style="stroke:#181818;stroke-width:1;"/><polygon fill="#181818" points="958.82,511.9511,968.6486,512.5818,963.5097,510.2172,965.8743,505.0782,958.82,511.9511" style="stroke:#181818;stroke-width:1;"/></g><!--link Reporting to ReportDB--><g class="link" data-entity-1="Reporting" data-entity-2="ReportDB" data-source-line="61" data-uid="lnk34" id="link_Reporting_ReportDB"><path d="M1050.46,426.6811 C1050.99,447.8111 1051.7009,476.3529 1052.2709,499.2829" fill="none" id="Reporting-to-ReportDB" style="stroke:#181818;stroke-width:1;"/><polygon fill="#181818" points="1052.42,505.2811,1056.1951,496.1845,1052.2957,500.2826,1048.1976,496.3833,1052.42,505.2811" style="stroke:#181818;stroke-width:1;"/></g><!--link Lending to Bus--><g class="link" data-entity-1="Lending" data-entity-2="Bus" data-source-line="63" data-uid="lnk35" id="link_Lending_Bus"><path d="M907.26,426.6911 C914.4,441.0811 920.63,460.9811 911,475.6211 C908.35,479.6511 862.9836,498.4947 827.4936,512.8247" fill="none" id="Lending-to-Bus" style="stroke:#008000;stroke-width:2;"/><polygon fill="#008000" points="821.93,515.0711,831.773,515.4105,826.5663,513.1991,828.7778,507.9924,821.93,515.0711" style="stroke:#008000;stroke-width:2;"/></g><!--link Book to Bus--><g class="link" data-entity-1="Book" data-entity-2="Bus" data-source-line="64" data-uid="lnk36" id="link_Book_Bus"><path d="M758.39,426.6811 C765.49,451.1111 776.1156,487.7095 782.3956,509.3195" fill="none" id="Book-to-Bus" style="stroke:#008000;stroke-width:2;"/><polygon fill="#008000" points="784.07,515.0811,785.3995,505.3224,782.6747,510.2797,777.7174,507.5549,784.07,515.0811" style="stroke:#008000;stroke-width:2;"/><text fill="#000000" font-family="sans-serif" font-size="13" lengthAdjust="spacing" textLength="128.6416" x="774" y="471.6494">BookCreated/Updated</text></g><!--link Reader to Bus--><g class="link" data-entity-1="Reader" data-entity-2="Bus" data-source-line="65" data-uid="lnk37" id="link_Reader_Bus"><path d="M609.35,426.7911 C606.84,441.6311 606.14,462.0711 617,475.6211 C648.96,515.5011 679.41,489.7911 728,505.6211 C736.7,508.4511 740.3761,509.6873 748.9761,512.9773" fill="none" id="Reader-to-Bus" style="stroke:#008000;stroke-width:2;"/><polygon fill="#008000" points="754.58,515.1211,747.6033,508.1694,749.9101,513.3346,744.7449,515.6413,754.58,515.1211" style="stroke:#008000;stroke-width:2;"/><text fill="#000000" font-family="sans-serif" font-size="13" lengthAdjust="spacing" textLength="141.6479" x="618" y="471.6494">ReaderCreated/Updated</text></g><!--link Reporting to Bus--><g class="link" data-entity-1="Reporting" data-entity-2="Bus" data-source-line="66" data-uid="lnk38" id="link_Reporting_Bus"><path d="M1017.08,426.7511 C991.51,440.9011 954.98,460.4511 922,475.6211 C903.99,483.9011 862.5109,500.0994 829.2709,512.8694" fill="none" id="Reporting-to-Bus" style="stroke:#008000;stroke-width:2;"/><polygon fill="#008000" points="823.67,515.0211,833.5058,515.5274,828.3374,513.228,830.6369,508.0596,823.67,515.0211" style="stroke:#008000;stroke-width:2;"/><text fill="#000000" font-family="sans-serif" font-size="13" lengthAdjust="spacing" textLength="72.2554" x="958" y="471.6494">subscribe all</text></g><!--SRC=[lLNHQjim57ttLrnSsA0ixUYwGaS9D4qtnbeeBNigUP2jQqT4aJ99JbT6OH-nBzoNx4gM73j9N_Ta-vnpxptIlPATS1BXRiuimXdy_Vq7hdywmqe7zxZInWbLmmEQjIWHti0KIxrS2ck5Ld2hbPR2pRFCBeHQCSEMGFHAArJkmJrJNeEbOwgMs9FOEUFwoUUjcBIOPM-X5LVQ0EyLGBv9P_VLkBWOoiTZ-9K1J5Yvg8rk5B_Iad8ULEVLINNY6MquceZoyuyVJYj2FslbXjXBhnfdZXMqE_-bcD8ENqbRLGMURQUjtZD-YfGYAwLkEEHNKlZToe5PYEzPrmJ8htcDUIZmU7dt5RumXq_iUURLyProASr9UYjAestRUHjZMEFceuY5e4i2F66GaQa1TH-W5ANDJfmEPA7rOa1D2F24HCLfI0RSJOkr5UDqRXMDA4b-DDZu9Qzf4s3Ij7j2Jw9IJo7tHc0woPEfwMH0juj8WlPhIz8kfPz3RqlyafB0ls_HSLL94Jztd7IdqMc3-MQr97pnX-WRuWeargnyXhMmeg265us39JCBEah3wOrDlWdosDrqdcUmPzQfN7VU-xuI6Do_7jUQZ1C9ez6ucxVu35ZenYSuzXDpV7Wuu68hY6s7pMuBOYDYkDuLX3OGxKTkXqnD83vEdjrra5eGJFYFeCc2xMI1LXgjRbmJ5jrjZ18M32Ldz9qyzFo4RAdinWJ16_NZGMqGrRj2IpxpsMZ6szHx6FBkkIlQH8Vy-FkA-sTdUNz4o-x6TCRsXzcciAKH1GAJCil2vMP4FNUWg_uqJOUNlb3WviB2ol-KZeY_b1BedrHLeWJ2wLgayk0qBFjt50dNWb4eGkzkEyfecyAzclq3]--></g></svg>