<svg xmlns="http://www.w3.org/2000/svg" xmlns:xlink="http://www.w3.org/1999/xlink" contentStyleType="text/css" data-diagram-type="DESCRIPTION" height="540px" preserveAspectRatio="none" style="width:408px;height:540px;background:#FFFFFF;" version="1.1" viewBox="0 0 408 540" width="408px" zoomAndPan="magnify"><title>Phase 1 &#8212; Introduce API Gateway as Strangler Fa&#231;ade</title><defs/><g><g class="title" data-source-line="1"><text fill="#000000" font-family="sans-serif" font-size="14" font-weight="bold" lengthAdjust="spacing" textLength="364.1367" x="15.1333" y="25.1074">Phase 1 &#8212; Introduce API Gateway as Strangler Fa&#231;ade</text></g><!--cluster Edge--><g class="cluster" data-entity="Edge" data-source-line="7" data-uid="ent0003" id="cluster_Edge"><rect fill="none" height="92" rx="2.5" ry="2.5" style="stroke:#181818;stroke-width:1;" width="134" x="13" y="164.9915"/><text fill="#000000" font-family="sans-serif" font-size="14" font-weight="bold" lengthAdjust="spacing" textLength="34.2275" x="62.8862" y="182.0989">Edge</text></g><!--cluster Legacy--><g class="cluster" data-entity="Legacy" data-source-line="10" data-uid="ent0005" id="cluster_Legacy"><polygon fill="none" points="16,327.4915,26,317.4915,144,317.4915,144,513.4915,134,523.4915,16,523.4915,16,327.4915" style="stroke:#181818;stroke-width:1;"/><line style="stroke:#181818;stroke-width:1;" x1="134" x2="144" y1="327.4915" y2="317.4915"/><line style="stroke:#181818;stroke-width:1;" x1="16" x2="134" y1="327.4915" y2="327.4915"/><line style="stroke:#181818;stroke-width:1;" x1="134" x2="134" y1="327.4915" y2="523.4915"/><text fill="#000000" font-family="sans-serif" font-size="14" font-weight="bold" lengthAdjust="spacing" textLength="48.248" x="51.876" y="345.5989">Legacy</text></g><!--entity Gateway--><g class="entity" data-entity="Gateway" data-source-line="8" data-uid="ent0004" id="entity_Gateway"><rect fill="#F1F1F1" height="38.6211" rx="2.5" ry="2.5" style="stroke:#181818;stroke-width:0.5;" width="101.7031" x="29" y="201.9915"/><text fill="#000000" font-family="sans-serif" font-size="14" lengthAdjust="spacing" textLength="81.7031" x="39" y="227.0989">API Gateway</text></g><!--entity Monolith--><g class="entity" data-entity="Monolith" data-source-line="11" data-uid="ent0006" id="entity_Monolith"><rect fill="#F1F1F1" height="38.6211" rx="2.5" ry="2.5" style="stroke:#181818;stroke-width:0.5;" width="72.917" x="43.5" y="359.4915"/><text fill="#000000" font-family="sans-serif" font-size="14" lengthAdjust="spacing" textLength="52.917" x="53.5" y="384.5989">Monolith</text></g><!--entity MonoDB--><g class="entity" data-entity="MonoDB" data-source-line="12" data-uid="ent0007" id="entity_MonoDB"><path d="M32,469.4915 C32,459.4915 80.1274,459.4915 80.1274,459.4915 C80.1274,459.4915 128.2549,459.4915 128.2549,469.4915 L128.2549,497.1126 C128.2549,507.1126 80.1274,507.1126 80.1274,507.1126 C80.1274,507.1126 32,507.1126 32,497.1126 L32,469.4915" fill="#F1F1F1" style="stroke:#181818;stroke-width:0.5;"/><path d="M32,469.4915 C32,479.4915 80.1274,479.4915 80.1274,479.4915 C80.1274,479.4915 128.2549,479.4915 128.2549,469.4915" fill="none" style="stroke:#181818;stroke-width:0.5;"/><text fill="#000000" font-family="sans-serif" font-size="14" lengthAdjust="spacing" textLength="76.2549" x="42" y="498.5989">Monolith DB</text></g><!--entity Clients--><g class="entity" data-entity="Clients" data-source-line="6" data-uid="ent0002" id="entity_Clients"><path d="M51.716,59.8465 C54.4074,52.5528 59.9079,49.7159 65.9535,56.4397 C67.4601,47.6632 73.9607,46.1685 80.436,51.2453 C86.7878,45.6211 92.5639,45.7573 95.3642,54.8482 C102.6365,48.5952 109.0089,51.4169 109.9028,60.7847 C117.3444,63.7584 118.9469,69.4465 113.0944,75.336 C119.9702,82.2843 117.8222,89.0461 109.1344,92.378 C106.2814,100.7839 100.0243,101.9781 94.2396,95.2665 C92.5115,102.7058 86.0922,105.2231 80.3846,99.4346 C73.8047,105.0739 69.0387,103.7864 66.457,95.4501 C60.5327,100.9735 56.035,99.7744 53.566,92.0801 C43.35,90.8902 40.2246,83.3591 47.022,75.4674 C40.543,67.627 43.6722,63.3228 51.716,59.8465" fill="#F1F1F1" style="stroke:#181818;stroke-width:0.5;"/><text fill="#000000" font-family="sans-serif" font-size="14" lengthAdjust="spacing" textLength="42.793" x="58.5" y="81.0989">Clients</text></g><g class="entity" data-entity="GMN11" data-source-line="20" data-uid="ent0012" id="entity_GMN11"><path d="M166.5,190.4915 L166.5,217.4915 L131.4,221.4915 L166.5,225.4915 L166.5,252.3645 A0,0 0 0 0 166.5,252.3645 L401.4033,252.3645 A0,0 0 0 0 401.4033,252.3645 L401.4033,200.4915 L391.4033,190.4915 L166.5,190.4915 A0,0 0 0 0 166.5,190.4915" fill="#FEFFDD" style="stroke:#181818;stroke-width:0.5;"/><path d="M391.4033,190.4915 L391.4033,200.4915 L401.4033,200.4915 L391.4033,190.4915" fill="#FEFFDD" style="stroke:#181818;stroke-width:0.5;"/><text fill="#000000" font-family="sans-serif" font-size="13" lengthAdjust="spacing" textLength="163.3252" x="172.5" y="209.5198">Strangler fa&#231;ade introduced.</text><text fill="#000000" font-family="sans-serif" font-size="13" lengthAdjust="spacing" textLength="197.958" x="172.5" y="226.8108">All traffic still flows to the monolith,</text><text fill="#000000" font-family="sans-serif" font-size="13" lengthAdjust="spacing" textLength="213.9033" x="172.5" y="244.1018">but routing rules can carve out paths.</text></g><!--link Clients to Gateway--><g class="link" data-entity-1="Clients" data-entity-2="Gateway" data-source-line="15" data-uid="lnk8" id="link_Clients_Gateway"><path d="M80,100.2715 C80,128.7115 80,169.7215 80,195.7315" fill="none" id="Clients-to-Gateway" style="stroke:#181818;stroke-width:1;"/><polygon fill="#181818" points="80,201.7315,84,192.7315,80,196.7315,76,192.7315,80,201.7315" style="stroke:#181818;stroke-width:1;"/><text fill="#000000" font-family="sans-serif" font-size="13" lengthAdjust="spacing" textLength="42.6118" x="81" y="145.0198">HTTPS</text></g><!--link Gateway to Monolith--><g class="link" data-entity-1="Gateway" data-entity-2="Monolith" data-source-line="16" data-uid="lnk9" id="link_Gateway_Monolith"><path d="M80,241.2515 C80,271.1315 80,323.2415 80,353.1715" fill="none" id="Gateway-to-Monolith" style="stroke:#181818;stroke-width:1;"/><polygon fill="#181818" points="80,359.1715,84,350.1715,80,354.1715,76,350.1715,80,359.1715" style="stroke:#181818;stroke-width:1;"/><text fill="#000000" font-family="sans-serif" font-size="13" lengthAdjust="spacing" textLength="85.2617" x="81" y="297.5198">Proxy all paths</text></g><!--link Monolith to MonoDB--><g class="link" data-entity-1="Monolith" data-entity-2="MonoDB" data-source-line="17" data-uid="lnk10" id="link_Monolith_MonoDB"><path d="M80,398.7915 C80,415.7815 80,434.8615 80,453.1315" fill="none" id="Monolith-to-MonoDB" style="stroke:#181818;stroke-width:1;"/><polygon fill="#181818" points="80,459.1315,84,450.1315,80,454.1315,76,450.1315,80,459.1315" style="stroke:#181818;stroke-width:1;"/></g><!--SRC=[JP5DQiCm48NtEiN3woRGRHQ5fEbFe0L3iYjTJ2JP5bMa88sRXbBe8Ng77gGtwKawJcsJXK2Z-URfwOaTUukoeMnnYT_FBwm2fsXQRJ4lLxWZjWSwWZBMd2ZKtYRSqiyt6QjKVd5XJubsq76tZy46NlDH19FLV8BFaDoGYGSNQbJaiqnh7rk3ujexcSj5TqU_L-CyYXjJsmBl2dWwC_JSqVrUVQWGZQ0FjYPzxE776A9tt9p8eP268QPjzznYECHoKGpGSY5gghU1oUHgJ626-yscNAkXxdgZmWnbYcyIa_VO4pTPZQs14sMnoPADgnj6h4RxE8ks-eyMRlW5CvN-N6G5gIgdaTb9LVbuoE08RYns_LqNWcvRHeejTpcdrjiCJK5MUhMGutztKsM3GUT6_G40]--></g></svg>