<svg xmlns="http://www.w3.org/2000/svg" xmlns:xlink="http://www.w3.org/1999/xlink" contentStyleType="text/css" data-diagram-type="DESCRIPTION" height="644px" preserveAspectRatio="none" style="width:1573px;height:644px;background:#FFFFFF;" version="1.1" viewBox="0 0 1573 644" width="1573px" zoomAndPan="magnify"><title>Phase 5 &#8212; Extract Lending Service (Core Transaction)</title><defs/><g><g class="title" data-source-line="1"><text fill="#000000" font-family="sans-serif" font-size="14" font-weight="bold" lengthAdjust="spacing" textLength="362.5576" x="598.7056" y="25.1074">Phase 5 &#8212; Extract Lending Service (Core Transaction)</text></g><!--cluster Edge--><g class="cluster" data-entity="Edge" data-source-line="7" data-uid="ent0003" id="cluster_Edge"><rect fill="none" height="92" rx="2.5" ry="2.5" style="stroke:#181818;stroke-width:1;" width="134" x="741" y="146.9915"/><text fill="#000000" font-family="sans-serif" font-size="14" font-weight="bold" lengthAdjust="spacing" textLength="34.2275" x="790.8862" y="164.0989">Edge</text></g><!--cluster Legacy--><g class="cluster" data-entity="Legacy" data-source-line="10" data-uid="ent0005" id="cluster_Legacy"><polygon fill="none" points="1137,299.9915,1147,289.9915,1265,289.9915,1265,506.9915,1255,516.9915,1137,516.9915,1137,299.9915" style="stroke:#181818;stroke-width:1;"/><line style="stroke:#181818;stroke-width:1;" x1="1255" x2="1265" y1="299.9915" y2="289.9915"/><line style="stroke:#181818;stroke-width:1;" x1="1137" x2="1255" y1="299.9915" y2="299.9915"/><line style="stroke:#181818;stroke-width:1;" x1="1255" x2="1255" y1="299.9915" y2="516.9915"/><text fill="#000000" font-family="sans-serif" font-size="14" font-weight="bold" lengthAdjust="spacing" textLength="48.248" x="1172.876" y="318.0989">Legacy</text></g><!--cluster Microservices--><g class="cluster" data-entity="Microservices" data-source-line="14" data-uid="ent0008" id="cluster_Microservices"><polygon fill="none" points="16,299.9915,26,289.9915,989,289.9915,989,617.9915,979,627.9915,16,627.9915,16,299.9915" style="stroke:#181818;stroke-width:1;"/><line style="stroke:#181818;stroke-width:1;" x1="979" x2="989" y1="299.9915" y2="289.9915"/><line style="stroke:#181818;stroke-width:1;" x1="16" x2="979" y1="299.9915" y2="299.9915"/><line style="stroke:#181818;stroke-width:1;" x1="979" x2="979" y1="299.9915" y2="627.9915"/><text fill="#000000" font-family="sans-serif" font-size="14" font-weight="bold" lengthAdjust="spacing" textLength="93.3926" x="451.8037" y="318.0989">Microservices</text></g><!--entity Gateway--><g class="entity" data-entity="Gateway" data-source-line="8" data-uid="ent0004" id="entity_Gateway"><rect fill="#F1F1F1" height="38.6211" rx="2.5" ry="2.5" style="stroke:#181818;stroke-width:0.5;" width="101.7031" x="757" y="183.9915"/><text fill="#000000" font-family="sans-serif" font-size="14" lengthAdjust="spacing" textLength="81.7031" x="767" y="209.0989">API Gateway</text></g><!--entity Monolith--><g class="entity" data-entity="Monolith" data-source-line="11" data-uid="ent0006" id="entity_Monolith"><rect fill="#F1F1F1" height="38.6211" rx="2.5" ry="2.5" style="stroke:#181818;stroke-width:0.5;" width="72.917" x="1160.5" y="331.9915"/><text fill="#000000" font-family="sans-serif" font-size="14" lengthAdjust="spacing" textLength="52.917" x="1170.5" y="357.0989">Monolith</text></g><!--entity MonoDB--><g class="entity" data-entity="MonoDB" data-source-line="12" data-uid="ent0007" id="entity_MonoDB"><path d="M1153,462.9915 C1153,452.9915 1201.1274,452.9915 1201.1274,452.9915 C1201.1274,452.9915 1249.2549,452.9915 1249.2549,462.9915 L1249.2549,490.6126 C1249.2549,500.6126 1201.1274,500.6126 1201.1274,500.6126 C1201.1274,500.6126 1153,500.6126 1153,490.6126 L1153,462.9915" fill="#F1F1F1" style="stroke:#181818;stroke-width:0.5;"/><path d="M1153,462.9915 C1153,472.9915 1201.1274,472.9915 1201.1274,472.9915 C1201.1274,472.9915 1249.2549,472.9915 1249.2549,462.9915" fill="none" style="stroke:#181818;stroke-width:0.5;"/><text fill="#000000" font-family="sans-serif" font-size="14" lengthAdjust="spacing" textLength="76.2549" x="1163" y="492.0989">Monolith DB</text></g><!--entity Auth--><g class="entity" data-entity="Auth" data-source-line="15" data-uid="ent0009" id="entity_Auth"><rect fill="#F1F1F1" height="38.6211" rx="2.5" ry="2.5" style="stroke:#181818;stroke-width:0.5;" width="96.2549" x="258" y="331.9915"/><text fill="#000000" font-family="sans-serif" font-size="14" lengthAdjust="spacing" textLength="76.2549" x="268" y="357.0989">auth-service</text></g><!--entity Reader--><g class="entity" data-entity="Reader" data-source-line="16" data-uid="ent0010" id="entity_Reader"><rect fill="#F1F1F1" height="38.6211" rx="2.5" ry="2.5" style="stroke:#181818;stroke-width:0.5;" width="109.4756" x="725.5" y="457.4915"/><text fill="#000000" font-family="sans-serif" font-size="14" lengthAdjust="spacing" textLength="89.4756" x="735.5" y="482.5989">reader-service</text></g><!--entity Author--><g class="entity" data-entity="Author" data-source-line="17" data-uid="ent0011" id="entity_Author"><rect fill="#F1F1F1" height="38.6211" rx="2.5" ry="2.5" style="stroke:#181818;stroke-width:0.5;" width="108.7031" x="420.5" y="331.9915"/><text fill="#000000" font-family="sans-serif" font-size="14" lengthAdjust="spacing" textLength="88.7031" x="430.5" y="357.0989">author-service</text></g><!--entity Book--><g class="entity" data-entity="Book" data-source-line="18" data-uid="ent0012" id="entity_Book"><rect fill="#F1F1F1" height="38.6211" rx="2.5" ry="2.5" style="stroke:#181818;stroke-width:0.5;" width="99.3652" x="871.5" y="457.4915"/><text fill="#000000" font-family="sans-serif" font-size="14" lengthAdjust="spacing" textLength="79.3652" x="881.5" y="482.5989">book-service</text></g><!--entity Lending--><g class="entity" data-entity="Lending" data-source-line="19" data-uid="ent0013" id="entity_Lending"><rect fill="#F1F1F1" height="38.6211" rx="2.5" ry="2.5" style="stroke:#181818;stroke-width:0.5;" width="114.1582" x="625" y="331.9915"/><text fill="#000000" font-family="sans-serif" font-size="14" lengthAdjust="spacing" textLength="94.1582" x="635" y="357.0989">lending-service</text></g><!--entity Reporting--><g class="entity" data-entity="Reporting" data-source-line="20" data-uid="ent0014" id="entity_Reporting"><rect fill="#F1F1F1" height="38.6211" rx="2.5" ry="2.5" style="stroke:#181818;stroke-width:0.5;" width="124.2617" x="32" y="331.9915"/><text fill="#000000" font-family="sans-serif" font-size="14" lengthAdjust="spacing" textLength="104.2617" x="42" y="357.0989">reporting-service</text></g><!--entity Bus--><g class="entity" data-entity="Bus" data-source-line="21" data-uid="ent0015" id="entity_Bus"><path d="M190,462.4915 L263.8135,462.4915 C268.8135,462.4915 268.8135,476.802 268.8135,476.802 C268.8135,476.802 268.8135,491.1126 263.8135,491.1126 L190,491.1126 C185,491.1126 185,476.802 185,476.802 C185,476.802 185,462.4915 190,462.4915" fill="#F1F1F1" style="stroke:#181818;stroke-width:0.5;"/><path d="M263.8135,462.4915 C258.8135,462.4915 258.8135,476.802 258.8135,476.802 C258.8135,491.1126 263.8135,491.1126 263.8135,491.1126" fill="none" style="stroke:#181818;stroke-width:0.5;"/><text fill="#000000" font-family="sans-serif" font-size="14" lengthAdjust="spacing" textLength="63.8135" x="190" y="482.5989">Event Bus</text></g><!--entity AuthDB--><g class="entity" data-entity="AuthDB" data-source-line="22" data-uid="ent0016" id="entity_AuthDB"><path d="M304,462.9915 C304,452.9915 340.0688,452.9915 340.0688,452.9915 C340.0688,452.9915 376.1377,452.9915 376.1377,462.9915 L376.1377,490.6126 C376.1377,500.6126 340.0688,500.6126 340.0688,500.6126 C340.0688,500.6126 304,500.6126 304,490.6126 L304,462.9915" fill="#F1F1F1" style="stroke:#181818;stroke-width:0.5;"/><path d="M304,462.9915 C304,472.9915 340.0688,472.9915 340.0688,472.9915 C340.0688,472.9915 376.1377,472.9915 376.1377,462.9915" fill="none" style="stroke:#181818;stroke-width:0.5;"/><text fill="#000000" font-family="sans-serif" font-size="14" lengthAdjust="spacing" textLength="52.1377" x="314" y="492.0989">Auth DB</text></g><!--entity ReaderDB--><g class="entity" data-entity="ReaderDB" data-source-line="23" data-uid="ent0017" id="entity_ReaderDB"><path d="M735.5,573.9915 C735.5,563.9915 780.1274,563.9915 780.1274,563.9915 C780.1274,563.9915 824.7549,563.9915 824.7549,573.9915 L824.7549,601.6126 C824.7549,611.6126 780.1274,611.6126 780.1274,611.6126 C780.1274,611.6126 735.5,611.6126 735.5,601.6126 L735.5,573.9915" fill="#F1F1F1" style="stroke:#181818;stroke-width:0.5;"/><path d="M735.5,573.9915 C735.5,583.9915 780.1274,583.9915 780.1274,583.9915 C780.1274,583.9915 824.7549,583.9915 824.7549,573.9915" fill="none" style="stroke:#181818;stroke-width:0.5;"/><text fill="#000000" font-family="sans-serif" font-size="14" lengthAdjust="spacing" textLength="69.2549" x="745.5" y="603.0989">Reader DB</text></g><!--entity AuthorDB--><g class="entity" data-entity="AuthorDB" data-source-line="24" data-uid="ent0018" id="entity_AuthorDB"><path d="M411.5,462.9915 C411.5,452.9915 453.793,452.9915 453.793,452.9915 C453.793,452.9915 496.0859,452.9915 496.0859,462.9915 L496.0859,490.6126 C496.0859,500.6126 453.793,500.6126 453.793,500.6126 C453.793,500.6126 411.5,500.6126 411.5,490.6126 L411.5,462.9915" fill="#F1F1F1" style="stroke:#181818;stroke-width:0.5;"/><path d="M411.5,462.9915 C411.5,472.9915 453.793,472.9915 453.793,472.9915 C453.793,472.9915 496.0859,472.9915 496.0859,462.9915" fill="none" style="stroke:#181818;stroke-width:0.5;"/><text fill="#000000" font-family="sans-serif" font-size="14" lengthAdjust="spacing" textLength="64.5859" x="421.5" y="492.0989">Author DB</text></g><!--entity BookDB--><g class="entity" data-entity="BookDB" data-source-line="25" data-uid="ent0019" id="entity_BookDB"><path d="M883.5,573.9915 C883.5,563.9915 921.124,563.9915 921.124,563.9915 C921.124,563.9915 958.748,563.9915 958.748,573.9915 L958.748,601.6126 C958.748,611.6126 921.124,611.6126 921.124,611.6126 C921.124,611.6126 883.5,611.6126 883.5,601.6126 L883.5,573.9915" fill="#F1F1F1" style="stroke:#181818;stroke-width:0.5;"/><path d="M883.5,573.9915 C883.5,583.9915 921.124,583.9915 921.124,583.9915 C921.124,583.9915 958.748,583.9915 958.748,573.9915" fill="none" style="stroke:#181818;stroke-width:0.5;"/><text fill="#000000" font-family="sans-serif" font-size="14" lengthAdjust="spacing" textLength="55.248" x="893.5" y="603.0989">Book DB</text></g><!--entity LendingDB--><g class="entity" data-entity="LendingDB" data-source-line="26" data-uid="ent0020" id="entity_LendingDB"><path d="M594.5,462.9915 C594.5,452.9915 641.0825,452.9915 641.0825,452.9915 C641.0825,452.9915 687.665,452.9915 687.665,462.9915 L687.665,490.6126 C687.665,500.6126 641.0825,500.6126 641.0825,500.6126 C641.0825,500.6126 594.5,500.6126 594.5,490.6126 L594.5,462.9915" fill="#F1F1F1" style="stroke:#181818;stroke-width:0.5;"/><path d="M594.5,462.9915 C594.5,472.9915 641.0825,472.9915 641.0825,472.9915 C641.0825,472.9915 687.665,472.9915 687.665,462.9915" fill="none" style="stroke:#181818;stroke-width:0.5;"/><text fill="#000000" font-family="sans-serif" font-size="14" lengthAdjust="spacing" textLength="73.165" x="604.5" y="492.0989">Lending DB</text></g><!--entity ReportDB--><g class="entity" data-entity="ReportDB" data-source-line="27" data-uid="ent0021" id="entity_ReportDB"><path d="M32,462.9915 C32,452.9915 91.0273,452.9915 91.0273,452.9915 C91.0273,452.9915 150.0547,452.9915 150.0547,462.9915 L150.0547,490.6126 C150.0547,500.6126 91.0273,500.6126 91.0273,500.6126 C91.0273,500.6126 32,500.6126 32,490.6126 L32,462.9915" fill="#F1F1F1" style="stroke:#181818;stroke-width:0.5;"/><path d="M32,462.9915 C32,472.9915 91.0273,472.9915 91.0273,472.9915 C91.0273,472.9915 150.0547,472.9915 150.0547,462.9915" fill="none" style="stroke:#181818;stroke-width:0.5;"/><text fill="#000000" font-family="sans-serif" font-size="14" lengthAdjust="spacing" textLength="98.0547" x="42" y="492.0989">Reporting Store</text></g><!--entity Clients--><g class="entity" data-entity="Clients" data-source-line="6" data-uid="ent0002" id="entity_Clients"><path d="M779.716,59.8465 C782.4074,52.5528 787.9079,49.7159 793.9535,56.4397 C795.4601,47.6632 801.9607,46.1685 808.436,51.2453 C814.7878,45.6211 820.5639,45.7573 823.3642,54.8482 C830.6365,48.5952 837.0089,51.4169 837.9028,60.7847 C845.3444,63.7584 846.9469,69.4465 841.0944,75.336 C847.9702,82.2843 845.8222,89.0461 837.1344,92.378 C834.2814,100.7839 828.0243,101.9781 822.2396,95.2665 C820.5115,102.7058 814.0922,105.2231 808.3846,99.4346 C801.8047,105.0739 797.0387,103.7864 794.457,95.4501 C788.5327,100.9735 784.035,99.7744 781.566,92.0801 C771.35,90.8902 768.2246,83.3591 775.022,75.4674 C768.543,67.627 771.6722,63.3228 779.716,59.8465" fill="#F1F1F1" style="stroke:#181818;stroke-width:0.5;"/><text fill="#000000" font-family="sans-serif" font-size="14" lengthAdjust="spacing" textLength="42.793" x="786.5" y="81.0989">Clients</text></g><g class="entity" data-entity="GMN41" data-source-line="54" data-uid="ent0042" id="entity_GMN41"><path d="M1281.5,328.9915 L1281.5,373.5735 L1566.9688,373.5735 L1566.9688,338.9915 L1556.9688,328.9915 L1281.5,328.9915" fill="#FEFFDD" style="stroke:#181818;stroke-width:0.5;"/><path d="M1556.9688,328.9915 L1556.9688,338.9915 L1566.9688,338.9915 L1556.9688,328.9915" fill="#FEFFDD" style="stroke:#181818;stroke-width:1;"/><text fill="#000000" font-family="sans-serif" font-size="13" lengthAdjust="spacing" textLength="264.4688" x="1287.5" y="348.0198">Owns lending lifecycle and recommendations.</text><text fill="#000000" font-family="sans-serif" font-size="13" lengthAdjust="spacing" textLength="203.7788" x="1287.5" y="365.3108">Emits events to decouple reporting.</text></g><!--link Clients to Gateway--><g class="link" data-entity-1="Clients" data-entity-2="Gateway" data-source-line="30" data-uid="lnk22" id="link_Clients_Gateway"><path d="M808,100.1915 C808,124.4315 808,155.5915 808,177.8215" fill="none" id="Clients-to-Gateway" style="stroke:#181818;stroke-width:1;"/><polygon fill="#181818" points="808,183.8215,812,174.8215,808,178.8215,804,174.8215,808,183.8215" style="stroke:#181818;stroke-width:1;"/></g><!--link Gateway to Auth--><g class="link" data-entity-1="Gateway" data-entity-2="Auth" data-source-line="31" data-uid="lnk23" id="link_Gateway_Auth"><path d="M756.81,206.7115 C677.67,211.7815 522.31,228.3215 403,281.9915 C374.61,294.7615 350.579,312.472 331.859,327.992" fill="none" id="Gateway-to-Auth" style="stroke:#181818;stroke-width:1;"/><polygon fill="#181818" points="327.24,331.8215,336.7215,329.1566,331.0892,328.6303,331.6156,322.998,327.24,331.8215" style="stroke:#181818;stroke-width:1;"/><text fill="#000000" font-family="sans-serif" font-size="13" lengthAdjust="spacing" textLength="42.6436" x="466" y="270.0198">/auth/**</text></g><!--link Gateway to Reader--><g class="link" data-entity-1="Gateway" data-entity-2="Reader" data-source-line="32" data-uid="lnk24" id="link_Gateway_Reader"><path d="M859.06,220.5615 C877.66,228.4915 897.63,239.7115 912,254.9915 C951.18,296.6615 938.74,321.3015 961,373.9915 C969.77,394.7415 987.87,405.2315 974,422.9915 C940.17,466.3215 906.94,438.1615 854,452.9915 C847.78,454.7315 847.0367,454.9066 840.6067,456.8366" fill="none" id="Gateway-to-Reader" style="stroke:#181818;stroke-width:1;"/><polygon fill="#181818" points="834.86,458.5615,844.63,459.8052,839.6489,457.124,842.3301,452.143,834.86,458.5615" style="stroke:#181818;stroke-width:1;"/><text fill="#000000" font-family="sans-serif" font-size="13" lengthAdjust="spacing" textLength="61.4199" x="962" y="357.0198">/readers/**</text></g><!--link Gateway to Author--><g class="link" data-entity-1="Gateway" data-entity-2="Author" data-source-line="33" data-uid="lnk25" id="link_Gateway_Author"><path d="M756.69,211.0415 C713.56,217.9215 651.11,231.1615 601,254.9915 C559.11,274.9115 522.0215,306.0739 498.6515,327.7239" fill="none" id="Gateway-to-Author" style="stroke:#181818;stroke-width:1;"/><polygon fill="#181818" points="494.25,331.8015,503.5707,328.6195,497.9179,328.4035,498.1339,322.7508,494.25,331.8015" style="stroke:#181818;stroke-width:1;"/><text fill="#000000" font-family="sans-serif" font-size="13" lengthAdjust="spacing" textLength="60.7026" x="602" y="270.0198">/authors/**</text></g><!--link Gateway to Book--><g class="link" data-entity-1="Gateway" data-entity-2="Book" data-source-line="34" data-uid="lnk26" id="link_Gateway_Book"><path d="M859.39,206.4615 C911.58,211.5315 989.98,228.2815 1028,281.9915 C1064.82,334.0015 1044.95,375.9215 1002,422.9915 C989.54,436.6515 977.9886,445.2873 962.9886,454.1973" fill="none" id="Gateway-to-Book" style="stroke:#181818;stroke-width:1;"/><polygon fill="#181818" points="957.83,457.2615,967.6106,456.1042,962.1288,454.708,963.5251,449.2261,957.83,457.2615" style="stroke:#181818;stroke-width:1;"/><text fill="#000000" font-family="sans-serif" font-size="13" lengthAdjust="spacing" textLength="52.0317" x="1048" y="357.0198">/books/**</text></g><!--link Gateway to Lending--><g class="link" data-entity-1="Gateway" data-entity-2="Lending" data-source-line="35" data-uid="lnk27" id="link_Gateway_Lending"><path d="M756.84,210.6015 C728.85,216.8415 696.42,229.4615 679,254.9915 C663.48,277.7315 667.6671,305.3823 673.7071,326.0523" fill="none" id="Gateway-to-Lending" style="stroke:#181818;stroke-width:1;"/><polygon fill="#181818" points="675.39,331.8115,676.7051,322.0508,673.9876,327.0122,669.0262,324.2947,675.39,331.8115" style="stroke:#181818;stroke-width:1;"/><text fill="#000000" font-family="sans-serif" font-size="13" lengthAdjust="spacing" textLength="227.5952" x="680" y="270.0198">/lendings/** (borrow/return/recommend)</text></g><!--link Gateway to Monolith--><g class="link" data-entity-1="Gateway" data-entity-2="Monolith" data-source-line="36" data-uid="lnk28" id="link_Gateway_Monolith"><path d="M859.21,206.4315 C917.9,210.2415 1015.9,221.5315 1093,254.9915 C1131.68,271.7715 1161.6113,304.4129 1179.5313,327.1029" fill="none" id="Gateway-to-Monolith" style="stroke:#181818;stroke-width:1;"/><polygon fill="#181818" points="1183.25,331.8115,1180.811,322.2694,1180.151,327.8876,1174.5328,327.2277,1183.25,331.8115" style="stroke:#181818;stroke-width:1;"/><text fill="#000000" font-family="sans-serif" font-size="13" lengthAdjust="spacing" textLength="113.4263" x="1123" y="270.0198">/reports (remaining)</text></g><!--link Auth to AuthDB--><g class="link" data-entity-1="Auth" data-entity-2="AuthDB" data-source-line="38" data-uid="lnk29" id="link_Auth_AuthDB"><path d="M292.11,371.0815 C283.14,385.5015 274.44,405.8415 282,422.9915 C287.06,434.4715 291.4687,440.5957 300.8087,448.7857" fill="none" id="Auth-to-AuthDB" style="stroke:#181818;stroke-width:1;"/><polygon fill="#181818" points="305.32,452.7415,301.1903,443.8002,301.5606,449.445,295.9159,449.8153,305.32,452.7415" style="stroke:#181818;stroke-width:1;"/></g><!--link Reader to ReaderDB--><g class="link" data-entity-1="Reader" data-entity-2="ReaderDB" data-source-line="39" data-uid="lnk30" id="link_Reader_ReaderDB"><path d="M780,496.9815 C780,515.5215 780,537.7815 780,557.6715" fill="none" id="Reader-to-ReaderDB" style="stroke:#181818;stroke-width:1;"/><polygon fill="#181818" points="780,563.6715,784,554.6715,780,558.6715,776,554.6715,780,563.6715" style="stroke:#181818;stroke-width:1;"/></g><!--link Author to AuthorDB--><g class="link" data-entity-1="Author" data-entity-2="AuthorDB" data-source-line="40" data-uid="lnk31" id="link_Author_AuthorDB"><path d="M420.06,364.1815 C368.18,375.7615 297.14,393.2915 289,403.9915 C283.89,410.7115 283.91,416.2515 289,422.9915 C318.23,461.7415 347.96,437.6215 394,452.9915 C399.61,454.8615 399.8424,454.8604 405.6024,456.9904" fill="none" id="Author-to-AuthorDB" style="stroke:#181818;stroke-width:1;"/><polygon fill="#181818" points="411.23,459.0715,404.176,452.1982,406.5404,457.3373,401.4013,459.7016,411.23,459.0715" style="stroke:#181818;stroke-width:1;"/></g><!--link Book to BookDB--><g class="link" data-entity-1="Book" data-entity-2="BookDB" data-source-line="41" data-uid="lnk32" id="link_Book_BookDB"><path d="M921,496.9815 C921,515.5215 921,537.7815 921,557.6715" fill="none" id="Book-to-BookDB" style="stroke:#181818;stroke-width:1;"/><polygon fill="#181818" points="921,563.6715,925,554.6715,921,558.6715,917,554.6715,921,563.6715" style="stroke:#181818;stroke-width:1;"/></g><!--link Lending to LendingDB--><g class="link" data-entity-1="Lending" data-entity-2="LendingDB" data-source-line="42" data-uid="lnk33" id="link_Lending_LendingDB"><path d="M665.26,371.1515 C658,380.3715 650.22,392.0615 646,403.9915 C640.45,419.7015 639.227,432.522 639.427,446.982" fill="none" id="Lending-to-LendingDB" style="stroke:#181818;stroke-width:1;"/><polygon fill="#181818" points="639.51,452.9815,643.3851,443.927,639.4409,447.9819,635.3859,444.0376,639.51,452.9815" style="stroke:#181818;stroke-width:1;"/></g><!--link Reporting to ReportDB--><g class="link" data-entity-1="Reporting" data-entity-2="ReportDB" data-source-line="43" data-uid="lnk34" id="link_Reporting_ReportDB"><path d="M65.24,371.1315 C54.6,379.7215 43.73,390.9315 38,403.9915 C30.2,421.7615 38.2059,435.3214 52.9859,448.6614" fill="none" id="Reporting-to-ReportDB" style="stroke:#181818;stroke-width:1;"/><polygon fill="#181818" points="57.44,452.6815,53.439,443.6819,53.7283,449.3314,48.0788,449.6207,57.44,452.6815" style="stroke:#181818;stroke-width:1;"/></g><!--link Reporting to ReportDB--><g class="link" data-entity-1="Reporting" data-entity-2="ReportDB" data-source-line="49" data-uid="lnk39" id="link_Reporting_ReportDB"><path d="M83.26,371.4015 C78.48,380.8615 73.41,392.6915 71,403.9915 C67.48,420.4815 70.3474,433.2719 76.3274,447.3019" fill="none" id="Reporting-to-ReportDB-1" style="stroke:#181818;stroke-width:1;"/><polygon fill="#181818" points="78.68,452.8215,78.8308,442.9738,76.7195,448.2218,71.4714,446.1105,78.68,452.8215" style="stroke:#181818;stroke-width:1;"/><text fill="#000000" font-family="sans-serif" font-size="13" lengthAdjust="spacing" textLength="98.9727" x="72" y="419.0198">materialize views</text></g><!--link Lending to Reader--><g class="link" data-entity-1="Lending" data-entity-2="Reader" data-source-line="45" data-uid="lnk35" id="link_Lending_Reader"><path d="M675.84,371.2615 C672.09,386.3415 669.62,407.4715 679,422.9915 C689.4,440.1915 701.9589,449.6184 719.9289,457.7084" fill="none" id="Lending-to-Reader" style="stroke:#181818;stroke-width:1;"/><polygon fill="#181818" points="725.4,460.1715,718.8354,452.8294,720.8407,458.1189,715.5513,460.1243,725.4,460.1715" style="stroke:#181818;stroke-width:1;"/><text fill="#000000" font-family="sans-serif" font-size="13" lengthAdjust="spacing" textLength="72.249" x="680" y="419.0198">verify reader</text></g><!--link Lending to Book--><g class="link" data-entity-1="Lending" data-entity-2="Book" data-source-line="46" data-uid="lnk36" id="link_Lending_Book"><path d="M718.04,371.1115 C763.16,394.4315 834.6494,431.3775 879.7294,454.6675" fill="none" id="Lending-to-Book" style="stroke:#181818;stroke-width:1;"/><polygon fill="#181818" points="885.06,457.4215,878.9001,449.7367,880.6178,455.1265,875.2281,456.8442,885.06,457.4215" style="stroke:#181818;stroke-width:1;"/><text fill="#000000" font-family="sans-serif" font-size="13" lengthAdjust="spacing" textLength="175.5952" x="816" y="419.0198">check availability, hold/release</text></g><!--link Lending to Bus--><g class="link" data-entity-1="Lending" data-entity-2="Bus" data-source-line="47" data-uid="lnk37" id="link_Lending_Bus"><path d="M624.9,361.9115 C600.87,365.7815 572.6,370.2415 547,373.9915 C447.62,388.5615 415.97,365.9615 323,403.9915 C289.83,417.5615 262.2152,441.2327 244.8252,458.0327" fill="none" id="Lending-to-Bus" style="stroke:#008000;stroke-width:2;"/><polygon fill="#008000" points="240.51,462.2015,249.762,458.8251,244.106,458.7275,244.2036,453.0714,240.51,462.2015" style="stroke:#008000;stroke-width:2;"/><text fill="#000000" font-family="sans-serif" font-size="13" lengthAdjust="spacing" textLength="308.5405" x="324" y="419.0198">domain events (Borrowed, Returned, Recommended)</text></g><!--link Reporting to Bus--><g class="link" data-entity-1="Reporting" data-entity-2="Bus" data-source-line="48" data-uid="lnk38" id="link_Reporting_Bus"><path d="M129.57,371.1315 C144.52,379.9415 161.54,391.3015 175,403.9915 C193.74,421.6515 207.0996,441.7506 216.2496,457.1806" fill="none" id="Reporting-to-Bus" style="stroke:#008000;stroke-width:2;"/><polygon fill="#008000" points="219.31,462.3415,218.16,452.56,216.7597,458.0408,211.2789,456.6405,219.31,462.3415" style="stroke:#008000;stroke-width:2;"/><text fill="#000000" font-family="sans-serif" font-size="13" lengthAdjust="spacing" textLength="55.6372" x="192" y="419.0198">subscribe</text></g><!--link Monolith to MonoDB--><g class="link" data-entity-1="Monolith" data-entity-2="MonoDB" data-source-line="51" data-uid="lnk40" id="link_Monolith_MonoDB"><path d="M1197.61,371.2515 C1198.32,393.1115 1199.2968,423.2546 1200.0568,446.8446" fill="none" id="Monolith-to-MonoDB" style="stroke:#181818;stroke-width:1;"/><polygon fill="#181818" points="1200.25,452.8415,1203.9581,443.7173,1200.089,447.8441,1195.9623,443.9749,1200.25,452.8415" style="stroke:#181818;stroke-width:1;"/></g><!--link Lending to GMN41--><g class="link" data-entity-1="Lending" data-entity-2="GMN41" data-source-line="54" data-uid="lnk43" id="link_Lending_GMN41"><path d="M720.01,331.9115 C764.02,310.4315 839.33,277.3215 908.5,264.4915 C982.57,250.7515 1174.13,247.3915 1247.5,264.4915 C1300.4,276.8215 1355.68,307.3915 1389.97,328.7915" fill="none" id="Lending-GMN41" style="stroke:#181818;stroke-width:1;stroke-dasharray:7.0,7.0;"/></g><!--SRC=[TLH1Rjim4Bpp5GlruWHsSkgbXm9nOXG54ZI8UpDoeAYrH5WYNPAIwnO5-eY-i2_faY9boKvF8dTcbpkp59rqDS9pnIt2U_Zx-m-ilZl3XOD7L8LK9QpHT58WpEwrGVXgkB84Iwsk6BCxgVRSy0Q4RlPQeN9hTwI21eNZggnnHB4LB_J1bzposY9ZejPj0TbzBIdFPi0jn3KRyY5R5ILcy9C1REwUFyCdxl30Zw-U7TVi5rEw8EeZbbmS8_b9ArrBLmLcsX1GSCTpBpTBGNXOPedqi1ogFKbXjEtLsrYKjwvQn5WeVDU6eXk3l40pWLv2A6LfSv6d0vXhlPj0ImfueEu7CC7YKFeJzzguSy9BYXBbMukjDx0ZIs7PzWxJTsA2RoGPuDTam1ZkHIH2lpkZz5B6DVGvnKjA1By-WzDLYuoulUWaAeErevkOdTI6cR5uTM2n-3XSZFWDiI3q0zpwOTnUNq-mg9BGVexsd10rndHzIGWA2VRJl02JFiBZK3q5PhasHX_eJDSQHH_wYHh2hoR9moqDtNcz5cO66ouL5QAVC0XBJP8NKSn95yLY_oSf50ijfzvfdxeSTHog9TlxWj7m2NkmhqCZjqVeJPnGeZ-YGh43td5PyroIhECSAbqNfAn66lCfP_EkD8XgdXFwwWkqbl8BxNK3Tc7KisKm48ivjU0zx5VHHYGZHzs_NT2skHL6vlWVeKHfQ1X6ybh-GEWa7YnZmqpIWBmZIZjw-6HPET3RqP_wvQ0inBb3BRSeZe8UDguA64RE_ODgRuYzQYGfYmATXe8exJuygR6_6qO9u4zZ_m00]--></g></svg>