<svg xmlns="http://www.w3.org/2000/svg" xmlns:xlink="http://www.w3.org/1999/xlink" contentStyleType="text/css" data-diagram-type="STATE" height="614px" preserveAspectRatio="none" style="width:556px;height:614px;background:#FFFFFF;" version="1.1" viewBox="0 0 556 614" width="556px" zoomAndPan="magnify"><defs/><g><path d="M19.5,105 L147.8135,105 A12.5,12.5 0 0 1 160.3135,117.5 L160.3135,133.6211 L7,133.6211 L7,117.5 A12.5,12.5 0 0 1 19.5,105" fill="#F1F1F1"/><rect fill="none" height="261.6211" rx="12.5" ry="12.5" style="stroke:#181818;stroke-width:0.5;" width="153.3135" x="7" y="105"/><line style="stroke:#181818;stroke-width:0.5;" x1="7" x2="160.3135" y1="133.6211" y2="133.6211"/><text fill="#000000" font-family="sans-serif" font-size="14" lengthAdjust="spacing" textLength="38.124" x="64.5947" y="125.1074">Active</text><ellipse cx="61.5" cy="154.6211" fill="#222222" rx="10" ry="10" style="stroke:#222222;stroke-width:1;"/><g id="Active.WithinDue"><rect fill="#F1F1F1" height="50" rx="12.5" ry="12.5" style="stroke:#181818;stroke-width:0.5;" width="84.5791" x="19" y="201.6211"/><line style="stroke:#181818;stroke-width:0.5;" x1="19" x2="103.5791" y1="230.2422" y2="230.2422"/><text fill="#000000" font-family="sans-serif" font-size="14" lengthAdjust="spacing" textLength="64.5791" x="29" y="221.7285">WithinDue</text></g><g id="Active.Overdue"><rect fill="#F1F1F1" height="50" rx="12.5" ry="12.5" style="stroke:#181818;stroke-width:0.5;" width="73.6963" x="24.5" y="306.6211"/><line style="stroke:#181818;stroke-width:0.5;" x1="24.5" x2="98.1963" y1="335.2422" y2="335.2422"/><text fill="#000000" font-family="sans-serif" font-size="14" lengthAdjust="spacing" textLength="53.6963" x="34.5" y="326.7285">Overdue</text></g><!--link *start*Active to WithinDue--><g class="link" data-entity-1="*start*Active" data-entity-2="WithinDue" data-source-line="6" data-uid="lnk10" id="link_*start*Active_WithinDue"><path d="M61.5,164.7711 C61.5,174.0411 61.5,182.7611 61.5,195.4011" fill="none" id="*start*Active-to-WithinDue" style="stroke:#181818;stroke-width:1;"/><polygon fill="#181818" points="61.5,201.4011,65.5,192.4011,61.5,196.4011,57.5,192.4011,61.5,201.4011" style="stroke:#181818;stroke-width:1;"/></g><!--link WithinDue to Overdue--><g class="link" data-entity-1="WithinDue" data-entity-2="Overdue" data-source-line="7" data-uid="lnk12" id="link_WithinDue_Overdue"><path d="M61.5,251.7711 C61.5,268.1811 61.5,283.8111 61.5,300.2711" fill="none" id="WithinDue-to-Overdue" style="stroke:#181818;stroke-width:1;"/><polygon fill="#181818" points="61.5,306.2711,65.5,297.2711,61.5,301.2711,57.5,297.2711,61.5,306.2711" style="stroke:#181818;stroke-width:1;"/><text fill="#000000" font-family="sans-serif" font-size="13" lengthAdjust="spacing" textLength="87.8135" x="62.5" y="284.6494">now &gt; dueDate</text></g><ellipse cx="83.5" cy="16" fill="#222222" rx="10" ry="10" style="stroke:#222222;stroke-width:1;"/><g id="Returned"><rect fill="#F1F1F1" height="50" rx="12.5" ry="12.5" style="stroke:#181818;stroke-width:0.5;" width="77.5928" x="44.5" y="469"/><line style="stroke:#181818;stroke-width:0.5;" x1="44.5" x2="122.0928" y1="497.6211" y2="497.6211"/><text fill="#000000" font-family="sans-serif" font-size="14" lengthAdjust="spacing" textLength="57.5928" x="54.5" y="489.1074">Returned</text></g><ellipse cx="83.5" cy="597" fill="none" rx="11" ry="11" style="stroke:#222222;stroke-width:1;"/><ellipse cx="83.5" cy="597" fill="#222222" rx="6" ry="6" style="stroke:#222222;stroke-width:1;"/><g class="entity" data-entity="GMN2" data-source-line="11" data-uid="ent0003" id="entity_GMN2"><path d="M157.5,463 L157.5,490 L122.52,494 L157.5,498 L157.5,524.873 A0,0 0 0 0 157.5,524.873 L549.2222,524.873 A0,0 0 0 0 549.2222,524.873 L549.2222,473 L539.2222,463 L157.5,463 A0,0 0 0 0 157.5,463" fill="#FEFFDD" style="stroke:#181818;stroke-width:0.5;"/><path d="M539.2222,463 L539.2222,473 L549.2222,473 L539.2222,463" fill="#FEFFDD" style="stroke:#181818;stroke-width:0.5;"/><text fill="#000000" font-family="sans-serif" font-size="13" lengthAdjust="spacing" textLength="166.937" x="163.5" y="482.0283">Subsequent returns rejected:</text><text fill="#000000" font-family="sans-serif" font-size="13" lengthAdjust="spacing" textLength="176.3188" x="163.5" y="499.3193">- 400 Bad Request (not active)</text><text fill="#000000" font-family="sans-serif" font-size="13" lengthAdjust="spacing" textLength="370.7222" x="163.5" y="516.6104">or 409 if duplicate recommendation attempt on the same lending</text></g><!--link *start* to Active--><g class="link" data-entity-1="*start*" data-entity-2="Active" data-source-line="1" data-uid="lnk3" id="link_*start*_Active"><path d="M83.5,26.09 C83.5,40.76 83.5,65.39 83.5,98.79" fill="none" id="*start*-to-Active" style="stroke:#181818;stroke-width:1;"/><polygon fill="#181818" points="83.5,104.79,87.5,95.79,83.5,99.79,79.5,95.79,83.5,104.79" style="stroke:#181818;stroke-width:1;"/><text fill="#000000" font-family="sans-serif" font-size="13" lengthAdjust="spacing" textLength="48.3945" x="84.5" y="71.0283">borrow()</text></g><!--link Active to Returned--><g class="link" data-entity-1="Active" data-entity-2="Returned" data-source-line="2" data-uid="lnk5" id="link_Active_Returned"><path d="M83.5,367.25 C83.5,406.28 83.5,439.03 83.5,462.98" fill="none" id="Active-to-Returned" style="stroke:#181818;stroke-width:1;"/><polygon fill="#181818" points="83.5,468.98,87.5,459.98,83.5,463.98,79.5,459.98,83.5,468.98" style="stroke:#181818;stroke-width:1;"/><text fill="#000000" font-family="sans-serif" font-size="13" lengthAdjust="spacing" textLength="42.6182" x="111.6077" y="412.0283">return()</text><text fill="#000000" font-family="sans-serif" font-size="13" lengthAdjust="spacing" textLength="96.8335" x="84.5" y="429.3193">set returnedDate</text></g><!--link Returned to *end*--><g class="link" data-entity-1="Returned" data-entity-2="*end*" data-source-line="3" data-uid="lnk7" id="link_Returned_*end*"><path d="M83.5,519.19 C83.5,540.43 83.5,564.29 83.5,579.78" fill="none" id="Returned-to-*end*" style="stroke:#181818;stroke-width:1;"/><polygon fill="#181818" points="83.5,585.78,87.5,576.78,83.5,580.78,79.5,576.78,83.5,585.78" style="stroke:#181818;stroke-width:1;"/></g><!--SRC=[FOwnRW8n44Jx_Oefxv1EeaW31L8Y-aX9GK4ep7dX775hOkz14UNVixRWgXtFMy_EVd50rstmsckuCTOunfJYlMdfuHJumJebOMyuLTcqNv9P7o_sMwTCyrRvibySYBAQ_up-9HItqbtG8SXsOlDcNSdxZPEVIX69TsnWkeR_4Kcqi1JEWoAUvaxqEHqp_qmipphPvZVtodvD7LwMIxmvR_ksanMDnS3LIYt5P7o5SB8xrqleIzt4VHn75kyqH85JvV5g9mKwCB8R6HUZGSva0wNLFm00]--></g></svg>