<svg xmlns="http://www.w3.org/2000/svg" xmlns:xlink="http://www.w3.org/1999/xlink" contentStyleType="text/css" data-diagram-type="DESCRIPTION" height="513px" preserveAspectRatio="none" style="width:525px;height:513px;background:#FFFFFF;" version="1.1" viewBox="0 0 525 513" width="525px" zoomAndPan="magnify"><defs/><g><!--cluster Lending Service--><g class="cluster" data-entity="Lending Service" data-source-line="4" data-uid="ent0003" id="cluster_Lending Service"><rect fill="none" height="367" rx="2.5" ry="2.5" style="stroke:#181818;stroke-width:1;" width="266" x="253" y="140.3"/><text fill="#000000" font-family="sans-serif" font-size="14" font-weight="bold" lengthAdjust="spacing" textLength="108.1445" x="331.9277" y="157.4074">Lending Service</text></g><!--entity UC_B--><g class="entity" data-entity="UC_B" data-source-line="5" data-uid="ent0004" id="entity_UC_B"><ellipse cx="386.1707" cy="388.4671" fill="#F1F1F1" rx="59.6707" ry="16.1671" style="stroke:#181818;stroke-width:0.5;"/><text fill="#000000" font-family="sans-serif" font-size="14" lengthAdjust="spacing" textLength="80.1445" x="346.0985" y="394.2776">Borrow Book</text></g><!--entity UC_R--><g class="entity" data-entity="UC_R" data-source-line="6" data-uid="ent0005" id="entity_UC_R"><ellipse cx="386.0273" cy="321.4671" fill="#F1F1F1" rx="58.0273" ry="16.1671" style="stroke:#181818;stroke-width:0.5;"/><text fill="#000000" font-family="sans-serif" font-size="14" lengthAdjust="spacing" textLength="77.8203" x="347.1171" y="327.2776">Return Book</text></g><!--entity UC_REC--><g class="entity" data-entity="UC_REC" data-source-line="7" data-uid="ent0006" id="entity_UC_REC"><ellipse cx="386.1125" cy="206.2945" fill="#F1F1F1" rx="94.6125" ry="28.4945" style="stroke:#181818;stroke-width:0.5;"/><text fill="#000000" font-family="sans-serif" font-size="14" lengthAdjust="spacing" textLength="115.165" x="328.53" y="201.5866">Recommend Book</text><text fill="#000000" font-family="sans-serif" font-size="14" lengthAdjust="spacing" textLength="133.8271" x="319.1989" y="220.2077">(Positive or Negative)</text></g><!--entity UC_SUM--><g class="entity" data-entity="UC_SUM" data-source-line="8" data-uid="ent0007" id="entity_UC_SUM"><ellipse cx="385.8269" cy="465.0654" fill="#F1F1F1" rx="116.8269" ry="25.7654" style="stroke:#181818;stroke-width:0.5;"/><text fill="#000000" font-family="sans-serif" font-size="14" lengthAdjust="spacing" textLength="207.7441" x="281.9548" y="470.8759">View Recommendation Summary</text></g><!--entity Reader--><g class="entity" data-entity="Reader" data-source-line="2" data-uid="ent0002" id="entity_Reader"><ellipse cx="28.9585" cy="357.3" fill="#F1F1F1" rx="8" ry="8" style="stroke:#181818;stroke-width:0.5;"/><path d="M28.9585,365.3 L28.9585,392.3 M15.9585,373.3 L41.9585,373.3 M28.9585,392.3 L15.9585,407.3 M28.9585,392.3 L41.9585,407.3" fill="none" style="stroke:#181818;stroke-width:0.5;"/><text fill="#000000" font-family="sans-serif" font-size="14" lengthAdjust="spacing" textLength="45.917" x="6" y="423.9074">Reader</text></g><!--entity BS--><g class="entity" data-entity="BS" data-source-line="18" data-uid="ent0012" id="entity_BS"><rect fill="#F1F1F1" height="38.6211" rx="2.5" ry="2.5" style="stroke:#181818;stroke-width:0.5;" width="102.4824" x="335" y="10.8"/><text fill="#000000" font-family="sans-serif" font-size="14" lengthAdjust="spacing" textLength="82.4824" x="345" y="35.9074">Book Service</text></g><!--entity RS--><g class="entity" data-entity="RS" data-source-line="19" data-uid="ent0013" id="entity_RS"><rect fill="#F1F1F1" height="38.6211" rx="2.5" ry="2.5" style="stroke:#181818;stroke-width:0.5;" width="116.4893" x="328" y="84.8"/><text fill="#000000" font-family="sans-serif" font-size="14" lengthAdjust="spacing" textLength="96.4893" x="338" y="109.9074">Reader Service</text></g><!--link Reader to UC_B--><g class="link" data-entity-1="Reader" data-entity-2="UC_B" data-source-line="11" data-uid="lnk8" id="link_Reader_UC_B"><path d="M52.21,388.3 C106.25,388.3 240.03,388.3 320.19,388.3" fill="none" id="Reader-to-UC_B" style="stroke:#181818;stroke-width:1;"/><polygon fill="#181818" points="326.19,388.3,317.19,384.3,321.19,388.3,317.19,392.3,326.19,388.3" style="stroke:#181818;stroke-width:1;"/></g><!--link Reader to UC_R--><g class="link" data-entity-1="Reader" data-entity-2="UC_R" data-source-line="12" data-uid="lnk9" id="link_Reader_UC_R"><path d="M52.11,375.23 C61.1,370.45 71.78,365.45 82,362.3 C165.32,336.61 260.46,327.357 322.25,323.777" fill="none" id="Reader-to-UC_R" style="stroke:#181818;stroke-width:1;"/><polygon fill="#181818" points="328.24,323.43,319.0237,319.9573,323.2484,323.7192,319.4864,327.9439,328.24,323.43" style="stroke:#181818;stroke-width:1;"/></g><!--link Reader to UC_SUM--><g class="link" data-entity-1="Reader" data-entity-2="UC_SUM" data-source-line="13" data-uid="lnk10" id="link_Reader_UC_SUM"><path d="M52.21,393.12 C101.08,403.72 214.2463,428.2683 295.8563,445.9683" fill="none" id="Reader-to-UC_SUM" style="stroke:#181818;stroke-width:1;"/><polygon fill="#181818" points="301.72,447.24,293.7723,441.4233,296.8336,446.1802,292.0767,449.2415,301.72,447.24" style="stroke:#181818;stroke-width:1;"/></g><!--link UC_R to UC_REC--><g class="link" data-entity-1="UC_R" data-entity-2="UC_REC" data-source-line="15" data-uid="lnk11" id="link_UC_R_UC_REC"><path d="M386,304.82 C386,286.69 386,263.19 386,241.19" fill="none" id="UC_R-to-UC_REC" style="stroke:#181818;stroke-width:1;stroke-dasharray:7.0,7.0;"/><polygon fill="#181818" points="386,235.19,382,244.19,386,240.19,390,244.19,386,235.19" style="stroke:#181818;stroke-width:1;"/><text fill="#000000" font-family="sans-serif" font-size="13" lengthAdjust="spacing" textLength="59.998" x="335.2141" y="267.0783">&#171;optional&#187;</text><text fill="#000000" font-family="sans-serif" font-size="13" lengthAdjust="spacing" textLength="74.4263" x="328" y="284.3693">part of return</text></g><!--link UC_B to RS--><g class="link" data-entity-1="UC_B" data-entity-2="RS" data-source-line="21" data-uid="lnk14" id="link_UC_B_RS"><path d="M327.13,385.45 C299.7,381.47 268.1,372.79 245,354.3 C161.3,287.29 81.68,211.36 153,131.3 C195.59,83.48 267.83,83.3738 321.81,91.0638" fill="none" id="UC_B-to-RS" style="stroke:#181818;stroke-width:1;stroke-dasharray:7.0,7.0;"/><polygon fill="#181818" points="327.75,91.91,319.4041,86.6807,322.8,91.2048,318.2758,94.6007,327.75,91.91" style="stroke:#181818;stroke-width:1;"/><text fill="#000000" font-family="sans-serif" font-size="13" lengthAdjust="spacing" textLength="41.9199" x="139.0391" y="146.3283">&#171;uses&#187;</text><text fill="#000000" font-family="sans-serif" font-size="13" lengthAdjust="spacing" textLength="85.998" x="117" y="163.6193">validate reader</text></g><!--link UC_B to BS--><g class="link" data-entity-1="UC_B" data-entity-2="BS" data-source-line="22" data-uid="lnk15" id="link_UC_B_BS"><path d="M328.52,384.1 C301.26,379.81 269.4,371.26 245,354.3 C176.52,306.69 131.82,267.65 157.5,188.3 C177.94,125.16 190.25,104.81 245,67.3 C271.52,49.13 300.5006,40.87 328.9506,36.16" fill="none" id="UC_B-to-BS" style="stroke:#181818;stroke-width:1;stroke-dasharray:7.0,7.0;"/><polygon fill="#181818" points="334.87,35.18,325.3375,32.7037,329.9371,35.9967,326.6442,40.5963,334.87,35.18" style="stroke:#181818;stroke-width:1;"/><text fill="#000000" font-family="sans-serif" font-size="13" lengthAdjust="spacing" textLength="41.9199" x="138.845" y="203.3283">&#171;uses&#187;</text><text fill="#000000" font-family="sans-serif" font-size="13" lengthAdjust="spacing" textLength="76.6099" x="121.5" y="220.6193">validate book</text></g><!--link UC_R to RS--><g class="link" data-entity-1="UC_R" data-entity-2="RS" data-source-line="23" data-uid="lnk16" id="link_UC_R_RS"><path d="M344.47,332.5 C284.94,345.75 176.3,358.91 120,297.3 C46.77,217.17 223.5511,151.2675 322.1311,121.8175" fill="none" id="UC_R-to-RS" style="stroke:#181818;stroke-width:1;stroke-dasharray:7.0,7.0;"/><polygon fill="#181818" points="327.88,120.1,318.1116,118.8435,323.0892,121.5312,320.4016,126.5088,327.88,120.1" style="stroke:#181818;stroke-width:1;"/><text fill="#000000" font-family="sans-serif" font-size="13" lengthAdjust="spacing" textLength="41.9199" x="138.9199" y="276.3283">&#171;uses&#187;</text><text fill="#000000" font-family="sans-serif" font-size="13" lengthAdjust="spacing" textLength="151.7598" x="84" y="293.6193">validate reader (if needed)</text></g><!--link UC_R to BS--><g class="link" data-entity-1="UC_R" data-entity-2="BS" data-source-line="24" data-uid="lnk17" id="link_UC_R_BS"><path d="M351.78,308.22 C261.8,272.03 31.35,166.56 119,66.3 C171.72,6 267.4594,9.3501 328.9894,18.7901" fill="none" id="UC_R-to-BS" style="stroke:#181818;stroke-width:1;stroke-dasharray:7.0,7.0;"/><polygon fill="#181818" points="334.92,19.7,326.6307,14.3814,329.9778,18.9418,325.4175,22.2889,334.92,19.7" style="stroke:#181818;stroke-width:1;"/><text fill="#000000" font-family="sans-serif" font-size="13" lengthAdjust="spacing" textLength="41.9199" x="138.6372" y="81.3283">&#171;uses&#187;</text><text fill="#000000" font-family="sans-serif" font-size="13" lengthAdjust="spacing" textLength="153.1943" x="83" y="98.6193">resolve title / validate book</text></g><!--SRC=[VP7DJiCm48JlVefHBwI7mXrLEQJg3H1AL4wLa76sgTN4MzbEIeLuT-pqXwGIt6pFxiutwves7fvXTRNrABKbvJKR8PLdYvnaILQ8-2fDLHCcJsHARIeKP3kjQ88l0RIEb7H1pTXQFY1ZtaqW7LQBzsoev-HRQqPwFjOLDqsmw4lM9dbbfxtk287cXIePpzDhwt8nR7xJTC1rWemvKBHD8-tnqb6idiMt4ATScCtI4-7udj_SOvE8xxXFpxPun7pE-sWXwpHTcxsq7ho1xGCASOTa-Ud91XbgIshd4BdOr4Teqt7TKJaTxZNc_LrgeCsAeNmc6XRaHK-LHQgyw8d2AboawMIjmm8euFGVU2dB_YZx2ERNXF_FGg8tC4HbvB-qtCorv690UEq3-mF6FZy0]--></g></svg>