<svg xmlns="http://www.w3.org/2000/svg" xmlns:xlink="http://www.w3.org/1999/xlink" contentStyleType="text/css" data-diagram-type="DESCRIPTION" height="411.2px" preserveAspectRatio="none" style="width:1248px;height:411px;background:#FFFFFF;" version="1.1" viewBox="0 0 1248 411" width="1248.8px" zoomAndPan="magnify"><title>Library Management - Containers &amp; Data Flow (CQRS)</title><defs/><g><g class="title" data-source-line="1"><text fill="#000000" font-family="sans-serif" font-size="11.2" font-weight="bold" lengthAdjust="spacing" textLength="288.1266" x="474.9758" y="20.0859">Library Management - Containers &amp; Data Flow (CQRS)</text></g><!--cluster Schemas--><g class="cluster" data-entity="Schemas" data-source-line="20" data-uid="ent0012" id="cluster_Schemas"><rect fill="none" height="112" rx="3.2" ry="3.2" style="stroke:#181818;stroke-width:0.8;" width="704" x="468.2" y="294.8969"/><path d="M525.3859,294.8969 L525.3859,304.1938 L517.3859,312.1938 L468.2,312.1938" fill="none" style="stroke:#181818;stroke-width:0.8;"/><text fill="#000000" font-family="sans-serif" font-size="11.2" font-weight="bold" lengthAdjust="spacing" textLength="49.1859" x="470.6" y="307.7828">Schemas</text></g><!--entity s_auth--><g class="entity" data-entity="s_auth" data-source-line="21" data-uid="ent0013" id="entity_s_auth"><path d="M961.4,356.4969 C961.4,348.4969 1001.1516,348.4969 1001.1516,348.4969 C1001.1516,348.4969 1040.9031,348.4969 1040.9031,356.4969 L1040.9031,378.5938 C1040.9031,386.5938 1001.1516,386.5938 1001.1516,386.5938 C1001.1516,386.5938 961.4,386.5938 961.4,378.5938 L961.4,356.4969" fill="#F1F1F1" style="stroke:#181818;stroke-width:0.4;"/><path d="M961.4,356.4969 C961.4,364.4969 1001.1516,364.4969 1001.1516,364.4969 C1001.1516,364.4969 1040.9031,364.4969 1040.9031,356.4969" fill="none" style="stroke:#181818;stroke-width:0.4;"/><text fill="#000000" font-family="sans-serif" font-size="11.2" lengthAdjust="spacing" textLength="63.5031" x="969.4" y="379.7828">auth_service</text></g><!--entity s_book--><g class="entity" data-entity="s_book" data-source-line="22" data-uid="ent0014" id="entity_s_book"><path d="M603.4,356.4969 C603.4,348.4969 644.3957,348.4969 644.3957,348.4969 C644.3957,348.4969 685.3914,348.4969 685.3914,356.4969 L685.3914,378.5938 C685.3914,386.5938 644.3957,386.5938 644.3957,386.5938 C644.3957,386.5938 603.4,386.5938 603.4,378.5938 L603.4,356.4969" fill="#F1F1F1" style="stroke:#181818;stroke-width:0.4;"/><path d="M603.4,356.4969 C603.4,364.4969 644.3957,364.4969 644.3957,364.4969 C644.3957,364.4969 685.3914,364.4969 685.3914,356.4969" fill="none" style="stroke:#181818;stroke-width:0.4;"/><text fill="#000000" font-family="sans-serif" font-size="11.2" lengthAdjust="spacing" textLength="65.9914" x="611.4" y="379.7828">book_service</text></g><!--entity s_author--><g class="entity" data-entity="s_author" data-source-line="23" data-uid="ent0015" id="entity_s_author"><path d="M843.4,356.4969 C843.4,348.4969 888.1309,348.4969 888.1309,348.4969 C888.1309,348.4969 932.8617,348.4969 932.8617,356.4969 L932.8617,378.5938 C932.8617,386.5938 888.1309,386.5938 888.1309,386.5938 C888.1309,386.5938 843.4,386.5938 843.4,378.5938 L843.4,356.4969" fill="#F1F1F1" style="stroke:#181818;stroke-width:0.4;"/><path d="M843.4,356.4969 C843.4,364.4969 888.1309,364.4969 888.1309,364.4969 C888.1309,364.4969 932.8617,364.4969 932.8617,356.4969" fill="none" style="stroke:#181818;stroke-width:0.4;"/><text fill="#000000" font-family="sans-serif" font-size="11.2" lengthAdjust="spacing" textLength="73.4617" x="851.4" y="379.7828">author_service</text></g><!--entity s_reader--><g class="entity" data-entity="s_reader" data-source-line="24" data-uid="ent0016" id="entity_s_reader"><path d="M1068.6,356.4969 C1068.6,348.4969 1113.6398,348.4969 1113.6398,348.4969 C1113.6398,348.4969 1158.6797,348.4969 1158.6797,356.4969 L1158.6797,378.5938 C1158.6797,386.5938 1113.6398,386.5938 1113.6398,386.5938 C1113.6398,386.5938 1068.6,386.5938 1068.6,378.5938 L1068.6,356.4969" fill="#F1F1F1" style="stroke:#181818;stroke-width:0.4;"/><path d="M1068.6,356.4969 C1068.6,364.4969 1113.6398,364.4969 1113.6398,364.4969 C1113.6398,364.4969 1158.6797,364.4969 1158.6797,356.4969" fill="none" style="stroke:#181818;stroke-width:0.4;"/><text fill="#000000" font-family="sans-serif" font-size="11.2" lengthAdjust="spacing" textLength="74.0797" x="1076.6" y="379.7828">reader_service</text></g><!--entity s_lending--><g class="entity" data-entity="s_lending" data-source-line="25" data-uid="ent0017" id="entity_s_lending"><path d="M481.4,356.4969 C481.4,348.4969 528.3129,348.4969 528.3129,348.4969 C528.3129,348.4969 575.2258,348.4969 575.2258,356.4969 L575.2258,378.5938 C575.2258,386.5938 528.3129,386.5938 528.3129,386.5938 C528.3129,386.5938 481.4,386.5938 481.4,378.5938 L481.4,356.4969" fill="#F1F1F1" style="stroke:#181818;stroke-width:0.4;"/><path d="M481.4,356.4969 C481.4,364.4969 528.3129,364.4969 528.3129,364.4969 C528.3129,364.4969 575.2258,364.4969 575.2258,356.4969" fill="none" style="stroke:#181818;stroke-width:0.4;"/><text fill="#000000" font-family="sans-serif" font-size="11.2" lengthAdjust="spacing" textLength="77.8258" x="489.4" y="379.7828">lending_service</text></g><!--entity s_reporting--><g class="entity" data-entity="s_reporting" data-source-line="26" data-uid="ent0018" id="entity_s_reporting"><path d="M713.4,349.2969 C713.4,341.2969 764.3543,341.2969 764.3543,341.2969 C764.3543,341.2969 815.3086,341.2969 815.3086,349.2969 L815.3086,386.2906 C815.3086,394.2906 764.3543,394.2906 764.3543,394.2906 C764.3543,394.2906 713.4,394.2906 713.4,386.2906 L713.4,349.2969" fill="#F1F1F1" style="stroke:#181818;stroke-width:0.4;"/><path d="M713.4,349.2969 C713.4,357.2969 764.3543,357.2969 764.3543,357.2969 C764.3543,357.2969 815.3086,357.2969 815.3086,349.2969" fill="none" style="stroke:#181818;stroke-width:0.4;"/><text fill="#000000" font-family="sans-serif" font-size="11.2" lengthAdjust="spacing" textLength="85.9086" x="721.4" y="372.5828">reporting_service</text><text fill="#000000" font-family="sans-serif" font-size="11.2" lengthAdjust="spacing" textLength="69.0922" x="721.4" y="387.4797">(read models)</text></g><!--entity gw--><g class="entity" data-entity="gw" data-source-line="8" data-uid="ent0002" id="entity_gw"><rect fill="#F1F1F1" height="60.6906" rx="3.2" ry="3.2" style="stroke:#181818;stroke-width:0.4;" width="74.2563" x="399" y="37.2969"/><text fill="#000000" font-family="sans-serif" font-size="11.2" font-style="italic" lengthAdjust="spacing" textLength="56.6563" x="407.8" y="57.3828">&#171;Gateway&#187;</text><text fill="#000000" font-family="sans-serif" font-size="11.2" lengthAdjust="spacing" textLength="44.1984" x="412.4648" y="72.2797">Gateway</text><text fill="#000000" font-family="sans-serif" font-size="11.2" lengthAdjust="spacing" textLength="47.3266" x="412.4648" y="87.1766">port 8080</text></g><!--entity eure--><g class="entity" data-entity="eure" data-source-line="9" data-uid="ent0003" id="entity_eure"><rect fill="#F1F1F1" height="60.6906" rx="3.2" ry="3.2" style="stroke:#181818;stroke-width:0.4;" width="63.3266" x="295" y="337.2969"/><text fill="#000000" font-family="sans-serif" font-size="11.2" font-style="italic" lengthAdjust="spacing" textLength="34.8688" x="309.2289" y="357.3828">&#171;Infra&#187;</text><text fill="#000000" font-family="sans-serif" font-size="11.2" lengthAdjust="spacing" textLength="35.4867" x="303" y="372.2797">Eureka</text><text fill="#000000" font-family="sans-serif" font-size="11.2" lengthAdjust="spacing" textLength="47.3266" x="303" y="387.1766">port 8761</text></g><!--entity auth--><g class="entity" data-entity="auth" data-source-line="10" data-uid="ent0004" id="entity_auth"><rect fill="#F1F1F1" height="60.6906" rx="3.2" ry="3.2" style="stroke:#181818;stroke-width:0.4;" width="79.4977" x="867" y="185.6969"/><text fill="#000000" font-family="sans-serif" font-size="11.2" font-style="italic" lengthAdjust="spacing" textLength="31.1281" x="891.1848" y="205.7828">&#171;Svc&#187;</text><text fill="#000000" font-family="sans-serif" font-size="11.2" lengthAdjust="spacing" textLength="63.4977" x="875" y="220.6797">Auth Service</text><text fill="#000000" font-family="sans-serif" font-size="11.2" lengthAdjust="spacing" textLength="47.3266" x="875" y="235.5766">port 8081</text></g><!--entity book--><g class="entity" data-entity="book" data-source-line="11" data-uid="ent0005" id="entity_book"><rect fill="#F1F1F1" height="60.6906" rx="3.2" ry="3.2" style="stroke:#181818;stroke-width:0.4;" width="81.9859" x="164.2" y="185.6969"/><text fill="#000000" font-family="sans-serif" font-size="11.2" font-style="italic" lengthAdjust="spacing" textLength="31.1281" x="189.6289" y="205.7828">&#171;Svc&#187;</text><text fill="#000000" font-family="sans-serif" font-size="11.2" lengthAdjust="spacing" textLength="65.9859" x="172.2" y="220.6797">Book Service</text><text fill="#000000" font-family="sans-serif" font-size="11.2" lengthAdjust="spacing" textLength="47.3266" x="172.2" y="235.5766">port 8083</text></g><!--entity author--><g class="entity" data-entity="author" data-source-line="12" data-uid="ent0006" id="entity_author"><rect fill="#F1F1F1" height="60.6906" rx="3.2" ry="3.2" style="stroke:#181818;stroke-width:0.4;" width="89.4563" x="749" y="185.6969"/><text fill="#000000" font-family="sans-serif" font-size="11.2" font-style="italic" lengthAdjust="spacing" textLength="31.1281" x="778.1641" y="205.7828">&#171;Svc&#187;</text><text fill="#000000" font-family="sans-serif" font-size="11.2" lengthAdjust="spacing" textLength="73.4563" x="757" y="220.6797">Author Service</text><text fill="#000000" font-family="sans-serif" font-size="11.2" lengthAdjust="spacing" textLength="47.3266" x="757" y="235.5766">port 8082</text></g><!--entity reader--><g class="entity" data-entity="reader" data-source-line="13" data-uid="ent0007" id="entity_reader"><rect fill="#F1F1F1" height="60.6906" rx="3.2" ry="3.2" style="stroke:#181818;stroke-width:0.4;" width="93.1914" x="974.6" y="185.6969"/><text fill="#000000" font-family="sans-serif" font-size="11.2" font-style="italic" lengthAdjust="spacing" textLength="31.1281" x="1005.6316" y="205.7828">&#171;Svc&#187;</text><text fill="#000000" font-family="sans-serif" font-size="11.2" lengthAdjust="spacing" textLength="77.1914" x="982.6" y="220.6797">Reader Service</text><text fill="#000000" font-family="sans-serif" font-size="11.2" lengthAdjust="spacing" textLength="47.3266" x="982.6" y="235.5766">port 8084</text></g><!--entity lending--><g class="entity" data-entity="lending" data-source-line="14" data-uid="ent0008" id="entity_lending"><rect fill="#F1F1F1" height="60.6906" rx="3.2" ry="3.2" style="stroke:#181818;stroke-width:0.4;" width="96.3195" x="40.2" y="185.6969"/><text fill="#000000" font-family="sans-serif" font-size="11.2" font-style="italic" lengthAdjust="spacing" textLength="31.1281" x="72.7957" y="205.7828">&#171;Svc&#187;</text><text fill="#000000" font-family="sans-serif" font-size="11.2" lengthAdjust="spacing" textLength="80.3195" x="48.2" y="220.6797">Lending Service</text><text fill="#000000" font-family="sans-serif" font-size="11.2" lengthAdjust="spacing" textLength="47.3266" x="48.2" y="235.5766">port 8085</text></g><!--entity reporting--><g class="entity" data-entity="reporting" data-source-line="15" data-uid="ent0009" id="entity_reporting"><rect fill="#F1F1F1" height="60.6906" rx="3.2" ry="3.2" style="stroke:#181818;stroke-width:0.4;" width="105.0203" x="274.2" y="185.6969"/><text fill="#000000" font-family="sans-serif" font-size="11.2" font-style="italic" lengthAdjust="spacing" textLength="31.1281" x="311.1461" y="205.7828">&#171;Svc&#187;</text><text fill="#000000" font-family="sans-serif" font-size="11.2" lengthAdjust="spacing" textLength="89.0203" x="282.2" y="220.6797">Reporting Service</text><text fill="#000000" font-family="sans-serif" font-size="11.2" lengthAdjust="spacing" textLength="47.3266" x="282.2" y="235.5766">port 8086</text></g><!--entity mq--><g class="entity" data-entity="mq" data-source-line="17" data-uid="ent0010" id="entity_mq"><path d="M565,174.8969 L716.8445,174.8969 C720.8445,174.8969 720.8445,216.1391 720.8445,216.1391 C720.8445,216.1391 720.8445,257.3813 716.8445,257.3813 L565,257.3813 C561,257.3813 561,216.1391 561,216.1391 C561,216.1391 561,174.8969 565,174.8969" fill="#F1F1F1" style="stroke:#181818;stroke-width:0.4;"/><path d="M716.8445,174.8969 C712.8445,174.8969 712.8445,216.1391 712.8445,216.1391 C712.8445,257.3813 716.8445,257.3813 716.8445,257.3813" fill="none" style="stroke:#181818;stroke-width:0.4;"/><text fill="#000000" font-family="sans-serif" font-size="11.2" lengthAdjust="spacing" textLength="50.4164" x="565" y="190.9828">RabbitMQ</text><text fill="#000000" font-family="sans-serif" font-size="11.2" lengthAdjust="spacing" textLength="65.3953" x="565" y="205.8797">5672 / 15672</text><text fill="#000000" font-family="sans-serif" font-size="11.2" lengthAdjust="spacing" textLength="143.8445" x="565" y="220.7766">Exchange: lending.exchange</text><text fill="#000000" font-family="sans-serif" font-size="11.2" lengthAdjust="spacing" textLength="42.3391" x="565" y="235.6734">Queues:</text><text fill="#000000" font-family="sans-serif" font-size="11.2" lengthAdjust="spacing" textLength="134.4875" x="565" y="250.5703">- reporting.book-lent.queue</text></g><!--entity pg--><g class="entity" data-entity="pg" data-source-line="18" data-uid="ent0011" id="entity_pg"><path d="M1095.8,197.6969 C1095.8,189.6969 1165.7391,189.6969 1165.7391,189.6969 C1165.7391,189.6969 1235.6781,189.6969 1235.6781,197.6969 L1235.6781,234.6906 C1235.6781,242.6906 1165.7391,242.6906 1165.7391,242.6906 C1165.7391,242.6906 1095.8,242.6906 1095.8,234.6906 L1095.8,197.6969" fill="#F1F1F1" style="stroke:#181818;stroke-width:0.4;"/><path d="M1095.8,197.6969 C1095.8,205.6969 1165.7391,205.6969 1165.7391,205.6969 C1165.7391,205.6969 1235.6781,205.6969 1235.6781,197.6969" fill="none" style="stroke:#181818;stroke-width:0.4;"/><text fill="#000000" font-family="sans-serif" font-size="11.2" lengthAdjust="spacing" textLength="59.768" x="1103.8" y="220.9828">Postgres 15</text><text fill="#000000" font-family="sans-serif" font-size="11.2" lengthAdjust="spacing" textLength="123.8781" x="1103.8" y="235.8797">DB: library_management</text></g><!--link gw to auth--><g class="link" data-entity-1="gw" data-entity-2="auth" data-source-line="29" data-uid="lnk19" id="link_gw_auth"><path d="M473.48,70.9529 C533.672,75.7689 655.4,89.0249 753,122.0969 C795.544,136.5129 834.9324,161.3911 864.6604,182.8551" fill="none" id="gw-to-auth" style="stroke:#181818;stroke-width:0.8;"/><polygon fill="#181818" points="868.552,185.6649,864.5877,178.8557,865.309,183.3234,860.8413,184.0446,868.552,185.6649" style="stroke:#181818;stroke-width:0.8;"/><text fill="#000000" font-family="sans-serif" font-size="10.4" lengthAdjust="spacing" textLength="34.1148" x="811.4" y="140.9195">/auth/**</text></g><!--link gw to author--><g class="link" data-entity-1="gw" data-entity-2="author" data-source-line="30" data-uid="lnk20" id="link_gw_author"><path d="M473.408,78.2969 C531.304,94.2889 645.608,128.8969 735.4,174.8969 C741.544,178.0409 743.7637,179.1471 749.7797,183.0191" fill="none" id="gw-to-author" style="stroke:#181818;stroke-width:0.8;"/><polygon fill="#181818" points="753.816,185.6169,749.4935,179.0293,750.4524,183.452,746.0297,184.411,753.816,185.6169" style="stroke:#181818;stroke-width:0.8;"/><text fill="#000000" font-family="sans-serif" font-size="10.4" lengthAdjust="spacing" textLength="65.3301" x="681" y="140.9195">/api/authors/**</text></g><!--link gw to book--><g class="link" data-entity-1="gw" data-entity-2="book" data-source-line="31" data-uid="lnk21" id="link_gw_book"><path d="M398.768,71.5369 C339.104,77.2489 226.712,91.8249 202.6,122.0969 C188.632,139.6329 189.3964,160.7968 194.0364,180.8208" fill="none" id="gw-to-book" style="stroke:#181818;stroke-width:0.8;"/><polygon fill="#181818" points="195.12,185.4969,196.6121,177.7604,194.217,181.6001,190.3773,179.2051,195.12,185.4969" style="stroke:#181818;stroke-width:0.8;"/><text fill="#000000" font-family="sans-serif" font-size="10.4" lengthAdjust="spacing" textLength="58.3934" x="203.4" y="140.9195">/api/books/**</text></g><!--link gw to reader--><g class="link" data-entity-1="gw" data-entity-2="reader" data-source-line="32" data-uid="lnk22" id="link_gw_reader"><path d="M473.488,69.2569 C547.32,71.6329 716.712,81.4569 852.2,122.0969 C898.536,135.9929 942.3371,161.2539 975.1931,182.9259" fill="none" id="gw-to-reader" style="stroke:#181818;stroke-width:0.8;"/><polygon fill="#181818" points="979.2,185.5689,974.9517,178.9332,975.861,183.3664,971.4278,184.2757,979.2,185.5689" style="stroke:#181818;stroke-width:0.8;"/><text fill="#000000" font-family="sans-serif" font-size="10.4" lengthAdjust="spacing" textLength="65.9039" x="921" y="140.9195">/api/readers/**</text></g><!--link gw to lending--><g class="link" data-entity-1="gw" data-entity-2="lending" data-source-line="33" data-uid="lnk23" id="link_gw_lending"><path d="M398.816,69.9209 C323.616,73.5369 157.664,85.5449 116.2,122.0969 C98.264,137.9049 92.1524,159.9438 89.7764,180.7598" fill="none" id="gw-to-lending" style="stroke:#181818;stroke-width:0.8;"/><polygon fill="#181818" points="89.232,185.5289,93.2279,178.7382,89.6856,181.5547,86.8692,178.0124,89.232,185.5289" style="stroke:#181818;stroke-width:0.8;"/><text fill="#000000" font-family="sans-serif" font-size="10.4" lengthAdjust="spacing" textLength="69.3824" x="117" y="140.9195">/api/lendings/**</text></g><!--link gw to reporting--><g class="link" data-entity-1="gw" data-entity-2="reporting" data-source-line="34" data-uid="lnk24" id="link_gw_reporting"><path d="M429.048,98.1609 C424.096,114.7129 416.328,135.1129 405,150.8969 C395.704,163.8489 386.9231,172.6791 374.6191,182.5831" fill="none" id="gw-to-reporting" style="stroke:#181818;stroke-width:0.8;"/><polygon fill="#181818" points="370.88,185.5929,378.4952,183.571,373.996,183.0847,374.4822,178.5854,370.88,185.5929" style="stroke:#181818;stroke-width:0.8;"/><text fill="#000000" font-family="sans-serif" font-size="10.4" lengthAdjust="spacing" textLength="63.0094" x="421" y="140.9195">/api/reports/**</text></g><!--link auth to s_auth--><g class="link" data-entity-1="auth" data-entity-2="s_auth" data-source-line="36" data-uid="lnk25" id="link_auth_s_auth"><path d="M925.256,246.5289 C944.328,276.8409 970.8113,318.9225 986.8273,344.3705" fill="none" id="auth-to-s_auth" style="stroke:#181818;stroke-width:0.8;"/><polygon fill="#181818" points="989.384,348.4329,988.2572,340.6348,987.2534,345.0475,982.8406,344.0437,989.384,348.4329" style="stroke:#181818;stroke-width:0.8;"/></g><!--link book to s_book--><g class="link" data-entity-1="book" data-entity-2="s_book" data-source-line="37" data-uid="lnk26" id="link_book_s_book"><path d="M239.896,246.6249 C246.312,250.8409 253.208,254.6409 260.2,257.2969 C397.416,309.4489 462.056,214.8009 589,288.4969 C612.328,302.0329 626.2277,325.4714 634.7717,344.0634" fill="none" id="book-to-s_book" style="stroke:#181818;stroke-width:0.8;"/><polygon fill="#181818" points="636.776,348.4249,636.6772,340.5464,635.1057,344.7903,630.8618,343.2189,636.776,348.4249" style="stroke:#181818;stroke-width:0.8;"/></g><!--link author to s_author--><g class="link" data-entity-1="author" data-entity-2="s_author" data-source-line="38" data-uid="lnk27" id="link_author_s_author"><path d="M812.456,246.5289 C831.528,276.8409 858.0113,318.9225 874.0273,344.3705" fill="none" id="author-to-s_author" style="stroke:#181818;stroke-width:0.8;"/><polygon fill="#181818" points="876.584,348.4329,875.4572,340.6348,874.4534,345.0475,870.0406,344.0437,876.584,348.4329" style="stroke:#181818;stroke-width:0.8;"/></g><!--link reader to s_reader--><g class="link" data-entity-1="reader" data-entity-2="s_reader" data-source-line="39" data-uid="lnk28" id="link_reader_s_reader"><path d="M1039.336,246.5289 C1058.088,276.8409 1084.1057,318.9035 1099.8577,344.3515" fill="none" id="reader-to-s_reader" style="stroke:#181818;stroke-width:0.8;"/><polygon fill="#181818" points="1102.384,348.4329,1101.3154,340.6266,1100.2787,345.0317,1095.8736,343.995,1102.384,348.4329" style="stroke:#181818;stroke-width:0.8;"/></g><!--link lending to s_lending--><g class="link" data-entity-1="lending" data-entity-2="s_lending" data-source-line="40" data-uid="lnk29" id="link_lending_s_lending"><path d="M127.928,246.5209 C134.944,250.6969 142.384,254.5049 149.8,257.2969 C243.216,292.4489 276.92,258.7609 372.2,288.4969 C418.64,302.9929 464.0484,327.6653 494.5364,345.8973" fill="none" id="lending-to-s_lending" style="stroke:#181818;stroke-width:0.8;"/><polygon fill="#181818" points="498.656,348.3609,494.119,341.9192,495.223,346.3079,490.8343,347.412,498.656,348.3609" style="stroke:#181818;stroke-width:0.8;"/></g><!--link lending to mq--><g class="link" data-entity-1="lending" data-entity-2="mq" data-source-line="42" data-uid="lnk30" id="link_lending_mq"><path d="M130.752,185.5689 C136.992,181.7049 143.456,178.0249 149.8,174.8969 C199.632,150.3529 213.392,143.9049 268.2,134.8969 C327.848,125.0969 344.584,124.9609 404.2,134.8969 C457.896,143.8489 511.2688,161.7166 556.3408,179.4366" fill="none" id="lending-to-mq" style="stroke:#181818;stroke-width:0.8;"/><polygon fill="#181818" points="560.808,181.1929,555.2781,175.5804,557.0854,179.7293,552.9364,181.5366,560.808,181.1929" style="stroke:#181818;stroke-width:0.8;"/><text fill="#000000" font-family="sans-serif" font-size="10.4" lengthAdjust="spacing" textLength="32.957" x="319.8777" y="134.1195">publish</text><text fill="#000000" font-family="sans-serif" font-size="10.4" lengthAdjust="spacing" textLength="134.7125" x="269" y="147.9523">routingKey: lending.book-lent</text></g><!--reverse link reporting to mq--><g class="link" data-entity-1="reporting" data-entity-2="mq" data-source-line="43" data-uid="lnk32" id="link_reporting_mq"><path d="M384.024,216.0969 C433.584,216.0969 503.72,216.0969 560.736,216.0969" fill="none" id="reporting-backto-mq" style="stroke:#181818;stroke-width:0.8;"/><polygon fill="#181818" points="379.224,216.0969,386.424,219.2969,383.224,216.0969,386.424,212.8969,379.224,216.0969" style="stroke:#181818;stroke-width:0.8;"/><text fill="#000000" font-family="sans-serif" font-size="10.4" lengthAdjust="spacing" textLength="42.1992" x="449.1141" y="196.9195">consume</text><text fill="#000000" font-family="sans-serif" font-size="10.4" lengthAdjust="spacing" textLength="153.2273" x="393.6" y="210.7523">queue: reporting.book-lent.queue</text></g><!--link reporting to s_reporting--><g class="link" data-entity-1="reporting" data-entity-2="s_reporting" data-source-line="45" data-uid="lnk33" id="link_reporting_s_reporting"><path d="M379.224,226.5289 C480.352,245.1049 692.504,284.4089 699.4,288.4969 C720.672,301.0969 735.4461,319.3404 746.8381,336.9244" fill="none" id="reporting-to-s_reporting" style="stroke:#181818;stroke-width:0.8;"/><polygon fill="#181818" points="749.448,340.9529,748.2188,333.1703,747.2731,337.5958,742.8475,336.6501,749.448,340.9529" style="stroke:#181818;stroke-width:0.8;"/></g><!--link gw to eure--><g class="link" data-entity-1="gw" data-entity-2="eure" data-source-line="47" data-uid="lnk34" id="link_gw_eure"><path d="M398.976,68.0809 C333.792,68.6809 196,75.8969 91.4,122.0969 C57.168,137.2169 41.968,141.1369 25.8,174.8969 C9.984,207.9289 4.8,227.2969 25.8,257.2969 C88.192,346.4329 226.2454,363.1102 290.0294,366.1262" fill="none" id="gw-to-eure" style="stroke:#181818;stroke-width:0.8;stroke-dasharray:7.0,7.0;"/><polygon fill="#181818" points="294.824,366.3529,287.7832,362.8164,290.8285,366.1639,287.4809,369.2092,294.824,366.3529" style="stroke:#181818;stroke-width:0.8;"/></g><!--link auth to eure--><g class="link" data-entity-1="auth" data-entity-2="eure" data-source-line="48" data-uid="lnk35" id="link_auth_eure"><path d="M873.144,246.5129 C866.808,250.7929 859.976,254.6489 853,257.2969 C812.904,272.5449 509.264,276.0969 468.2,288.4969 C427.72,300.7209 389.8845,323.0023 362.2845,341.4823" fill="none" id="auth-to-eure" style="stroke:#181818;stroke-width:0.8;stroke-dasharray:7.0,7.0;"/><polygon fill="#181818" points="358.296,344.1529,366.0591,342.806,361.6197,341.9274,362.4984,337.488,358.296,344.1529" style="stroke:#181818;stroke-width:0.8;"/></g><!--link book to eure--><g class="link" data-entity-1="book" data-entity-2="eure" data-source-line="49" data-uid="lnk36" id="link_book_eure"><path d="M229.024,246.5289 C250.272,272.7449 278.0974,307.0641 299.3934,333.3361" fill="none" id="book-to-eure" style="stroke:#181818;stroke-width:0.8;stroke-dasharray:7.0,7.0;"/><polygon fill="#181818" points="302.416,337.0649,300.368,329.4566,299.8972,333.9575,295.3963,333.4867,302.416,337.0649" style="stroke:#181818;stroke-width:0.8;"/></g><!--link author to eure--><g class="link" data-entity-1="author" data-entity-2="eure" data-source-line="50" data-uid="lnk37" id="link_author_eure"><path d="M756.344,246.6889 C749.664,250.8409 742.552,254.6009 735.4,257.2969 C623.536,299.4969 582.032,251.9129 468.2,288.4969 C427.936,301.4329 390.0857,323.6123 362.4217,341.8763" fill="none" id="author-to-eure" style="stroke:#181818;stroke-width:0.8;stroke-dasharray:7.0,7.0;"/><polygon fill="#181818" points="358.416,344.5209,366.1877,343.2244,361.7541,342.317,362.6615,337.8834,358.416,344.5209" style="stroke:#181818;stroke-width:0.8;"/></g><!--link reader to eure--><g class="link" data-entity-1="reader" data-entity-2="eure" data-source-line="51" data-uid="lnk38" id="link_reader_eure"><path d="M982.672,246.6169 C975.528,250.8889 967.888,254.7049 960.2,257.2969 C947.224,261.6649 481.344,284.6569 468.2,288.4969 C427.608,300.3689 389.7867,322.6917 362.2267,341.2917" fill="none" id="reader-to-eure" style="stroke:#181818;stroke-width:0.8;stroke-dasharray:7.0,7.0;"/><polygon fill="#181818" points="358.248,343.9769,366.0061,342.6016,361.5636,341.7392,362.4259,337.2967,358.248,343.9769" style="stroke:#181818;stroke-width:0.8;"/></g><!--link lending to eure--><g class="link" data-entity-1="lending" data-entity-2="eure" data-source-line="52" data-uid="lnk39" id="link_lending_eure"><path d="M133.2,246.5929 C138.776,250.2249 144.408,253.8569 149.8,257.2969 C200.192,289.4329 255.2248,323.3211 290.7368,345.0331" fill="none" id="lending-to-eure" style="stroke:#181818;stroke-width:0.8;stroke-dasharray:7.0,7.0;"/><polygon fill="#181818" points="294.832,347.5369,290.3584,341.051,291.4193,345.4504,287.0199,346.5113,294.832,347.5369" style="stroke:#181818;stroke-width:0.8;"/></g><!--link reporting to eure--><g class="link" data-entity-1="reporting" data-entity-2="eure" data-source-line="53" data-uid="lnk40" id="link_reporting_eure"><path d="M326.6,246.5289 C326.6,272.7449 326.6,305.9929 326.6,332.2649" fill="none" id="reporting-to-eure" style="stroke:#181818;stroke-width:0.8;stroke-dasharray:7.0,7.0;"/><polygon fill="#181818" points="326.6,337.0649,329.8,329.8649,326.6,333.0649,323.4,329.8649,326.6,337.0649" style="stroke:#181818;stroke-width:0.8;"/></g><!--link pg to s_auth--><!--link pg to s_book--><!--link pg to s_author--><!--link pg to s_reader--><!--link pg to s_lending--><!--link pg to s_reporting--><!--SRC=[TLJRQjj047tVhnXIA6d0Tf8s5umnD9UMqWIQ-B4gOIMj9M5fLzbTnJMb_zxPcop9gb-aENFEpEpPiNIXImOFHIoftC4ZvJHZ5UCQ9d0hkAO5PrB1UxYZciANKcpX-FRfUVM14BKfU4qbhI2coIQJek7fhIY5X7Th- -im4b7LWcFPbTvXEyaIJNbMiWv5vJGLsu9diAQbwcPyPOcJm3KXhHYElbBDjdGNyLf83TUdrwT7G1LaMrWiV6wvx0hk6yasDF2lBiyido6AYczyBMcV_xdHEQoOV2iIjk_YLDJa5elLMzBNt0YnETHyj9hOv4OqfWyQTw0wRpjXTaJtp6ZAHdIVh4wwx8ZkWV7KM7qWlB32qgT7EnhggFRIDms4e2Ql3MkCbCPneH-V8dvnUNKECpWppuZV_qvohCxceU-KUIJYJqQgvX6Vx0jFZOiJvEgfhMpRLgyanHMDgS9EFuJIcMGAEqJyxWOBk_r-gThzjg8w8mJll4B9AibPHTKH_240-qh6-XVbJcebwiL0FOuPPy0nq44T8KSg2TdZkIiRy1pOutcd1aIF3Yfwsm8tuiUc85GYPQNwqFRmDFAN4Fm3JIPBj-5pc9ddxEIa2-CwcaHTp5oaEdcxv3vhthivlv8-ww9kFcoU9_YmNo7iLrl409P2xCI6vQ_9Zk9YUoL-z3q3xVSZESnR7SPmOB1r3yiYopNcgbUSecxYib1vnF53PGRxpdRxLMvtbI0NNzPwS8P4SDLKU2jsb-V_NtFpvGkoC6ouCsFETBgqNp9dGXjP2tevDA2D_U7RE9omGmWzMuZKEC3Fl4XJndzDWjL3qFeznaJBXx1tVGW7tm_fuTp_0000]--></g></svg>