<svg xmlns="http://www.w3.org/2000/svg" xmlns:xlink="http://www.w3.org/1999/xlink" contentStyleType="text/css" data-diagram-type="ACTIVITY" height="362px" preserveAspectRatio="none" style="width:176px;height:362px;background:#FFFFFF;" version="1.1" viewBox="0 0 176 362" width="176px" zoomAndPan="magnify"><defs/><g><ellipse cx="88.3652" cy="20" fill="#222222" rx="10" ry="10" style="stroke:#222222;stroke-width:1;"/><rect fill="#F1F1F1" height="35.9609" rx="12.5" ry="12.5" style="stroke:#181818;stroke-width:0.5;" width="116.709" x="30.0107" y="50"/><text fill="#000000" font-family="sans-serif" font-size="12" lengthAdjust="spacing" textLength="96.709" x="40.0107" y="72.9492">Receive reader ID</text><rect fill="#F1F1F1" height="35.9609" rx="12.5" ry="12.5" style="stroke:#181818;stroke-width:0.5;" width="124.0508" x="26.3398" y="105.9609"/><text fill="#000000" font-family="sans-serif" font-size="12" lengthAdjust="spacing" textLength="104.0508" x="36.3398" y="128.9102">Fetch reader profile</text><rect fill="#F1F1F1" height="35.9609" rx="12.5" ry="12.5" style="stroke:#181818;stroke-width:0.5;" width="144.0723" x="16.3291" y="161.9219"/><text fill="#000000" font-family="sans-serif" font-size="12" lengthAdjust="spacing" textLength="124.0723" x="26.3291" y="184.8711">Fetch relevant lendings</text><rect fill="#F1F1F1" height="35.9609" rx="12.5" ry="12.5" style="stroke:#181818;stroke-width:0.5;" width="135.3828" x="20.6738" y="217.8828"/><text fill="#000000" font-family="sans-serif" font-size="12" lengthAdjust="spacing" textLength="115.3828" x="30.6738" y="240.832">Filter or rank lendings</text><rect fill="#F1F1F1" height="35.9609" rx="12.5" ry="12.5" style="stroke:#181818;stroke-width:0.5;" width="154.7305" x="11" y="273.8438"/><text fill="#000000" font-family="sans-serif" font-size="12" lengthAdjust="spacing" textLength="134.7305" x="21" y="296.793">Return recommendations</text><ellipse cx="88.3652" cy="340.8047" fill="none" rx="11" ry="11" style="stroke:#222222;stroke-width:1;"/><ellipse cx="88.3652" cy="340.8047" fill="#222222" rx="6" ry="6" style="stroke:#222222;stroke-width:1;"/><line style="stroke:#181818;stroke-width:1;" x1="88.3652" x2="88.3652" y1="30" y2="50"/><polygon fill="#181818" points="84.3652,40,88.3652,50,92.3652,40,88.3652,44" style="stroke:#181818;stroke-width:1;"/><line style="stroke:#181818;stroke-width:1;" x1="88.3652" x2="88.3652" y1="85.9609" y2="105.9609"/><polygon fill="#181818" points="84.3652,95.9609,88.3652,105.9609,92.3652,95.9609,88.3652,99.9609" style="stroke:#181818;stroke-width:1;"/><line style="stroke:#181818;stroke-width:1;" x1="88.3652" x2="88.3652" y1="141.9219" y2="161.9219"/><polygon fill="#181818" points="84.3652,151.9219,88.3652,161.9219,92.3652,151.9219,88.3652,155.9219" style="stroke:#181818;stroke-width:1;"/><line style="stroke:#181818;stroke-width:1;" x1="88.3652" x2="88.3652" y1="197.8828" y2="217.8828"/><polygon fill="#181818" points="84.3652,207.8828,88.3652,217.8828,92.3652,207.8828,88.3652,211.8828" style="stroke:#181818;stroke-width:1;"/><line style="stroke:#181818;stroke-width:1;" x1="88.3652" x2="88.3652" y1="253.8438" y2="273.8438"/><polygon fill="#181818" points="84.3652,263.8438,88.3652,273.8438,92.3652,263.8438,88.3652,267.8438" style="stroke:#181818;stroke-width:1;"/><line style="stroke:#181818;stroke-width:1;" x1="88.3652" x2="88.3652" y1="309.8047" y2="329.8047"/><polygon fill="#181818" points="84.3652,319.8047,88.3652,329.8047,92.3652,319.8047,88.3652,323.8047" style="stroke:#181818;stroke-width:1;"/><!--SRC=[JSkn3O0m34JHdYao1xG8YPODhEG0Ys0ZnsH-Ge54-zzTSJBl-WKHN14Cb61X7eUkd-1n_yfbkdB6BsTK4WyPabYsyWfdRrErO2J7NnRuRT9EKS-pPN9MQL1ShmS0]--></g></svg>