<svg xmlns="http://www.w3.org/2000/svg" xmlns:xlink="http://www.w3.org/1999/xlink" contentStyleType="text/css" data-diagram-type="CLASS" height="285px" preserveAspectRatio="none" style="width:399px;height:285px;background:#FFFFFF;" version="1.1" viewBox="0 0 399 285" width="399px" zoomAndPan="magnify"><defs/><g><!--cluster Services--><g class="cluster" data-entity="Services" data-source-line="1" data-uid="ent0002" id="cluster_Services"><path d="M8.5,6.0137 L67.1064,6.0137 A3.75,3.75 0 0 1 69.6064,8.5137 L76.6064,30.6348 L389.5,30.6348 A2.5,2.5 0 0 1 392,33.1348 L392,123.5137 A2.5,2.5 0 0 1 389.5,126.0137 L8.5,126.0137 A2.5,2.5 0 0 1 6,123.5137 L6,8.5137 A2.5,2.5 0 0 1 8.5,6.0137" fill="none" style="stroke:#000000;stroke-width:1.5;"/><line style="stroke:#000000;stroke-width:1.5;" x1="6" x2="76.6064" y1="30.6348" y2="30.6348"/><text fill="#000000" font-family="sans-serif" font-size="14" font-weight="bold" lengthAdjust="spacing" textLength="57.6064" x="10" y="23.1211">Services</text></g><!--cluster Entities--><g class="cluster" data-entity="Entities" data-source-line="7" data-uid="ent0004" id="cluster_Entities"><path d="M84.5,177.0137 L136.0654,177.0137 A3.75,3.75 0 0 1 138.5654,179.5137 L145.5654,201.6348 L306.5,201.6348 A2.5,2.5 0 0 1 309,204.1348 L309,275.5137 A2.5,2.5 0 0 1 306.5,278.0137 L84.5,278.0137 A2.5,2.5 0 0 1 82,275.5137 L82,179.5137 A2.5,2.5 0 0 1 84.5,177.0137" fill="none" style="stroke:#000000;stroke-width:1.5;"/><line style="stroke:#000000;stroke-width:1.5;" x1="82" x2="145.5654" y1="201.6348" y2="201.6348"/><text fill="#000000" font-family="sans-serif" font-size="14" font-weight="bold" lengthAdjust="spacing" textLength="50.5654" x="86" y="194.1211">Entities</text></g><!--class LendingServiceImpl--><g class="entity" data-entity="LendingServiceImpl" data-source-line="2" data-uid="ent0003" id="entity_LendingServiceImpl"><rect fill="#F1F1F1" height="66.6211" rx="2.5" ry="2.5" style="stroke:#181818;stroke-width:0.5;" width="352.8809" x="22.5" y="43.0137"/><ellipse cx="133.2114" cy="59.0137" fill="#ADD1B2" rx="11" ry="11" style="stroke:#181818;stroke-width:1;"/><path d="M135.9771,54.8887 Q136.1333,54.6699 136.3208,54.5605 Q136.5083,54.4512 136.7271,54.4512 Q137.1021,54.4512 137.3364,54.7168 Q137.5708,54.9668 137.5708,55.5762 L137.5708,57.0293 Q137.5708,57.6387 137.3364,57.9043 Q137.1021,58.1699 136.7271,58.1699 Q136.3833,58.1699 136.1802,57.9668 Q135.9771,57.7793 135.8677,57.2637 Q135.8208,56.9043 135.6333,56.7168 Q135.3052,56.3418 134.6958,56.123 Q134.0864,55.9043 133.4614,55.9043 Q132.6958,55.9043 132.0552,56.2324 Q131.4302,56.5605 130.9302,57.3105 Q130.4458,58.0605 130.4458,59.0918 L130.4458,60.1855 Q130.4458,61.4199 131.3364,62.248 Q132.2271,63.0605 133.8208,63.0605 Q134.7583,63.0605 135.4146,62.8105 Q135.8052,62.6543 136.2271,62.2168 Q136.4927,61.9512 136.6333,61.873 Q136.7896,61.7949 136.9927,61.7949 Q137.3208,61.7949 137.5708,62.0605 Q137.8364,62.3105 137.8364,62.6543 Q137.8364,62.998 137.4927,63.4043 Q136.9927,63.9824 136.1958,64.3105 Q135.1177,64.7637 133.8208,64.7637 Q132.3052,64.7637 131.1021,64.1387 Q130.1177,63.6387 129.4302,62.5762 Q128.7427,61.498 128.7427,60.2168 L128.7427,59.0605 Q128.7427,57.7324 129.3521,56.5918 Q129.9771,55.4355 131.0708,54.8262 Q132.1646,54.2012 133.3989,54.2012 Q134.1333,54.2012 134.7739,54.373 Q135.4302,54.5293 135.9771,54.8887 Z " fill="#000000"/><text fill="#000000" font-family="sans-serif" font-size="14" lengthAdjust="spacing" textLength="122.958" x="153.7114" y="64.8105">LendingServiceImpl</text><line style="stroke:#181818;stroke-width:0.5;" x1="23.5" x2="374.3809" y1="75.0137" y2="75.0137"/><line style="stroke:#181818;stroke-width:0.5;" x1="23.5" x2="374.3809" y1="83.0137" y2="83.0137"/><ellipse cx="33.5" cy="97.8242" fill="#84BE84" rx="3" ry="3" style="stroke:#038048;stroke-width:1;"/><text fill="#000000" font-family="sans-serif" font-size="14" lengthAdjust="spacing" textLength="326.8809" x="42.5" y="102.1211">recommendLendings(Long readerId) : List&lt;Lending&gt;</text></g><!--class Lending--><g class="entity" data-entity="Lending" data-source-line="8" data-uid="ent0005" id="entity_Lending"><rect fill="#F1F1F1" height="48" rx="2.5" ry="2.5" style="stroke:#181818;stroke-width:0.5;" width="81.8271" x="98" y="214.0137"/><ellipse cx="113" cy="230.0137" fill="#ADD1B2" rx="11" ry="11" style="stroke:#181818;stroke-width:1;"/><path d="M115.7656,225.8887 Q115.9219,225.6699 116.1094,225.5605 Q116.2969,225.4512 116.5156,225.4512 Q116.8906,225.4512 117.125,225.7168 Q117.3594,225.9668 117.3594,226.5762 L117.3594,228.0293 Q117.3594,228.6387 117.125,228.9043 Q116.8906,229.1699 116.5156,229.1699 Q116.1719,229.1699 115.9688,228.9668 Q115.7656,228.7793 115.6563,228.2637 Q115.6094,227.9043 115.4219,227.7168 Q115.0938,227.3418 114.4844,227.123 Q113.875,226.9043 113.25,226.9043 Q112.4844,226.9043 111.8438,227.2324 Q111.2188,227.5605 110.7188,228.3105 Q110.2344,229.0605 110.2344,230.0918 L110.2344,231.1855 Q110.2344,232.4199 111.125,233.248 Q112.0156,234.0605 113.6094,234.0605 Q114.5469,234.0605 115.2031,233.8105 Q115.5938,233.6543 116.0156,233.2168 Q116.2813,232.9512 116.4219,232.873 Q116.5781,232.7949 116.7813,232.7949 Q117.1094,232.7949 117.3594,233.0605 Q117.625,233.3105 117.625,233.6543 Q117.625,233.998 117.2813,234.4043 Q116.7813,234.9824 115.9844,235.3105 Q114.9063,235.7637 113.6094,235.7637 Q112.0938,235.7637 110.8906,235.1387 Q109.9063,234.6387 109.2188,233.5762 Q108.5313,232.498 108.5313,231.2168 L108.5313,230.0605 Q108.5313,228.7324 109.1406,227.5918 Q109.7656,226.4355 110.8594,225.8262 Q111.9531,225.2012 113.1875,225.2012 Q113.9219,225.2012 114.5625,225.373 Q115.2188,225.5293 115.7656,225.8887 Z " fill="#000000"/><text fill="#000000" font-family="sans-serif" font-size="14" lengthAdjust="spacing" textLength="49.8271" x="127" y="235.8105">Lending</text><line style="stroke:#181818;stroke-width:0.5;" x1="99" x2="178.8271" y1="246.0137" y2="246.0137"/><line style="stroke:#181818;stroke-width:0.5;" x1="99" x2="178.8271" y1="254.0137" y2="254.0137"/></g><!--class Reader--><g class="entity" data-entity="Reader" data-source-line="9" data-uid="ent0006" id="entity_Reader"><rect fill="#F1F1F1" height="48" rx="2.5" ry="2.5" style="stroke:#181818;stroke-width:0.5;" width="77.917" x="215" y="214.0137"/><ellipse cx="230" cy="230.0137" fill="#ADD1B2" rx="11" ry="11" style="stroke:#181818;stroke-width:1;"/><path d="M232.7656,225.8887 Q232.9219,225.6699 233.1094,225.5605 Q233.2969,225.4512 233.5156,225.4512 Q233.8906,225.4512 234.125,225.7168 Q234.3594,225.9668 234.3594,226.5762 L234.3594,228.0293 Q234.3594,228.6387 234.125,228.9043 Q233.8906,229.1699 233.5156,229.1699 Q233.1719,229.1699 232.9688,228.9668 Q232.7656,228.7793 232.6563,228.2637 Q232.6094,227.9043 232.4219,227.7168 Q232.0938,227.3418 231.4844,227.123 Q230.875,226.9043 230.25,226.9043 Q229.4844,226.9043 228.8438,227.2324 Q228.2188,227.5605 227.7188,228.3105 Q227.2344,229.0605 227.2344,230.0918 L227.2344,231.1855 Q227.2344,232.4199 228.125,233.248 Q229.0156,234.0605 230.6094,234.0605 Q231.5469,234.0605 232.2031,233.8105 Q232.5938,233.6543 233.0156,233.2168 Q233.2813,232.9512 233.4219,232.873 Q233.5781,232.7949 233.7813,232.7949 Q234.1094,232.7949 234.3594,233.0605 Q234.625,233.3105 234.625,233.6543 Q234.625,233.998 234.2813,234.4043 Q233.7813,234.9824 232.9844,235.3105 Q231.9063,235.7637 230.6094,235.7637 Q229.0938,235.7637 227.8906,235.1387 Q226.9063,234.6387 226.2188,233.5762 Q225.5313,232.498 225.5313,231.2168 L225.5313,230.0605 Q225.5313,228.7324 226.1406,227.5918 Q226.7656,226.4355 227.8594,225.8262 Q228.9531,225.2012 230.1875,225.2012 Q230.9219,225.2012 231.5625,225.373 Q232.2188,225.5293 232.7656,225.8887 Z " fill="#000000"/><text fill="#000000" font-family="sans-serif" font-size="14" lengthAdjust="spacing" textLength="45.917" x="244" y="235.8105">Reader</text><line style="stroke:#181818;stroke-width:0.5;" x1="216" x2="291.917" y1="246.0137" y2="246.0137"/><line style="stroke:#181818;stroke-width:0.5;" x1="216" x2="291.917" y1="254.0137" y2="254.0137"/></g><!--link LendingServiceImpl to Reader--><g class="link" data-entity-1="LendingServiceImpl" data-entity-2="Reader" data-source-line="12" data-uid="lnk7" id="link_LendingServiceImpl_Reader"><path codeLine="12" d="M210.26,110.1737 C220.89,140.9837 234.5829,180.7218 244.0029,208.0218" fill="none" id="LendingServiceImpl-to-Reader" style="stroke:#181818;stroke-width:1;"/><polygon fill="#181818" points="245.96,213.6937,246.8056,203.8812,244.3291,208.9671,239.2431,206.4906,245.96,213.6937" style="stroke:#181818;stroke-width:1;"/><polygon fill="#000000" points="232.63,156.386,232.4596,146.877,226.9029,148.7932,232.63,156.386" style="stroke:#000000;stroke-width:1;"/><text fill="#000000" font-family="sans-serif" font-size="13" lengthAdjust="spacing" textLength="32.519" x="240" y="157.042">reads</text></g><!--link LendingServiceImpl to Lending--><g class="link" data-entity-1="LendingServiceImpl" data-entity-2="Lending" data-source-line="13" data-uid="lnk8" id="link_LendingServiceImpl_Lending"><path codeLine="13" d="M175.04,110.0537 C168.7,119.9237 162.4,131.0537 158,142.0137 C148.6,165.4237 144.4316,188.0597 141.9816,207.7297" fill="none" id="LendingServiceImpl-to-Lending" style="stroke:#181818;stroke-width:1;"/><polygon fill="#181818" points="141.24,213.6837,146.3217,205.2471,141.858,208.722,138.3831,204.2583,141.24,213.6837" style="stroke:#181818;stroke-width:1;"/><polygon fill="#000000" points="161.3971,156.3953,167.0806,148.7698,161.513,146.8854,161.3971,156.3953" style="stroke:#000000;stroke-width:1;"/><text fill="#000000" font-family="sans-serif" font-size="13" lengthAdjust="spacing" textLength="40.46" x="172" y="157.042">returns</text></g><!--SRC=[TOx12iCW44JlViMIKqh93vJWhOU0f_OBH1UHHYEkxQNatwkoXHwQESwysTcapKCxXE6E-UKDqW1l0LLcrKIWC5eV7OTBI2l7JMV8QBOGAiCSZMgBhjhQObxi2IwWF9MPOzchkzY5ID_TQoo- -8FT7-VMRxRgdv-cIJ9G5ziwWJpYsEvWUUPOqGy0]--></g></svg>