<svg xmlns="http://www.w3.org/2000/svg" xmlns:xlink="http://www.w3.org/1999/xlink" contentStyleType="text/css" data-diagram-type="DESCRIPTION" height="421px" preserveAspectRatio="none" style="width:391px;height:421px;background:#FFFFFF;" version="1.1" viewBox="0 0 391 421" width="391px" zoomAndPan="magnify"><defs/><g><!--cluster Controller--><g class="cluster" data-entity="Controller" data-source-line="1" data-uid="ent0002" id="cluster_Controller"> <rect width="100%" height="100%" fill="#FFFFFF"/><path d="M102.5,6.0137 L170.3896,6.0137 A3.75,3.75 0 0 1 172.8896,8.5137 L179.8896,30.6348 L281.5,30.6348 A2.5,2.5 0 0 1 284,33.1348 L284,105.5137 A2.5,2.5 0 0 1 281.5,108.0137 L102.5,108.0137 A2.5,2.5 0 0 1 100,105.5137 L100,8.5137 A2.5,2.5 0 0 1 102.5,6.0137" fill="none" style="stroke:#000000;stroke-width:1.5;"/><line style="stroke:#000000;stroke-width:1.5;" x1="100" x2="179.8896" y1="30.6348" y2="30.6348"/><text fill="#000000" font-family="sans-serif" font-size="14" font-weight="bold" lengthAdjust="spacing" textLength="66.8896" x="104" y="23.1211">Controller</text></g><!--cluster Service--><g class="cluster" data-entity="Service" data-source-line="5" data-uid="ent0004" id="cluster_Service"><path d="M96.5,159.0137 L147.3203,159.0137 A3.75,3.75 0 0 1 149.8203,161.5137 L156.8203,183.6348 L287.5,183.6348 A2.5,2.5 0 0 1 290,186.1348 L290,258.5137 A2.5,2.5 0 0 1 287.5,261.0137 L96.5,261.0137 A2.5,2.5 0 0 1 94,258.5137 L94,161.5137 A2.5,2.5 0 0 1 96.5,159.0137" fill="none" style="stroke:#000000;stroke-width:1.5;"/><line style="stroke:#000000;stroke-width:1.5;" x1="94" x2="156.8203" y1="183.6348" y2="183.6348"/><text fill="#000000" font-family="sans-serif" font-size="14" font-weight="bold" lengthAdjust="spacing" textLength="49.8203" x="98" y="176.1211">Service</text></g><!--cluster Repository--><g class="cluster" data-entity="Repository" data-source-line="9" data-uid="ent0006" id="cluster_Repository"><path d="M8.5,312.0137 L82.624,312.0137 A3.75,3.75 0 0 1 85.124,314.5137 L92.124,336.6348 L381.5,336.6348 A2.5,2.5 0 0 1 384,339.1348 L384,411.5137 A2.5,2.5 0 0 1 381.5,414.0137 L8.5,414.0137 A2.5,2.5 0 0 1 6,411.5137 L6,314.5137 A2.5,2.5 0 0 1 8.5,312.0137" fill="none" style="stroke:#000000;stroke-width:1.5;"/><line style="stroke:#000000;stroke-width:1.5;" x1="6" x2="92.124" y1="336.6348" y2="336.6348"/><text fill="#000000" font-family="sans-serif" font-size="14" font-weight="bold" lengthAdjust="spacing" textLength="73.124" x="10" y="329.1211">Repository</text></g><!--entity LendingController--><g class="entity" data-entity="LendingController" data-source-line="2" data-uid="ent0003" id="entity_LendingController"><rect fill="#F1F1F1" height="48.6211" rx="2.5" ry="2.5" style="stroke:#181818;stroke-width:0.5;" width="150.5166" x="116.5" y="43.0137"/><rect fill="#F1F1F1" height="10" style="stroke:#181818;stroke-width:0.5;" width="15" x="247.0166" y="48.0137"/><rect fill="#F1F1F1" height="2" style="stroke:#181818;stroke-width:0.5;" width="4" x="245.0166" y="50.0137"/><rect fill="#F1F1F1" height="2" style="stroke:#181818;stroke-width:0.5;" width="4" x="245.0166" y="54.0137"/><text fill="#000000" font-family="sans-serif" font-size="14" lengthAdjust="spacing" textLength="110.5166" x="131.5" y="78.1211">LendingController</text></g><!--entity LendingServiceImpl--><g class="entity" data-entity="LendingServiceImpl" data-source-line="6" data-uid="ent0005" id="entity_LendingServiceImpl"><rect fill="#F1F1F1" height="48.6211" rx="2.5" ry="2.5" style="stroke:#181818;stroke-width:0.5;" width="162.958" x="110.5" y="196.0137"/><rect fill="#F1F1F1" height="10" style="stroke:#181818;stroke-width:0.5;" width="15" x="253.458" y="201.0137"/><rect fill="#F1F1F1" height="2" style="stroke:#181818;stroke-width:0.5;" width="4" x="251.458" y="203.0137"/><rect fill="#F1F1F1" height="2" style="stroke:#181818;stroke-width:0.5;" width="4" x="251.458" y="207.0137"/><text fill="#000000" font-family="sans-serif" font-size="14" lengthAdjust="spacing" textLength="122.958" x="125.5" y="231.1211">LendingServiceImpl</text></g><!--entity LendingRepository--><g class="entity" data-entity="LendingRepository" data-source-line="10" data-uid="ent0007" id="entity_LendingRepository"><rect fill="#F1F1F1" height="48.6211" rx="2.5" ry="2.5" style="stroke:#181818;stroke-width:0.5;" width="156.7441" x="22.5" y="349.0137"/><rect fill="#F1F1F1" height="10" style="stroke:#181818;stroke-width:0.5;" width="15" x="159.2441" y="354.0137"/><rect fill="#F1F1F1" height="2" style="stroke:#181818;stroke-width:0.5;" width="4" x="157.2441" y="356.0137"/><rect fill="#F1F1F1" height="2" style="stroke:#181818;stroke-width:0.5;" width="4" x="157.2441" y="360.0137"/><text fill="#000000" font-family="sans-serif" font-size="14" lengthAdjust="spacing" textLength="116.7441" x="37.5" y="384.1211">LendingRepository</text></g><!--entity ReaderRepository--><g class="entity" data-entity="ReaderRepository" data-source-line="11" data-uid="ent0008" id="entity_ReaderRepository"><rect fill="#F1F1F1" height="48.6211" rx="2.5" ry="2.5" style="stroke:#181818;stroke-width:0.5;" width="152.834" x="214.5" y="349.0137"/><rect fill="#F1F1F1" height="10" style="stroke:#181818;stroke-width:0.5;" width="15" x="347.334" y="354.0137"/><rect fill="#F1F1F1" height="2" style="stroke:#181818;stroke-width:0.5;" width="4" x="345.334" y="356.0137"/><rect fill="#F1F1F1" height="2" style="stroke:#181818;stroke-width:0.5;" width="4" x="345.334" y="360.0137"/><text fill="#000000" font-family="sans-serif" font-size="14" lengthAdjust="spacing" textLength="112.834" x="229.5" y="384.1211">ReaderRepository</text></g><!--link LendingController to LendingServiceImpl--><g class="link" data-entity-1="LendingController" data-entity-2="LendingServiceImpl" data-source-line="14" data-uid="lnk9" id="link_LendingController_LendingServiceImpl"><path d="M192,92.1037 C192,120.3137 192,161.2437 192,189.5837" fill="none" id="LendingController-to-LendingServiceImpl" style="stroke:#181818;stroke-width:1;"/><polygon fill="#181818" points="192,195.5837,196,186.5837,192,190.5837,188,186.5837,192,195.5837" style="stroke:#181818;stroke-width:1;"/><text fill="#000000" font-family="sans-serif" font-size="13" lengthAdjust="spacing" textLength="130.0635" x="193" y="139.042">recommendLendings()</text></g><!--link LendingServiceImpl to ReaderRepository--><g class="link" data-entity-1="LendingServiceImpl" data-entity-2="ReaderRepository" data-source-line="15" data-uid="lnk10" id="link_LendingServiceImpl_ReaderRepository"><path d="M220.35,245.0337 C230.29,254.2737 240.97,265.4337 249,277.0137 C264.59,299.4837 274.4144,323.0117 281.4844,343.1717" fill="none" id="LendingServiceImpl-to-ReaderRepository" style="stroke:#181818;stroke-width:1;"/><polygon fill="#181818" points="283.47,348.8337,284.2662,339.0171,281.8153,344.1154,276.717,341.6645,283.47,348.8337" style="stroke:#181818;stroke-width:1;"/><text fill="#000000" font-family="sans-serif" font-size="13" lengthAdjust="spacing" textLength="55.6309" x="261" y="292.042">findById()</text></g><!--link LendingServiceImpl to LendingRepository--><g class="link" data-entity-1="LendingServiceImpl" data-entity-2="LendingRepository" data-source-line="16" data-uid="lnk11" id="link_LendingServiceImpl_LendingRepository"><path d="M137.58,245.0537 C124.74,253.2637 112.6,263.8137 105,277.0137 C92.41,298.8737 92.5306,322.5013 95.3806,342.9213" fill="none" id="LendingServiceImpl-to-LendingRepository" style="stroke:#181818;stroke-width:1;"/><polygon fill="#181818" points="96.21,348.8637,98.9275,339.3972,95.5189,343.9117,91.0043,340.503,96.21,348.8637" style="stroke:#181818;stroke-width:1;"/><text fill="#000000" font-family="sans-serif" font-size="13" lengthAdjust="spacing" textLength="138.0044" x="106" y="292.042">findRecommendations()</text></g><!--SRC=[AqXCpavCJrLGSixFAodApyb9BL9IgEPI089edzIybCoyT8HCB5Sj5rS1J4TmQb5PPd8gkdAei6TkGGwg-g3KWlpYp9ByeafqBGYPM8XuK6fYIceHiZ3G82pkKT3LjSDgiOALGb5gSdvkBb0AAbsieSc5LIdO30mRWIQaPUQbE5Lwfk3LYEa5gCuWcFs99PdvUK3R0G00]--></g></svg>