<svg xmlns="http://www.w3.org/2000/svg" xmlns:xlink="http://www.w3.org/1999/xlink" contentStyleType="text/css" data-diagram-type="SEQUENCE" height="374px" preserveAspectRatio="none" style="width:746px;height:374px;background:#FFFFFF;" version="1.1" viewBox="0 0 746 374" width="746px" zoomAndPan="magnify"> <rect width="100%" height="100%" fill="#FFFFFF"/><defs/><g><g><title>Reader</title><rect fill="#000000" fill-opacity="0.00000" height="207.7461" width="8" x="26.9585" y="83.6211"/><line style="stroke:#181818;stroke-width:0.5;stroke-dasharray:5.0,5.0;" x1="30" x2="30" y1="83.6211" y2="291.3672"/></g><g><title>LendingController</title><rect fill="#000000" fill-opacity="0.00000" height="207.7461" width="8" x="188.2329" y="83.6211"/><line style="stroke:#181818;stroke-width:0.5;stroke-dasharray:5.0,5.0;" x1="191.9746" x2="191.9746" y1="83.6211" y2="291.3672"/></g><g><title>LendingServiceImpl</title><rect fill="#000000" fill-opacity="0.00000" height="207.7461" width="8" x="390.7163" y="83.6211"/><line style="stroke:#181818;stroke-width:0.5;stroke-dasharray:5.0,5.0;" x1="394.2373" x2="394.2373" y1="83.6211" y2="291.3672"/></g><g><title>ReaderRepository</title><rect fill="#000000" fill-opacity="0.00000" height="207.7461" width="8" x="532.6123" y="83.6211"/><line style="stroke:#181818;stroke-width:0.5;stroke-dasharray:5.0,5.0;" x1="536.1953" x2="536.1953" y1="83.6211" y2="291.3672"/></g><g><title>LendingRepository</title><rect fill="#000000" fill-opacity="0.00000" height="207.7461" width="8" x="671.4014" y="83.6211"/><line style="stroke:#181818;stroke-width:0.5;stroke-dasharray:5.0,5.0;" x1="675.0293" x2="675.0293" y1="83.6211" y2="291.3672"/></g><g class="participant participant-head" data-participant="Reader"><text fill="#000000" font-family="sans-serif" font-size="14" lengthAdjust="spacing" textLength="45.917" x="5" y="80.1074">Reader</text><ellipse cx="30.9585" cy="13.5" fill="#E2E2F0" rx="8" ry="8" style="stroke:#181818;stroke-width:0.5;"/><path d="M30.9585,21.5 L30.9585,48.5 M17.9585,29.5 L43.9585,29.5 M30.9585,48.5 L17.9585,63.5 M30.9585,48.5 L43.9585,63.5" fill="none" style="stroke:#181818;stroke-width:0.5;"/></g><g class="participant participant-tail" data-participant="Reader"><text fill="#000000" font-family="sans-serif" font-size="14" lengthAdjust="spacing" textLength="45.917" x="5" y="305.4746">Reader</text><ellipse cx="30.9585" cy="317.4883" fill="#E2E2F0" rx="8" ry="8" style="stroke:#181818;stroke-width:0.5;"/><path d="M30.9585,325.4883 L30.9585,352.4883 M17.9585,333.4883 L43.9585,333.4883 M30.9585,352.4883 L17.9585,367.4883 M30.9585,352.4883 L43.9585,367.4883" fill="none" style="stroke:#181818;stroke-width:0.5;"/></g><g class="participant participant-head" data-participant="LendingController"><rect fill="#E2E2F0" height="32.6211" rx="2.5" ry="2.5" style="stroke:#181818;stroke-width:0.5;" width="124.5166" x="129.9746" y="50"/><text fill="#000000" font-family="sans-serif" font-size="14" lengthAdjust="spacing" textLength="110.5166" x="136.9746" y="72.1074">LendingController</text></g><g class="participant participant-tail" data-participant="LendingController"><rect fill="#E2E2F0" height="32.6211" rx="2.5" ry="2.5" style="stroke:#181818;stroke-width:0.5;" width="124.5166" x="129.9746" y="290.3672"/><text fill="#000000" font-family="sans-serif" font-size="14" lengthAdjust="spacing" textLength="110.5166" x="136.9746" y="312.4746">LendingController</text></g><g class="participant participant-head" data-participant="LendingServiceImpl"><rect fill="#E2E2F0" height="32.6211" rx="2.5" ry="2.5" style="stroke:#181818;stroke-width:0.5;" width="136.958" x="326.2373" y="50"/><text fill="#000000" font-family="sans-serif" font-size="14" lengthAdjust="spacing" textLength="122.958" x="333.2373" y="72.1074">LendingServiceImpl</text></g><g class="participant participant-tail" data-participant="LendingServiceImpl"><rect fill="#E2E2F0" height="32.6211" rx="2.5" ry="2.5" style="stroke:#181818;stroke-width:0.5;" width="136.958" x="326.2373" y="290.3672"/><text fill="#000000" font-family="sans-serif" font-size="14" lengthAdjust="spacing" textLength="122.958" x="333.2373" y="312.4746">LendingServiceImpl</text></g><g class="participant participant-head" data-participant="ReaderRepository"><rect fill="#E2E2F0" height="32.6211" rx="2.5" ry="2.5" style="stroke:#181818;stroke-width:0.5;" width="126.834" x="473.1953" y="50"/><text fill="#000000" font-family="sans-serif" font-size="14" lengthAdjust="spacing" textLength="112.834" x="480.1953" y="72.1074">ReaderRepository</text></g><g class="participant participant-tail" data-participant="ReaderRepository"><rect fill="#E2E2F0" height="32.6211" rx="2.5" ry="2.5" style="stroke:#181818;stroke-width:0.5;" width="126.834" x="473.1953" y="290.3672"/><text fill="#000000" font-family="sans-serif" font-size="14" lengthAdjust="spacing" textLength="112.834" x="480.1953" y="312.4746">ReaderRepository</text></g><g class="participant participant-head" data-participant="LendingRepository"><rect fill="#E2E2F0" height="32.6211" rx="2.5" ry="2.5" style="stroke:#181818;stroke-width:0.5;" width="130.7441" x="610.0293" y="50"/><text fill="#000000" font-family="sans-serif" font-size="14" lengthAdjust="spacing" textLength="116.7441" x="617.0293" y="72.1074">LendingRepository</text></g><g class="participant participant-tail" data-participant="LendingRepository"><rect fill="#E2E2F0" height="32.6211" rx="2.5" ry="2.5" style="stroke:#181818;stroke-width:0.5;" width="130.7441" x="610.0293" y="290.3672"/><text fill="#000000" font-family="sans-serif" font-size="14" lengthAdjust="spacing" textLength="116.7441" x="617.0293" y="312.4746">LendingRepository</text></g><g class="message" data-participant-1="Reader" data-participant-2="LendingController"><polygon fill="#181818" points="180.2329,112.9121,190.2329,116.9121,180.2329,120.9121,184.2329,116.9121" style="stroke:#181818;stroke-width:1;"/><line style="stroke:#181818;stroke-width:1;" x1="30.9585" x2="186.2329" y1="116.9121" y2="116.9121"/><text fill="#000000" font-family="sans-serif" font-size="13" lengthAdjust="spacing" textLength="137.2744" x="37.9585" y="111.6494">GET /recommendations</text></g><g class="message" data-participant-1="LendingController" data-participant-2="LendingServiceImpl"><polygon fill="#181818" points="382.7163,144.2031,392.7163,148.2031,382.7163,152.2031,386.7163,148.2031" style="stroke:#181818;stroke-width:1;"/><line style="stroke:#181818;stroke-width:1;" x1="192.2329" x2="388.7163" y1="148.2031" y2="148.2031"/><text fill="#000000" font-family="sans-serif" font-size="13" lengthAdjust="spacing" textLength="178.4834" x="199.2329" y="142.9404">recommendLendings(readerId)</text></g><g class="message" data-participant-1="LendingServiceImpl" data-participant-2="ReaderRepository"><polygon fill="#181818" points="524.6123,175.4941,534.6123,179.4941,524.6123,183.4941,528.6123,179.4941" style="stroke:#181818;stroke-width:1;"/><line style="stroke:#181818;stroke-width:1;" x1="394.7163" x2="530.6123" y1="179.4941" y2="179.4941"/><text fill="#000000" font-family="sans-serif" font-size="13" lengthAdjust="spacing" textLength="104.0508" x="401.7163" y="174.2314">findById(readerId)</text></g><g class="message" data-participant-1="LendingServiceImpl" data-participant-2="LendingRepository"><polygon fill="#181818" points="663.4014,206.7852,673.4014,210.7852,663.4014,214.7852,667.4014,210.7852" style="stroke:#181818;stroke-width:1;"/><line style="stroke:#181818;stroke-width:1;" x1="394.7163" x2="669.4014" y1="210.7852" y2="210.7852"/><text fill="#000000" font-family="sans-serif" font-size="13" lengthAdjust="spacing" textLength="170.5425" x="401.7163" y="205.5225">findRecommendedLendings()</text></g><g class="message" data-participant-1="LendingServiceImpl" data-participant-2="LendingController"><polygon fill="#181818" points="203.2329,238.0762,193.2329,242.0762,203.2329,246.0762,199.2329,242.0762" style="stroke:#181818;stroke-width:1;"/><line style="stroke:#181818;stroke-width:1;stroke-dasharray:2.0,2.0;" x1="197.2329" x2="393.7163" y1="242.0762" y2="242.0762"/><text fill="#000000" font-family="sans-serif" font-size="13" lengthAdjust="spacing" textLength="81.6816" x="209.2329" y="236.8135">List&lt;Lending&gt;</text></g><g class="message" data-participant-1="LendingController" data-participant-2="Reader"><polygon fill="#181818" points="41.9585,269.3672,31.9585,273.3672,41.9585,277.3672,37.9585,273.3672" style="stroke:#181818;stroke-width:1;"/><line style="stroke:#181818;stroke-width:1;stroke-dasharray:2.0,2.0;" x1="35.9585" x2="191.2329" y1="273.3672" y2="273.3672"/><text fill="#000000" font-family="sans-serif" font-size="13" lengthAdjust="spacing" textLength="58.5381" x="47.9585" y="268.1045">Response</text></g><!--SRC=[XP312i8m38RlVOeUzI3UHNPGH0OxLL-Wj542MrlI8kpj3QvkqrKyV_d-_8asoPDKe2sG29eI6WpQ9Tc0i-ZkH-yI-ROjqmlG0mtKNMW_y92d8FY8dD-Nt1aLmxpSLCkrSYVFfwlS4XZVTKnrGk-YM0vEzgmMwwEPQLpHQrrjrw8WSCntVGwveRE7lhP_tSLrMLRl5Z3rA6Vy-4A3CUqpg4hdZyLvM44C_2Lu0W00]--></g></svg>