<?xml version="1.0" encoding="us-ascii" standalone="no"?><svg xmlns="http://www.w3.org/2000/svg" xmlns:xlink="http://www.w3.org/1999/xlink" contentStyleType="text/css" height="769px" preserveAspectRatio="none" style="width:389px;height:769px;background:#FFFFFF;" version="1.1" viewBox="0 0 389 769" width="389px" zoomAndPan="magnify"><defs/><g><rect width="100%" height="100%" fill="white"/>
    <ellipse cx="178" cy="20" fill="#222222" rx="10" ry="10" style="stroke:#222222;stroke-width:1.0;"/><rect fill="#F1F1F1" height="35.9609" rx="12.5" ry="12.5" style="stroke:#181818;stroke-width:0.5;" width="205" x="75.5" y="50"/><text fill="#000000" font-family="sans-serif" font-size="12" lengthAdjust="spacing" textLength="185" x="85.5" y="72.9492">User logs in via Google/Facebook</text><rect fill="#F1F1F1" height="35.9609" rx="12.5" ry="12.5" style="stroke:#181818;stroke-width:0.5;" width="289" x="33.5" y="105.9609"/><text fill="#000000" font-family="sans-serif" font-size="12" lengthAdjust="spacing" textLength="269" x="43.5" y="128.9102">Spring Security triggers onAuthenticationSuccess</text><rect fill="#F1F1F1" height="35.9609" rx="12.5" ry="12.5" style="stroke:#181818;stroke-width:0.5;" width="246" x="55" y="161.9219"/><text fill="#000000" font-family="sans-serif" font-size="12" lengthAdjust="spacing" textLength="226" x="65" y="184.8711">Extract email and name from OAuth token</text><polygon fill="#F1F1F1" points="122.5,217.8828,233.5,217.8828,245.5,229.8828,233.5,241.8828,122.5,241.8828,110.5,229.8828,122.5,217.8828" style="stroke:#181818;stroke-width:0.5;"/><text fill="#000000" font-family="sans-serif" font-size="11" lengthAdjust="spacing" textLength="111" x="122.5" y="234.4375">email or name missing?</text><text fill="#000000" font-family="sans-serif" font-size="11" lengthAdjust="spacing" textLength="18" x="92.5" y="227.1221">yes</text><text fill="#000000" font-family="sans-serif" font-size="11" lengthAdjust="spacing" textLength="12" x="245.5" y="227.1221">no</text><rect fill="#F1F1F1" height="35.9609" rx="12.5" ry="12.5" style="stroke:#181818;stroke-width:0.5;" width="148" x="11" y="251.8828"/><text fill="#000000" font-family="sans-serif" font-size="12" lengthAdjust="spacing" textLength="128" x="21" y="274.832">Send 400 Bad Request</text><ellipse cx="85" cy="318.8438" fill="none" rx="11" ry="11" style="stroke:#222222;stroke-width:1.0;"/><ellipse cx="85" cy="318.8438" fill="#222222" rx="6" ry="6" style="stroke:#222222;stroke-width:1.0;"/><rect fill="#F1F1F1" height="35.9609" rx="12.5" ry="12.5" style="stroke:#181818;stroke-width:0.5;" width="176" x="183" y="251.8828"/><text fill="#000000" font-family="sans-serif" font-size="12" lengthAdjust="spacing" textLength="156" x="193" y="274.832">Check if user exists by email</text><rect fill="#F1F1F1" height="35.9609" rx="12.5" ry="12.5" style="stroke:#181818;stroke-width:0.5;" width="164" x="189" y="357.1592"/><text fill="#000000" font-family="sans-serif" font-size="12" lengthAdjust="spacing" textLength="144" x="199" y="380.1084">Create and save new user</text><polygon fill="#F1F1F1" points="240.5,307.8438,301.5,307.8438,313.5,319.8438,301.5,331.8438,240.5,331.8438,228.5,319.8438,240.5,307.8438" style="stroke:#181818;stroke-width:0.5;"/><text fill="#000000" font-family="sans-serif" font-size="11" lengthAdjust="spacing" textLength="12" x="275" y="343.7139">no</text><text fill="#000000" font-family="sans-serif" font-size="11" lengthAdjust="spacing" textLength="61" x="240.5" y="324.3984">User exists?</text><polygon fill="#F1F1F1" points="271,413.1201,283,425.1201,271,437.1201,259,425.1201,271,413.1201" style="stroke:#181818;stroke-width:0.5;"/><rect fill="#F1F1F1" height="35.9609" rx="12.5" ry="12.5" style="stroke:#181818;stroke-width:0.5;" width="98" x="222" y="457.1201"/><text fill="#000000" font-family="sans-serif" font-size="12" lengthAdjust="spacing" textLength="78" x="232" y="480.0693">Get user roles</text><rect fill="#F1F1F1" height="35.9609" rx="12.5" ry="12.5" style="stroke:#181818;stroke-width:0.5;" width="131" x="205.5" y="513.0811"/><text fill="#000000" font-family="sans-serif" font-size="12" lengthAdjust="spacing" textLength="111" x="215.5" y="536.0303">Generate JWT token</text><rect fill="#F1F1F1" height="35.9609" rx="12.5" ry="12.5" style="stroke:#181818;stroke-width:0.5;" width="140" x="201" y="569.042"/><text fill="#000000" font-family="sans-serif" font-size="12" lengthAdjust="spacing" textLength="120" x="211" y="591.9912">Map user to UserView</text><rect fill="#F1F1F1" height="35.9609" rx="12.5" ry="12.5" style="stroke:#181818;stroke-width:0.5;" width="171" x="185.5" y="625.0029"/><text fill="#000000" font-family="sans-serif" font-size="12" lengthAdjust="spacing" textLength="151" x="195.5" y="647.9521">Serialize response to JSON</text><rect fill="#F1F1F1" height="35.9609" rx="12.5" ry="12.5" style="stroke:#181818;stroke-width:0.5;" width="166" x="188" y="680.9639"/><text fill="#000000" font-family="sans-serif" font-size="12" lengthAdjust="spacing" textLength="146" x="198" y="703.9131">Send response to frontend</text><ellipse cx="178" cy="747.9248" fill="none" rx="11" ry="11" style="stroke:#222222;stroke-width:1.0;"/><ellipse cx="178" cy="747.9248" fill="#222222" rx="6" ry="6" style="stroke:#222222;stroke-width:1.0;"/><line style="stroke:#181818;stroke-width:1.0;" x1="178" x2="178" y1="30" y2="50"/><polygon fill="#181818" points="174,40,178,50,182,40,178,44" style="stroke:#181818;stroke-width:1.0;"/><line style="stroke:#181818;stroke-width:1.0;" x1="178" x2="178" y1="85.9609" y2="105.9609"/><polygon fill="#181818" points="174,95.9609,178,105.9609,182,95.9609,178,99.9609" style="stroke:#181818;stroke-width:1.0;"/><line style="stroke:#181818;stroke-width:1.0;" x1="178" x2="178" y1="141.9219" y2="161.9219"/><polygon fill="#181818" points="174,151.9219,178,161.9219,182,151.9219,178,155.9219" style="stroke:#181818;stroke-width:1.0;"/><line style="stroke:#181818;stroke-width:1.0;" x1="85" x2="85" y1="287.8438" y2="307.8438"/><polygon fill="#181818" points="81,297.8438,85,307.8438,89,297.8438,85,301.8438" style="stroke:#181818;stroke-width:1.0;"/><line style="stroke:#181818;stroke-width:1.0;" x1="271" x2="271" y1="331.8438" y2="357.1592"/><polygon fill="#181818" points="267,347.1592,271,357.1592,275,347.1592,271,351.1592" style="stroke:#181818;stroke-width:1.0;"/><line style="stroke:#181818;stroke-width:1.0;" x1="313.5" x2="363" y1="319.8438" y2="319.8438"/><polygon fill="#181818" points="359,365.1396,363,375.1396,367,365.1396,363,369.1396" style="stroke:#181818;stroke-width:1.0;"/><line style="stroke:#181818;stroke-width:1.0;" x1="363" x2="363" y1="319.8438" y2="425.1201"/><line style="stroke:#181818;stroke-width:1.0;" x1="363" x2="283" y1="425.1201" y2="425.1201"/><polygon fill="#181818" points="293,421.1201,283,425.1201,293,429.1201,289,425.1201" style="stroke:#181818;stroke-width:1.0;"/><line style="stroke:#181818;stroke-width:1.0;" x1="271" x2="271" y1="393.1201" y2="413.1201"/><polygon fill="#181818" points="267,403.1201,271,413.1201,275,403.1201,271,407.1201" style="stroke:#181818;stroke-width:1.0;"/><line style="stroke:#181818;stroke-width:1.0;" x1="271" x2="271" y1="287.8438" y2="307.8438"/><polygon fill="#181818" points="267,297.8438,271,307.8438,275,297.8438,271,301.8438" style="stroke:#181818;stroke-width:1.0;"/><line style="stroke:#181818;stroke-width:1.0;" x1="271" x2="271" y1="437.1201" y2="457.1201"/><polygon fill="#181818" points="267,447.1201,271,457.1201,275,447.1201,271,451.1201" style="stroke:#181818;stroke-width:1.0;"/><line style="stroke:#181818;stroke-width:1.0;" x1="271" x2="271" y1="493.0811" y2="513.0811"/><polygon fill="#181818" points="267,503.0811,271,513.0811,275,503.0811,271,507.0811" style="stroke:#181818;stroke-width:1.0;"/><line style="stroke:#181818;stroke-width:1.0;" x1="271" x2="271" y1="549.042" y2="569.042"/><polygon fill="#181818" points="267,559.042,271,569.042,275,559.042,271,563.042" style="stroke:#181818;stroke-width:1.0;"/><line style="stroke:#181818;stroke-width:1.0;" x1="271" x2="271" y1="605.0029" y2="625.0029"/><polygon fill="#181818" points="267,615.0029,271,625.0029,275,615.0029,271,619.0029" style="stroke:#181818;stroke-width:1.0;"/><line style="stroke:#181818;stroke-width:1.0;" x1="271" x2="271" y1="660.9639" y2="680.9639"/><polygon fill="#181818" points="267,670.9639,271,680.9639,275,670.9639,271,674.9639" style="stroke:#181818;stroke-width:1.0;"/><line style="stroke:#181818;stroke-width:1.0;" x1="110.5" x2="85" y1="229.8828" y2="229.8828"/><line style="stroke:#181818;stroke-width:1.0;" x1="85" x2="85" y1="229.8828" y2="251.8828"/><polygon fill="#181818" points="81,241.8828,85,251.8828,89,241.8828,85,245.8828" style="stroke:#181818;stroke-width:1.0;"/><line style="stroke:#181818;stroke-width:1.0;" x1="245.5" x2="271" y1="229.8828" y2="229.8828"/><line style="stroke:#181818;stroke-width:1.0;" x1="271" x2="271" y1="229.8828" y2="251.8828"/><polygon fill="#181818" points="267,241.8828,271,251.8828,275,241.8828,271,245.8828" style="stroke:#181818;stroke-width:1.0;"/><line style="stroke:#181818;stroke-width:1.0;" x1="271" x2="271" y1="716.9248" y2="721.9248"/><line style="stroke:#181818;stroke-width:1.0;" x1="271" x2="178" y1="721.9248" y2="721.9248"/><line style="stroke:#181818;stroke-width:1.0;" x1="178" x2="178" y1="721.9248" y2="736.9248"/><polygon fill="#181818" points="174,726.9248,178,736.9248,182,726.9248,178,730.9248" style="stroke:#181818;stroke-width:1.0;"/><line style="stroke:#181818;stroke-width:1.0;" x1="178" x2="178" y1="197.8828" y2="217.8828"/><polygon fill="#181818" points="174,207.8828,178,217.8828,182,207.8828,178,211.8828" style="stroke:#181818;stroke-width:1.0;"/><!--SRC=[JL0xJyD03DxpApoc4nsOcW41WagLe1AXC5_3rzHgSWvdfmz-FNSzAAp-tbPpmOfYjb84wgHLOazxTZGNQJjSFRe6Qv5T5Jdr4DYtLACP0zk9B73R8YY9lnrj2s_SE6FnzTWqK4sQXwC5rnYXTzoHyn_aNG_Q1EbfcLHaieEFr88tL6QQXCpgMJKctamekLDvWauAebcDw7CzdTAT-w0NV8vGgoAW9aE1Ja6bbpFpVejcHz5vJFjmP3MbzIdNYQ6Ki7Br1rwoia6o2726StLrUv37uUoM0cCFtYINsHoMCu9qq2gVF4AIBjvVVrV6yvCRCjE4Kl0Rur3bLO5Tnr-W01t4nncHigYNpzLbz7ya_j1RF5R5Juqq_ni0]--></g></svg>