<?xml version="1.0" encoding="us-ascii" standalone="no"?><svg xmlns="http://www.w3.org/2000/svg" xmlns:xlink="http://www.w3.org/1999/xlink" contentStyleType="text/css" height="549px" preserveAspectRatio="none" style="width:877px;height:549px;background:#FFFFFF;" version="1.1" viewBox="0 0 877 549" width="877px" zoomAndPan="magnify"><rect width="100%" height="100%" fill="#FFFFFF"/><defs/><g><!--cluster Frontend--><g id="cluster_Frontend"><path d="M280.35,6.0137 L346.35,6.0137 A3.75,3.75 0 0 1 348.85,8.5137 L355.85,30.6348 L413.35,30.6348 A2.5,2.5 0 0 1 415.85,33.1348 L415.85,105.5137 A2.5,2.5 0 0 1 413.35,108.0137 L280.35,108.0137 A2.5,2.5 0 0 1 277.85,105.5137 L277.85,8.5137 A2.5,2.5 0 0 1 280.35,6.0137 " fill="none" style="stroke:#000000;stroke-width:1.5;"/><line style="stroke:#000000;stroke-width:1.5;" x1="277.85" x2="355.85" y1="30.6348" y2="30.6348"/><text fill="#000000" font-family="sans-serif" font-size="14" font-weight="bold" lengthAdjust="spacing" textLength="65" x="281.85" y="23.1211">Frontend</text></g><!--cluster Backend (Spring Boot)--><g id="cluster_Backend (Spring Boot)"><path d="M29.35,312.0137 L188.35,312.0137 A3.75,3.75 0 0 1 190.85,314.5137 L197.85,336.6348 L575.35,336.6348 A2.5,2.5 0 0 1 577.85,339.1348 L577.85,539.5137 A2.5,2.5 0 0 1 575.35,542.0137 L29.35,542.0137 A2.5,2.5 0 0 1 26.85,539.5137 L26.85,314.5137 A2.5,2.5 0 0 1 29.35,312.0137 " fill="none" style="stroke:#000000;stroke-width:1.5;"/><line style="stroke:#000000;stroke-width:1.5;" x1="26.85" x2="197.85" y1="336.6348" y2="336.6348"/><text fill="#000000" font-family="sans-serif" font-size="14" font-weight="bold" lengthAdjust="spacing" textLength="158" x="30.85" y="329.1211">Backend (Spring Boot)</text></g><!--cluster External Systems--><g id="cluster_External Systems"><path d="M10.35,159.0137 L131.35,159.0137 A3.75,3.75 0 0 1 133.85,161.5137 L140.85,183.6348 L508.35,183.6348 A2.5,2.5 0 0 1 510.85,186.1348 L510.85,258.5137 A2.5,2.5 0 0 1 508.35,261.0137 L10.35,261.0137 A2.5,2.5 0 0 1 7.85,258.5137 L7.85,161.5137 A2.5,2.5 0 0 1 10.35,159.0137 " fill="none" style="stroke:#000000;stroke-width:1.5;"/><line style="stroke:#000000;stroke-width:1.5;" x1="7.85" x2="140.85" y1="183.6348" y2="183.6348"/><text fill="#000000" font-family="sans-serif" font-size="14" font-weight="bold" lengthAdjust="spacing" textLength="120" x="11.85" y="176.1211">External Systems</text></g><!--entity FE--><g id="elem_FE"><rect fill="#F1F1F1" height="48.6211" rx="2.5" ry="2.5" style="stroke:#181818;stroke-width:0.5;" width="106" x="293.85" y="43.0137"/><rect fill="#F1F1F1" height="10" style="stroke:#181818;stroke-width:0.5;" width="15" x="379.85" y="48.0137"/><rect fill="#F1F1F1" height="2" style="stroke:#181818;stroke-width:0.5;" width="4" x="377.85" y="50.0137"/><rect fill="#F1F1F1" height="2" style="stroke:#181818;stroke-width:0.5;" width="4" x="377.85" y="54.0137"/><text fill="#000000" font-family="sans-serif" font-size="14" lengthAdjust="spacing" textLength="66" x="308.85" y="78.1211">React App</text></g><!--entity Handler--><g id="elem_Handler"><rect fill="#F1F1F1" height="48.6211" rx="2.5" ry="2.5" style="stroke:#181818;stroke-width:0.5;" width="272" x="209.85" y="349.0137"/><rect fill="#F1F1F1" height="10" style="stroke:#181818;stroke-width:0.5;" width="15" x="461.85" y="354.0137"/><rect fill="#F1F1F1" height="2" style="stroke:#181818;stroke-width:0.5;" width="4" x="459.85" y="356.0137"/><rect fill="#F1F1F1" height="2" style="stroke:#181818;stroke-width:0.5;" width="4" x="459.85" y="360.0137"/><text fill="#000000" font-family="sans-serif" font-size="14" lengthAdjust="spacing" textLength="232" x="224.85" y="384.1211">OAuthAuthenticationSuccessHandler</text></g><!--entity Repo--><g id="elem_Repo"><rect fill="#F1F1F1" height="48.6211" rx="2.5" ry="2.5" style="stroke:#181818;stroke-width:0.5;" width="137" x="43.35" y="477.0137"/><rect fill="#F1F1F1" height="10" style="stroke:#181818;stroke-width:0.5;" width="15" x="160.35" y="482.0137"/><rect fill="#F1F1F1" height="2" style="stroke:#181818;stroke-width:0.5;" width="4" x="158.35" y="484.0137"/><rect fill="#F1F1F1" height="2" style="stroke:#181818;stroke-width:0.5;" width="4" x="158.35" y="488.0137"/><text fill="#000000" font-family="sans-serif" font-size="14" lengthAdjust="spacing" textLength="97" x="58.35" y="512.1211">UserRepository</text></g><!--entity JWT--><g id="elem_JWT"><rect fill="#F1F1F1" height="48.6211" rx="2.5" ry="2.5" style="stroke:#181818;stroke-width:0.5;" width="112" x="215.85" y="477.0137"/><rect fill="#F1F1F1" height="10" style="stroke:#181818;stroke-width:0.5;" width="15" x="307.85" y="482.0137"/><rect fill="#F1F1F1" height="2" style="stroke:#181818;stroke-width:0.5;" width="4" x="305.85" y="484.0137"/><rect fill="#F1F1F1" height="2" style="stroke:#181818;stroke-width:0.5;" width="4" x="305.85" y="488.0137"/><text fill="#000000" font-family="sans-serif" font-size="14" lengthAdjust="spacing" textLength="72" x="230.85" y="512.1211">JwtEncoder</text></g><!--entity Mapper--><g id="elem_Mapper"><rect fill="#F1F1F1" height="48.6211" rx="2.5" ry="2.5" style="stroke:#181818;stroke-width:0.5;" width="146" x="367.85" y="477.0137"/><rect fill="#F1F1F1" height="10" style="stroke:#181818;stroke-width:0.5;" width="15" x="493.85" y="482.0137"/><rect fill="#F1F1F1" height="2" style="stroke:#181818;stroke-width:0.5;" width="4" x="491.85" y="484.0137"/><rect fill="#F1F1F1" height="2" style="stroke:#181818;stroke-width:0.5;" width="4" x="491.85" y="488.0137"/><text fill="#000000" font-family="sans-serif" font-size="14" lengthAdjust="spacing" textLength="106" x="382.85" y="512.1211">UserViewMapper</text></g><!--entity UserController--><g id="elem_UserController"><rect fill="#F1F1F1" height="48.6211" rx="2.5" ry="2.5" style="stroke:#181818;stroke-width:0.5;" width="131" x="43.35" y="349.0137"/><rect fill="#F1F1F1" height="10" style="stroke:#181818;stroke-width:0.5;" width="15" x="154.35" y="354.0137"/><rect fill="#F1F1F1" height="2" style="stroke:#181818;stroke-width:0.5;" width="4" x="152.35" y="356.0137"/><rect fill="#F1F1F1" height="2" style="stroke:#181818;stroke-width:0.5;" width="4" x="152.35" y="360.0137"/><text fill="#000000" font-family="sans-serif" font-size="14" lengthAdjust="spacing" textLength="91" x="58.35" y="384.1211">UserController</text></g><!--entity Google--><g id="elem_Google"><rect fill="#F1F1F1" height="48.6211" rx="2.5" ry="2.5" style="stroke:#181818;stroke-width:0.5;" width="130" x="23.85" y="196.0137"/><rect fill="#F1F1F1" height="10" style="stroke:#181818;stroke-width:0.5;" width="15" x="133.85" y="201.0137"/><rect fill="#F1F1F1" height="2" style="stroke:#181818;stroke-width:0.5;" width="4" x="131.85" y="203.0137"/><rect fill="#F1F1F1" height="2" style="stroke:#181818;stroke-width:0.5;" width="4" x="131.85" y="207.0137"/><text fill="#000000" font-family="sans-serif" font-size="14" lengthAdjust="spacing" textLength="90" x="38.85" y="231.1211">Google OAuth</text></g><!--entity Facebook--><g id="elem_Facebook"><rect fill="#F1F1F1" height="48.6211" rx="2.5" ry="2.5" style="stroke:#181818;stroke-width:0.5;" width="147" x="189.35" y="196.0137"/><rect fill="#F1F1F1" height="10" style="stroke:#181818;stroke-width:0.5;" width="15" x="316.35" y="201.0137"/><rect fill="#F1F1F1" height="2" style="stroke:#181818;stroke-width:0.5;" width="4" x="314.35" y="203.0137"/><rect fill="#F1F1F1" height="2" style="stroke:#181818;stroke-width:0.5;" width="4" x="314.35" y="207.0137"/><text fill="#000000" font-family="sans-serif" font-size="14" lengthAdjust="spacing" textLength="107" x="204.35" y="231.1211">Facebook OAuth</text></g><!--entity NormalLogin--><g id="elem_NormalLogin"><rect fill="#F1F1F1" height="48.6211" rx="2.5" ry="2.5" style="stroke:#181818;stroke-width:0.5;" width="123" x="371.35" y="196.0137"/><rect fill="#F1F1F1" height="10" style="stroke:#181818;stroke-width:0.5;" width="15" x="474.35" y="201.0137"/><rect fill="#F1F1F1" height="2" style="stroke:#181818;stroke-width:0.5;" width="4" x="472.35" y="203.0137"/><rect fill="#F1F1F1" height="2" style="stroke:#181818;stroke-width:0.5;" width="4" x="472.35" y="207.0137"/><text fill="#000000" font-family="sans-serif" font-size="14" lengthAdjust="spacing" textLength="83" x="386.35" y="231.1211">Normal Login</text></g><!--link FE to Google--><g id="link_FE_Google"><path d="M293.82,68.3837 C244.37,71.0537 171.43,82.5337 124.85,124.0137 C104.21,142.3937 96.3847,167.9318 92.6147,189.6818 " fill="none" id="FE-to-Google" style="stroke:#181818;stroke-width:1.0;"/><polygon fill="#181818" points="91.59,195.5937,97.0683,187.409,92.4439,190.6671,89.1858,186.0428,91.59,195.5937" style="stroke:#181818;stroke-width:1.0;"/><text fill="#000000" font-family="sans-serif" font-size="13" lengthAdjust="spacing" textLength="122" x="125.85" y="139.042">OAuth2 login request</text></g><!--link FE to Facebook--><g id="link_FE_Facebook"><path d="M293.9,92.2037 C281.51,100.4137 269.89,110.9337 262.85,124.0137 C250.99,146.0637 252.0301,169.4235 255.7801,189.7235 " fill="none" id="FE-to-Facebook" style="stroke:#181818;stroke-width:1.0;"/><polygon fill="#181818" points="256.87,195.6237,259.1685,186.0468,255.9617,190.7069,251.3017,187.5,256.87,195.6237" style="stroke:#181818;stroke-width:1.0;"/><text fill="#000000" font-family="sans-serif" font-size="13" lengthAdjust="spacing" textLength="122" x="263.85" y="139.042">OAuth2 login request</text></g><!--link FE to NormalLogin--><g id="link_FE_NormalLogin"><path d="M367.76,92.1237 C375.59,101.6337 384.19,112.9537 390.85,124.0137 C404.87,147.2837 414.7494,170.4647 422.2894,190.3147 " fill="none" id="FE-to-NormalLogin" style="stroke:#181818;stroke-width:1.0;"/><polygon fill="#181818" points="424.42,195.9237,424.9635,186.0898,422.6445,191.2495,417.4848,188.9306,424.42,195.9237" style="stroke:#181818;stroke-width:1.0;"/><text fill="#000000" font-family="sans-serif" font-size="13" lengthAdjust="spacing" textLength="122" x="401.85" y="139.042">OAuth2 login request</text></g><!--link Google to Handler--><g id="link_Google_Handler"><path d="M45.76,245.3237 C24.31,260.1137 6,279.4037 21.85,296.0137 C34.9,309.6937 173.45,299.6537 191.85,304.0137 C231.71,313.4637 268.7162,330.2773 298.8862,346.0973 " fill="none" id="Google-to-Handler" style="stroke:#181818;stroke-width:1.0;"/><polygon fill="#181818" points="304.2,348.8837,298.0869,341.1616,299.7718,346.5617,294.3718,348.2467,304.2,348.8837" style="stroke:#181818;stroke-width:1.0;"/><text fill="#000000" font-family="sans-serif" font-size="13" lengthAdjust="spacing" textLength="193" x="22.85" y="292.042">OAuth2 token (email, name, etc.)</text></g><!--link Facebook to Handler--><g id="link_Facebook_Handler"><path d="M240.09,245.0137 C228.58,259.8537 218.77,279.3137 227.85,296.0137 C240.56,319.3937 258.5643,333.8758 281.1043,346.0858 " fill="none" id="Facebook-to-Handler" style="stroke:#181818;stroke-width:1.0;"/><polygon fill="#181818" points="286.38,348.9437,280.3717,341.1398,281.9836,346.5621,276.5613,348.174,286.38,348.9437" style="stroke:#181818;stroke-width:1.0;"/><text fill="#000000" font-family="sans-serif" font-size="13" lengthAdjust="spacing" textLength="193" x="228.85" y="292.042">OAuth2 token (email, name, etc.)</text></g><!--link NormalLogin to Handler--><g id="link_NormalLogin_Handler"><path d="M435.17,245.1237 C435.68,260.3637 434.42,280.2137 426.85,296.0137 C416.73,317.1137 402.7801,331.6342 385.9301,345.0042 " fill="none" id="NormalLogin-to-Handler" style="stroke:#181818;stroke-width:1.0;"/><polygon fill="#181818" points="381.23,348.7337,390.7665,346.273,385.1468,345.6258,385.7939,340.0061,381.23,348.7337" style="stroke:#181818;stroke-width:1.0;"/><text fill="#000000" font-family="sans-serif" font-size="13" lengthAdjust="spacing" textLength="193" x="432.85" y="292.042">OAuth2 token (email, name, etc.)</text></g><!--link Handler to Repo--><g id="link_Handler_Repo"><path d="M209.56,397.1737 C158.31,407.0637 110.46,418.5437 102.85,428.0137 C91.96,441.5537 93.3165,455.7045 98.7765,471.2045 " fill="none" id="Handler-to-Repo" style="stroke:#181818;stroke-width:1.0;"/><polygon fill="#181818" points="100.77,476.8637,101.5525,467.046,99.1088,472.1477,94.007,469.7039,100.77,476.8637" style="stroke:#181818;stroke-width:1.0;"/><text fill="#000000" font-family="sans-serif" font-size="13" lengthAdjust="spacing" textLength="121" x="103.85" y="443.042">Check or create user</text></g><!--link Handler to JWT--><g id="link_Handler_JWT"><path d="M270.71,398.0137 C257.65,405.5137 245.74,415.3037 237.85,428.0137 C228.17,443.6037 233.8341,457.6593 245.1541,472.1993 " fill="none" id="Handler-to-JWT" style="stroke:#181818;stroke-width:1.0;"/><polygon fill="#181818" points="248.84,476.9337,246.4674,467.3749,245.7684,472.9884,240.1549,472.2894,248.84,476.9337" style="stroke:#181818;stroke-width:1.0;"/><text fill="#000000" font-family="sans-serif" font-size="13" lengthAdjust="spacing" textLength="158" x="238.85" y="443.042">Encode user info into token</text></g><!--link Handler to Mapper--><g id="link_Handler_Mapper"><path d="M374.1,398.2537 C383.58,407.0237 393.78,417.4237 401.85,428.0137 C413.37,443.1337 420.8585,456.6974 427.8885,471.4474 " fill="none" id="Handler-to-Mapper" style="stroke:#181818;stroke-width:1.0;"/><polygon fill="#181818" points="430.47,476.8637,430.2087,467.0183,428.3188,472.3501,422.987,470.4602,430.47,476.8637" style="stroke:#181818;stroke-width:1.0;"/><text fill="#000000" font-family="sans-serif" font-size="13" lengthAdjust="spacing" textLength="119" x="415.85" y="443.042">Convert User to DTO</text></g><!--link Handler to FE--><g id="link_Handler_FE"><path d="M481.86,352.7337 C547.08,340.1837 615.26,321.4637 634.85,296.0137 C689.06,225.5837 604.33,176.8337 532.85,124.0137 C493.82,95.1737 445.7666,82.2207 406.0066,75.5207 " fill="none" id="Handler-to-FE" style="stroke:#181818;stroke-width:1.0;"/><polygon fill="#181818" points="400.09,74.5237,408.3002,79.9636,405.0205,75.3545,409.6295,72.0748,400.09,74.5237" style="stroke:#181818;stroke-width:1.0;"/><text fill="#000000" font-family="sans-serif" font-size="13" lengthAdjust="spacing" textLength="217" x="652.85" y="226.042">Return JSON with token and user info</text></g><!--SRC=[bP8nJyCm48Nt_8fJfrOg38mTaDgIW2fefQR0W1YCUwHM4r-mBvGAyT-n4wTj1f0w9BBzldVt4byfv5Pa2Bt4a6RKwnvyHm0lInIIOLoMho0i977q4qLboqxSmg7GJqkZT0OJ8Xu4us9SySO_g5b9mOfqMac9rju9lSxHr0N3sXiUBPebbcGLazdNgjzwQRRZM4jQ1zFiUTKQdXJk7aHP1gLPjkBKVOcXtFVgn8w_68qMEQHxorZOaFYMACiHwk1rjUR0IucG-4QqFH7R8o_FoHIkt3rbIjTYSr3lVUSaXekBwr0FHasLAyYz3WO_AhJSGeTM_sCd7VuYez3Fu-4_7r4cTtFGnqAeV0XQ53W4P7avY0u1plIT9ZhJ6hMiz_bBTwRf1kKMo80qA1YXSXVQuTmKEAoPYre5fT_9lPYQLXswcGnVb_Gd6WO_88w3czMY0xh_Et8Pk38QPkbY3Zl5cv3TOSTElm00]--></g></svg>