<?xml version="1.0" encoding="us-ascii" standalone="no"?><svg xmlns="http://www.w3.org/2000/svg" xmlns:xlink="http://www.w3.org/1999/xlink" contentStyleType="text/css" height="549px" preserveAspectRatio="none" style="width:764px;height:549px;background:#FFFFFF;" version="1.1" viewBox="0 0 764 549" width="764px" zoomAndPan="magnify"><defs/><g><rect width="100%" height="100%" fill="white"/>
    <!--cluster Frontend--><g id="cluster_Frontend"><path d="M258.5,6.0137 L324.5,6.0137 A3.75,3.75 0 0 1 327,8.5137 L334,30.6348 L391.5,30.6348 A2.5,2.5 0 0 1 394,33.1348 L394,105.5137 A2.5,2.5 0 0 1 391.5,108.0137 L258.5,108.0137 A2.5,2.5 0 0 1 256,105.5137 L256,8.5137 A2.5,2.5 0 0 1 258.5,6.0137 " fill="none" style="stroke:#000000;stroke-width:1.5;"/><line style="stroke:#000000;stroke-width:1.5;" x1="256" x2="334" y1="30.6348" y2="30.6348"/><text fill="#000000" font-family="sans-serif" font-size="14" font-weight="bold" lengthAdjust="spacing" textLength="65" x="260" y="23.1211">Frontend</text></g><!--cluster Backend (Spring Boot)--><g id="cluster_Backend (Spring Boot)"><path d="M8.5,312.0137 L167.5,312.0137 A3.75,3.75 0 0 1 170,314.5137 L177,336.6348 L554.5,336.6348 A2.5,2.5 0 0 1 557,339.1348 L557,539.5137 A2.5,2.5 0 0 1 554.5,542.0137 L8.5,542.0137 A2.5,2.5 0 0 1 6,539.5137 L6,314.5137 A2.5,2.5 0 0 1 8.5,312.0137 " fill="none" style="stroke:#000000;stroke-width:1.5;"/><line style="stroke:#000000;stroke-width:1.5;" x1="6" x2="177" y1="336.6348" y2="336.6348"/><text fill="#000000" font-family="sans-serif" font-size="14" font-weight="bold" lengthAdjust="spacing" textLength="158" x="10" y="329.1211">Backend (Spring Boot)</text></g><!--cluster External Systems--><g id="cluster_External Systems"><path d="M72.5,159.0137 L193.5,159.0137 A3.75,3.75 0 0 1 196,161.5137 L203,183.6348 L412.5,183.6348 A2.5,2.5 0 0 1 415,186.1348 L415,258.5137 A2.5,2.5 0 0 1 412.5,261.0137 L72.5,261.0137 A2.5,2.5 0 0 1 70,258.5137 L70,161.5137 A2.5,2.5 0 0 1 72.5,159.0137 " fill="none" style="stroke:#000000;stroke-width:1.5;"/><line style="stroke:#000000;stroke-width:1.5;" x1="70" x2="203" y1="183.6348" y2="183.6348"/><text fill="#000000" font-family="sans-serif" font-size="14" font-weight="bold" lengthAdjust="spacing" textLength="120" x="74" y="176.1211">External Systems</text></g><!--entity FE--><g id="elem_FE"><rect fill="#F1F1F1" height="48.6211" rx="2.5" ry="2.5" style="stroke:#181818;stroke-width:0.5;" width="106" x="272" y="43.0137"/><rect fill="#F1F1F1" height="10" style="stroke:#181818;stroke-width:0.5;" width="15" x="358" y="48.0137"/><rect fill="#F1F1F1" height="2" style="stroke:#181818;stroke-width:0.5;" width="4" x="356" y="50.0137"/><rect fill="#F1F1F1" height="2" style="stroke:#181818;stroke-width:0.5;" width="4" x="356" y="54.0137"/><text fill="#000000" font-family="sans-serif" font-size="14" lengthAdjust="spacing" textLength="66" x="287" y="78.1211">React App</text></g><!--entity Handler--><g id="elem_Handler"><rect fill="#F1F1F1" height="48.6211" rx="2.5" ry="2.5" style="stroke:#181818;stroke-width:0.5;" width="272" x="189" y="349.0137"/><rect fill="#F1F1F1" height="10" style="stroke:#181818;stroke-width:0.5;" width="15" x="441" y="354.0137"/><rect fill="#F1F1F1" height="2" style="stroke:#181818;stroke-width:0.5;" width="4" x="439" y="356.0137"/><rect fill="#F1F1F1" height="2" style="stroke:#181818;stroke-width:0.5;" width="4" x="439" y="360.0137"/><text fill="#000000" font-family="sans-serif" font-size="14" lengthAdjust="spacing" textLength="232" x="204" y="384.1211">OAuthAuthenticationSuccessHandler</text></g><!--entity Repo--><g id="elem_Repo"><rect fill="#F1F1F1" height="48.6211" rx="2.5" ry="2.5" style="stroke:#181818;stroke-width:0.5;" width="137" x="22.5" y="477.0137"/><rect fill="#F1F1F1" height="10" style="stroke:#181818;stroke-width:0.5;" width="15" x="139.5" y="482.0137"/><rect fill="#F1F1F1" height="2" style="stroke:#181818;stroke-width:0.5;" width="4" x="137.5" y="484.0137"/><rect fill="#F1F1F1" height="2" style="stroke:#181818;stroke-width:0.5;" width="4" x="137.5" y="488.0137"/><text fill="#000000" font-family="sans-serif" font-size="14" lengthAdjust="spacing" textLength="97" x="37.5" y="512.1211">UserRepository</text></g><!--entity JWT--><g id="elem_JWT"><rect fill="#F1F1F1" height="48.6211" rx="2.5" ry="2.5" style="stroke:#181818;stroke-width:0.5;" width="112" x="195" y="477.0137"/><rect fill="#F1F1F1" height="10" style="stroke:#181818;stroke-width:0.5;" width="15" x="287" y="482.0137"/><rect fill="#F1F1F1" height="2" style="stroke:#181818;stroke-width:0.5;" width="4" x="285" y="484.0137"/><rect fill="#F1F1F1" height="2" style="stroke:#181818;stroke-width:0.5;" width="4" x="285" y="488.0137"/><text fill="#000000" font-family="sans-serif" font-size="14" lengthAdjust="spacing" textLength="72" x="210" y="512.1211">JwtEncoder</text></g><!--entity Mapper--><g id="elem_Mapper"><rect fill="#F1F1F1" height="48.6211" rx="2.5" ry="2.5" style="stroke:#181818;stroke-width:0.5;" width="146" x="347" y="477.0137"/><rect fill="#F1F1F1" height="10" style="stroke:#181818;stroke-width:0.5;" width="15" x="473" y="482.0137"/><rect fill="#F1F1F1" height="2" style="stroke:#181818;stroke-width:0.5;" width="4" x="471" y="484.0137"/><rect fill="#F1F1F1" height="2" style="stroke:#181818;stroke-width:0.5;" width="4" x="471" y="488.0137"/><text fill="#000000" font-family="sans-serif" font-size="14" lengthAdjust="spacing" textLength="106" x="362" y="512.1211">UserViewMapper</text></g><!--entity UserController--><g id="elem_UserController"><rect fill="#F1F1F1" height="48.6211" rx="2.5" ry="2.5" style="stroke:#181818;stroke-width:0.5;" width="131" x="22.5" y="349.0137"/><rect fill="#F1F1F1" height="10" style="stroke:#181818;stroke-width:0.5;" width="15" x="133.5" y="354.0137"/><rect fill="#F1F1F1" height="2" style="stroke:#181818;stroke-width:0.5;" width="4" x="131.5" y="356.0137"/><rect fill="#F1F1F1" height="2" style="stroke:#181818;stroke-width:0.5;" width="4" x="131.5" y="360.0137"/><text fill="#000000" font-family="sans-serif" font-size="14" lengthAdjust="spacing" textLength="91" x="37.5" y="384.1211">UserController</text></g><!--entity Google--><g id="elem_Google"><rect fill="#F1F1F1" height="48.6211" rx="2.5" ry="2.5" style="stroke:#181818;stroke-width:0.5;" width="130" x="86" y="196.0137"/><rect fill="#F1F1F1" height="10" style="stroke:#181818;stroke-width:0.5;" width="15" x="196" y="201.0137"/><rect fill="#F1F1F1" height="2" style="stroke:#181818;stroke-width:0.5;" width="4" x="194" y="203.0137"/><rect fill="#F1F1F1" height="2" style="stroke:#181818;stroke-width:0.5;" width="4" x="194" y="207.0137"/><text fill="#000000" font-family="sans-serif" font-size="14" lengthAdjust="spacing" textLength="90" x="101" y="231.1211">Google OAuth</text></g><!--entity Facebook--><g id="elem_Facebook"><rect fill="#F1F1F1" height="48.6211" rx="2.5" ry="2.5" style="stroke:#181818;stroke-width:0.5;" width="147" x="251.5" y="196.0137"/><rect fill="#F1F1F1" height="10" style="stroke:#181818;stroke-width:0.5;" width="15" x="378.5" y="201.0137"/><rect fill="#F1F1F1" height="2" style="stroke:#181818;stroke-width:0.5;" width="4" x="376.5" y="203.0137"/><rect fill="#F1F1F1" height="2" style="stroke:#181818;stroke-width:0.5;" width="4" x="376.5" y="207.0137"/><text fill="#000000" font-family="sans-serif" font-size="14" lengthAdjust="spacing" textLength="107" x="266.5" y="231.1211">Facebook OAuth</text></g><!--link FE to Google--><g id="link_FE_Google"><path d="M271.81,80.8337 C245.36,89.2537 214.53,102.8337 193,124.0137 C172.99,143.7037 163.3624,168.768 157.6624,190.048 " fill="none" id="FE-to-Google" style="stroke:#181818;stroke-width:1.0;"/><polygon fill="#181818" points="156.11,195.8437,162.3024,188.1851,157.4037,191.0139,154.5748,186.1152,156.11,195.8437" style="stroke:#181818;stroke-width:1.0;"/><text fill="#000000" font-family="sans-serif" font-size="13" lengthAdjust="spacing" textLength="122" x="194" y="139.042">OAuth2 login request</text></g><!--link FE to Facebook--><g id="link_FE_Facebook"><path d="M325,92.1037 C325,120.3137 325,161.2437 325,189.5837 " fill="none" id="FE-to-Facebook" style="stroke:#181818;stroke-width:1.0;"/><polygon fill="#181818" points="325,195.5837,329,186.5837,325,190.5837,321,186.5837,325,195.5837" style="stroke:#181818;stroke-width:1.0;"/><text fill="#000000" font-family="sans-serif" font-size="13" lengthAdjust="spacing" textLength="122" x="326" y="139.042">OAuth2 login request</text></g><!--link Google to Handler--><g id="link_Google_Handler"><path d="M128.04,245.3137 C115.7,261.0237 105.36,281.3237 118,296.0137 C125.77,305.0437 159.57,300.6737 171,304.0137 C209.34,315.2137 245.212,331.2632 275.352,346.3132 " fill="none" id="Google-to-Handler" style="stroke:#181818;stroke-width:1.0;"/><polygon fill="#181818" points="280.72,348.9937,274.455,341.3944,276.2467,346.76,270.8811,348.5517,280.72,348.9937" style="stroke:#181818;stroke-width:1.0;"/><text fill="#000000" font-family="sans-serif" font-size="13" lengthAdjust="spacing" textLength="193" x="119" y="292.042">OAuth2 token (email, name, etc.)</text></g><!--link Facebook to Handler--><g id="link_Facebook_Handler"><path d="M323.43,245.2737 C322.86,255.0937 322.28,266.5937 322,277.0137 C321.34,301.5537 322.1144,323.6525 323.1644,342.9725 " fill="none" id="Facebook-to-Handler" style="stroke:#181818;stroke-width:1.0;"/><polygon fill="#181818" points="323.49,348.9637,326.9957,339.7599,323.2187,343.971,319.0075,340.194,323.49,348.9637" style="stroke:#181818;stroke-width:1.0;"/><text fill="#000000" font-family="sans-serif" font-size="13" lengthAdjust="spacing" textLength="193" x="323" y="292.042">OAuth2 token (email, name, etc.)</text></g><!--link Handler to Repo--><g id="link_Handler_Repo"><path d="M188.71,397.1737 C137.46,407.0637 89.61,418.5437 82,428.0137 C71.11,441.5537 72.4665,455.7045 77.9265,471.2045 " fill="none" id="Handler-to-Repo" style="stroke:#181818;stroke-width:1.0;"/><polygon fill="#181818" points="79.92,476.8637,80.7025,467.046,78.2588,472.1477,73.157,469.7039,79.92,476.8637" style="stroke:#181818;stroke-width:1.0;"/><text fill="#000000" font-family="sans-serif" font-size="13" lengthAdjust="spacing" textLength="121" x="83" y="443.042">Check or create user</text></g><!--link Handler to JWT--><g id="link_Handler_JWT"><path d="M249.86,398.0137 C236.8,405.5137 224.89,415.3037 217,428.0137 C207.32,443.6037 212.9841,457.6593 224.3041,472.1993 " fill="none" id="Handler-to-JWT" style="stroke:#181818;stroke-width:1.0;"/><polygon fill="#181818" points="227.99,476.9337,225.6174,467.3749,224.9184,472.9884,219.3049,472.2894,227.99,476.9337" style="stroke:#181818;stroke-width:1.0;"/><text fill="#000000" font-family="sans-serif" font-size="13" lengthAdjust="spacing" textLength="158" x="218" y="443.042">Encode user info into token</text></g><!--link Handler to Mapper--><g id="link_Handler_Mapper"><path d="M353.25,398.2537 C362.73,407.0237 372.93,417.4237 381,428.0137 C392.52,443.1337 400.0085,456.6974 407.0385,471.4474 " fill="none" id="Handler-to-Mapper" style="stroke:#181818;stroke-width:1.0;"/><polygon fill="#181818" points="409.62,476.8637,409.3587,467.0183,407.4688,472.3501,402.137,470.4602,409.62,476.8637" style="stroke:#181818;stroke-width:1.0;"/><text fill="#000000" font-family="sans-serif" font-size="13" lengthAdjust="spacing" textLength="119" x="394" y="443.042">Convert User to DTO</text></g><!--link Handler to FE--><g id="link_Handler_FE"><path d="M449.88,348.9137 C477.76,337.5837 504.05,320.8237 521,296.0137 C567.01,228.6637 514.62,181.7437 457,124.0137 C435.57,102.5437 410.3132,90.7351 383.7532,82.3751 " fill="none" id="Handler-to-FE" style="stroke:#181818;stroke-width:1.0;"/><polygon fill="#181818" points="378.03,80.5737,385.4138,87.0913,382.7993,82.0749,387.8157,79.4604,378.03,80.5737" style="stroke:#181818;stroke-width:1.0;"/><text fill="#000000" font-family="sans-serif" font-size="13" lengthAdjust="spacing" textLength="217" x="539" y="226.042">Return JSON with token and user info</text></g><!--SRC=[bP4nJyCm48Nt_8fJfrPg6HWx8BKb0LM2Ias10J4OvqYjfZvZNoWLuhzZ9qvB1WQ6H8xVzzvTxeoGEr4Y339Bcb4N0_XA09xNA2J3p9WN40woDFbE4jEnSt_mA0npOvKkOKx4esXSpMhUXWSrAobOaSvhAT6vMw6B2cqJ6C_1yE3Ghj6GKqpssAZXCqZB0wTQKX5DowTDPtXKUBWJnaIbFNRYml-9fIhKwhMTVZ9QBIh8ZuvnxsB7DqHbXT0qtgIr5q7AXCHNejqliRiAoLaAaybLv67QKfTGKQaqM7olqN47dQB-m9AO4jWudJFAvESDGzmBLOr1YpsE0LbUZ99Jx3zzISS6NvYtDossA7T05gH5mGYrdsMFymlmMBkIHWMbtyY_cDfIFRfTIiWb_O6M8Up6St2zMVL0Fw6fxu5hgs6Ph-xXe7WRU_VOkT8F]--></g></svg>