<svg xmlns="http://www.w3.org/2000/svg" xmlns:xlink="http://www.w3.org/1999/xlink" contentStyleType="text/css" data-diagram-type="CLASS" height="1096px" preserveAspectRatio="none" style="width:1215px;height:1096px;background:#FFFFFF;" version="1.1" viewBox="0 0 1215 1096" width="1215px" zoomAndPan="magnify"><defs/><g><!--cluster pt--><g class="cluster" data-entity="pt" data-source-line="2" data-uid="ent0004" id="cluster_pt"><path d="M8.5,6.0137 L22.7139,6.0137 A3.75,3.75 0 0 1 25.2139,8.5137 L32.2139,30.6348 L851.5,30.6348 A2.5,2.5 0 0 1 854,33.1348 L854,1086.5137 A2.5,2.5 0 0 1 851.5,1089.0137 L8.5,1089.0137 A2.5,2.5 0 0 1 6,1086.5137 L6,8.5137 A2.5,2.5 0 0 1 8.5,6.0137" fill="none" style="stroke:#000000;stroke-width:1.5;"/><line style="stroke:#000000;stroke-width:1.5;" x1="6" x2="32.2139" y1="30.6348" y2="30.6348"/><text fill="#000000" font-family="sans-serif" font-size="14" font-weight="bold" lengthAdjust="spacing" textLength="13.2139" x="10" y="23.1211">pt</text></g><!--cluster psoft--><g class="cluster" data-entity="psoft" data-source-line="2" data-uid="ent0005" id="cluster_psoft"><path d="M32.5,51.0137 L67.7139,51.0137 A3.75,3.75 0 0 1 70.2139,53.5137 L77.2139,75.6348 L827.5,75.6348 A2.5,2.5 0 0 1 830,78.1348 L830,1062.5137 A2.5,2.5 0 0 1 827.5,1065.0137 L32.5,1065.0137 A2.5,2.5 0 0 1 30,1062.5137 L30,53.5137 A2.5,2.5 0 0 1 32.5,51.0137" fill="none" style="stroke:#000000;stroke-width:1.5;"/><line style="stroke:#000000;stroke-width:1.5;" x1="30" x2="77.2139" y1="75.6348" y2="75.6348"/><text fill="#000000" font-family="sans-serif" font-size="14" font-weight="bold" lengthAdjust="spacing" textLength="34.2139" x="34" y="68.1211">psoft</text></g><!--cluster g1--><g class="cluster" data-entity="g1" data-source-line="2" data-uid="ent0006" id="cluster_g1"><path d="M56.5,96.0137 L73.8379,96.0137 A3.75,3.75 0 0 1 76.3379,98.5137 L83.3379,120.6348 L803.5,120.6348 A2.5,2.5 0 0 1 806,123.1348 L806,1038.5137 A2.5,2.5 0 0 1 803.5,1041.0137 L56.5,1041.0137 A2.5,2.5 0 0 1 54,1038.5137 L54,98.5137 A2.5,2.5 0 0 1 56.5,96.0137" fill="none" style="stroke:#000000;stroke-width:1.5;"/><line style="stroke:#000000;stroke-width:1.5;" x1="54" x2="83.3379" y1="120.6348" y2="120.6348"/><text fill="#000000" font-family="sans-serif" font-size="14" font-weight="bold" lengthAdjust="spacing" textLength="16.3379" x="58" y="113.1211">g1</text></g><!--cluster psoftg1--><g class="cluster" data-entity="psoftg1" data-source-line="2" data-uid="ent0007" id="cluster_psoftg1"><path d="M80.5,141.0137 L132.0518,141.0137 A3.75,3.75 0 0 1 134.5518,143.5137 L141.5518,165.6348 L779.5,165.6348 A2.5,2.5 0 0 1 782,168.1348 L782,1014.5137 A2.5,2.5 0 0 1 779.5,1017.0137 L80.5,1017.0137 A2.5,2.5 0 0 1 78,1014.5137 L78,143.5137 A2.5,2.5 0 0 1 80.5,141.0137" fill="none" style="stroke:#000000;stroke-width:1.5;"/><line style="stroke:#000000;stroke-width:1.5;" x1="78" x2="141.5518" y1="165.6348" y2="165.6348"/><text fill="#000000" font-family="sans-serif" font-size="14" font-weight="bold" lengthAdjust="spacing" textLength="50.5518" x="82" y="158.1211">psoftg1</text></g><!--cluster configuration--><g class="cluster" data-entity="configuration" data-source-line="1" data-uid="ent0002" id="cluster_configuration"><path d="M104.5,186.0137 L194.9346,186.0137 A3.75,3.75 0 0 1 197.4346,188.5137 L204.4346,210.6348 L393.5,210.6348 A2.5,2.5 0 0 1 396,213.1348 L396,741.5137 A2.5,2.5 0 0 1 393.5,744.0137 L104.5,744.0137 A2.5,2.5 0 0 1 102,741.5137 L102,188.5137 A2.5,2.5 0 0 1 104.5,186.0137" fill="none" style="stroke:#000000;stroke-width:1.5;"/><line style="stroke:#000000;stroke-width:1.5;" x1="102" x2="204.4346" y1="210.6348" y2="210.6348"/><text fill="#000000" font-family="sans-serif" font-size="14" font-weight="bold" lengthAdjust="spacing" textLength="89.4346" x="106" y="203.1211">configuration</text></g><!--cluster usermanagement--><g class="cluster" data-entity="usermanagement" data-source-line="8" data-uid="ent0012" id="cluster_usermanagement"><path d="M422.5,598.0137 L539.4307,598.0137 A3.75,3.75 0 0 1 541.9307,600.5137 L548.9307,622.6348 L755.5,622.6348 A2.5,2.5 0 0 1 758,625.1348 L758,990.5137 A2.5,2.5 0 0 1 755.5,993.0137 L422.5,993.0137 A2.5,2.5 0 0 1 420,990.5137 L420,600.5137 A2.5,2.5 0 0 1 422.5,598.0137" fill="none" style="stroke:#000000;stroke-width:1.5;"/><line style="stroke:#000000;stroke-width:1.5;" x1="420" x2="548.9307" y1="622.6348" y2="622.6348"/><text fill="#000000" font-family="sans-serif" font-size="14" font-weight="bold" lengthAdjust="spacing" textLength="115.9307" x="424" y="615.1211">usermanagement</text></g><!--cluster api--><g class="cluster" data-entity="api" data-source-line="7" data-uid="ent0010" id="cluster_api"><path d="M446.5,643.0137 L467.7275,643.0137 A3.75,3.75 0 0 1 470.2275,645.5137 L477.2275,667.6348 L613.5,667.6348 A2.5,2.5 0 0 1 616,670.1348 L616,966.5137 A2.5,2.5 0 0 1 613.5,969.0137 L446.5,969.0137 A2.5,2.5 0 0 1 444,966.5137 L444,645.5137 A2.5,2.5 0 0 1 446.5,643.0137" fill="none" style="stroke:#000000;stroke-width:1.5;"/><line style="stroke:#000000;stroke-width:1.5;" x1="444" x2="477.2275" y1="667.6348" y2="667.6348"/><text fill="#000000" font-family="sans-serif" font-size="14" font-weight="bold" lengthAdjust="spacing" textLength="20.2275" x="448" y="660.1211">api</text></g><!--cluster model--><g class="cluster" data-entity="model" data-source-line="12" data-uid="ent0014" id="cluster_model"><path d="M642.5,643.0137 L684.7275,643.0137 A3.75,3.75 0 0 1 687.2275,645.5137 L694.2275,667.6348 L731.5,667.6348 A2.5,2.5 0 0 1 734,670.1348 L734,741.5137 A2.5,2.5 0 0 1 731.5,744.0137 L642.5,744.0137 A2.5,2.5 0 0 1 640,741.5137 L640,645.5137 A2.5,2.5 0 0 1 642.5,643.0137" fill="none" style="stroke:#000000;stroke-width:1.5;"/><line style="stroke:#000000;stroke-width:1.5;" x1="640" x2="694.2275" y1="667.6348" y2="667.6348"/><text fill="#000000" font-family="sans-serif" font-size="14" font-weight="bold" lengthAdjust="spacing" textLength="41.2275" x="644" y="660.1211">model</text></g><!--cluster org--><g class="cluster" data-entity="org" data-source-line="17" data-uid="ent0018" id="cluster_org"><path d="M880.5,463.0137 L904.0518,463.0137 A3.75,3.75 0 0 1 906.5518,465.5137 L913.5518,487.6348 L1205.5,487.6348 A2.5,2.5 0 0 1 1208,490.1348 L1208,837.5137 A2.5,2.5 0 0 1 1205.5,840.0137 L880.5,840.0137 A2.5,2.5 0 0 1 878,837.5137 L878,465.5137 A2.5,2.5 0 0 1 880.5,463.0137" fill="none" style="stroke:#000000;stroke-width:1.5;"/><line style="stroke:#000000;stroke-width:1.5;" x1="878" x2="913.5518" y1="487.6348" y2="487.6348"/><text fill="#000000" font-family="sans-serif" font-size="14" font-weight="bold" lengthAdjust="spacing" textLength="22.5518" x="882" y="480.1211">org</text></g><!--cluster springframework--><g class="cluster" data-entity="springframework" data-source-line="17" data-uid="ent0019" id="cluster_springframework"><path d="M904.5,508.0137 L1019.0859,508.0137 A3.75,3.75 0 0 1 1021.5859,510.5137 L1028.5859,532.6348 L1181.5,532.6348 A2.5,2.5 0 0 1 1184,535.1348 L1184,813.5137 A2.5,2.5 0 0 1 1181.5,816.0137 L904.5,816.0137 A2.5,2.5 0 0 1 902,813.5137 L902,510.5137 A2.5,2.5 0 0 1 904.5,508.0137" fill="none" style="stroke:#000000;stroke-width:1.5;"/><line style="stroke:#000000;stroke-width:1.5;" x1="902" x2="1028.5859" y1="532.6348" y2="532.6348"/><text fill="#000000" font-family="sans-serif" font-size="14" font-weight="bold" lengthAdjust="spacing" textLength="113.5859" x="906" y="525.1211">springframework</text></g><!--cluster security--><g class="cluster" data-entity="security" data-source-line="17" data-uid="ent0020" id="cluster_security"><path d="M928.5,553.0137 L983.1963,553.0137 A3.75,3.75 0 0 1 985.6963,555.5137 L992.6963,577.6348 L1157.5,577.6348 A2.5,2.5 0 0 1 1160,580.1348 L1160,789.5137 A2.5,2.5 0 0 1 1157.5,792.0137 L928.5,792.0137 A2.5,2.5 0 0 1 926,789.5137 L926,555.5137 A2.5,2.5 0 0 1 928.5,553.0137" fill="none" style="stroke:#000000;stroke-width:1.5;"/><line style="stroke:#000000;stroke-width:1.5;" x1="926" x2="992.6963" y1="577.6348" y2="577.6348"/><text fill="#000000" font-family="sans-serif" font-size="14" font-weight="bold" lengthAdjust="spacing" textLength="53.6963" x="930" y="570.1211">security</text></g><!--cluster oauth2--><g class="cluster" data-entity="oauth2" data-source-line="17" data-uid="ent0021" id="cluster_oauth2"><path d="M952.5,598.0137 L999.3896,598.0137 A3.75,3.75 0 0 1 1001.8896,600.5137 L1008.8896,622.6348 L1133.5,622.6348 A2.5,2.5 0 0 1 1136,625.1348 L1136,765.5137 A2.5,2.5 0 0 1 1133.5,768.0137 L952.5,768.0137 A2.5,2.5 0 0 1 950,765.5137 L950,600.5137 A2.5,2.5 0 0 1 952.5,598.0137" fill="none" style="stroke:#000000;stroke-width:1.5;"/><line style="stroke:#000000;stroke-width:1.5;" x1="950" x2="1008.8896" y1="622.6348" y2="622.6348"/><text fill="#000000" font-family="sans-serif" font-size="14" font-weight="bold" lengthAdjust="spacing" textLength="45.8896" x="954" y="615.1211">oauth2</text></g><!--cluster jwt--><g class="cluster" data-entity="jwt" data-source-line="16" data-uid="ent0016" id="cluster_jwt"><path d="M976.5,643.0137 L996.9414,643.0137 A3.75,3.75 0 0 1 999.4414,645.5137 L1006.4414,667.6348 L1109.5,667.6348 A2.5,2.5 0 0 1 1112,670.1348 L1112,741.5137 A2.5,2.5 0 0 1 1109.5,744.0137 L976.5,744.0137 A2.5,2.5 0 0 1 974,741.5137 L974,645.5137 A2.5,2.5 0 0 1 976.5,643.0137" fill="none" style="stroke:#000000;stroke-width:1.5;"/><line style="stroke:#000000;stroke-width:1.5;" x1="974" x2="1006.4414" y1="667.6348" y2="667.6348"/><text fill="#000000" font-family="sans-serif" font-size="14" font-weight="bold" lengthAdjust="spacing" textLength="19.4414" x="978" y="660.1211">jwt</text></g><!--class OAuthAuthenticationSuccessHandler--><g class="entity" data-entity="OAuthAuthenticationSuccessHandler" data-source-line="2" data-uid="ent0003" id="entity_OAuthAuthenticationSuccessHandler"><rect fill="#F1F1F1" height="48" rx="2.5" ry="2.5" style="stroke:#181818;stroke-width:0.5;" width="262.3574" x="118" y="350.0137"/><ellipse cx="133" cy="366.0137" fill="#ADD1B2" rx="11" ry="11" style="stroke:#181818;stroke-width:1;"/><path d="M135.7656,361.8887 Q135.9219,361.6699 136.1094,361.5605 Q136.2969,361.4512 136.5156,361.4512 Q136.8906,361.4512 137.125,361.7168 Q137.3594,361.9668 137.3594,362.5762 L137.3594,364.0293 Q137.3594,364.6387 137.125,364.9043 Q136.8906,365.1699 136.5156,365.1699 Q136.1719,365.1699 135.9688,364.9668 Q135.7656,364.7793 135.6563,364.2637 Q135.6094,363.9043 135.4219,363.7168 Q135.0938,363.3418 134.4844,363.123 Q133.875,362.9043 133.25,362.9043 Q132.4844,362.9043 131.8438,363.2324 Q131.2188,363.5605 130.7188,364.3105 Q130.2344,365.0605 130.2344,366.0918 L130.2344,367.1855 Q130.2344,368.4199 131.125,369.248 Q132.0156,370.0605 133.6094,370.0605 Q134.5469,370.0605 135.2031,369.8105 Q135.5938,369.6543 136.0156,369.2168 Q136.2813,368.9512 136.4219,368.873 Q136.5781,368.7949 136.7813,368.7949 Q137.1094,368.7949 137.3594,369.0605 Q137.625,369.3105 137.625,369.6543 Q137.625,369.998 137.2813,370.4043 Q136.7813,370.9824 135.9844,371.3105 Q134.9063,371.7637 133.6094,371.7637 Q132.0938,371.7637 130.8906,371.1387 Q129.9063,370.6387 129.2188,369.5762 Q128.5313,368.498 128.5313,367.2168 L128.5313,366.0605 Q128.5313,364.7324 129.1406,363.5918 Q129.7656,362.4355 130.8594,361.8262 Q131.9531,361.2012 133.1875,361.2012 Q133.9219,361.2012 134.5625,361.373 Q135.2188,361.5293 135.7656,361.8887 Z " fill="#000000"/><text fill="#000000" font-family="sans-serif" font-size="14" lengthAdjust="spacing" textLength="230.3574" x="147" y="371.8105">OAuthAuthenticationSuccessHandler</text><line style="stroke:#181818;stroke-width:0.5;" x1="119" x2="379.3574" y1="382.0137" y2="382.0137"/><line style="stroke:#181818;stroke-width:0.5;" x1="119" x2="379.3574" y1="390.0137" y2="390.0137"/></g><!--class OAuthHandlerConfig--><g class="entity" data-entity="OAuthHandlerConfig" data-source-line="3" data-uid="ent0008" id="entity_OAuthHandlerConfig"><rect fill="#F1F1F1" height="48" rx="2.5" ry="2.5" style="stroke:#181818;stroke-width:0.5;" width="161.1855" x="168.5" y="223.0137"/><ellipse cx="183.5" cy="239.0137" fill="#ADD1B2" rx="11" ry="11" style="stroke:#181818;stroke-width:1;"/><path d="M186.2656,234.8887 Q186.4219,234.6699 186.6094,234.5605 Q186.7969,234.4512 187.0156,234.4512 Q187.3906,234.4512 187.625,234.7168 Q187.8594,234.9668 187.8594,235.5762 L187.8594,237.0293 Q187.8594,237.6387 187.625,237.9043 Q187.3906,238.1699 187.0156,238.1699 Q186.6719,238.1699 186.4688,237.9668 Q186.2656,237.7793 186.1563,237.2637 Q186.1094,236.9043 185.9219,236.7168 Q185.5938,236.3418 184.9844,236.123 Q184.375,235.9043 183.75,235.9043 Q182.9844,235.9043 182.3438,236.2324 Q181.7188,236.5605 181.2188,237.3105 Q180.7344,238.0605 180.7344,239.0918 L180.7344,240.1855 Q180.7344,241.4199 181.625,242.248 Q182.5156,243.0605 184.1094,243.0605 Q185.0469,243.0605 185.7031,242.8105 Q186.0938,242.6543 186.5156,242.2168 Q186.7813,241.9512 186.9219,241.873 Q187.0781,241.7949 187.2813,241.7949 Q187.6094,241.7949 187.8594,242.0605 Q188.125,242.3105 188.125,242.6543 Q188.125,242.998 187.7813,243.4043 Q187.2813,243.9824 186.4844,244.3105 Q185.4063,244.7637 184.1094,244.7637 Q182.5938,244.7637 181.3906,244.1387 Q180.4063,243.6387 179.7188,242.5762 Q179.0313,241.498 179.0313,240.2168 L179.0313,239.0605 Q179.0313,237.7324 179.6406,236.5918 Q180.2656,235.4355 181.3594,234.8262 Q182.4531,234.2012 183.6875,234.2012 Q184.4219,234.2012 185.0625,234.373 Q185.7188,234.5293 186.2656,234.8887 Z " fill="#000000"/><text fill="#000000" font-family="sans-serif" font-size="14" lengthAdjust="spacing" textLength="129.1855" x="197.5" y="244.8105">OAuthHandlerConfig</text><line style="stroke:#181818;stroke-width:0.5;" x1="169.5" x2="328.6855" y1="255.0137" y2="255.0137"/><line style="stroke:#181818;stroke-width:0.5;" x1="169.5" x2="328.6855" y1="263.0137" y2="263.0137"/></g><!--class UserRepository--><g class="entity" data-entity="UserRepository" data-source-line="4" data-uid="ent0009" id="entity_UserRepository"><rect fill="#F1F1F1" height="48" rx="2.5" ry="2.5" style="stroke:#181818;stroke-width:0.5;" width="128.4756" x="185" y="680.0137"/><ellipse cx="200" cy="696.0137" fill="#ADD1B2" rx="11" ry="11" style="stroke:#181818;stroke-width:1;"/><path d="M202.7656,691.8887 Q202.9219,691.6699 203.1094,691.5605 Q203.2969,691.4512 203.5156,691.4512 Q203.8906,691.4512 204.125,691.7168 Q204.3594,691.9668 204.3594,692.5762 L204.3594,694.0293 Q204.3594,694.6387 204.125,694.9043 Q203.8906,695.1699 203.5156,695.1699 Q203.1719,695.1699 202.9688,694.9668 Q202.7656,694.7793 202.6563,694.2637 Q202.6094,693.9043 202.4219,693.7168 Q202.0938,693.3418 201.4844,693.123 Q200.875,692.9043 200.25,692.9043 Q199.4844,692.9043 198.8438,693.2324 Q198.2188,693.5605 197.7188,694.3105 Q197.2344,695.0605 197.2344,696.0918 L197.2344,697.1855 Q197.2344,698.4199 198.125,699.248 Q199.0156,700.0605 200.6094,700.0605 Q201.5469,700.0605 202.2031,699.8105 Q202.5938,699.6543 203.0156,699.2168 Q203.2813,698.9512 203.4219,698.873 Q203.5781,698.7949 203.7813,698.7949 Q204.1094,698.7949 204.3594,699.0605 Q204.625,699.3105 204.625,699.6543 Q204.625,699.998 204.2813,700.4043 Q203.7813,700.9824 202.9844,701.3105 Q201.9063,701.7637 200.6094,701.7637 Q199.0938,701.7637 197.8906,701.1387 Q196.9063,700.6387 196.2188,699.5762 Q195.5313,698.498 195.5313,697.2168 L195.5313,696.0605 Q195.5313,694.7324 196.1406,693.5918 Q196.7656,692.4355 197.8594,691.8262 Q198.9531,691.2012 200.1875,691.2012 Q200.9219,691.2012 201.5625,691.373 Q202.2188,691.5293 202.7656,691.8887 Z " fill="#000000"/><text fill="#000000" font-family="sans-serif" font-size="14" lengthAdjust="spacing" textLength="96.4756" x="214" y="701.8105">UserRepository</text><line style="stroke:#181818;stroke-width:0.5;" x1="186" x2="312.4756" y1="712.0137" y2="712.0137"/><line style="stroke:#181818;stroke-width:0.5;" x1="186" x2="312.4756" y1="720.0137" y2="720.0137"/></g><!--class UserView--><g class="entity" data-entity="UserView" data-source-line="8" data-uid="ent0011" id="entity_UserView"><rect fill="#F1F1F1" height="48" rx="2.5" ry="2.5" style="stroke:#181818;stroke-width:0.5;" width="91.9033" x="472" y="905.0137"/><ellipse cx="487" cy="921.0137" fill="#ADD1B2" rx="11" ry="11" style="stroke:#181818;stroke-width:1;"/><path d="M489.7656,916.8887 Q489.9219,916.6699 490.1094,916.5605 Q490.2969,916.4512 490.5156,916.4512 Q490.8906,916.4512 491.125,916.7168 Q491.3594,916.9668 491.3594,917.5762 L491.3594,919.0293 Q491.3594,919.6387 491.125,919.9043 Q490.8906,920.1699 490.5156,920.1699 Q490.1719,920.1699 489.9688,919.9668 Q489.7656,919.7793 489.6563,919.2637 Q489.6094,918.9043 489.4219,918.7168 Q489.0938,918.3418 488.4844,918.123 Q487.875,917.9043 487.25,917.9043 Q486.4844,917.9043 485.8438,918.2324 Q485.2188,918.5605 484.7188,919.3105 Q484.2344,920.0605 484.2344,921.0918 L484.2344,922.1855 Q484.2344,923.4199 485.125,924.248 Q486.0156,925.0605 487.6094,925.0605 Q488.5469,925.0605 489.2031,924.8105 Q489.5938,924.6543 490.0156,924.2168 Q490.2813,923.9512 490.4219,923.873 Q490.5781,923.7949 490.7813,923.7949 Q491.1094,923.7949 491.3594,924.0605 Q491.625,924.3105 491.625,924.6543 Q491.625,924.998 491.2813,925.4043 Q490.7813,925.9824 489.9844,926.3105 Q488.9063,926.7637 487.6094,926.7637 Q486.0938,926.7637 484.8906,926.1387 Q483.9063,925.6387 483.2188,924.5762 Q482.5313,923.498 482.5313,922.2168 L482.5313,921.0605 Q482.5313,919.7324 483.1406,918.5918 Q483.7656,917.4355 484.8594,916.8262 Q485.9531,916.2012 487.1875,916.2012 Q487.9219,916.2012 488.5625,916.373 Q489.2188,916.5293 489.7656,916.8887 Z " fill="#000000"/><text fill="#000000" font-family="sans-serif" font-size="14" lengthAdjust="spacing" textLength="59.9033" x="501" y="926.8105">UserView</text><line style="stroke:#181818;stroke-width:0.5;" x1="473" x2="562.9033" y1="937.0137" y2="937.0137"/><line style="stroke:#181818;stroke-width:0.5;" x1="473" x2="562.9033" y1="945.0137" y2="945.0137"/></g><!--class UserViewMapper--><g class="entity" data-entity="UserViewMapper" data-source-line="9" data-uid="ent0013" id="entity_UserViewMapper"><rect fill="#F1F1F1" height="48" rx="2.5" ry="2.5" style="stroke:#181818;stroke-width:0.5;" width="139.3721" x="460.5" y="680.0137"/><ellipse cx="475.5" cy="696.0137" fill="#ADD1B2" rx="11" ry="11" style="stroke:#181818;stroke-width:1;"/><path d="M478.2656,691.8887 Q478.4219,691.6699 478.6094,691.5605 Q478.7969,691.4512 479.0156,691.4512 Q479.3906,691.4512 479.625,691.7168 Q479.8594,691.9668 479.8594,692.5762 L479.8594,694.0293 Q479.8594,694.6387 479.625,694.9043 Q479.3906,695.1699 479.0156,695.1699 Q478.6719,695.1699 478.4688,694.9668 Q478.2656,694.7793 478.1563,694.2637 Q478.1094,693.9043 477.9219,693.7168 Q477.5938,693.3418 476.9844,693.123 Q476.375,692.9043 475.75,692.9043 Q474.9844,692.9043 474.3438,693.2324 Q473.7188,693.5605 473.2188,694.3105 Q472.7344,695.0605 472.7344,696.0918 L472.7344,697.1855 Q472.7344,698.4199 473.625,699.248 Q474.5156,700.0605 476.1094,700.0605 Q477.0469,700.0605 477.7031,699.8105 Q478.0938,699.6543 478.5156,699.2168 Q478.7813,698.9512 478.9219,698.873 Q479.0781,698.7949 479.2813,698.7949 Q479.6094,698.7949 479.8594,699.0605 Q480.125,699.3105 480.125,699.6543 Q480.125,699.998 479.7813,700.4043 Q479.2813,700.9824 478.4844,701.3105 Q477.4063,701.7637 476.1094,701.7637 Q474.5938,701.7637 473.3906,701.1387 Q472.4063,700.6387 471.7188,699.5762 Q471.0313,698.498 471.0313,697.2168 L471.0313,696.0605 Q471.0313,694.7324 471.6406,693.5918 Q472.2656,692.4355 473.3594,691.8262 Q474.4531,691.2012 475.6875,691.2012 Q476.4219,691.2012 477.0625,691.373 Q477.7188,691.5293 478.2656,691.8887 Z " fill="#000000"/><text fill="#000000" font-family="sans-serif" font-size="14" lengthAdjust="spacing" textLength="107.3721" x="489.5" y="701.8105">UserViewMapper</text><line style="stroke:#181818;stroke-width:0.5;" x1="461.5" x2="598.8721" y1="712.0137" y2="712.0137"/><line style="stroke:#181818;stroke-width:0.5;" x1="461.5" x2="598.8721" y1="720.0137" y2="720.0137"/></g><!--class User--><g class="entity" data-entity="User" data-source-line="13" data-uid="ent0015" id="entity_User"><rect fill="#F1F1F1" height="48" rx="2.5" ry="2.5" style="stroke:#181818;stroke-width:0.5;" width="61.5586" x="656" y="680.0137"/><ellipse cx="671" cy="696.0137" fill="#ADD1B2" rx="11" ry="11" style="stroke:#181818;stroke-width:1;"/><path d="M673.7656,691.8887 Q673.9219,691.6699 674.1094,691.5605 Q674.2969,691.4512 674.5156,691.4512 Q674.8906,691.4512 675.125,691.7168 Q675.3594,691.9668 675.3594,692.5762 L675.3594,694.0293 Q675.3594,694.6387 675.125,694.9043 Q674.8906,695.1699 674.5156,695.1699 Q674.1719,695.1699 673.9688,694.9668 Q673.7656,694.7793 673.6563,694.2637 Q673.6094,693.9043 673.4219,693.7168 Q673.0938,693.3418 672.4844,693.123 Q671.875,692.9043 671.25,692.9043 Q670.4844,692.9043 669.8438,693.2324 Q669.2188,693.5605 668.7188,694.3105 Q668.2344,695.0605 668.2344,696.0918 L668.2344,697.1855 Q668.2344,698.4199 669.125,699.248 Q670.0156,700.0605 671.6094,700.0605 Q672.5469,700.0605 673.2031,699.8105 Q673.5938,699.6543 674.0156,699.2168 Q674.2813,698.9512 674.4219,698.873 Q674.5781,698.7949 674.7813,698.7949 Q675.1094,698.7949 675.3594,699.0605 Q675.625,699.3105 675.625,699.6543 Q675.625,699.998 675.2813,700.4043 Q674.7813,700.9824 673.9844,701.3105 Q672.9063,701.7637 671.6094,701.7637 Q670.0938,701.7637 668.8906,701.1387 Q667.9063,700.6387 667.2188,699.5762 Q666.5313,698.498 666.5313,697.2168 L666.5313,696.0605 Q666.5313,694.7324 667.1406,693.5918 Q667.7656,692.4355 668.8594,691.8262 Q669.9531,691.2012 671.1875,691.2012 Q671.9219,691.2012 672.5625,691.373 Q673.2188,691.5293 673.7656,691.8887 Z " fill="#000000"/><text fill="#000000" font-family="sans-serif" font-size="14" lengthAdjust="spacing" textLength="29.5586" x="685" y="701.8105">User</text><line style="stroke:#181818;stroke-width:0.5;" x1="657" x2="716.5586" y1="712.0137" y2="712.0137"/><line style="stroke:#181818;stroke-width:0.5;" x1="657" x2="716.5586" y1="720.0137" y2="720.0137"/></g><!--class JwtEncoder--><g class="entity" data-entity="JwtEncoder" data-source-line="17" data-uid="ent0017" id="entity_JwtEncoder"><rect fill="#F1F1F1" height="48" rx="2.5" ry="2.5" style="stroke:#181818;stroke-width:0.5;" width="105.1445" x="990.5" y="680.0137"/><ellipse cx="1005.5" cy="696.0137" fill="#ADD1B2" rx="11" ry="11" style="stroke:#181818;stroke-width:1;"/><path d="M1008.2656,691.8887 Q1008.4219,691.6699 1008.6094,691.5605 Q1008.7969,691.4512 1009.0156,691.4512 Q1009.3906,691.4512 1009.625,691.7168 Q1009.8594,691.9668 1009.8594,692.5762 L1009.8594,694.0293 Q1009.8594,694.6387 1009.625,694.9043 Q1009.3906,695.1699 1009.0156,695.1699 Q1008.6719,695.1699 1008.4688,694.9668 Q1008.2656,694.7793 1008.1563,694.2637 Q1008.1094,693.9043 1007.9219,693.7168 Q1007.5938,693.3418 1006.9844,693.123 Q1006.375,692.9043 1005.75,692.9043 Q1004.9844,692.9043 1004.3438,693.2324 Q1003.7188,693.5605 1003.2188,694.3105 Q1002.7344,695.0605 1002.7344,696.0918 L1002.7344,697.1855 Q1002.7344,698.4199 1003.625,699.248 Q1004.5156,700.0605 1006.1094,700.0605 Q1007.0469,700.0605 1007.7031,699.8105 Q1008.0938,699.6543 1008.5156,699.2168 Q1008.7813,698.9512 1008.9219,698.873 Q1009.0781,698.7949 1009.2813,698.7949 Q1009.6094,698.7949 1009.8594,699.0605 Q1010.125,699.3105 1010.125,699.6543 Q1010.125,699.998 1009.7813,700.4043 Q1009.2813,700.9824 1008.4844,701.3105 Q1007.4063,701.7637 1006.1094,701.7637 Q1004.5938,701.7637 1003.3906,701.1387 Q1002.4063,700.6387 1001.7188,699.5762 Q1001.0313,698.498 1001.0313,697.2168 L1001.0313,696.0605 Q1001.0313,694.7324 1001.6406,693.5918 Q1002.2656,692.4355 1003.3594,691.8262 Q1004.4531,691.2012 1005.6875,691.2012 Q1006.4219,691.2012 1007.0625,691.373 Q1007.7188,691.5293 1008.2656,691.8887 Z " fill="#000000"/><text fill="#000000" font-family="sans-serif" font-size="14" lengthAdjust="spacing" textLength="73.1445" x="1019.5" y="701.8105">JwtEncoder</text><line style="stroke:#181818;stroke-width:0.5;" x1="991.5" x2="1094.6445" y1="712.0137" y2="712.0137"/><line style="stroke:#181818;stroke-width:0.5;" x1="991.5" x2="1094.6445" y1="720.0137" y2="720.0137"/></g><!--link OAuthHandlerConfig to OAuthAuthenticationSuccessHandler--><g class="link" data-entity-1="OAuthHandlerConfig" data-entity-2="OAuthAuthenticationSuccessHandler" data-source-line="20" data-uid="lnk22" id="link_OAuthHandlerConfig_OAuthAuthenticationSuccessHandler"><path codeLine="20" d="M249,271.2337 C249,293.6837 249,321.5137 249,343.9237" fill="none" id="OAuthHandlerConfig-to-OAuthAuthenticationSuccessHandler" style="stroke:#181818;stroke-width:1;"/><polygon fill="#181818" points="249,349.9237,253,340.9237,249,344.9237,245,340.9237,249,349.9237" style="stroke:#181818;stroke-width:1;"/><text fill="#000000" font-family="sans-serif" font-size="13" lengthAdjust="spacing" textLength="42.6309" x="250" y="316.042">creates</text></g><!--link OAuthAuthenticationSuccessHandler to UserRepository--><g class="link" data-entity-1="OAuthAuthenticationSuccessHandler" data-entity-2="UserRepository" data-source-line="21" data-uid="lnk23" id="link_OAuthAuthenticationSuccessHandler_UserRepository"><path codeLine="21" d="M249,398.0737 C249,458.3037 249,613.7837 249,673.9737" fill="none" id="OAuthAuthenticationSuccessHandler-to-UserRepository" style="stroke:#181818;stroke-width:1;"/><polygon fill="#181818" points="249,679.9737,253,670.9737,249,674.9737,245,670.9737,249,679.9737" style="stroke:#181818;stroke-width:1;"/><text fill="#000000" font-family="sans-serif" font-size="13" lengthAdjust="spacing" textLength="27.46" x="250" y="443.042">uses</text></g><!--link OAuthAuthenticationSuccessHandler to JwtEncoder--><g class="link" data-entity-1="OAuthAuthenticationSuccessHandler" data-entity-2="JwtEncoder" data-source-line="22" data-uid="lnk24" id="link_OAuthAuthenticationSuccessHandler_JwtEncoder"><path codeLine="22" d="M380.37,378.9437 C467.56,384.4837 583.61,397.5437 682,428.0137 C835.91,475.6837 970.3672,618.1336 1019.8072,675.3536" fill="none" id="OAuthAuthenticationSuccessHandler-to-JwtEncoder" style="stroke:#181818;stroke-width:1;"/><polygon fill="#181818" points="1023.73,679.8937,1020.8726,670.4684,1020.461,676.1103,1014.8192,675.6988,1023.73,679.8937" style="stroke:#181818;stroke-width:1;"/><text fill="#000000" font-family="sans-serif" font-size="13" lengthAdjust="spacing" textLength="27.46" x="728" y="443.042">uses</text></g><!--link OAuthAuthenticationSuccessHandler to JwtEncoder--><g class="link" data-entity-1="OAuthAuthenticationSuccessHandler" data-entity-2="JwtEncoder" data-source-line="27" data-uid="lnk29" id="link_OAuthAuthenticationSuccessHandler_JwtEncoder"><path codeLine="27" d="M380.28,378.6737 C509.98,384.0437 698.24,397.0237 764,428.0137 C888.58,486.7237 987.2802,619.6526 1024.5002,674.7226" fill="none" id="OAuthAuthenticationSuccessHandler-to-JwtEncoder-1" style="stroke:#181818;stroke-width:1;"/><polygon fill="#181818" points="1027.86,679.6937,1026.1344,669.9972,1025.0602,675.5511,1019.5062,674.4769,1027.86,679.6937" style="stroke:#181818;stroke-width:1;"/><text fill="#000000" font-family="sans-serif" font-size="13" lengthAdjust="spacing" textLength="79.4727" x="792" y="443.042">encodes JWT</text></g><!--link OAuthAuthenticationSuccessHandler to UserViewMapper--><g class="link" data-entity-1="OAuthAuthenticationSuccessHandler" data-entity-2="UserViewMapper" data-source-line="23" data-uid="lnk25" id="link_OAuthAuthenticationSuccessHandler_UserViewMapper"><path codeLine="23" d="M342.42,398.0837 C360.27,405.5437 377.8,415.2937 392,428.0137 C471.79,499.4637 509.7642,621.8706 523.1142,674.1006" fill="none" id="OAuthAuthenticationSuccessHandler-to-UserViewMapper" style="stroke:#181818;stroke-width:1;"/><polygon fill="#181818" points="524.6,679.9137,526.2467,670.2034,523.3618,675.0694,518.4958,672.1846,524.6,679.9137" style="stroke:#181818;stroke-width:1;"/><text fill="#000000" font-family="sans-serif" font-size="13" lengthAdjust="spacing" textLength="27.46" x="411" y="443.042">uses</text></g><!--link OAuthAuthenticationSuccessHandler to User--><g class="link" data-entity-1="OAuthAuthenticationSuccessHandler" data-entity-2="User" data-source-line="24" data-uid="lnk26" id="link_OAuthAuthenticationSuccessHandler_User"><path codeLine="24" d="M380.03,389.3037 C471.07,401.8237 581.93,423.0637 616,455.0137 C680.68,515.6737 687.7922,624.8537 687.6922,673.9337" fill="none" id="OAuthAuthenticationSuccessHandler-to-User" style="stroke:#181818;stroke-width:1;"/><polygon fill="#181818" points="687.68,679.9337,691.6983,670.9418,687.6902,674.9337,683.6983,670.9255,687.68,679.9337" style="stroke:#181818;stroke-width:1;"/><text fill="#000000" font-family="sans-serif" font-size="13" lengthAdjust="spacing" textLength="70.0781" x="603" y="443.042">reads/writes</text></g><!--link OAuthAuthenticationSuccessHandler to UserView--><g class="link" data-entity-1="OAuthAuthenticationSuccessHandler" data-entity-2="UserView" data-source-line="25" data-uid="lnk27" id="link_OAuthAuthenticationSuccessHandler_UserView"><path codeLine="25" d="M280.65,398.2337 C297.95,412.6337 318.2,432.6337 330,455.0137 C412.78,612.0237 304.49,699.0537 401,848.0137 C417.99,874.2437 441.6385,891.2867 466.4785,904.6767" fill="none" id="OAuthAuthenticationSuccessHandler-to-UserView" style="stroke:#181818;stroke-width:1;"/><polygon fill="#181818" points="471.76,907.5237,465.7357,899.7321,467.3587,905.1512,461.9397,906.7742,471.76,907.5237" style="stroke:#181818;stroke-width:1;"/><text fill="#000000" font-family="sans-serif" font-size="13" lengthAdjust="spacing" textLength="40.46" x="402" y="709.542">returns</text></g><!--link UserViewMapper to UserView--><g class="link" data-entity-1="UserViewMapper" data-entity-2="UserView" data-source-line="26" data-uid="lnk28" id="link_UserViewMapper_UserView"><path codeLine="26" d="M528.76,728.0337 C526.46,770.7737 521.8827,855.9024 519.5727,898.7924" fill="none" id="UserViewMapper-to-UserView" style="stroke:#181818;stroke-width:1;"/><polygon fill="#181818" points="519.25,904.7837,523.7282,896.0118,519.5189,899.7909,515.7398,895.5816,519.25,904.7837" style="stroke:#181818;stroke-width:1;"/><text fill="#000000" font-family="sans-serif" font-size="13" lengthAdjust="spacing" textLength="42.6309" x="522" y="871.042">creates</text></g><!--SRC=[bP7TIiGm48NlynHvWOtefHU2Y222BFXxFQJJ6hTDmio4ieZlxhIAjbrmxKL8oCpvSkOaWzz1WpQBovngSStfrq5tds8Tca8W8KNxRgprBJ3RxMMHrs5XbE37waFn7fbl85Ojqhpp-_9gfFsKdXZf7dFY88dsviEO_8ULejqTH2rt-gY372P-1jHpmFxWuWvoLZVhs5sgi5tGfuX4ZUDC8JOrGOTzefrZz8M2x5q27VZClVKo8TpsSXszOaVEOIPsixau7gezjvuG1DaSxns8yuHLheF-L_jhUPrkdlnwhIfqnefFUerpzQkZMWf5DWiZYwvrGSx2mF6ad_hoQ3u1]--></g></svg>