<?xml version="1.0" encoding="us-ascii" standalone="no"?><svg xmlns="http://www.w3.org/2000/svg" xmlns:xlink="http://www.w3.org/1999/xlink" contentStyleType="text/css" height="1096px" preserveAspectRatio="none" style="width:1213px;height:1096px;background:#FFFFFF;" version="1.1" viewBox="0 0 1213 1096" width="1213px" zoomAndPan="magnify"><defs/><g><rect width="100%" height="100%" fill="white"/>
    <!--cluster pt--><g id="cluster_pt"><path d="M8.5,6.0137 L23.5,6.0137 A3.75,3.75 0 0 1 26,8.5137 L33,30.6348 L851.5,30.6348 A2.5,2.5 0 0 1 854,33.1348 L854,1086.5137 A2.5,2.5 0 0 1 851.5,1089.0137 L8.5,1089.0137 A2.5,2.5 0 0 1 6,1086.5137 L6,8.5137 A2.5,2.5 0 0 1 8.5,6.0137 " fill="none" style="stroke:#000000;stroke-width:1.5;"/><line style="stroke:#000000;stroke-width:1.5;" x1="6" x2="33" y1="30.6348" y2="30.6348"/><text fill="#000000" font-family="sans-serif" font-size="14" font-weight="bold" lengthAdjust="spacing" textLength="14" x="10" y="23.1211">pt</text></g><!--cluster psoft--><g id="cluster_psoft"><path d="M32.5,51.0137 L69.5,51.0137 A3.75,3.75 0 0 1 72,53.5137 L79,75.6348 L827.5,75.6348 A2.5,2.5 0 0 1 830,78.1348 L830,1062.5137 A2.5,2.5 0 0 1 827.5,1065.0137 L32.5,1065.0137 A2.5,2.5 0 0 1 30,1062.5137 L30,53.5137 A2.5,2.5 0 0 1 32.5,51.0137 " fill="none" style="stroke:#000000;stroke-width:1.5;"/><line style="stroke:#000000;stroke-width:1.5;" x1="30" x2="79" y1="75.6348" y2="75.6348"/><text fill="#000000" font-family="sans-serif" font-size="14" font-weight="bold" lengthAdjust="spacing" textLength="36" x="34" y="68.1211">psoft</text></g><!--cluster g1--><g id="cluster_g1"><path d="M56.5,96.0137 L74.5,96.0137 A3.75,3.75 0 0 1 77,98.5137 L84,120.6348 L803.5,120.6348 A2.5,2.5 0 0 1 806,123.1348 L806,1038.5137 A2.5,2.5 0 0 1 803.5,1041.0137 L56.5,1041.0137 A2.5,2.5 0 0 1 54,1038.5137 L54,98.5137 A2.5,2.5 0 0 1 56.5,96.0137 " fill="none" style="stroke:#000000;stroke-width:1.5;"/><line style="stroke:#000000;stroke-width:1.5;" x1="54" x2="84" y1="120.6348" y2="120.6348"/><text fill="#000000" font-family="sans-serif" font-size="14" font-weight="bold" lengthAdjust="spacing" textLength="17" x="58" y="113.1211">g1</text></g><!--cluster psoftg1--><g id="cluster_psoftg1"><path d="M80.5,141.0137 L134.5,141.0137 A3.75,3.75 0 0 1 137,143.5137 L144,165.6348 L779.5,165.6348 A2.5,2.5 0 0 1 782,168.1348 L782,1014.5137 A2.5,2.5 0 0 1 779.5,1017.0137 L80.5,1017.0137 A2.5,2.5 0 0 1 78,1014.5137 L78,143.5137 A2.5,2.5 0 0 1 80.5,141.0137 " fill="none" style="stroke:#000000;stroke-width:1.5;"/><line style="stroke:#000000;stroke-width:1.5;" x1="78" x2="144" y1="165.6348" y2="165.6348"/><text fill="#000000" font-family="sans-serif" font-size="14" font-weight="bold" lengthAdjust="spacing" textLength="53" x="82" y="158.1211">psoftg1</text></g><!--cluster configuration--><g id="cluster_configuration"><path d="M104.5,186.0137 L199.5,186.0137 A3.75,3.75 0 0 1 202,188.5137 L209,210.6348 L395.5,210.6348 A2.5,2.5 0 0 1 398,213.1348 L398,741.5137 A2.5,2.5 0 0 1 395.5,744.0137 L104.5,744.0137 A2.5,2.5 0 0 1 102,741.5137 L102,188.5137 A2.5,2.5 0 0 1 104.5,186.0137 " fill="none" style="stroke:#000000;stroke-width:1.5;"/><line style="stroke:#000000;stroke-width:1.5;" x1="102" x2="209" y1="210.6348" y2="210.6348"/><text fill="#000000" font-family="sans-serif" font-size="14" font-weight="bold" lengthAdjust="spacing" textLength="94" x="106" y="203.1211">configuration</text></g><!--cluster usermanagement--><g id="cluster_usermanagement"><path d="M424.5,598.0137 L547.5,598.0137 A3.75,3.75 0 0 1 550,600.5137 L557,622.6348 L755.5,622.6348 A2.5,2.5 0 0 1 758,625.1348 L758,990.5137 A2.5,2.5 0 0 1 755.5,993.0137 L424.5,993.0137 A2.5,2.5 0 0 1 422,990.5137 L422,600.5137 A2.5,2.5 0 0 1 424.5,598.0137 " fill="none" style="stroke:#000000;stroke-width:1.5;"/><line style="stroke:#000000;stroke-width:1.5;" x1="422" x2="557" y1="622.6348" y2="622.6348"/><text fill="#000000" font-family="sans-serif" font-size="14" font-weight="bold" lengthAdjust="spacing" textLength="122" x="426" y="615.1211">usermanagement</text></g><!--cluster api--><g id="cluster_api"><path d="M448.5,643.0137 L470.5,643.0137 A3.75,3.75 0 0 1 473,645.5137 L480,667.6348 L613.5,667.6348 A2.5,2.5 0 0 1 616,670.1348 L616,966.5137 A2.5,2.5 0 0 1 613.5,969.0137 L448.5,969.0137 A2.5,2.5 0 0 1 446,966.5137 L446,645.5137 A2.5,2.5 0 0 1 448.5,643.0137 " fill="none" style="stroke:#000000;stroke-width:1.5;"/><line style="stroke:#000000;stroke-width:1.5;" x1="446" x2="480" y1="667.6348" y2="667.6348"/><text fill="#000000" font-family="sans-serif" font-size="14" font-weight="bold" lengthAdjust="spacing" textLength="21" x="450" y="660.1211">api</text></g><!--cluster model--><g id="cluster_model"><path d="M642.5,643.0137 L686.5,643.0137 A3.75,3.75 0 0 1 689,645.5137 L696,667.6348 L731.5,667.6348 A2.5,2.5 0 0 1 734,670.1348 L734,741.5137 A2.5,2.5 0 0 1 731.5,744.0137 L642.5,744.0137 A2.5,2.5 0 0 1 640,741.5137 L640,645.5137 A2.5,2.5 0 0 1 642.5,643.0137 " fill="none" style="stroke:#000000;stroke-width:1.5;"/><line style="stroke:#000000;stroke-width:1.5;" x1="640" x2="696" y1="667.6348" y2="667.6348"/><text fill="#000000" font-family="sans-serif" font-size="14" font-weight="bold" lengthAdjust="spacing" textLength="43" x="644" y="660.1211">model</text></g><!--cluster org--><g id="cluster_org"><path d="M880.5,463.0137 L905.5,463.0137 A3.75,3.75 0 0 1 908,465.5137 L915,487.6348 L1203.5,487.6348 A2.5,2.5 0 0 1 1206,490.1348 L1206,837.5137 A2.5,2.5 0 0 1 1203.5,840.0137 L880.5,840.0137 A2.5,2.5 0 0 1 878,837.5137 L878,465.5137 A2.5,2.5 0 0 1 880.5,463.0137 " fill="none" style="stroke:#000000;stroke-width:1.5;"/><line style="stroke:#000000;stroke-width:1.5;" x1="878" x2="915" y1="487.6348" y2="487.6348"/><text fill="#000000" font-family="sans-serif" font-size="14" font-weight="bold" lengthAdjust="spacing" textLength="24" x="882" y="480.1211">org</text></g><!--cluster springframework--><g id="cluster_springframework"><path d="M904.5,508.0137 L1024.5,508.0137 A3.75,3.75 0 0 1 1027,510.5137 L1034,532.6348 L1179.5,532.6348 A2.5,2.5 0 0 1 1182,535.1348 L1182,813.5137 A2.5,2.5 0 0 1 1179.5,816.0137 L904.5,816.0137 A2.5,2.5 0 0 1 902,813.5137 L902,510.5137 A2.5,2.5 0 0 1 904.5,508.0137 " fill="none" style="stroke:#000000;stroke-width:1.5;"/><line style="stroke:#000000;stroke-width:1.5;" x1="902" x2="1034" y1="532.6348" y2="532.6348"/><text fill="#000000" font-family="sans-serif" font-size="14" font-weight="bold" lengthAdjust="spacing" textLength="119" x="906" y="525.1211">springframework</text></g><!--cluster security--><g id="cluster_security"><path d="M928.5,553.0137 L985.5,553.0137 A3.75,3.75 0 0 1 988,555.5137 L995,577.6348 L1155.5,577.6348 A2.5,2.5 0 0 1 1158,580.1348 L1158,789.5137 A2.5,2.5 0 0 1 1155.5,792.0137 L928.5,792.0137 A2.5,2.5 0 0 1 926,789.5137 L926,555.5137 A2.5,2.5 0 0 1 928.5,553.0137 " fill="none" style="stroke:#000000;stroke-width:1.5;"/><line style="stroke:#000000;stroke-width:1.5;" x1="926" x2="995" y1="577.6348" y2="577.6348"/><text fill="#000000" font-family="sans-serif" font-size="14" font-weight="bold" lengthAdjust="spacing" textLength="56" x="930" y="570.1211">security</text></g><!--cluster oauth2--><g id="cluster_oauth2"><path d="M952.5,598.0137 L1001.5,598.0137 A3.75,3.75 0 0 1 1004,600.5137 L1011,622.6348 L1131.5,622.6348 A2.5,2.5 0 0 1 1134,625.1348 L1134,765.5137 A2.5,2.5 0 0 1 1131.5,768.0137 L952.5,768.0137 A2.5,2.5 0 0 1 950,765.5137 L950,600.5137 A2.5,2.5 0 0 1 952.5,598.0137 " fill="none" style="stroke:#000000;stroke-width:1.5;"/><line style="stroke:#000000;stroke-width:1.5;" x1="950" x2="1011" y1="622.6348" y2="622.6348"/><text fill="#000000" font-family="sans-serif" font-size="14" font-weight="bold" lengthAdjust="spacing" textLength="48" x="954" y="615.1211">oauth2</text></g><!--cluster jwt--><g id="cluster_jwt"><path d="M976.5,643.0137 L997.5,643.0137 A3.75,3.75 0 0 1 1000,645.5137 L1007,667.6348 L1107.5,667.6348 A2.5,2.5 0 0 1 1110,670.1348 L1110,741.5137 A2.5,2.5 0 0 1 1107.5,744.0137 L976.5,744.0137 A2.5,2.5 0 0 1 974,741.5137 L974,645.5137 A2.5,2.5 0 0 1 976.5,643.0137 " fill="none" style="stroke:#000000;stroke-width:1.5;"/><line style="stroke:#000000;stroke-width:1.5;" x1="974" x2="1007" y1="667.6348" y2="667.6348"/><text fill="#000000" font-family="sans-serif" font-size="14" font-weight="bold" lengthAdjust="spacing" textLength="20" x="978" y="660.1211">jwt</text></g><!--class OAuthAuthenticationSuccessHandler--><g id="elem_OAuthAuthenticationSuccessHandler"><rect codeLine="2" fill="#F1F1F1" height="48" id="OAuthAuthenticationSuccessHandler" rx="2.5" ry="2.5" style="stroke:#181818;stroke-width:0.5;" width="264" x="118" y="350.0137"/><ellipse cx="133" cy="366.0137" fill="#ADD1B2" rx="11" ry="11" style="stroke:#181818;stroke-width:1.0;"/><path d="M135.7656,361.8887 Q135.9219,361.6699 136.1094,361.5605 Q136.2969,361.4512 136.5156,361.4512 Q136.8906,361.4512 137.125,361.7168 Q137.3594,361.9668 137.3594,362.5762 L137.3594,364.0293 Q137.3594,364.6387 137.125,364.9043 Q136.8906,365.1699 136.5156,365.1699 Q136.1719,365.1699 135.9688,364.9668 Q135.7656,364.7793 135.6563,364.2637 Q135.6094,363.9043 135.4219,363.7168 Q135.0938,363.3418 134.4844,363.123 Q133.875,362.9043 133.25,362.9043 Q132.4844,362.9043 131.8438,363.2324 Q131.2188,363.5605 130.7188,364.3105 Q130.2344,365.0605 130.2344,366.0918 L130.2344,367.1855 Q130.2344,368.4199 131.125,369.248 Q132.0156,370.0605 133.6094,370.0605 Q134.5469,370.0605 135.2031,369.8105 Q135.5938,369.6543 136.0156,369.2168 Q136.2813,368.9512 136.4219,368.873 Q136.5781,368.7949 136.7813,368.7949 Q137.1094,368.7949 137.3594,369.0605 Q137.625,369.3105 137.625,369.6543 Q137.625,369.998 137.2813,370.4043 Q136.7813,370.9824 135.9844,371.3105 Q134.9063,371.7637 133.6094,371.7637 Q132.0938,371.7637 130.8906,371.1387 Q129.9063,370.6387 129.2188,369.5762 Q128.5313,368.498 128.5313,367.2168 L128.5313,366.0605 Q128.5313,364.7324 129.1406,363.5918 Q129.7656,362.4355 130.8594,361.8262 Q131.9531,361.2012 133.1875,361.2012 Q133.9219,361.2012 134.5625,361.373 Q135.2188,361.5293 135.7656,361.8887 Z " fill="#000000"/><text fill="#000000" font-family="sans-serif" font-size="14" lengthAdjust="spacing" textLength="232" x="147" y="371.8105">OAuthAuthenticationSuccessHandler</text><line style="stroke:#181818;stroke-width:0.5;" x1="119" x2="381" y1="382.0137" y2="382.0137"/><line style="stroke:#181818;stroke-width:0.5;" x1="119" x2="381" y1="390.0137" y2="390.0137"/></g><!--class OAuthHandlerConfig--><g id="elem_OAuthHandlerConfig"><rect codeLine="3" fill="#F1F1F1" height="48" id="OAuthHandlerConfig" rx="2.5" ry="2.5" style="stroke:#181818;stroke-width:0.5;" width="162" x="169" y="223.0137"/><ellipse cx="184" cy="239.0137" fill="#ADD1B2" rx="11" ry="11" style="stroke:#181818;stroke-width:1.0;"/><path d="M186.7656,234.8887 Q186.9219,234.6699 187.1094,234.5605 Q187.2969,234.4512 187.5156,234.4512 Q187.8906,234.4512 188.125,234.7168 Q188.3594,234.9668 188.3594,235.5762 L188.3594,237.0293 Q188.3594,237.6387 188.125,237.9043 Q187.8906,238.1699 187.5156,238.1699 Q187.1719,238.1699 186.9688,237.9668 Q186.7656,237.7793 186.6563,237.2637 Q186.6094,236.9043 186.4219,236.7168 Q186.0938,236.3418 185.4844,236.123 Q184.875,235.9043 184.25,235.9043 Q183.4844,235.9043 182.8438,236.2324 Q182.2188,236.5605 181.7188,237.3105 Q181.2344,238.0605 181.2344,239.0918 L181.2344,240.1855 Q181.2344,241.4199 182.125,242.248 Q183.0156,243.0605 184.6094,243.0605 Q185.5469,243.0605 186.2031,242.8105 Q186.5938,242.6543 187.0156,242.2168 Q187.2813,241.9512 187.4219,241.873 Q187.5781,241.7949 187.7813,241.7949 Q188.1094,241.7949 188.3594,242.0605 Q188.625,242.3105 188.625,242.6543 Q188.625,242.998 188.2813,243.4043 Q187.7813,243.9824 186.9844,244.3105 Q185.9063,244.7637 184.6094,244.7637 Q183.0938,244.7637 181.8906,244.1387 Q180.9063,243.6387 180.2188,242.5762 Q179.5313,241.498 179.5313,240.2168 L179.5313,239.0605 Q179.5313,237.7324 180.1406,236.5918 Q180.7656,235.4355 181.8594,234.8262 Q182.9531,234.2012 184.1875,234.2012 Q184.9219,234.2012 185.5625,234.373 Q186.2188,234.5293 186.7656,234.8887 Z " fill="#000000"/><text fill="#000000" font-family="sans-serif" font-size="14" lengthAdjust="spacing" textLength="130" x="198" y="244.8105">OAuthHandlerConfig</text><line style="stroke:#181818;stroke-width:0.5;" x1="170" x2="330" y1="255.0137" y2="255.0137"/><line style="stroke:#181818;stroke-width:0.5;" x1="170" x2="330" y1="263.0137" y2="263.0137"/></g><!--class UserRepository--><g id="elem_UserRepository"><rect codeLine="4" fill="#F1F1F1" height="48" id="UserRepository" rx="2.5" ry="2.5" style="stroke:#181818;stroke-width:0.5;" width="129" x="185.5" y="680.0137"/><ellipse cx="200.5" cy="696.0137" fill="#ADD1B2" rx="11" ry="11" style="stroke:#181818;stroke-width:1.0;"/><path d="M203.2656,691.8887 Q203.4219,691.6699 203.6094,691.5605 Q203.7969,691.4512 204.0156,691.4512 Q204.3906,691.4512 204.625,691.7168 Q204.8594,691.9668 204.8594,692.5762 L204.8594,694.0293 Q204.8594,694.6387 204.625,694.9043 Q204.3906,695.1699 204.0156,695.1699 Q203.6719,695.1699 203.4688,694.9668 Q203.2656,694.7793 203.1563,694.2637 Q203.1094,693.9043 202.9219,693.7168 Q202.5938,693.3418 201.9844,693.123 Q201.375,692.9043 200.75,692.9043 Q199.9844,692.9043 199.3438,693.2324 Q198.7188,693.5605 198.2188,694.3105 Q197.7344,695.0605 197.7344,696.0918 L197.7344,697.1855 Q197.7344,698.4199 198.625,699.248 Q199.5156,700.0605 201.1094,700.0605 Q202.0469,700.0605 202.7031,699.8105 Q203.0938,699.6543 203.5156,699.2168 Q203.7813,698.9512 203.9219,698.873 Q204.0781,698.7949 204.2813,698.7949 Q204.6094,698.7949 204.8594,699.0605 Q205.125,699.3105 205.125,699.6543 Q205.125,699.998 204.7813,700.4043 Q204.2813,700.9824 203.4844,701.3105 Q202.4063,701.7637 201.1094,701.7637 Q199.5938,701.7637 198.3906,701.1387 Q197.4063,700.6387 196.7188,699.5762 Q196.0313,698.498 196.0313,697.2168 L196.0313,696.0605 Q196.0313,694.7324 196.6406,693.5918 Q197.2656,692.4355 198.3594,691.8262 Q199.4531,691.2012 200.6875,691.2012 Q201.4219,691.2012 202.0625,691.373 Q202.7188,691.5293 203.2656,691.8887 Z " fill="#000000"/><text fill="#000000" font-family="sans-serif" font-size="14" lengthAdjust="spacing" textLength="97" x="214.5" y="701.8105">UserRepository</text><line style="stroke:#181818;stroke-width:0.5;" x1="186.5" x2="313.5" y1="712.0137" y2="712.0137"/><line style="stroke:#181818;stroke-width:0.5;" x1="186.5" x2="313.5" y1="720.0137" y2="720.0137"/></g><!--class UserView--><g id="elem_UserView"><rect codeLine="8" fill="#F1F1F1" height="48" id="UserView" rx="2.5" ry="2.5" style="stroke:#181818;stroke-width:0.5;" width="90" x="474" y="905.0137"/><ellipse cx="489" cy="921.0137" fill="#ADD1B2" rx="11" ry="11" style="stroke:#181818;stroke-width:1.0;"/><path d="M491.7656,916.8887 Q491.9219,916.6699 492.1094,916.5605 Q492.2969,916.4512 492.5156,916.4512 Q492.8906,916.4512 493.125,916.7168 Q493.3594,916.9668 493.3594,917.5762 L493.3594,919.0293 Q493.3594,919.6387 493.125,919.9043 Q492.8906,920.1699 492.5156,920.1699 Q492.1719,920.1699 491.9688,919.9668 Q491.7656,919.7793 491.6563,919.2637 Q491.6094,918.9043 491.4219,918.7168 Q491.0938,918.3418 490.4844,918.123 Q489.875,917.9043 489.25,917.9043 Q488.4844,917.9043 487.8438,918.2324 Q487.2188,918.5605 486.7188,919.3105 Q486.2344,920.0605 486.2344,921.0918 L486.2344,922.1855 Q486.2344,923.4199 487.125,924.248 Q488.0156,925.0605 489.6094,925.0605 Q490.5469,925.0605 491.2031,924.8105 Q491.5938,924.6543 492.0156,924.2168 Q492.2813,923.9512 492.4219,923.873 Q492.5781,923.7949 492.7813,923.7949 Q493.1094,923.7949 493.3594,924.0605 Q493.625,924.3105 493.625,924.6543 Q493.625,924.998 493.2813,925.4043 Q492.7813,925.9824 491.9844,926.3105 Q490.9063,926.7637 489.6094,926.7637 Q488.0938,926.7637 486.8906,926.1387 Q485.9063,925.6387 485.2188,924.5762 Q484.5313,923.498 484.5313,922.2168 L484.5313,921.0605 Q484.5313,919.7324 485.1406,918.5918 Q485.7656,917.4355 486.8594,916.8262 Q487.9531,916.2012 489.1875,916.2012 Q489.9219,916.2012 490.5625,916.373 Q491.2188,916.5293 491.7656,916.8887 Z " fill="#000000"/><text fill="#000000" font-family="sans-serif" font-size="14" lengthAdjust="spacing" textLength="58" x="503" y="926.8105">UserView</text><line style="stroke:#181818;stroke-width:0.5;" x1="475" x2="563" y1="937.0137" y2="937.0137"/><line style="stroke:#181818;stroke-width:0.5;" x1="475" x2="563" y1="945.0137" y2="945.0137"/></g><!--class UserViewMapper--><g id="elem_UserViewMapper"><rect codeLine="9" fill="#F1F1F1" height="48" id="UserViewMapper" rx="2.5" ry="2.5" style="stroke:#181818;stroke-width:0.5;" width="138" x="462" y="680.0137"/><ellipse cx="477" cy="696.0137" fill="#ADD1B2" rx="11" ry="11" style="stroke:#181818;stroke-width:1.0;"/><path d="M479.7656,691.8887 Q479.9219,691.6699 480.1094,691.5605 Q480.2969,691.4512 480.5156,691.4512 Q480.8906,691.4512 481.125,691.7168 Q481.3594,691.9668 481.3594,692.5762 L481.3594,694.0293 Q481.3594,694.6387 481.125,694.9043 Q480.8906,695.1699 480.5156,695.1699 Q480.1719,695.1699 479.9688,694.9668 Q479.7656,694.7793 479.6563,694.2637 Q479.6094,693.9043 479.4219,693.7168 Q479.0938,693.3418 478.4844,693.123 Q477.875,692.9043 477.25,692.9043 Q476.4844,692.9043 475.8438,693.2324 Q475.2188,693.5605 474.7188,694.3105 Q474.2344,695.0605 474.2344,696.0918 L474.2344,697.1855 Q474.2344,698.4199 475.125,699.248 Q476.0156,700.0605 477.6094,700.0605 Q478.5469,700.0605 479.2031,699.8105 Q479.5938,699.6543 480.0156,699.2168 Q480.2813,698.9512 480.4219,698.873 Q480.5781,698.7949 480.7813,698.7949 Q481.1094,698.7949 481.3594,699.0605 Q481.625,699.3105 481.625,699.6543 Q481.625,699.998 481.2813,700.4043 Q480.7813,700.9824 479.9844,701.3105 Q478.9063,701.7637 477.6094,701.7637 Q476.0938,701.7637 474.8906,701.1387 Q473.9063,700.6387 473.2188,699.5762 Q472.5313,698.498 472.5313,697.2168 L472.5313,696.0605 Q472.5313,694.7324 473.1406,693.5918 Q473.7656,692.4355 474.8594,691.8262 Q475.9531,691.2012 477.1875,691.2012 Q477.9219,691.2012 478.5625,691.373 Q479.2188,691.5293 479.7656,691.8887 Z " fill="#000000"/><text fill="#000000" font-family="sans-serif" font-size="14" lengthAdjust="spacing" textLength="106" x="491" y="701.8105">UserViewMapper</text><line style="stroke:#181818;stroke-width:0.5;" x1="463" x2="599" y1="712.0137" y2="712.0137"/><line style="stroke:#181818;stroke-width:0.5;" x1="463" x2="599" y1="720.0137" y2="720.0137"/></g><!--class User--><g id="elem_User"><rect codeLine="13" fill="#F1F1F1" height="48" id="User" rx="2.5" ry="2.5" style="stroke:#181818;stroke-width:0.5;" width="61" x="656.5" y="680.0137"/><ellipse cx="671.5" cy="696.0137" fill="#ADD1B2" rx="11" ry="11" style="stroke:#181818;stroke-width:1.0;"/><path d="M674.2656,691.8887 Q674.4219,691.6699 674.6094,691.5605 Q674.7969,691.4512 675.0156,691.4512 Q675.3906,691.4512 675.625,691.7168 Q675.8594,691.9668 675.8594,692.5762 L675.8594,694.0293 Q675.8594,694.6387 675.625,694.9043 Q675.3906,695.1699 675.0156,695.1699 Q674.6719,695.1699 674.4688,694.9668 Q674.2656,694.7793 674.1563,694.2637 Q674.1094,693.9043 673.9219,693.7168 Q673.5938,693.3418 672.9844,693.123 Q672.375,692.9043 671.75,692.9043 Q670.9844,692.9043 670.3438,693.2324 Q669.7188,693.5605 669.2188,694.3105 Q668.7344,695.0605 668.7344,696.0918 L668.7344,697.1855 Q668.7344,698.4199 669.625,699.248 Q670.5156,700.0605 672.1094,700.0605 Q673.0469,700.0605 673.7031,699.8105 Q674.0938,699.6543 674.5156,699.2168 Q674.7813,698.9512 674.9219,698.873 Q675.0781,698.7949 675.2813,698.7949 Q675.6094,698.7949 675.8594,699.0605 Q676.125,699.3105 676.125,699.6543 Q676.125,699.998 675.7813,700.4043 Q675.2813,700.9824 674.4844,701.3105 Q673.4063,701.7637 672.1094,701.7637 Q670.5938,701.7637 669.3906,701.1387 Q668.4063,700.6387 667.7188,699.5762 Q667.0313,698.498 667.0313,697.2168 L667.0313,696.0605 Q667.0313,694.7324 667.6406,693.5918 Q668.2656,692.4355 669.3594,691.8262 Q670.4531,691.2012 671.6875,691.2012 Q672.4219,691.2012 673.0625,691.373 Q673.7188,691.5293 674.2656,691.8887 Z " fill="#000000"/><text fill="#000000" font-family="sans-serif" font-size="14" lengthAdjust="spacing" textLength="29" x="685.5" y="701.8105">User</text><line style="stroke:#181818;stroke-width:0.5;" x1="657.5" x2="716.5" y1="712.0137" y2="712.0137"/><line style="stroke:#181818;stroke-width:0.5;" x1="657.5" x2="716.5" y1="720.0137" y2="720.0137"/></g><!--class JwtEncoder--><g id="elem_JwtEncoder"><rect codeLine="17" fill="#F1F1F1" height="48" id="JwtEncoder" rx="2.5" ry="2.5" style="stroke:#181818;stroke-width:0.5;" width="104" x="990" y="680.0137"/><ellipse cx="1005" cy="696.0137" fill="#ADD1B2" rx="11" ry="11" style="stroke:#181818;stroke-width:1.0;"/><path d="M1007.7656,691.8887 Q1007.9219,691.6699 1008.1094,691.5605 Q1008.2969,691.4512 1008.5156,691.4512 Q1008.8906,691.4512 1009.125,691.7168 Q1009.3594,691.9668 1009.3594,692.5762 L1009.3594,694.0293 Q1009.3594,694.6387 1009.125,694.9043 Q1008.8906,695.1699 1008.5156,695.1699 Q1008.1719,695.1699 1007.9688,694.9668 Q1007.7656,694.7793 1007.6563,694.2637 Q1007.6094,693.9043 1007.4219,693.7168 Q1007.0938,693.3418 1006.4844,693.123 Q1005.875,692.9043 1005.25,692.9043 Q1004.4844,692.9043 1003.8438,693.2324 Q1003.2188,693.5605 1002.7188,694.3105 Q1002.2344,695.0605 1002.2344,696.0918 L1002.2344,697.1855 Q1002.2344,698.4199 1003.125,699.248 Q1004.0156,700.0605 1005.6094,700.0605 Q1006.5469,700.0605 1007.2031,699.8105 Q1007.5938,699.6543 1008.0156,699.2168 Q1008.2813,698.9512 1008.4219,698.873 Q1008.5781,698.7949 1008.7813,698.7949 Q1009.1094,698.7949 1009.3594,699.0605 Q1009.625,699.3105 1009.625,699.6543 Q1009.625,699.998 1009.2813,700.4043 Q1008.7813,700.9824 1007.9844,701.3105 Q1006.9063,701.7637 1005.6094,701.7637 Q1004.0938,701.7637 1002.8906,701.1387 Q1001.9063,700.6387 1001.2188,699.5762 Q1000.5313,698.498 1000.5313,697.2168 L1000.5313,696.0605 Q1000.5313,694.7324 1001.1406,693.5918 Q1001.7656,692.4355 1002.8594,691.8262 Q1003.9531,691.2012 1005.1875,691.2012 Q1005.9219,691.2012 1006.5625,691.373 Q1007.2188,691.5293 1007.7656,691.8887 Z " fill="#000000"/><text fill="#000000" font-family="sans-serif" font-size="14" lengthAdjust="spacing" textLength="72" x="1019" y="701.8105">JwtEncoder</text><line style="stroke:#181818;stroke-width:0.5;" x1="991" x2="1093" y1="712.0137" y2="712.0137"/><line style="stroke:#181818;stroke-width:0.5;" x1="991" x2="1093" y1="720.0137" y2="720.0137"/></g><!--link OAuthHandlerConfig to OAuthAuthenticationSuccessHandler--><g id="link_OAuthHandlerConfig_OAuthAuthenticationSuccessHandler"><path codeLine="20" d="M250,271.2337 C250,293.6837 250,321.5137 250,343.9237 " fill="none" id="OAuthHandlerConfig-to-OAuthAuthenticationSuccessHandler" style="stroke:#181818;stroke-width:1.0;"/><polygon fill="#181818" points="250,349.9237,254,340.9237,250,344.9237,246,340.9237,250,349.9237" style="stroke:#181818;stroke-width:1.0;"/><text fill="#000000" font-family="sans-serif" font-size="13" lengthAdjust="spacing" textLength="43" x="251" y="316.042">creates</text></g><!--link OAuthAuthenticationSuccessHandler to UserRepository--><g id="link_OAuthAuthenticationSuccessHandler_UserRepository"><path codeLine="21" d="M250,398.0737 C250,458.3037 250,613.7837 250,673.9737 " fill="none" id="OAuthAuthenticationSuccessHandler-to-UserRepository" style="stroke:#181818;stroke-width:1.0;"/><polygon fill="#181818" points="250,679.9737,254,670.9737,250,674.9737,246,670.9737,250,679.9737" style="stroke:#181818;stroke-width:1.0;"/><text fill="#000000" font-family="sans-serif" font-size="13" lengthAdjust="spacing" textLength="28" x="251" y="443.042">uses</text></g><!--link OAuthAuthenticationSuccessHandler to JwtEncoder--><g id="link_OAuthAuthenticationSuccessHandler_JwtEncoder"><path codeLine="22" d="M382.03,379.0437 C468.9,384.6337 584.2,397.7037 682,428.0137 C835.63,475.6237 969.6254,618.1066 1018.8954,675.3366 " fill="none" id="OAuthAuthenticationSuccessHandler-to-JwtEncoder" style="stroke:#181818;stroke-width:1.0;"/><polygon fill="#181818" points="1022.81,679.8837,1019.9694,670.4533,1019.5478,676.0945,1013.9067,675.6728,1022.81,679.8837" style="stroke:#181818;stroke-width:1.0;"/><text fill="#000000" font-family="sans-serif" font-size="13" lengthAdjust="spacing" textLength="28" x="728" y="443.042">uses</text></g><!--link OAuthAuthenticationSuccessHandler to JwtEncoder--><g id="link_OAuthAuthenticationSuccessHandler_JwtEncoder"><path codeLine="27" d="M382.2,378.6637 C511.9,384.0137 699.45,396.9837 765,428.0137 C889.03,486.7337 986.8232,619.6371 1023.6732,674.7071 " fill="none" id="OAuthAuthenticationSuccessHandler-to-JwtEncoder-1" style="stroke:#181818;stroke-width:1.0;"/><polygon fill="#181818" points="1027.01,679.6937,1025.3292,669.9893,1024.2294,675.5382,1018.6805,674.4383,1027.01,679.6937" style="stroke:#181818;stroke-width:1.0;"/><text fill="#000000" font-family="sans-serif" font-size="13" lengthAdjust="spacing" textLength="79" x="793" y="443.042">encodes JWT</text></g><!--link OAuthAuthenticationSuccessHandler to UserViewMapper--><g id="link_OAuthAuthenticationSuccessHandler_UserViewMapper"><path codeLine="23" d="M344.47,398.1137 C362.32,405.5537 379.81,415.3037 394,428.0137 C473.65,499.3837 511.1069,621.8248 524.2469,674.0848 " fill="none" id="OAuthAuthenticationSuccessHandler-to-UserViewMapper" style="stroke:#181818;stroke-width:1.0;"/><polygon fill="#181818" points="525.71,679.9037,527.3946,670.2,524.4908,675.0546,519.6361,672.1507,525.71,679.9037" style="stroke:#181818;stroke-width:1.0;"/><text fill="#000000" font-family="sans-serif" font-size="13" lengthAdjust="spacing" textLength="28" x="413" y="443.042">uses</text></g><!--link OAuthAuthenticationSuccessHandler to User--><g id="link_OAuthAuthenticationSuccessHandler_User"><path codeLine="24" d="M382.11,389.5437 C472.63,402.1037 582.21,423.3037 616,455.0137 C680.67,515.6937 687.781,624.8637 687.691,673.9337 " fill="none" id="OAuthAuthenticationSuccessHandler-to-User" style="stroke:#181818;stroke-width:1.0;"/><polygon fill="#181818" points="687.68,679.9337,691.6965,670.941,687.6892,674.9337,683.6965,670.9264,687.68,679.9337" style="stroke:#181818;stroke-width:1.0;"/><text fill="#000000" font-family="sans-serif" font-size="13" lengthAdjust="spacing" textLength="70" x="603" y="443.042">reads/writes</text></g><!--link OAuthAuthenticationSuccessHandler to UserView--><g id="link_OAuthAuthenticationSuccessHandler_UserView"><path codeLine="25" d="M282.06,398.1437 C299.59,412.5137 320.09,432.5137 332,455.0137 C415.03,611.8037 305.71,698.9937 402,848.0137 C419.23,874.6737 443.5053,891.9612 468.6053,905.3412 " fill="none" id="OAuthAuthenticationSuccessHandler-to-UserView" style="stroke:#181818;stroke-width:1.0;"/><polygon fill="#181818" points="473.9,908.1637,467.8396,900.4002,469.4877,905.8116,464.0763,907.4598,473.9,908.1637" style="stroke:#181818;stroke-width:1.0;"/><text fill="#000000" font-family="sans-serif" font-size="13" lengthAdjust="spacing" textLength="40" x="403" y="709.542">returns</text></g><!--link UserViewMapper to UserView--><g id="link_UserViewMapper_UserView"><path codeLine="26" d="M529.76,728.0337 C527.46,770.7737 522.8827,855.9024 520.5727,898.7924 " fill="none" id="UserViewMapper-to-UserView" style="stroke:#181818;stroke-width:1.0;"/><polygon fill="#181818" points="520.25,904.7837,524.7282,896.0118,520.5189,899.7909,516.7398,895.5816,520.25,904.7837" style="stroke:#181818;stroke-width:1.0;"/><text fill="#000000" font-family="sans-serif" font-size="13" lengthAdjust="spacing" textLength="43" x="523" y="871.042">creates</text></g><!--SRC=[bP7TIiGm48NlynHvWOtefHU2Y222BFXxFQJJ6hTDmio4ieZlxhIAjbrmxKL8oCpvSkOaWzz1WpQBovngSStfrq5tds8Tca8W8KNxRgprBJ3RxMMHrs5XbE37waFn7fbl85Ojqhpp-_9gfFsKdXZf7dFY88dsviEO_8ULejqTH2rt-gY372P-1jHpmFxWuWvoLZVhs5sgi5tGfuX4ZUDC8JOrGOTzefrZz8M2x5q27VZClVKo8TpsSXszOaVEOIPsixau7gezjvuG1DaSxns8yuHLheF-L_jhUPrkdlnwhIfqnefFUerpzQkZMWf5DWiZYwvrGSx2mF6ad_hoQ3u1]--></g></svg>