<?xml version="1.0" encoding="us-ascii" standalone="no"?><svg xmlns="http://www.w3.org/2000/svg" xmlns:xlink="http://www.w3.org/1999/xlink" contentStyleType="text/css" height="962px" preserveAspectRatio="none" style="width:1518px;height:962px;background:#FFFFFF;" version="1.1" viewBox="0 0 1518 962" width="1518px" zoomAndPan="magnify"><defs/><g><rect width="100%" height="100%" fill="white"/>
    <rect fill="none" height="501.9961" style="stroke:#000000;stroke-width:1.5;" width="780" x="721.5" y="360.6582"/><rect fill="none" height="50.582" style="stroke:#000000;stroke-width:1.5;" width="387" x="731.5" y="528.7441"/><line style="stroke:#181818;stroke-width:0.5;stroke-dasharray:5.0,5.0;" x1="22" x2="22" y1="83.6211" y2="879.6543"/><line style="stroke:#181818;stroke-width:0.5;stroke-dasharray:5.0,5.0;" x1="235.5" x2="235.5" y1="83.6211" y2="879.6543"/><line style="stroke:#181818;stroke-width:0.5;stroke-dasharray:5.0,5.0;" x1="504.5" x2="504.5" y1="83.6211" y2="879.6543"/><line style="stroke:#181818;stroke-width:0.5;stroke-dasharray:5.0,5.0;" x1="864.5" x2="864.5" y1="83.6211" y2="879.6543"/><line style="stroke:#181818;stroke-width:0.5;stroke-dasharray:5.0,5.0;" x1="1052.5" x2="1052.5" y1="83.6211" y2="879.6543"/><line style="stroke:#181818;stroke-width:0.5;stroke-dasharray:5.0,5.0;" x1="1161.5" x2="1161.5" y1="83.6211" y2="879.6543"/><line style="stroke:#181818;stroke-width:0.5;stroke-dasharray:5.0,5.0;" x1="1274.5" x2="1274.5" y1="83.6211" y2="879.6543"/><line style="stroke:#181818;stroke-width:0.5;stroke-dasharray:5.0,5.0;" x1="1417.5" x2="1417.5" y1="83.6211" y2="879.6543"/><text fill="#000000" font-family="sans-serif" font-size="14" lengthAdjust="spacing" textLength="29" x="5" y="80.1074">User</text><ellipse cx="22.5" cy="13.5" fill="#E2E2F0" rx="8" ry="8" style="stroke:#181818;stroke-width:0.5;"/><path d="M22.5,21.5 L22.5,48.5 M9.5,29.5 L35.5,29.5 M22.5,48.5 L9.5,63.5 M22.5,48.5 L35.5,63.5 " fill="none" style="stroke:#181818;stroke-width:0.5;"/><text fill="#000000" font-family="sans-serif" font-size="14" lengthAdjust="spacing" textLength="29" x="5" y="893.7617">User</text><ellipse cx="22.5" cy="905.7754" fill="#E2E2F0" rx="8" ry="8" style="stroke:#181818;stroke-width:0.5;"/><path d="M22.5,913.7754 L22.5,940.7754 M9.5,921.7754 L35.5,921.7754 M22.5,940.7754 L9.5,955.7754 M22.5,940.7754 L35.5,955.7754 " fill="none" style="stroke:#181818;stroke-width:0.5;"/><rect fill="#E2E2F0" height="32.6211" rx="2.5" ry="2.5" style="stroke:#181818;stroke-width:0.5;" width="110" x="180.5" y="50"/><text fill="#000000" font-family="sans-serif" font-size="14" lengthAdjust="spacing" textLength="96" x="187.5" y="72.1074">Spring Security</text><rect fill="#E2E2F0" height="32.6211" rx="2.5" ry="2.5" style="stroke:#181818;stroke-width:0.5;" width="110" x="180.5" y="878.6543"/><text fill="#000000" font-family="sans-serif" font-size="14" lengthAdjust="spacing" textLength="96" x="187.5" y="900.7617">Spring Security</text><rect fill="#E2E2F0" height="32.6211" rx="2.5" ry="2.5" style="stroke:#181818;stroke-width:0.5;" width="144" x="432.5" y="50"/><text fill="#000000" font-family="sans-serif" font-size="14" lengthAdjust="spacing" textLength="130" x="439.5" y="72.1074">OAuthHandlerConfig</text><rect fill="#E2E2F0" height="32.6211" rx="2.5" ry="2.5" style="stroke:#181818;stroke-width:0.5;" width="144" x="432.5" y="878.6543"/><text fill="#000000" font-family="sans-serif" font-size="14" lengthAdjust="spacing" textLength="130" x="439.5" y="900.7617">OAuthHandlerConfig</text><rect fill="#E2E2F0" height="32.6211" rx="2.5" ry="2.5" style="stroke:#181818;stroke-width:0.5;" width="246" x="741.5" y="50"/><text fill="#000000" font-family="sans-serif" font-size="14" lengthAdjust="spacing" textLength="232" x="748.5" y="72.1074">OAuthAuthenticationSuccessHandler</text><rect fill="#E2E2F0" height="32.6211" rx="2.5" ry="2.5" style="stroke:#181818;stroke-width:0.5;" width="246" x="741.5" y="878.6543"/><text fill="#000000" font-family="sans-serif" font-size="14" lengthAdjust="spacing" textLength="232" x="748.5" y="900.7617">OAuthAuthenticationSuccessHandler</text><rect fill="#E2E2F0" height="32.6211" rx="2.5" ry="2.5" style="stroke:#181818;stroke-width:0.5;" width="111" x="997.5" y="50"/><text fill="#000000" font-family="sans-serif" font-size="14" lengthAdjust="spacing" textLength="97" x="1004.5" y="72.1074">UserRepository</text><rect fill="#E2E2F0" height="32.6211" rx="2.5" ry="2.5" style="stroke:#181818;stroke-width:0.5;" width="111" x="997.5" y="878.6543"/><text fill="#000000" font-family="sans-serif" font-size="14" lengthAdjust="spacing" textLength="97" x="1004.5" y="900.7617">UserRepository</text><rect fill="#E2E2F0" height="32.6211" rx="2.5" ry="2.5" style="stroke:#181818;stroke-width:0.5;" width="86" x="1118.5" y="50"/><text fill="#000000" font-family="sans-serif" font-size="14" lengthAdjust="spacing" textLength="72" x="1125.5" y="72.1074">JwtEncoder</text><rect fill="#E2E2F0" height="32.6211" rx="2.5" ry="2.5" style="stroke:#181818;stroke-width:0.5;" width="86" x="1118.5" y="878.6543"/><text fill="#000000" font-family="sans-serif" font-size="14" lengthAdjust="spacing" textLength="72" x="1125.5" y="900.7617">JwtEncoder</text><rect fill="#E2E2F0" height="32.6211" rx="2.5" ry="2.5" style="stroke:#181818;stroke-width:0.5;" width="120" x="1214.5" y="50"/><text fill="#000000" font-family="sans-serif" font-size="14" lengthAdjust="spacing" textLength="106" x="1221.5" y="72.1074">UserViewMapper</text><rect fill="#E2E2F0" height="32.6211" rx="2.5" ry="2.5" style="stroke:#181818;stroke-width:0.5;" width="120" x="1214.5" y="878.6543"/><text fill="#000000" font-family="sans-serif" font-size="14" lengthAdjust="spacing" textLength="106" x="1221.5" y="900.7617">UserViewMapper</text><rect fill="#E2E2F0" height="32.6211" rx="2.5" ry="2.5" style="stroke:#181818;stroke-width:0.5;" width="147" x="1344.5" y="50"/><text fill="#000000" font-family="sans-serif" font-size="14" lengthAdjust="spacing" textLength="133" x="1351.5" y="72.1074">HttpServletResponse</text><rect fill="#E2E2F0" height="32.6211" rx="2.5" ry="2.5" style="stroke:#181818;stroke-width:0.5;" width="147" x="1344.5" y="878.6543"/><text fill="#000000" font-family="sans-serif" font-size="14" lengthAdjust="spacing" textLength="133" x="1351.5" y="900.7617">HttpServletResponse</text><rect fill="#EEEEEE" height="3" style="stroke:#EEEEEE;stroke-width:1.0;" width="1511.5" x="0" y="115.2666"/><line style="stroke:#000000;stroke-width:1.0;" x1="0" x2="1511.5" y1="115.2666" y2="115.2666"/><line style="stroke:#000000;stroke-width:1.0;" x1="0" x2="1511.5" y1="118.2666" y2="118.2666"/><rect fill="#EEEEEE" height="25.291" style="stroke:#000000;stroke-width:2.0;" width="97" x="707.25" y="103.6211"/><text fill="#000000" font-family="sans-serif" font-size="13" font-weight="bold" lengthAdjust="spacing" textLength="79" x="713.25" y="121.6494">Initialization</text><polygon fill="#181818" points="492.5,158.2031,502.5,162.2031,492.5,166.2031,496.5,162.2031" style="stroke:#181818;stroke-width:1.0;"/><line style="stroke:#181818;stroke-width:1.0;" x1="235.5" x2="498.5" y1="162.2031" y2="162.2031"/><text fill="#000000" font-family="sans-serif" font-size="13" lengthAdjust="spacing" textLength="245" x="242.5" y="156.9404">get OAuthAuthenticationSuccessHandler()</text><polygon fill="#181818" points="852.5,189.4941,862.5,193.4941,852.5,197.4941,856.5,193.4941" style="stroke:#181818;stroke-width:1.0;"/><line style="stroke:#181818;stroke-width:1.0;" x1="504.5" x2="858.5" y1="193.4941" y2="193.4941"/><text fill="#000000" font-family="sans-serif" font-size="13" lengthAdjust="spacing" textLength="336" x="511.5" y="188.2314">constructor(userRepository, jwtEncoder, userViewMapper)</text><rect fill="#EEEEEE" height="3" style="stroke:#EEEEEE;stroke-width:1.0;" width="1511.5" x="0" y="223.1396"/><line style="stroke:#000000;stroke-width:1.0;" x1="0" x2="1511.5" y1="223.1396" y2="223.1396"/><line style="stroke:#000000;stroke-width:1.0;" x1="0" x2="1511.5" y1="226.1396" y2="226.1396"/><rect fill="#EEEEEE" height="25.291" style="stroke:#000000;stroke-width:2.0;" width="139" x="686.25" y="211.4941"/><text fill="#000000" font-family="sans-serif" font-size="13" font-weight="bold" lengthAdjust="spacing" textLength="121" x="692.25" y="229.5225">OAuth2 Login Flow</text><polygon fill="#181818" points="223.5,266.0762,233.5,270.0762,223.5,274.0762,227.5,270.0762" style="stroke:#181818;stroke-width:1.0;"/><line style="stroke:#181818;stroke-width:1.0;" x1="22.5" x2="229.5" y1="270.0762" y2="270.0762"/><text fill="#000000" font-family="sans-serif" font-size="13" lengthAdjust="spacing" textLength="189" x="29.5" y="264.8135">OAuth2 login (Google/Facebook)</text><polygon fill="#181818" points="852.5,297.3672,862.5,301.3672,852.5,305.3672,856.5,301.3672" style="stroke:#181818;stroke-width:1.0;"/><line style="stroke:#181818;stroke-width:1.0;" x1="235.5" x2="858.5" y1="301.3672" y2="301.3672"/><text fill="#000000" font-family="sans-serif" font-size="13" lengthAdjust="spacing" textLength="237" x="242.5" y="296.1045">onAuthenticationSuccess(authentication)</text><line style="stroke:#181818;stroke-width:1.0;" x1="864.5" x2="906.5" y1="332.6582" y2="332.6582"/><line style="stroke:#181818;stroke-width:1.0;" x1="906.5" x2="906.5" y1="332.6582" y2="345.6582"/><line style="stroke:#181818;stroke-width:1.0;" x1="865.5" x2="906.5" y1="345.6582" y2="345.6582"/><polygon fill="#181818" points="875.5,341.6582,865.5,345.6582,875.5,349.6582,871.5,345.6582" style="stroke:#181818;stroke-width:1.0;"/><text fill="#000000" font-family="sans-serif" font-size="13" lengthAdjust="spacing" textLength="115" x="871.5" y="327.3955">extract email, name</text><path d="M721.5,360.6582 L782.5,360.6582 L782.5,369.9492 L772.5,379.9492 L721.5,379.9492 L721.5,360.6582 " fill="#EEEEEE" style="stroke:#000000;stroke-width:1.5;"/><rect fill="none" height="501.9961" style="stroke:#000000;stroke-width:1.5;" width="780" x="721.5" y="360.6582"/><text fill="#000000" font-family="sans-serif" font-size="13" font-weight="bold" lengthAdjust="spacing" textLength="16" x="736.5" y="375.6865">alt</text><text fill="#000000" font-family="sans-serif" font-size="11" font-weight="bold" lengthAdjust="spacing" textLength="76" x="797.5" y="374.5283">[Missing info]</text><polygon fill="#181818" points="1406,399.2402,1416,403.2402,1406,407.2402,1410,403.2402" style="stroke:#181818;stroke-width:1.0;"/><line style="stroke:#181818;stroke-width:1.0;" x1="864.5" x2="1412" y1="403.2402" y2="403.2402"/><text fill="#000000" font-family="sans-serif" font-size="13" lengthAdjust="spacing" textLength="235" x="871.5" y="397.9775">sendError(400, "Missing user attributes")</text><line style="stroke:#000000;stroke-width:1.0;stroke-dasharray:2.0,2.0;" x1="721.5" x2="1501.5" y1="412.2402" y2="412.2402"/><text fill="#000000" font-family="sans-serif" font-size="11" font-weight="bold" lengthAdjust="spacing" textLength="105" x="726.5" y="424.1104">[User info present]</text><polygon fill="#181818" points="1041,447.1621,1051,451.1621,1041,455.1621,1045,451.1621" style="stroke:#181818;stroke-width:1.0;"/><line style="stroke:#181818;stroke-width:1.0;" x1="864.5" x2="1047" y1="451.1621" y2="451.1621"/><text fill="#000000" font-family="sans-serif" font-size="13" lengthAdjust="spacing" textLength="149" x="871.5" y="445.8994">existsByUsername(email)</text><polygon fill="#181818" points="875.5,478.4531,865.5,482.4531,875.5,486.4531,871.5,482.4531" style="stroke:#181818;stroke-width:1.0;"/><line style="stroke:#181818;stroke-width:1.0;stroke-dasharray:2.0,2.0;" x1="869.5" x2="1052" y1="482.4531" y2="482.4531"/><text fill="#000000" font-family="sans-serif" font-size="13" lengthAdjust="spacing" textLength="53" x="881.5" y="477.1904">true/false</text><polygon fill="#181818" points="1041,509.7441,1051,513.7441,1041,517.7441,1045,513.7441" style="stroke:#181818;stroke-width:1.0;"/><line style="stroke:#181818;stroke-width:1.0;" x1="864.5" x2="1047" y1="513.7441" y2="513.7441"/><text fill="#000000" font-family="sans-serif" font-size="13" lengthAdjust="spacing" textLength="134" x="871.5" y="508.4814">findByUsername(email)</text><path d="M731.5,528.7441 L792.5,528.7441 L792.5,538.0352 L782.5,548.0352 L731.5,548.0352 L731.5,528.7441 " fill="#EEEEEE" style="stroke:#000000;stroke-width:1.5;"/><rect fill="none" height="50.582" style="stroke:#000000;stroke-width:1.5;" width="387" x="731.5" y="528.7441"/><text fill="#000000" font-family="sans-serif" font-size="13" font-weight="bold" lengthAdjust="spacing" textLength="16" x="746.5" y="543.7725">alt</text><text fill="#000000" font-family="sans-serif" font-size="11" font-weight="bold" lengthAdjust="spacing" textLength="90" x="807.5" y="542.6143">[User not found]</text><polygon fill="#181818" points="1041,567.3262,1051,571.3262,1041,575.3262,1045,571.3262" style="stroke:#181818;stroke-width:1.0;"/><line style="stroke:#181818;stroke-width:1.0;" x1="864.5" x2="1047" y1="571.3262" y2="571.3262"/><text fill="#000000" font-family="sans-serif" font-size="13" lengthAdjust="spacing" textLength="88" x="871.5" y="566.0635">save(new User)</text><polygon fill="#181818" points="875.5,605.6172,865.5,609.6172,875.5,613.6172,871.5,609.6172" style="stroke:#181818;stroke-width:1.0;"/><line style="stroke:#181818;stroke-width:1.0;stroke-dasharray:2.0,2.0;" x1="869.5" x2="1052" y1="609.6172" y2="609.6172"/><text fill="#000000" font-family="sans-serif" font-size="13" lengthAdjust="spacing" textLength="27" x="881.5" y="604.3545">User</text><line style="stroke:#181818;stroke-width:1.0;" x1="864.5" x2="906.5" y1="640.9082" y2="640.9082"/><line style="stroke:#181818;stroke-width:1.0;" x1="906.5" x2="906.5" y1="640.9082" y2="653.9082"/><line style="stroke:#181818;stroke-width:1.0;" x1="865.5" x2="906.5" y1="653.9082" y2="653.9082"/><polygon fill="#181818" points="875.5,649.9082,865.5,653.9082,875.5,657.9082,871.5,653.9082" style="stroke:#181818;stroke-width:1.0;"/><text fill="#000000" font-family="sans-serif" font-size="13" lengthAdjust="spacing" textLength="88" x="871.5" y="635.6455">getAuthorities()</text><polygon fill="#181818" points="1149.5,681.1992,1159.5,685.1992,1149.5,689.1992,1153.5,685.1992" style="stroke:#181818;stroke-width:1.0;"/><line style="stroke:#181818;stroke-width:1.0;" x1="864.5" x2="1155.5" y1="685.1992" y2="685.1992"/><text fill="#000000" font-family="sans-serif" font-size="13" lengthAdjust="spacing" textLength="88" x="871.5" y="679.9365">encode(claims)</text><polygon fill="#181818" points="875.5,712.4902,865.5,716.4902,875.5,720.4902,871.5,716.4902" style="stroke:#181818;stroke-width:1.0;"/><line style="stroke:#181818;stroke-width:1.0;stroke-dasharray:2.0,2.0;" x1="869.5" x2="1160.5" y1="716.4902" y2="716.4902"/><text fill="#000000" font-family="sans-serif" font-size="13" lengthAdjust="spacing" textLength="62" x="881.5" y="711.2275">JWT token</text><polygon fill="#181818" points="1262.5,743.7813,1272.5,747.7813,1262.5,751.7813,1266.5,747.7813" style="stroke:#181818;stroke-width:1.0;"/><line style="stroke:#181818;stroke-width:1.0;" x1="864.5" x2="1268.5" y1="747.7813" y2="747.7813"/><text fill="#000000" font-family="sans-serif" font-size="13" lengthAdjust="spacing" textLength="99" x="871.5" y="742.5186">toUserView(user)</text><polygon fill="#181818" points="875.5,775.0723,865.5,779.0723,875.5,783.0723,871.5,779.0723" style="stroke:#181818;stroke-width:1.0;"/><line style="stroke:#181818;stroke-width:1.0;stroke-dasharray:2.0,2.0;" x1="869.5" x2="1273.5" y1="779.0723" y2="779.0723"/><text fill="#000000" font-family="sans-serif" font-size="13" lengthAdjust="spacing" textLength="55" x="881.5" y="773.8096">UserView</text><line style="stroke:#181818;stroke-width:1.0;" x1="864.5" x2="906.5" y1="810.3633" y2="810.3633"/><line style="stroke:#181818;stroke-width:1.0;" x1="906.5" x2="906.5" y1="810.3633" y2="823.3633"/><line style="stroke:#181818;stroke-width:1.0;" x1="865.5" x2="906.5" y1="823.3633" y2="823.3633"/><polygon fill="#181818" points="875.5,819.3633,865.5,823.3633,875.5,827.3633,871.5,823.3633" style="stroke:#181818;stroke-width:1.0;"/><text fill="#000000" font-family="sans-serif" font-size="13" lengthAdjust="spacing" textLength="131" x="871.5" y="805.1006">create JSON response</text><polygon fill="#181818" points="1406,850.6543,1416,854.6543,1406,858.6543,1410,854.6543" style="stroke:#181818;stroke-width:1.0;"/><line style="stroke:#181818;stroke-width:1.0;" x1="864.5" x2="1412" y1="854.6543" y2="854.6543"/><text fill="#000000" font-family="sans-serif" font-size="13" lengthAdjust="spacing" textLength="59" x="871.5" y="849.3916">write(json)</text><!--SRC=[XLFRRjGm47tFLupsAP6sQeLughH8W5hAYbAfo-NPTIR1hTUsx4b3-NeyZhF5tG2H8lbopimvunaXoNhu6j1NJdXIKZbX25OxvvNfOOToy8gULY32OLCYRzuEzEDAc5QZVszDf_e4dfOBKFxHn4D1ofhT82M6aFc9cTSbbHNUehD1HRsJ7DwMeEr85qRQDWUAs-CWtnIEryAvZ9cM9UoAoEtGFsgaMmpEce0vuRIfgiq6FXf5IcZrAzc0pQQQomCdRx9xE8SU2VvhkswgJ8ZKV1QvCYOZF_0BrKFXVmtt1wjh60fRJPANShw2JxPN1Ywr7LaX- -SK1wNdCqudNFt1sbxZwQMGU6VjGrDuUXPcpQARMXIdKSXCATZuaxoG1BWNIg_1Y3rMGXDSgn2uvvJfR0Nn-uCzbpxI0vhsmljOazTdPsjOpJIk0WWYh-u6mh1gAjIHa3npI70U8vUEGpkRLAb0uTqJurbIdUGr2PqW9uM9-2vusWdDtR0Si5EcNGx7PfCiOmawEvWs7I-72U8HQuDZOanyp8G5MMcGNmfwlexTo2zduvCg37Np4XadXakH6gkMMgXzc31yKMRQVly2P1_G7AMRsf1hPEU1I-qxHSgtnx8Pzm_fqgCWXEtkvZFuUH3_tYLZj8ZrVU0sZFNw3G00]--></g></svg>