<svg xmlns="http://www.w3.org/2000/svg" xmlns:xlink="http://www.w3.org/1999/xlink" contentStyleType="text/css" data-diagram-type="DESCRIPTION" height="295px" preserveAspectRatio="none" style="width:385px;height:295px;background:#FFFFFF;" version="1.1" viewBox="0 0 385 295" width="385px" zoomAndPan="magnify"><defs/><g><!--cluster Authentication System--><g class="cluster" data-entity="Authentication System" data-source-line="3" data-uid="ent0003" id="cluster_Authentication System"><rect fill="none" height="182" rx="2.5" ry="2.5" style="stroke:#181818;stroke-width:1;" width="372" x="7" y="107.5"/><text fill="#000000" font-family="sans-serif" font-size="14" font-weight="bold" lengthAdjust="spacing" textLength="151.6895" x="117.1553" y="124.6074">Authentication System</text></g><!--entity UC1--><g class="entity" data-entity="UC1" data-source-line="4" data-uid="ent0004" id="entity_UC1"><ellipse cx="290.1087" cy="162.9217" fill="#F1F1F1" rx="72.6087" ry="16.9217" style="stroke:#181818;stroke-width:0.5;"/><text fill="#000000" font-family="sans-serif" font-size="14" lengthAdjust="spacing" textLength="103.5029" x="238.3572" y="168.7323">Login via GitHub</text></g><!--entity UC2--><g class="entity" data-entity="UC2" data-source-line="5" data-uid="ent0005" id="entity_UC2"><ellipse cx="103.0013" cy="162.8003" fill="#F1F1F1" rx="79.5013" ry="18.3003" style="stroke:#181818;stroke-width:0.5;"/><text fill="#000000" font-family="sans-serif" font-size="14" lengthAdjust="spacing" textLength="121.4131" x="42.2947" y="168.6108">Login via Facebook</text></g><!--entity UC3--><g class="entity" data-entity="UC3" data-source-line="6" data-uid="ent0006" id="entity_UC3"><ellipse cx="195.7664" cy="257.6671" fill="#F1F1F1" rx="49.7664" ry="16.1671" style="stroke:#181818;stroke-width:0.5;"/><text fill="#000000" font-family="sans-serif" font-size="14" lengthAdjust="spacing" textLength="66.1377" x="162.6976" y="263.4776">Enter LMS</text></g><!--entity User--><g class="entity" data-entity="User" data-source-line="1" data-uid="ent0002" id="entity_User"><ellipse cx="195.7793" cy="14" fill="#F1F1F1" rx="8" ry="8" style="stroke:#181818;stroke-width:0.5;"/><path d="M195.7793,22 L195.7793,49 M182.7793,30 L208.7793,30 M195.7793,49 L182.7793,64 M195.7793,49 L208.7793,64" fill="none" style="stroke:#181818;stroke-width:0.5;"/><text fill="#000000" font-family="sans-serif" font-size="14" lengthAdjust="spacing" textLength="29.5586" x="181" y="80.6074">User</text></g><!--link User to UC1--><g class="link" data-entity-1="User" data-entity-2="UC1" data-source-line="10" data-uid="lnk7" id="link_User_UC1"><path d="M211.1,64.64 C229.37,87.18 256.032,120.0888 273.272,141.3588" fill="none" id="User-to-UC1" style="stroke:#181818;stroke-width:1;"/><polygon fill="#181818" points="277.05,146.02,274.4904,136.5096,273.9016,142.1357,268.2755,141.5469,277.05,146.02" style="stroke:#181818;stroke-width:1;"/></g><!--link User to UC2--><g class="link" data-entity-1="User" data-entity-2="UC2" data-source-line="11" data-uid="lnk8" id="link_User_UC2"><path d="M180.85,64.9 C163.15,86.98 137.8424,118.5382 120.6824,139.9482" fill="none" id="User-to-UC2" style="stroke:#181818;stroke-width:1;"/><polygon fill="#181818" points="116.93,144.63,125.6799,140.1089,120.057,140.7285,119.4375,135.1057,116.93,144.63" style="stroke:#181818;stroke-width:1;"/></g><!--link UC1 to UC3--><g class="link" data-entity-1="UC1" data-entity-2="UC3" data-source-line="12" data-uid="lnk9" id="link_UC1_UC3"><path d="M274.05,179.69 C256.35,197.11 232.2773,220.8023 215.0573,237.7423" fill="none" id="UC1-to-UC3" style="stroke:#181818;stroke-width:1;"/><polygon fill="#181818" points="210.78,241.95,220.0011,238.4899,214.3444,238.4436,214.3908,232.7869,210.78,241.95" style="stroke:#181818;stroke-width:1;"/></g><!--link UC2 to UC3--><g class="link" data-entity-1="UC2" data-entity-2="UC3" data-source-line="13" data-uid="lnk10" id="link_UC2_UC3"><path d="M120.49,181.4 C138.07,198.88 160.5858,221.279 177.0858,237.689" fill="none" id="UC2-to-UC3" style="stroke:#181818;stroke-width:1;"/><polygon fill="#181818" points="181.34,241.92,177.7793,232.7373,177.7948,238.3941,172.138,238.4096,181.34,241.92" style="stroke:#181818;stroke-width:1;"/></g><!--SRC=[ROxD2i8m48Jl-nH3xpsOtWKHVmxrLFe0sx3Ke2QGR0GHtzqe4NhmzitEnx1iDKICII9H5AlivwkWsMGzYrTdMLtm61v9vTRWIK1EOZaLfm-pyxWxni7fCKyDE67ShluxUxOoXN2fbbbQEwyIqP-6MdP4BwBFKsZRzNTp4GoLG-MkiFdn6m00]--></g></svg>