<?xml version="1.0" encoding="us-ascii" standalone="no"?><svg xmlns="http://www.w3.org/2000/svg" xmlns:xlink="http://www.w3.org/1999/xlink" contentStyleType="text/css" height="756px" preserveAspectRatio="none" style="width:1447px;height:756px;background:#FFFFFF;" version="1.1" viewBox="0 0 1447 756" width="1447px" zoomAndPan="magnify"><defs/><g><rect width="100%" height="100%" fill="#FFFFFF"/><text fill="#000000" font-family="sans-serif" font-size="14" font-weight="bold" lengthAdjust="spacing" textLength="171" x="631" y="25.1074">PSOFT-G1 Rest Mapping</text><!--entity DB--><g id="elem_DB"><path d="M6,278.1211 C6,268.1211 71.5,268.1211 71.5,268.1211 C71.5,268.1211 137,268.1211 137,278.1211 L137,305.7422 C137,315.7422 71.5,315.7422 71.5,315.7422 C71.5,315.7422 6,315.7422 6,305.7422 L6,278.1211 " fill="#F1F1F1" style="stroke:#181818;stroke-width:0.5;"/><path d="M6,278.1211 C6,288.1211 71.5,288.1211 71.5,288.1211 C71.5,288.1211 137,288.1211 137,278.1211 " fill="none" style="stroke:#181818;stroke-width:0.5;"/><text fill="#000000" font-family="sans-serif" font-size="14" lengthAdjust="spacing" textLength="111" x="16" y="307.2285">MySQL Database</text></g><!--class Resource--><g id="elem_Resource"><rect codeLine="9" fill="#F1F1F1" height="153.6875" id="Resource" rx="2.5" ry="2.5" style="stroke:#181818;stroke-width:0.5;" width="66" x="669.5" y="46.6211"/><text fill="#000000" font-family="sans-serif" font-size="12" font-style="italic" lengthAdjust="spacing" textLength="61" x="672" y="64.5703">&#171;interface&#187;</text><text fill="#000000" font-family="sans-serif" font-size="14" lengthAdjust="spacing" textLength="23" x="691" y="82.6895">/api</text><line style="stroke:#181818;stroke-width:0.5;" x1="670.5" x2="734.5" y1="91.2031" y2="91.2031"/><text fill="#000000" font-family="sans-serif" font-size="14" lengthAdjust="spacing" textLength="29" x="675.5" y="110.3105">GET</text><text fill="#000000" font-family="sans-serif" font-size="14" lengthAdjust="spacing" textLength="27" x="675.5" y="128.9316">PUT</text><text fill="#000000" font-family="sans-serif" font-size="14" lengthAdjust="spacing" textLength="46" x="675.5" y="147.5527">PATCH</text><text fill="#000000" font-family="sans-serif" font-size="14" lengthAdjust="spacing" textLength="38" x="675.5" y="166.1738">POST</text><text fill="#000000" font-family="sans-serif" font-size="14" lengthAdjust="spacing" textLength="54" x="675.5" y="184.7949">DELETE</text><line style="stroke:#181818;stroke-width:0.5;" x1="670.5" x2="734.5" y1="192.3086" y2="192.3086"/></g><!--class /readers--><g id="elem_/readers"><rect codeLine="17" fill="#F1F1F1" height="63.2422" id="/readers" rx="2.5" ry="2.5" style="stroke:#181818;stroke-width:0.5;" width="301" x="172" y="260.6211"/><text fill="#000000" font-family="sans-serif" font-size="14" lengthAdjust="spacing" textLength="53" x="296" y="280.7285">/readers</text><line style="stroke:#181818;stroke-width:0.5;" x1="173" x2="472" y1="289.2422" y2="289.2422"/><line style="stroke:#181818;stroke-width:0.5;" x1="173" x2="472" y1="297.2422" y2="297.2422"/><text fill="#000000" font-family="sans-serif" font-size="14" lengthAdjust="spacing" textLength="289" x="178" y="316.3496">POST : create an entity in the collection (A11)</text></g><!--class SearchReader--><g id="elem_SearchReader"><rect codeLine="22" fill="#F1F1F1" height="81.8633" id="SearchReader" rx="2.5" ry="2.5" style="stroke:#181818;stroke-width:0.5;" width="120" x="38.5" y="402.1211"/><text fill="#000000" font-family="sans-serif" font-size="14" lengthAdjust="spacing" textLength="96" x="50.5" y="422.2285">?name={name}</text><line style="stroke:#181818;stroke-width:0.5;" x1="39.5" x2="157.5" y1="430.7422" y2="430.7422"/><line style="stroke:#181818;stroke-width:0.5;" x1="39.5" x2="157.5" y1="438.7422" y2="438.7422"/><text fill="#000000" font-family="sans-serif" font-size="14" lengthAdjust="spacing" textLength="108" x="44.5" y="457.8496">GET : get filtered</text><text fill="#000000" font-family="sans-serif" font-size="14" lengthAdjust="spacing" textLength="84" x="48.5" y="476.4707">entities (A14)</text></g><!--class ReaderID--><g id="elem_ReaderID"><rect codeLine="26" fill="#F1F1F1" height="100.4844" id="ReaderID" rx="2.5" ry="2.5" style="stroke:#181818;stroke-width:0.5;" width="209" x="194" y="393.1211"/><text fill="#000000" font-family="sans-serif" font-size="14" lengthAdjust="spacing" textLength="79" x="259" y="413.2285">/{year}/{seq}</text><line style="stroke:#181818;stroke-width:0.5;" x1="195" x2="402" y1="421.7422" y2="421.7422"/><line style="stroke:#181818;stroke-width:0.5;" x1="195" x2="402" y1="429.7422" y2="429.7422"/><text fill="#000000" font-family="sans-serif" font-size="14" lengthAdjust="spacing" textLength="197" x="200" y="448.8496">GET : get specific reader (A13)</text><text fill="#000000" font-family="sans-serif" font-size="14" lengthAdjust="spacing" textLength="153" x="200" y="467.4707">PATCH : update specific</text><text fill="#000000" font-family="sans-serif" font-size="14" lengthAdjust="spacing" textLength="126" x="236" y="486.0918">reader details (A12)</text></g><!--class ReaderLendings--><g id="elem_ReaderLendings"><rect codeLine="31" fill="#F1F1F1" height="44.6211" id="ReaderLendings" rx="2.5" ry="2.5" style="stroke:#181818;stroke-width:0.5;" width="63" x="267" y="562.6211"/><text fill="#000000" font-family="sans-serif" font-size="14" lengthAdjust="spacing" textLength="57" x="270" y="582.7285">/lendings</text><line style="stroke:#181818;stroke-width:0.5;" x1="268" x2="329" y1="591.2422" y2="591.2422"/><line style="stroke:#181818;stroke-width:0.5;" x1="268" x2="329" y1="599.2422" y2="599.2422"/></g><!--class ?isbn={isbn}--><g id="elem_?isbn={isbn}"><rect codeLine="34" fill="#F1F1F1" height="81.8633" id="?isbn={isbn}" rx="2.5" ry="2.5" style="stroke:#181818;stroke-width:0.5;" width="184" x="206.5" y="667.6211"/><text fill="#000000" font-family="sans-serif" font-size="14" lengthAdjust="spacing" textLength="78" x="259.5" y="687.7285">?isbn={isbn}</text><line style="stroke:#181818;stroke-width:0.5;" x1="207.5" x2="389.5" y1="696.2422" y2="696.2422"/><line style="stroke:#181818;stroke-width:0.5;" x1="207.5" x2="389.5" y1="704.2422" y2="704.2422"/><text fill="#000000" font-family="sans-serif" font-size="14" lengthAdjust="spacing" textLength="172" x="212.5" y="723.3496">GET : lendings of a reader,</text><text fill="#000000" font-family="sans-serif" font-size="14" lengthAdjust="spacing" textLength="151" x="216.5" y="741.9707">searched by ISBN (A16)</text></g><!--class /authors--><g id="elem_/authors"><rect codeLine="38" fill="#F1F1F1" height="63.2422" id="/authors" rx="2.5" ry="2.5" style="stroke:#181818;stroke-width:0.5;" width="293" x="556" y="260.6211"/><text fill="#000000" font-family="sans-serif" font-size="14" lengthAdjust="spacing" textLength="52" x="676.5" y="280.7285">/authors</text><line style="stroke:#181818;stroke-width:0.5;" x1="557" x2="848" y1="289.2422" y2="289.2422"/><line style="stroke:#181818;stroke-width:0.5;" x1="557" x2="848" y1="297.2422" y2="297.2422"/><text fill="#000000" font-family="sans-serif" font-size="14" lengthAdjust="spacing" textLength="281" x="562" y="316.3496">POST : create an entity in the collection (A3)</text></g><!--class AuthorID--><g id="elem_AuthorID"><rect codeLine="43" fill="#F1F1F1" height="100.4844" id="AuthorID" rx="2.5" ry="2.5" style="stroke:#181818;stroke-width:0.5;" width="200" x="438.5" y="393.1211"/><text fill="#000000" font-family="sans-serif" font-size="14" lengthAdjust="spacing" textLength="25" x="526" y="413.2285">/{id}</text><line style="stroke:#181818;stroke-width:0.5;" x1="439.5" x2="637.5" y1="421.7422" y2="421.7422"/><line style="stroke:#181818;stroke-width:0.5;" x1="439.5" x2="637.5" y1="429.7422" y2="429.7422"/><text fill="#000000" font-family="sans-serif" font-size="14" lengthAdjust="spacing" textLength="188" x="444.5" y="448.8496">GET : get specific author (A5)</text><text fill="#000000" font-family="sans-serif" font-size="14" lengthAdjust="spacing" textLength="153" x="444.5" y="467.4707">PATCH : update specific</text><text fill="#000000" font-family="sans-serif" font-size="14" lengthAdjust="spacing" textLength="117" x="448.5" y="486.0918">author details (A4)</text></g><!--class SearchAuthor--><g id="elem_SearchAuthor"><rect codeLine="54" fill="#F1F1F1" height="81.8633" id="SearchAuthor" rx="2.5" ry="2.5" style="stroke:#181818;stroke-width:0.5;" width="120" x="673.5" y="402.1211"/><text fill="#000000" font-family="sans-serif" font-size="14" lengthAdjust="spacing" textLength="96" x="685.5" y="422.2285">?name={name}</text><line style="stroke:#181818;stroke-width:0.5;" x1="674.5" x2="792.5" y1="430.7422" y2="430.7422"/><line style="stroke:#181818;stroke-width:0.5;" x1="674.5" x2="792.5" y1="438.7422" y2="438.7422"/><text fill="#000000" font-family="sans-serif" font-size="14" lengthAdjust="spacing" textLength="108" x="679.5" y="457.8496">GET : get filtered</text><text fill="#000000" font-family="sans-serif" font-size="14" lengthAdjust="spacing" textLength="76" x="683.5" y="476.4707">entities (A6)</text></g><!--class /books--><g id="elem_/books"><rect codeLine="58" fill="#F1F1F1" height="44.6211" id="/books" rx="2.5" ry="2.5" style="stroke:#181818;stroke-width:0.5;" width="48" x="908.5" y="269.6211"/><text fill="#000000" font-family="sans-serif" font-size="14" lengthAdjust="spacing" textLength="42" x="911.5" y="289.7285">/books</text><line style="stroke:#181818;stroke-width:0.5;" x1="909.5" x2="955.5" y1="298.2422" y2="298.2422"/><line style="stroke:#181818;stroke-width:0.5;" x1="909.5" x2="955.5" y1="306.2422" y2="306.2422"/></g><!--class /{isbn}--><g id="elem_/{isbn}"><rect codeLine="61" fill="#F1F1F1" height="119.1055" id="/{isbn}" rx="2.5" ry="2.5" style="stroke:#181818;stroke-width:0.5;" width="208" x="828.5" y="383.6211"/><text fill="#000000" font-family="sans-serif" font-size="14" lengthAdjust="spacing" textLength="40" x="912.5" y="403.7285">/{isbn}</text><line style="stroke:#181818;stroke-width:0.5;" x1="829.5" x2="1035.5" y1="412.2422" y2="412.2422"/><line style="stroke:#181818;stroke-width:0.5;" x1="829.5" x2="1035.5" y1="420.2422" y2="420.2422"/><text fill="#000000" font-family="sans-serif" font-size="14" lengthAdjust="spacing" textLength="178" x="834.5" y="439.3496">GET : get specific book (A9)</text><text fill="#000000" font-family="sans-serif" font-size="14" lengthAdjust="spacing" textLength="196" x="834.5" y="457.9707">PUT : create specific book (A7)</text><text fill="#000000" font-family="sans-serif" font-size="14" lengthAdjust="spacing" textLength="153" x="834.5" y="476.5918">PATCH : update specific</text><text fill="#000000" font-family="sans-serif" font-size="14" lengthAdjust="spacing" textLength="107" x="838.5" y="495.2129">book details (A8)</text></g><!--class ?genre={genre}--><g id="elem_?genre={genre}"><rect codeLine="67" fill="#F1F1F1" height="81.8633" id="?genre={genre}" rx="2.5" ry="2.5" style="stroke:#181818;stroke-width:0.5;" width="120" x="1071.5" y="402.1211"/><text fill="#000000" font-family="sans-serif" font-size="14" lengthAdjust="spacing" textLength="100" x="1081.5" y="422.2285">?genre={genre}</text><line style="stroke:#181818;stroke-width:0.5;" x1="1072.5" x2="1190.5" y1="430.7422" y2="430.7422"/><line style="stroke:#181818;stroke-width:0.5;" x1="1072.5" x2="1190.5" y1="438.7422" y2="438.7422"/><text fill="#000000" font-family="sans-serif" font-size="14" lengthAdjust="spacing" textLength="108" x="1077.5" y="457.8496">GET : get filtered</text><text fill="#000000" font-family="sans-serif" font-size="14" lengthAdjust="spacing" textLength="76" x="1081.5" y="476.4707">entities (A6)</text></g><!--class /lendings--><g id="elem_/lendings"><rect codeLine="71" fill="#F1F1F1" height="63.2422" id="/lendings" rx="2.5" ry="2.5" style="stroke:#181818;stroke-width:0.5;" width="301" x="1088" y="260.6211"/><text fill="#000000" font-family="sans-serif" font-size="14" lengthAdjust="spacing" textLength="57" x="1210" y="280.7285">/lendings</text><line style="stroke:#181818;stroke-width:0.5;" x1="1089" x2="1388" y1="289.2422" y2="289.2422"/><line style="stroke:#181818;stroke-width:0.5;" x1="1089" x2="1388" y1="297.2422" y2="297.2422"/><text fill="#000000" font-family="sans-serif" font-size="14" lengthAdjust="spacing" textLength="289" x="1094" y="316.3496">POST : create an entity in the collection (A15)</text></g><!--class LendingID--><g id="elem_LendingID"><rect codeLine="75" fill="#F1F1F1" height="100.4844" id="LendingID" rx="2.5" ry="2.5" style="stroke:#181818;stroke-width:0.5;" width="213" x="1227" y="393.1211"/><text fill="#000000" font-family="sans-serif" font-size="14" lengthAdjust="spacing" textLength="79" x="1294" y="413.2285">/{year}/{seq}</text><line style="stroke:#181818;stroke-width:0.5;" x1="1228" x2="1439" y1="421.7422" y2="421.7422"/><line style="stroke:#181818;stroke-width:0.5;" x1="1228" x2="1439" y1="429.7422" y2="429.7422"/><text fill="#000000" font-family="sans-serif" font-size="14" lengthAdjust="spacing" textLength="201" x="1233" y="448.8496">GET : get specific lending (A17)</text><text fill="#000000" font-family="sans-serif" font-size="14" lengthAdjust="spacing" textLength="152" x="1233" y="467.4707">PATCH : update lending</text><text fill="#000000" font-family="sans-serif" font-size="14" lengthAdjust="spacing" textLength="122" x="1237" y="486.0918">(return book) (A16)</text></g><!--reverse link Resource to /readers--><g id="link_Resource_/readers"><path d="M652.9534,146.3255 C591.3834,173.3055 474.42,224.5611 392.14,260.6011 " fill="none" id="Resource-backto-/readers" style="stroke:#181818;stroke-width:1.0;"/><polygon fill="none" points="669.44,139.1011,650.5453,140.83,655.3616,151.8211,669.44,139.1011" style="stroke:#181818;stroke-width:1.0;"/></g><!--reverse link /readers to SearchReader--><g id="link_/readers_SearchReader"><path d="M255.3692,332.9521 C227.1192,350.0021 207.16,362.6811 176.5,383.6211 C168.11,389.3511 159.37,395.6011 150.91,401.8311 " fill="none" id="/readers-backto-SearchReader" style="stroke:#181818;stroke-width:1.0;"/><polygon fill="none" points="270.78,323.6511,252.2689,327.8152,258.4696,338.089,270.78,323.6511" style="stroke:#181818;stroke-width:1.0;"/></g><!--reverse link /readers to ReaderID--><g id="link_/readers_ReaderID"><path d="M314.7263,341.4018 C311.5163,361.3218 310.11,370.0211 306.43,392.8811 " fill="none" id="/readers-backto-ReaderID" style="stroke:#181818;stroke-width:1.0;"/><polygon fill="none" points="317.59,323.6311,308.8028,340.4473,320.6499,342.3564,317.59,323.6311" style="stroke:#181818;stroke-width:1.0;"/></g><!--reverse link ReaderID to ReaderLendings--><g id="link_ReaderID_ReaderLendings"><path d="M298.5,511.4811 C298.5,535.1011 298.5,544.1611 298.5,562.5211 " fill="none" id="ReaderID-backto-ReaderLendings" style="stroke:#181818;stroke-width:1.0;"/><polygon fill="none" points="298.5,493.4811,292.5,511.4811,304.5,511.4811,298.5,493.4811" style="stroke:#181818;stroke-width:1.0;"/></g><!--reverse link ReaderLendings to ?isbn={isbn}--><g id="link_ReaderLendings_?isbn={isbn}"><path d="M298.5,625.8411 C298.5,642.3611 298.5,647.5511 298.5,667.4211 " fill="none" id="ReaderLendings-backto-?isbn={isbn}" style="stroke:#181818;stroke-width:1.0;"/><polygon fill="none" points="298.5,607.8411,292.5,625.8411,304.5,625.8411,298.5,607.8411" style="stroke:#181818;stroke-width:1.0;"/></g><!--reverse link Resource to /authors--><g id="link_Resource_/authors"><path d="M702.5,219.0511 C702.5,240.0811 702.5,243.6911 702.5,260.4811 " fill="none" id="Resource-backto-/authors" style="stroke:#181818;stroke-width:1.0;"/><polygon fill="none" points="702.5,201.0511,696.5,219.0511,708.5,219.0511,702.5,201.0511" style="stroke:#181818;stroke-width:1.0;"/></g><!--reverse link /authors to AuthorID--><g id="link_/authors_AuthorID"><path d="M655.5961,335.7338 C633.6661,355.6538 617.86,370.0211 592.7,392.8811 " fill="none" id="/authors-backto-AuthorID" style="stroke:#181818;stroke-width:1.0;"/><polygon fill="none" points="668.92,323.6311,651.5619,331.2925,659.6304,340.175,668.92,323.6311" style="stroke:#181818;stroke-width:1.0;"/></g><!--reverse link /authors to SearchAuthor--><g id="link_/authors_SearchAuthor"><path d="M712.5147,341.2541 C717.2247,363.9041 720.03,377.3811 725.16,402.0311 " fill="none" id="/authors-backto-SearchAuthor" style="stroke:#181818;stroke-width:1.0;"/><polygon fill="none" points="708.85,323.6311,706.6403,342.4756,718.389,340.0325,708.85,323.6311" style="stroke:#181818;stroke-width:1.0;"/></g><!--reverse link Resource to /books--><g id="link_Resource_/books"><path d="M750.5213,159.385 C797.3713,193.295 866.83,243.5811 908.18,273.5111 " fill="none" id="Resource-backto-/books" style="stroke:#181818;stroke-width:1.0;"/><polygon fill="none" points="735.94,148.8311,747.0033,164.2455,754.0393,154.5246,735.94,148.8311" style="stroke:#181818;stroke-width:1.0;"/></g><!--reverse link /books to /{isbn}--><g id="link_/books_/{isbn}"><path d="M932.5,332.7911 C932.5,350.7811 932.5,359.2611 932.5,383.4111 " fill="none" id="/books-backto-/{isbn}" style="stroke:#181818;stroke-width:1.0;"/><polygon fill="none" points="932.5,314.7911,926.5,332.7911,938.5,332.7911,932.5,314.7911" style="stroke:#181818;stroke-width:1.0;"/></g><!--reverse link /books to ?genre={genre}--><g id="link_/books_?genre={genre}"><path d="M971.3548,321.7571 C996.0248,339.9571 1020.76,358.2911 1054.5,383.6211 C1062.42,389.5711 1070.78,395.8811 1078.96,402.0711 " fill="none" id="/books-backto-?genre={genre}" style="stroke:#181818;stroke-width:1.0;"/><polygon fill="none" points="956.87,311.0711,967.7928,326.5854,974.9168,316.9288,956.87,311.0711" style="stroke:#181818;stroke-width:1.0;"/></g><!--reverse link Resource to /lendings--><g id="link_Resource_/lendings"><path d="M752.8099,140.2504 C832.0099,164.8504 1017.65,222.5211 1140.16,260.5711 " fill="none" id="Resource-backto-/lendings" style="stroke:#181818;stroke-width:1.0;"/><polygon fill="none" points="735.62,134.9111,751.0301,145.9803,754.5896,134.5204,735.62,134.9111" style="stroke:#181818;stroke-width:1.0;"/></g><!--reverse link /lendings to LendingID--><g id="link_/lendings_LendingID"><path d="M1267.632,338.8054 C1280.342,358.7254 1287.53,370.0211 1302.1,392.8811 " fill="none" id="/lendings-backto-LendingID" style="stroke:#181818;stroke-width:1.0;"/><polygon fill="none" points="1257.95,323.6311,1262.5739,342.0327,1272.6901,335.5781,1257.95,323.6311" style="stroke:#181818;stroke-width:1.0;"/></g><!--link Resource to DB--><g id="link_Resource_DB"><path codeLine="80" d="M669.42,131.5111 C583.6,149.6711 347.08,201.5311 154.5,260.6211 C147.16,262.8711 145.1876,263.4417 137.6476,266.0617 " fill="none" id="Resource-to-DB" style="stroke:#181818;stroke-width:1.0;"/><polygon fill="#181818" points="131.98,268.0311,141.7943,268.8554,136.703,266.3899,139.1685,261.2986,131.98,268.0311" style="stroke:#181818;stroke-width:1.0;"/></g><!--SRC=[jPLDSzem48Rl_XKxN0WpPLoQfb-Jq852KsP8ayRqnaN82sZYoAuapuHw_DyhoV8N2OKUoi76rkhTPz-Lv90eiY8IeNEp2txCOUAUEq0aJCQGURctPI42PO96wCa7nXCYo2FGY4WvKagmLQfmHcCUiDy8hprFCHKXt0MtNnVzwm7SerHmGvA4yOtdsMdGyKd2R0uz6gU28bnUCgvGh0d5uJ3pGF-kfmjxl_lfxgF5bs_5lzkWU3MPpgUBgOQiX0MI48Ni03ufv66T8VEwJXG-mGOLa2W2v9gMeQnKzHZL4Wg1y69q1uo3sceBuYX2gbZCuMmq6FGQMJzpyeXNcRdcjgm0YQ3RUyjIaTHmLNqEPSqYNJk6IruHcHnlcpdyRAT5Sp-J-2jttXcrsUI41391ojQCGX5WnCzxjQawAar2KtKPkEHBLGQ7g0YBBD6R5b6ai-gkoWRDtBrgs5z0Pasxc5pngynSyyvUP2dGhA3C0_4QYADwfRsIrcKCORM3MJ3-RWZVjGX9ghRn_ryDv-r6iR1eqCXcRpMe13hOe290QruSwKyPMNUdM2v-jm9PnV63R92CpNC5KzBjezXPnj8IPMo5k_wnvLu8db3ioykztJd7_hnlBQFRAwYSTT1SCwmpVUoLvqhTuFsOzyVijt6r-HzQvy46kT0EsTi9WASOKc-svvxyy-bryVUJnMt2rigjyXzqrqKO_PVTSm6woZE1AXM5YRrwsrPVWtv_g3y_tXy0]--></g></svg>