<svg xmlns="http://www.w3.org/2000/svg" xmlns:xlink="http://www.w3.org/1999/xlink" contentStyleType="text/css" data-diagram-type="DESCRIPTION" height="634.4px" preserveAspectRatio="none" style="width:1156px;height:634px;background:#FFFFFF;" version="1.1" viewBox="0 0 1156 634" width="1156.8px" zoomAndPan="magnify"><title>Future Saga - System Context (Borrow with Reservation)</title><defs/><g><g class="title" data-source-line="1"><text fill="#000000" font-family="sans-serif" font-size="11.2" font-weight="bold" lengthAdjust="spacing" textLength="301.8258" x="422.1398" y="20.0859">Future Saga - System Context (Borrow with Reservation)</text></g><!--cluster Coordination--><g class="cluster" data-entity="Coordination" data-source-line="13" data-uid="ent0005" id="cluster_Coordination"><path d="M8,332.8969 L76.0773,332.8969 A4.8,4.8 0 0 1 79.2773,336.0969 L84.8773,352.5938 L203.2,352.5938 A3.2,3.2 0 0 1 206.4,355.7938 L206.4,477.6969 A3.2,3.2 0 0 1 203.2,480.8969 L8,480.8969 A3.2,3.2 0 0 1 4.8,477.6969 L4.8,336.0969 A3.2,3.2 0 0 1 8,332.8969" fill="none" style="stroke:#000000;stroke-width:1.2;"/><line style="stroke:#000000;stroke-width:1.2;" x1="4.8" x2="84.8773" y1="352.5938" y2="352.5938"/><text fill="#000000" font-family="sans-serif" font-size="11.2" font-weight="bold" lengthAdjust="spacing" textLength="69.6773" x="8" y="346.5828">Coordination</text></g><!--cluster Domain Services--><g class="cluster" data-entity="Domain Services" data-source-line="17" data-uid="ent0007" id="cluster_Domain Services"><path d="M228.8,362.8969 L317.4672,362.8969 A4.8,4.8 0 0 1 320.6672,366.0969 L326.2672,382.5938 L903.2,382.5938 A3.2,3.2 0 0 1 906.4,385.7938 L906.4,447.6969 A3.2,3.2 0 0 1 903.2,450.8969 L228.8,450.8969 A3.2,3.2 0 0 1 225.6,447.6969 L225.6,366.0969 A3.2,3.2 0 0 1 228.8,362.8969" fill="none" style="stroke:#000000;stroke-width:1.2;"/><line style="stroke:#000000;stroke-width:1.2;" x1="225.6" x2="326.2672" y1="382.5938" y2="382.5938"/><text fill="#000000" font-family="sans-serif" font-size="11.2" font-weight="bold" lengthAdjust="spacing" textLength="90.2672" x="228.8" y="376.5828">Domain Services</text></g><!--entity orchestrator--><g class="entity" data-entity="orchestrator" data-source-line="14" data-uid="ent0006" id="entity_orchestrator"><rect fill="#F1F1F1" height="105.3813" rx="3.2" ry="3.2" style="stroke:#181818;stroke-width:0.4;" width="175.5508" x="18" y="362.4969"/><text fill="#000000" font-family="sans-serif" font-size="11.2" font-style="italic" lengthAdjust="spacing" textLength="75.3102" x="68.1203" y="382.5828">&#171;Microservice&#187;</text><text fill="#000000" font-family="sans-serif" font-size="11.2" lengthAdjust="spacing" textLength="105.2133" x="53.1688" y="397.4797">Lending Orchestrator</text><text fill="#000000" font-family="sans-serif" font-size="11.2" lengthAdjust="spacing" textLength="95.2492" x="58.1508" y="412.3766">(Saga Coordinator)</text><text fill="#000000" font-family="sans-serif" font-size="11.2" lengthAdjust="spacing" textLength="159.5508" x="26" y="427.2734">&#8226; may live inside lending-service</text><text fill="#000000" font-family="sans-serif" font-size="11.2" lengthAdjust="spacing" textLength="92.3234" x="59.6137" y="442.1703">&#8226; tracks saga state</text><text fill="#000000" font-family="sans-serif" font-size="11.2" lengthAdjust="spacing" textLength="133.4156" x="39.0676" y="457.0672">&#8226; timeouts &amp; compensation</text></g><!--entity inventory--><g class="entity" data-entity="inventory" data-source-line="18" data-uid="ent0008" id="entity_inventory"><rect fill="#F1F1F1" height="45.7938" rx="3.2" ry="3.2" style="stroke:#181818;stroke-width:0.4;" width="169.125" x="238.8" y="392.4969"/><text fill="#000000" font-family="sans-serif" font-size="11.2" lengthAdjust="spacing" textLength="115.1664" x="265.7793" y="412.5828">Inventory/Book Service</text><text fill="#000000" font-family="sans-serif" font-size="11.2" lengthAdjust="spacing" textLength="153.125" x="246.8" y="427.4797">(copy availability, reservations)</text></g><!--entity lending--><g class="entity" data-entity="lending" data-source-line="19" data-uid="ent0009" id="entity_lending"><rect fill="#F1F1F1" height="45.7938" rx="3.2" ry="3.2" style="stroke:#181818;stroke-width:0.4;" width="129.307" x="436" y="392.4969"/><text fill="#000000" font-family="sans-serif" font-size="11.2" lengthAdjust="spacing" textLength="80.3195" x="460.4938" y="412.5828">Lending Service</text><text fill="#000000" font-family="sans-serif" font-size="11.2" lengthAdjust="spacing" textLength="113.307" x="444" y="427.4797">(create/cancel lending)</text></g><!--entity payment--><g class="entity" data-entity="payment" data-source-line="20" data-uid="ent0010" id="entity_payment"><rect fill="#F1F1F1" height="45.7938" rx="3.2" ry="3.2" style="stroke:#181818;stroke-width:0.4;" width="150.4602" x="743.2" y="392.4969"/><text fill="#000000" font-family="sans-serif" font-size="11.2" lengthAdjust="spacing" textLength="134.4602" x="751.2" y="412.5828">Payment Service (optional)</text><text fill="#000000" font-family="sans-serif" font-size="11.2" lengthAdjust="spacing" textLength="75.9445" x="780.4578" y="427.4797">(fines/deposits)</text></g><!--entity reporting--><g class="entity" data-entity="reporting" data-source-line="21" data-uid="ent0011" id="entity_reporting"><rect fill="#F1F1F1" height="45.7938" rx="3.2" ry="3.2" style="stroke:#181818;stroke-width:0.4;" width="120.5625" x="594" y="392.4969"/><text fill="#000000" font-family="sans-serif" font-size="11.2" lengthAdjust="spacing" textLength="89.0203" x="609.7711" y="412.5828">Reporting Service</text><text fill="#000000" font-family="sans-serif" font-size="11.2" lengthAdjust="spacing" textLength="104.5625" x="602" y="427.4797">(CQRS read models)</text></g><!--entity user--><g class="entity" data-entity="user" data-source-line="9" data-uid="ent0002" id="entity_user"><ellipse cx="105.4234" cy="42.8969" fill="#F1F1F1" rx="6.4" ry="6.4" style="stroke:#181818;stroke-width:0.4;"/><path d="M105.4234,49.2969 L105.4234,70.8969 M95.0234,55.6969 L115.8234,55.6969 M105.4234,70.8969 L95.0234,82.8969 M105.4234,70.8969 L115.8234,82.8969" fill="none" style="stroke:#181818;stroke-width:0.4;"/><text fill="#000000" font-family="sans-serif" font-size="11.2" lengthAdjust="spacing" textLength="23.6469" x="93.6" y="96.1828">User</text></g><!--entity client--><g class="entity" data-entity="client" data-source-line="10" data-uid="ent0003" id="entity_client"><rect fill="#F1F1F1" height="30.8969" rx="3.2" ry="3.2" style="stroke:#181818;stroke-width:0.4;" width="141.1086" x="35.2" y="148.0969"/><text fill="#000000" font-family="sans-serif" font-size="11.2" lengthAdjust="spacing" textLength="125.1086" x="43.2" y="168.1828">Client UI / API Consumer</text></g><!--entity gateway--><g class="entity" data-entity="gateway" data-source-line="11" data-uid="ent0004" id="entity_gateway"><path d="M67.2567,235.1112 C70.0073,230.1681 73.9542,229.8238 77.6429,234.0482 C79.6581,229.1955 83.9735,227.9594 87.7428,232.0721 C88.9992,227.7598 92.9316,226.95 95.916,230.2061 C97.8767,224.8044 101.3112,223.533 105.607,227.8865 C109.3646,223.004 113.678,224.8665 115.8732,229.5613 C120.5921,226.1725 123.9052,226.5636 126.257,232.2652 C129.6348,228.3869 133.8835,228.8322 135.2379,234.2253 C139.1922,230.3113 143.1204,231.0932 145.363,236.1559 C152.3108,236.7599 155.2953,242.583 151.0207,248.3808 C155.8053,255.2341 150.9929,260.8309 143.994,261.2505 C142.3458,266.1565 138.5162,265.8595 135.6392,262.4913 C132.9017,267.1408 129.2582,267.1879 125.7797,263.3523 C122.2896,268.1658 119.2825,267.2304 116.0076,263.1167 C112.9452,266.9874 109.2028,267.4716 106.4137,262.8095 C104.2106,266.9695 100.3528,266.8248 97.627,263.4164 C94.3886,268.4582 88.8245,268.7683 86.5353,262.4867 C83.996,266.0272 80.7304,267.2446 77.9623,262.7302 C74.3446,267.1628 70.1053,265.9703 68.3194,260.8762 C60.6022,259.087 59.2926,254.786 63.7984,248.5233 C58.5378,243.2161 60.008,237.193 67.2567,235.1112" fill="#F1F1F1" style="stroke:#181818;stroke-width:0.4;"/><text fill="#000000" font-family="sans-serif" font-size="11.2" lengthAdjust="spacing" textLength="65.3625" x="72.8" y="252.1828">API Gateway</text></g><!--entity mq--><g class="entity" data-entity="mq" data-source-line="24" data-uid="ent0012" id="entity_mq"><path d="M376.4,546.4969 L489.1922,546.4969 C493.1922,546.4969 493.1922,587.7391 493.1922,587.7391 C493.1922,587.7391 493.1922,628.9813 489.1922,628.9813 L376.4,628.9813 C372.4,628.9813 372.4,587.7391 372.4,587.7391 C372.4,587.7391 372.4,546.4969 376.4,546.4969" fill="#F1F1F1" style="stroke:#181818;stroke-width:0.4;"/><path d="M489.1922,546.4969 C485.1922,546.4969 485.1922,587.7391 485.1922,587.7391 C485.1922,628.9813 489.1922,628.9813 489.1922,628.9813" fill="none" style="stroke:#181818;stroke-width:0.4;"/><text fill="#000000" font-family="sans-serif" font-size="11.2" lengthAdjust="spacing" textLength="50.4164" x="403.5879" y="562.5828">RabbitMQ</text><text fill="#000000" font-family="sans-serif" font-size="11.2" lengthAdjust="spacing" textLength="89.0258" x="384.2832" y="577.4797">Topic Exchanges:</text><text fill="#000000" font-family="sans-serif" font-size="11.2" lengthAdjust="spacing" textLength="104.7922" x="376.4" y="592.3766">&#8226; inventory.exchange</text><text fill="#000000" font-family="sans-serif" font-size="11.2" lengthAdjust="spacing" textLength="95.468" x="381.0621" y="607.2734">&#8226; lending.exchange</text><text fill="#000000" font-family="sans-serif" font-size="11.2" lengthAdjust="spacing" textLength="102.3039" x="377.6441" y="622.1703">&#8226; payment.exchange</text></g><!--entity db--><g class="entity" data-entity="db" data-source-line="25" data-uid="ent0013" id="entity_db"><path d="M521.2,569.2969 C521.2,561.2969 581.4813,561.2969 581.4813,561.2969 C581.4813,561.2969 641.7625,561.2969 641.7625,569.2969 L641.7625,606.2906 C641.7625,614.2906 581.4813,614.2906 581.4813,614.2906 C581.4813,614.2906 521.2,614.2906 521.2,606.2906 L521.2,569.2969" fill="#F1F1F1" style="stroke:#181818;stroke-width:0.4;"/><path d="M521.2,569.2969 C521.2,577.2969 581.4813,577.2969 581.4813,577.2969 C581.4813,577.2969 641.7625,577.2969 641.7625,569.2969" fill="none" style="stroke:#181818;stroke-width:0.4;"/><text fill="#000000" font-family="sans-serif" font-size="11.2" lengthAdjust="spacing" textLength="44.1984" x="559.382" y="592.5828">Postgres</text><text fill="#000000" font-family="sans-serif" font-size="11.2" lengthAdjust="spacing" textLength="104.5625" x="529.2" y="607.4797">Per-service schemas</text></g><g class="entity" data-entity="GMN27" data-source-line="44" data-uid="ent0028" id="entity_GMN27"><path d="M922,366.0969 L922,464.5266 A3.2,3.2 0 0 0 925.2,467.7266 L1148.5055,467.7266 A3.2,3.2 0 0 0 1151.7055,464.5266 L1151.7055,370.8969 L1143.7055,362.8969 L925.2,362.8969 A3.2,3.2 0 0 0 922,366.0969" fill="#FEFFDD" style="stroke:#181818;stroke-width:0.4;"/><path d="M1143.7055,362.8969 L1143.7055,369.2969 A1.6,1.6 0 0 0 1145.3055,370.8969 L1151.7055,370.8969 L1143.7055,362.8969" fill="#FEFFDD" style="stroke:#181818;stroke-width:0.8;"/><text fill="#000000" font-family="sans-serif" font-size="10.4" lengthAdjust="spacing" textLength="75.1461" x="995.6797" y="378.1195">Responsibilities:</text><text fill="#000000" font-family="sans-serif" font-size="10.4" lengthAdjust="spacing" textLength="105.3762" x="980.5646" y="391.9523">&#8226; Start saga for Borrow</text><text fill="#000000" font-family="sans-serif" font-size="10.4" lengthAdjust="spacing" textLength="145.8488" x="960.3283" y="405.7852">&#8226; Send ReserveCopy command</text><text fill="#000000" font-family="sans-serif" font-size="10.4" lengthAdjust="spacing" textLength="175.6473" x="945.4291" y="419.618">&#8226; On CopyReserved &#8594; CreateLending</text><text fill="#000000" font-family="sans-serif" font-size="10.4" lengthAdjust="spacing" textLength="204.5418" x="930.9818" y="433.4508">&#8226; On LendingCreated &#8594; ConfirmReservation</text><text fill="#000000" font-family="sans-serif" font-size="10.4" lengthAdjust="spacing" textLength="212.9055" x="926.8" y="447.2836">&#8226; Handle failures/timeouts with compensations</text><text fill="#000000" font-family="sans-serif" font-size="10.4" lengthAdjust="spacing" textLength="183.9855" x="941.26" y="461.1164">&#8226; Emit final outcome (Completed/Failed)</text></g><!--link user to client--><g class="link" data-entity-1="user" data-entity-2="client" data-source-line="27" data-uid="lnk14" id="link_user_client"><path d="M105.6,99.4089 C105.6,115.7529 105.6,130.2729 105.6,143.2729" fill="none" id="user-to-client" style="stroke:#181818;stroke-width:0.8;"/><polygon fill="#181818" points="105.6,148.0729,108.8,140.8729,105.6,144.0729,102.4,140.8729,105.6,148.0729" style="stroke:#181818;stroke-width:0.8;"/></g><!--link client to gateway--><g class="link" data-entity-1="client" data-entity-2="gateway" data-source-line="28" data-uid="lnk15" id="link_client_gateway"><path d="M105.6,179.6089 C105.6,193.1769 105.6,208.3529 105.6,223.0169" fill="none" id="client-to-gateway" style="stroke:#181818;stroke-width:0.8;"/><polygon fill="#181818" points="105.6,227.8169,108.8,220.6169,105.6,223.8169,102.4,220.6169,105.6,227.8169" style="stroke:#181818;stroke-width:0.8;"/></g><!--link gateway to orchestrator--><g class="link" data-entity-1="gateway" data-entity-2="orchestrator" data-source-line="29" data-uid="lnk16" id="link_gateway_orchestrator"><path d="M105.6,267.5369 C105.6,290.5289 105.6,325.3449 105.6,357.6489" fill="none" id="gateway-to-orchestrator" style="stroke:#181818;stroke-width:0.8;"/><polygon fill="#181818" points="105.6,362.4489,108.8,355.2489,105.6,358.4489,102.4,355.2489,105.6,362.4489" style="stroke:#181818;stroke-width:0.8;"/><text fill="#000000" font-family="sans-serif" font-size="10.4" lengthAdjust="spacing" textLength="65.8836" x="137.341" y="303.3195">POST /borrow</text><text fill="#000000" font-family="sans-serif" font-size="10.4" lengthAdjust="spacing" textLength="127.7656" x="106.4" y="317.1523">(readerId, bookId, dueDate)</text></g><!--link orchestrator to mq--><g class="link" data-entity-1="orchestrator" data-entity-2="mq" data-source-line="31" data-uid="lnk17" id="link_orchestrator_mq"><path d="M102.056,468.0969 C103.496,487.4409 108.72,508.1449 122.4,522.4969 C156.056,557.8009 287.1316,574.655 367.5236,581.951" fill="none" id="orchestrator-to-mq" style="stroke:#181818;stroke-width:0.8;"/><polygon fill="#181818" points="372.304,582.3849,365.4227,578.5472,368.3204,582.0233,364.8442,584.921,372.304,582.3849" style="stroke:#181818;stroke-width:0.8;"/><text fill="#000000" font-family="sans-serif" font-size="10.4" lengthAdjust="spacing" textLength="120.2398" x="123.2" y="512.5195">publish commands/events</text></g><!--link inventory to mq--><g class="link" data-entity-1="inventory" data-entity-2="mq" data-source-line="32" data-uid="lnk18" id="link_inventory_mq"><path d="M340.88,438.2969 C352.704,453.5209 368.328,474.3929 380.8,493.6969 C391.664,510.5049 400.3211,525.505 409.3531,542.097" fill="none" id="inventory-to-mq" style="stroke:#181818;stroke-width:0.8;"/><polygon fill="#181818" points="411.648,546.3129,411.0162,538.4592,409.7356,542.7997,405.395,541.5191,411.648,546.3129" style="stroke:#181818;stroke-width:0.8;"/></g><!--link lending to mq--><g class="link" data-entity-1="lending" data-entity-2="mq" data-source-line="33" data-uid="lnk19" id="link_lending_mq"><path d="M491.912,438.4249 C481.04,465.7369 464.1994,508.0213 450.7594,541.7813" fill="none" id="lending-to-mq" style="stroke:#181818;stroke-width:0.8;"/><polygon fill="#181818" points="448.984,546.2409,454.6201,540.7351,450.4635,542.5245,448.674,538.3679,448.984,546.2409" style="stroke:#181818;stroke-width:0.8;"/></g><!--link payment to mq--><g class="link" data-entity-1="payment" data-entity-2="mq" data-source-line="34" data-uid="lnk20" id="link_payment_mq"><path d="M793.128,438.3609 C775.704,453.1529 751.648,472.5049 728.8,487.2969 C700.232,505.7929 693.144,511.9129 660.8,522.4969 C595.136,543.9929 572.648,524.3529 507.2,546.4969 C502.608,548.0489 502.3632,547.9618 497.7552,549.9618" fill="none" id="payment-to-mq" style="stroke:#181818;stroke-width:0.8;"/><polygon fill="#181818" points="493.352,551.8729,501.2308,551.9417,497.0213,550.2803,498.6827,546.0708,493.352,551.8729" style="stroke:#181818;stroke-width:0.8;"/></g><!--link reporting to mq--><g class="link" data-entity-1="reporting" data-entity-2="mq" data-source-line="35" data-uid="lnk21" id="link_reporting_mq"><path d="M637.648,438.1209 C623.984,454.4249 603.2,475.7289 580,487.2969 C564.2,495.1769 556.792,486.2249 540.8,493.6969 C513.984,506.2169 492.1006,524.0016 472.7246,542.9856" fill="none" id="reporting-to-mq" style="stroke:#181818;stroke-width:0.8;"/><polygon fill="#181818" points="469.296,546.3449,476.6784,543.5917,472.1532,543.5455,472.1994,539.0203,469.296,546.3449" style="stroke:#181818;stroke-width:0.8;"/><text fill="#000000" font-family="sans-serif" font-size="10.4" lengthAdjust="spacing" textLength="112.7293" x="541.6" y="505.7195">consume domain events</text><text fill="#000000" font-family="sans-serif" font-size="10.4" lengthAdjust="spacing" textLength="91.9191" x="552.0051" y="519.5523">(update projections)</text></g><!--link orchestrator to db--><g class="link" data-entity-1="orchestrator" data-entity-2="db" data-source-line="37" data-uid="lnk22" id="link_orchestrator_db"><path d="M187.464,468.2649 C199.976,475.1769 212.944,481.7689 225.6,487.2969 C234.776,491.3049 237.672,490.6249 247.2,493.6969 C284.12,505.6089 291.872,513.4569 329.6,522.4969 C407.056,541.0649 431.488,521.7529 507.2,546.4969 C518.52,550.1929 525.8873,553.3372 536.4633,558.9932" fill="none" id="orchestrator-to-db" style="stroke:#181818;stroke-width:0.8;"/><polygon fill="#181818" points="540.696,561.2569,535.856,555.0396,537.1687,559.3705,532.8378,560.6832,540.696,561.2569" style="stroke:#181818;stroke-width:0.8;"/><text fill="#000000" font-family="sans-serif" font-size="10.4" lengthAdjust="spacing" textLength="75.7352" x="341.0996" y="505.7195">Saga state store</text><text fill="#000000" font-family="sans-serif" font-size="10.4" lengthAdjust="spacing" textLength="97.1344" x="330.4" y="519.5523">(table: lending_saga)</text></g><!--link inventory to db--><g class="link" data-entity-1="inventory" data-entity-2="db" data-source-line="38" data-uid="lnk23" id="link_inventory_db"><path d="M353.024,438.2569 C372.536,452.5689 398.72,471.4169 422.4,487.2969 C461.256,513.3529 502.4689,538.9995 534.7969,558.6955" fill="none" id="inventory-to-db" style="stroke:#181818;stroke-width:0.8;"/><polygon fill="#181818" points="538.896,561.1929,534.4122,554.714,535.4801,559.1117,531.0824,560.1795,538.896,561.1929" style="stroke:#181818;stroke-width:0.8;"/></g><!--link lending to db--><g class="link" data-entity-1="lending" data-entity-2="db" data-source-line="39" data-uid="lnk24" id="link_lending_db"><path d="M500.4,438.2969 C500.864,460.7049 504.024,495.7289 517.6,522.4969 C525.016,537.1129 533.4451,547.2287 545.0291,557.9487" fill="none" id="lending-to-db" style="stroke:#181818;stroke-width:0.8;"/><polygon fill="#181818" points="548.552,561.2089,545.441,553.97,545.6162,558.4921,541.0941,558.6672,548.552,561.2089" style="stroke:#181818;stroke-width:0.8;"/></g><!--link payment to db--><g class="link" data-entity-1="payment" data-entity-2="db" data-source-line="40" data-uid="lnk25" id="link_payment_db"><path d="M813.584,438.1289 C807.256,462.0729 793.872,499.9289 768.8,522.4969 C733.616,554.1769 686.7979,569.4435 646.7019,577.6755" fill="none" id="payment-to-db" style="stroke:#181818;stroke-width:0.8;"/><polygon fill="#181818" points="642,578.6409,649.6965,580.3275,645.9183,577.8364,648.4093,574.0582,642,578.6409" style="stroke:#181818;stroke-width:0.8;"/></g><!--link reporting to db--><g class="link" data-entity-1="reporting" data-entity-2="db" data-source-line="41" data-uid="lnk26" id="link_reporting_db"><path d="M661.736,438.2729 C667.808,460.6649 673.56,495.6729 660.8,522.4969 C653.416,538.0169 644.0897,548.1365 630.5937,558.3045" fill="none" id="reporting-to-db" style="stroke:#181818;stroke-width:0.8;"/><polygon fill="#181818" points="626.76,561.1929,634.4361,559.4162,629.9548,558.7859,630.585,554.3045,626.76,561.1929" style="stroke:#181818;stroke-width:0.8;"/></g><!--link orchestrator to GMN27--><g class="link" data-entity-1="orchestrator" data-entity-2="GMN27" data-source-line="44" data-uid="lnk29" id="link_orchestrator_GMN27"><path d="M148.784,362.3369 C172.608,337.3689 204.472,310.1929 239.6,296.8969 C307.44,271.2169 824.104,272.4729 892.4,296.8969 C929.64,310.2169 964.184,337.7289 990.136,362.8809" fill="none" id="orchestrator-GMN27" style="stroke:#181818;stroke-width:0.8;stroke-dasharray:7.0,7.0;"/></g><!--SRC=[RLNBRXix3DthAmXVe8Y1kjuMGH6WTLy1MiIDars02uv4ZzLef8caIMeK1Rhg1_GJ-cdzab8FJyQzrmkFXwGE3uz8Ekfe2DuESV046smH5h3PXqWTh9oDz2N2oIldlNk01nrtS4c1_3r6xUnSY72hROyUEsXGthRU3LQjd74U_jdcpoH2kgvtbcpSn3sdz2GZsjRG92JiKBa7RLlOeWbJJqNsbZmydzWLRN4myOfvlZIwjHtZW-GlyaAWZCpacWa31XZuASQiC5iPdOAlps49BzVdgTmmTEHdALXcfv363GfcoVqE8ptWFdlRybk8dgl6De4vvvMsMPSPV1NmM2xCFf1LgQWBBtSKeaUcTMDFijhZGUVdD_Rtzr_GuHwClYVGDcX5OChfHT9TIof1329l0uG44IBJgMRTaHjYW2SvFzbG6J5fDyaEBrvyrDAxYdbs9hvDYddjEjGMDiKP_bFFkRtdf_FxvIldRWznN95q_Hxm7hN1HXiTzq_vciT-2VFCGnzE_xz84pHFNDXIefLa3Z8KZFfoZB36VRx-YW0dhazfqR2m9rjjAImLzIxeM9dqvS0noYM7-7ZCPFNfSiELe8BEAJBrk3z49l7k1XfOkaji6Xq_VhgnLwxN4jvyaJlkDmgdvOB6ufzHzHHxBUWlQoKuMdFQxaueZDXWu7nh5sBB6j_ODVb3Yq3Wc-umv73L295Q7nQBiyUspgsVB8TMhiziE-gKKrXVRAvWsUGbm68a7SYVgwVGyEsdfnheDH_dVN1qSi6pR1ckksEGVcYC3hkaT8TMXIKb8O8O1Pc4Ywh6r5Ibc9f6_OypoJB7e4eNbppCU-XPDeBUky-y178__asO8LJ349jnhFZR-TG2BBYXqyCz_Pi6Rpubduy-4Y-l8-doEY5S3C8wJk5rkulWjaUw2rwqt991vq7It40YTSGceezbxBVCk6pcuk7KTJlJAirXLJexBomaMtKh-FtZ9wpoUDMnEqJLr-AhSSvkjUycYpy7lsTiNgDR7dR-wmZBSVNaludfzWav_asd8_0KeW4EOpyFw8gZ376YvLk68JKNgOWaYlW3]--></g></svg>