<svg xmlns="http://www.w3.org/2000/svg" xmlns:xlink="http://www.w3.org/1999/xlink" contentStyleType="text/css" data-diagram-type="ACTIVITY" height="362px" preserveAspectRatio="none" style="width:280px;height:362px;background:#FFFFFF;" version="1.1" viewBox="0 0 280 362" width="280px" zoomAndPan="magnify"><defs/><g><ellipse cx="140.4023" cy="20" fill="#222222" rx="10" ry="10" style="stroke:#222222;stroke-width:1;"/><rect fill="#F1F1F1" height="35.9609" rx="12.5" ry="12.5" style="stroke:#181818;stroke-width:0.5;" width="182.7559" x="49.0244" y="50"/><text fill="#000000" font-family="sans-serif" font-size="12" lengthAdjust="spacing" textLength="162.7559" x="59.0244" y="72.9492">Receive CreateAuthorRequest</text><rect fill="#F1F1F1" height="35.9609" rx="12.5" ry="12.5" style="stroke:#181818;stroke-width:0.5;" width="90.6934" x="95.0557" y="105.9609"/><text fill="#000000" font-family="sans-serif" font-size="12" lengthAdjust="spacing" textLength="70.6934" x="105.0557" y="128.9102">Extract name</text><rect fill="#F1F1F1" height="35.9609" rx="12.5" ry="12.5" style="stroke:#181818;stroke-width:0.5;" width="258.8047" x="11" y="161.9219"/><text fill="#000000" font-family="sans-serif" font-size="12" lengthAdjust="spacing" textLength="238.8047" x="21" y="184.8711">Generate Author ID using AuthorIdGenerator</text><rect fill="#F1F1F1" height="35.9609" rx="12.5" ry="12.5" style="stroke:#181818;stroke-width:0.5;" width="130.0625" x="75.3711" y="217.8828"/><text fill="#000000" font-family="sans-serif" font-size="12" lengthAdjust="spacing" textLength="110.0625" x="85.3711" y="240.832">Create Author object</text><rect fill="#F1F1F1" height="35.9609" rx="12.5" ry="12.5" style="stroke:#181818;stroke-width:0.5;" width="90.0195" x="95.3926" y="273.8438"/><text fill="#000000" font-family="sans-serif" font-size="12" lengthAdjust="spacing" textLength="70.0195" x="105.3926" y="296.793">Persist to DB</text><ellipse cx="140.4023" cy="340.8047" fill="none" rx="11" ry="11" style="stroke:#222222;stroke-width:1;"/><ellipse cx="140.4023" cy="340.8047" fill="#222222" rx="6" ry="6" style="stroke:#222222;stroke-width:1;"/><line style="stroke:#181818;stroke-width:1;" x1="140.4023" x2="140.4023" y1="30" y2="50"/><polygon fill="#181818" points="136.4023,40,140.4023,50,144.4023,40,140.4023,44" style="stroke:#181818;stroke-width:1;"/><line style="stroke:#181818;stroke-width:1;" x1="140.4023" x2="140.4023" y1="85.9609" y2="105.9609"/><polygon fill="#181818" points="136.4023,95.9609,140.4023,105.9609,144.4023,95.9609,140.4023,99.9609" style="stroke:#181818;stroke-width:1;"/><line style="stroke:#181818;stroke-width:1;" x1="140.4023" x2="140.4023" y1="141.9219" y2="161.9219"/><polygon fill="#181818" points="136.4023,151.9219,140.4023,161.9219,144.4023,151.9219,140.4023,155.9219" style="stroke:#181818;stroke-width:1;"/><line style="stroke:#181818;stroke-width:1;" x1="140.4023" x2="140.4023" y1="197.8828" y2="217.8828"/><polygon fill="#181818" points="136.4023,207.8828,140.4023,217.8828,144.4023,207.8828,140.4023,211.8828" style="stroke:#181818;stroke-width:1;"/><line style="stroke:#181818;stroke-width:1;" x1="140.4023" x2="140.4023" y1="253.8438" y2="273.8438"/><polygon fill="#181818" points="136.4023,263.8438,140.4023,273.8438,144.4023,263.8438,140.4023,267.8438" style="stroke:#181818;stroke-width:1;"/><line style="stroke:#181818;stroke-width:1;" x1="140.4023" x2="140.4023" y1="309.8047" y2="329.8047"/><polygon fill="#181818" points="136.4023,319.8047,140.4023,329.8047,144.4023,319.8047,140.4023,323.8047" style="stroke:#181818;stroke-width:1;"/><!--SRC=[DSn12i8m48NXVKunvsXNQaMwazuWnaUDO4PdNeh7Dz9s-SF7xup6q4r8o0laP8Z4eVAXDk5JuUn3T_xIOgAK-4BB2mgiCLcTZ8DKpsNUUhnlGAtXzRXJlJsH_iihpBDJg38S- -3Kzmy0]--></g></svg>