<svg xmlns="http://www.w3.org/2000/svg" xmlns:xlink="http://www.w3.org/1999/xlink" contentStyleType="text/css" data-diagram-type="CLASS" height="377px" preserveAspectRatio="none" style="width:428px;height:377px;background:#FFFFFF;" version="1.1" viewBox="0 0 428 377" width="428px" zoomAndPan="magnify"> <rect width="100%" height="100%" fill="#FFFFFF"/><defs/><g><!--cluster ID Generators--><g class="cluster" data-entity="ID Generators" data-source-line="1" data-uid="ent0002" id="cluster_ID Generators"><path d="M10.5,195.0137 L104.0859,195.0137 A3.75,3.75 0 0 1 106.5859,197.5137 L113.5859,219.6348 L418.5,219.6348 A2.5,2.5 0 0 1 421,222.1348 L421,367.5137 A2.5,2.5 0 0 1 418.5,370.0137 L10.5,370.0137 A2.5,2.5 0 0 1 8,367.5137 L8,197.5137 A2.5,2.5 0 0 1 10.5,195.0137" fill="none" style="stroke:#000000;stroke-width:1.5;"/><line style="stroke:#000000;stroke-width:1.5;" x1="8" x2="113.5859" y1="219.6348" y2="219.6348"/><text fill="#000000" font-family="sans-serif" font-size="14" font-weight="bold" lengthAdjust="spacing" textLength="92.5859" x="12" y="212.1211">ID Generators</text></g><!--cluster Entities--><g class="cluster" data-entity="Entities" data-source-line="14" data-uid="ent0005" id="cluster_Entities"><path d="M8.5,6.0137 L60.0654,6.0137 A3.75,3.75 0 0 1 62.5654,8.5137 L69.5654,30.6348 L304.5,30.6348 A2.5,2.5 0 0 1 307,33.1348 L307,141.5137 A2.5,2.5 0 0 1 304.5,144.0137 L8.5,144.0137 A2.5,2.5 0 0 1 6,141.5137 L6,8.5137 A2.5,2.5 0 0 1 8.5,6.0137" fill="none" style="stroke:#000000;stroke-width:1.5;"/><line style="stroke:#000000;stroke-width:1.5;" x1="6" x2="69.5654" y1="30.6348" y2="30.6348"/><text fill="#000000" font-family="sans-serif" font-size="14" font-weight="bold" lengthAdjust="spacing" textLength="50.5654" x="10" y="23.1211">Entities</text></g><!--class LendingNumber--><g class="entity" data-entity="LendingNumber" data-source-line="2" data-uid="ent0003" id="entity_LendingNumber"><rect fill="#F1F1F1" height="122.4844" rx="2.5" ry="2.5" style="stroke:#181818;stroke-width:0.5;" width="131.8135" x="24" y="232.0137"/><ellipse cx="39.087" cy="248.0137" fill="#ADD1B2" rx="11" ry="11" style="stroke:#181818;stroke-width:1;"/><path d="M41.8526,243.8887 Q42.0089,243.6699 42.1964,243.5605 Q42.3839,243.4512 42.6026,243.4512 Q42.9776,243.4512 43.212,243.7168 Q43.4464,243.9668 43.4464,244.5762 L43.4464,246.0293 Q43.4464,246.6387 43.212,246.9043 Q42.9776,247.1699 42.6026,247.1699 Q42.2589,247.1699 42.0558,246.9668 Q41.8526,246.7793 41.7433,246.2637 Q41.6964,245.9043 41.5089,245.7168 Q41.1808,245.3418 40.5714,245.123 Q39.962,244.9043 39.337,244.9043 Q38.5714,244.9043 37.9308,245.2324 Q37.3058,245.5605 36.8058,246.3105 Q36.3214,247.0605 36.3214,248.0918 L36.3214,249.1855 Q36.3214,250.4199 37.212,251.248 Q38.1026,252.0605 39.6964,252.0605 Q40.6339,252.0605 41.2901,251.8105 Q41.6808,251.6543 42.1026,251.2168 Q42.3683,250.9512 42.5089,250.873 Q42.6651,250.7949 42.8683,250.7949 Q43.1964,250.7949 43.4464,251.0605 Q43.712,251.3105 43.712,251.6543 Q43.712,251.998 43.3683,252.4043 Q42.8683,252.9824 42.0714,253.3105 Q40.9933,253.7637 39.6964,253.7637 Q38.1808,253.7637 36.9776,253.1387 Q35.9933,252.6387 35.3058,251.5762 Q34.6183,250.498 34.6183,249.2168 L34.6183,248.0605 Q34.6183,246.7324 35.2276,245.5918 Q35.8526,244.4355 36.9464,243.8262 Q38.0401,243.2012 39.2745,243.2012 Q40.0089,243.2012 40.6495,243.373 Q41.3058,243.5293 41.8526,243.8887 Z " fill="#000000"/><text fill="#000000" font-family="sans-serif" font-size="14" lengthAdjust="spacing" textLength="99.6201" x="53.1063" y="253.8105">LendingNumber</text><line style="stroke:#181818;stroke-width:0.5;" x1="25" x2="154.8135" y1="264.0137" y2="264.0137"/><rect fill="none" height="6" style="stroke:#C82930;stroke-width:1;" width="6" x="32" y="275.8242"/><text fill="#000000" font-family="sans-serif" font-size="14" lengthAdjust="spacing" textLength="82.4756" x="44" y="283.1211">prefix : String</text><rect fill="none" height="6" style="stroke:#C82930;stroke-width:1;" width="6" x="32" y="294.4453"/><text fill="#000000" font-family="sans-serif" font-size="14" lengthAdjust="spacing" textLength="53.6895" x="44" y="301.7422">year : int</text><rect fill="none" height="6" style="stroke:#C82930;stroke-width:1;" width="6" x="32" y="313.0664"/><text fill="#000000" font-family="sans-serif" font-size="14" lengthAdjust="spacing" textLength="73.1514" x="44" y="320.3633">counter : int</text><line style="stroke:#181818;stroke-width:0.5;" x1="25" x2="154.8135" y1="327.877" y2="327.877"/><ellipse cx="35" cy="342.6875" fill="#84BE84" rx="3" ry="3" style="stroke:#038048;stroke-width:1;"/><text fill="#000000" font-family="sans-serif" font-size="14" lengthAdjust="spacing" textLength="105.8135" x="44" y="346.9844">toString() : String</text></g><!--class AuthorIdGenerator--><g class="entity" data-entity="AuthorIdGenerator" data-source-line="9" data-uid="ent0004" id="entity_AuthorIdGenerator"><rect fill="#F1F1F1" height="66.6211" rx="2.5" ry="2.5" style="stroke:#181818;stroke-width:0.5;" width="214.3164" x="191" y="259.5137"/><ellipse cx="235.9292" cy="275.5137" fill="#ADD1B2" rx="11" ry="11" style="stroke:#181818;stroke-width:1;"/><path d="M238.6948,271.3887 Q238.8511,271.1699 239.0386,271.0605 Q239.2261,270.9512 239.4448,270.9512 Q239.8198,270.9512 240.0542,271.2168 Q240.2886,271.4668 240.2886,272.0762 L240.2886,273.5293 Q240.2886,274.1387 240.0542,274.4043 Q239.8198,274.6699 239.4448,274.6699 Q239.1011,274.6699 238.8979,274.4668 Q238.6948,274.2793 238.5854,273.7637 Q238.5386,273.4043 238.3511,273.2168 Q238.0229,272.8418 237.4136,272.623 Q236.8042,272.4043 236.1792,272.4043 Q235.4136,272.4043 234.7729,272.7324 Q234.1479,273.0605 233.6479,273.8105 Q233.1636,274.5605 233.1636,275.5918 L233.1636,276.6855 Q233.1636,277.9199 234.0542,278.748 Q234.9448,279.5605 236.5386,279.5605 Q237.4761,279.5605 238.1323,279.3105 Q238.5229,279.1543 238.9448,278.7168 Q239.2104,278.4512 239.3511,278.373 Q239.5073,278.2949 239.7104,278.2949 Q240.0386,278.2949 240.2886,278.5605 Q240.5542,278.8105 240.5542,279.1543 Q240.5542,279.498 240.2104,279.9043 Q239.7104,280.4824 238.9136,280.8105 Q237.8354,281.2637 236.5386,281.2637 Q235.0229,281.2637 233.8198,280.6387 Q232.8354,280.1387 232.1479,279.0762 Q231.4604,277.998 231.4604,276.7168 L231.4604,275.5605 Q231.4604,274.2324 232.0698,273.0918 Q232.6948,271.9355 233.7886,271.3262 Q234.8823,270.7012 236.1167,270.7012 Q236.8511,270.7012 237.4917,270.873 Q238.1479,271.0293 238.6948,271.3887 Z " fill="#000000"/><text fill="#000000" font-family="sans-serif" font-size="14" lengthAdjust="spacing" textLength="115.958" x="256.4292" y="281.3105">AuthorIdGenerator</text><line style="stroke:#181818;stroke-width:0.5;" x1="192" x2="404.3164" y1="291.5137" y2="291.5137"/><line style="stroke:#181818;stroke-width:0.5;" x1="192" x2="404.3164" y1="299.5137" y2="299.5137"/><ellipse cx="202" cy="314.3242" fill="#84BE84" rx="3" ry="3" style="stroke:#038048;stroke-width:1;"/><text fill="#000000" font-family="sans-serif" font-size="14" lengthAdjust="spacing" textLength="188.3164" x="211" y="318.6211">generate(String name) : String</text></g><!--class Lending--><g class="entity" data-entity="Lending" data-source-line="15" data-uid="ent0006" id="entity_Lending"><rect fill="#F1F1F1" height="85.2422" rx="2.5" ry="2.5" style="stroke:#181818;stroke-width:0.5;" width="148.1855" x="22" y="43.0137"/><ellipse cx="66.9292" cy="59.0137" fill="#ADD1B2" rx="11" ry="11" style="stroke:#181818;stroke-width:1;"/><path d="M69.6948,54.8887 Q69.8511,54.6699 70.0386,54.5605 Q70.2261,54.4512 70.4448,54.4512 Q70.8198,54.4512 71.0542,54.7168 Q71.2886,54.9668 71.2886,55.5762 L71.2886,57.0293 Q71.2886,57.6387 71.0542,57.9043 Q70.8198,58.1699 70.4448,58.1699 Q70.1011,58.1699 69.8979,57.9668 Q69.6948,57.7793 69.5854,57.2637 Q69.5386,56.9043 69.3511,56.7168 Q69.0229,56.3418 68.4136,56.123 Q67.8042,55.9043 67.1792,55.9043 Q66.4136,55.9043 65.7729,56.2324 Q65.1479,56.5605 64.6479,57.3105 Q64.1636,58.0605 64.1636,59.0918 L64.1636,60.1855 Q64.1636,61.4199 65.0542,62.248 Q65.9448,63.0605 67.5386,63.0605 Q68.4761,63.0605 69.1323,62.8105 Q69.5229,62.6543 69.9448,62.2168 Q70.2104,61.9512 70.3511,61.873 Q70.5073,61.7949 70.7104,61.7949 Q71.0386,61.7949 71.2886,62.0605 Q71.5542,62.3105 71.5542,62.6543 Q71.5542,62.998 71.2104,63.4043 Q70.7104,63.9824 69.9136,64.3105 Q68.8354,64.7637 67.5386,64.7637 Q66.0229,64.7637 64.8198,64.1387 Q63.8354,63.6387 63.1479,62.5762 Q62.4604,61.498 62.4604,60.2168 L62.4604,59.0605 Q62.4604,57.7324 63.0698,56.5918 Q63.6948,55.4355 64.7886,54.8262 Q65.8823,54.2012 67.1167,54.2012 Q67.8511,54.2012 68.4917,54.373 Q69.1479,54.5293 69.6948,54.8887 Z " fill="#000000"/><text fill="#000000" font-family="sans-serif" font-size="14" lengthAdjust="spacing" textLength="49.8271" x="87.4292" y="64.8105">Lending</text><line style="stroke:#181818;stroke-width:0.5;" x1="23" x2="169.1855" y1="75.0137" y2="75.0137"/><rect fill="none" height="6" style="stroke:#C82930;stroke-width:1;" width="6" x="30" y="86.8242"/><text fill="#000000" font-family="sans-serif" font-size="14" lengthAdjust="spacing" textLength="122.1855" x="42" y="94.1211">id : LendingNumber</text><rect fill="none" height="6" style="stroke:#C82930;stroke-width:1;" width="6" x="30" y="105.4453"/><text fill="#000000" font-family="sans-serif" font-size="14" lengthAdjust="spacing" textLength="11.6689" x="42" y="112.7422">...</text><line style="stroke:#181818;stroke-width:0.5;" x1="23" x2="169.1855" y1="120.2559" y2="120.2559"/></g><!--class Author--><g class="entity" data-entity="Author" data-source-line="20" data-uid="ent0007" id="entity_Author"><rect fill="#F1F1F1" height="85.2422" rx="2.5" ry="2.5" style="stroke:#181818;stroke-width:0.5;" width="85.1377" x="205.5" y="43.0137"/><ellipse cx="225.8503" cy="59.0137" fill="#ADD1B2" rx="11" ry="11" style="stroke:#181818;stroke-width:1;"/><path d="M228.616,54.8887 Q228.7722,54.6699 228.9597,54.5605 Q229.1472,54.4512 229.366,54.4512 Q229.741,54.4512 229.9753,54.7168 Q230.2097,54.9668 230.2097,55.5762 L230.2097,57.0293 Q230.2097,57.6387 229.9753,57.9043 Q229.741,58.1699 229.366,58.1699 Q229.0222,58.1699 228.8191,57.9668 Q228.616,57.7793 228.5066,57.2637 Q228.4597,56.9043 228.2722,56.7168 Q227.9441,56.3418 227.3347,56.123 Q226.7253,55.9043 226.1003,55.9043 Q225.3347,55.9043 224.6941,56.2324 Q224.0691,56.5605 223.5691,57.3105 Q223.0847,58.0605 223.0847,59.0918 L223.0847,60.1855 Q223.0847,61.4199 223.9753,62.248 Q224.866,63.0605 226.4597,63.0605 Q227.3972,63.0605 228.0535,62.8105 Q228.4441,62.6543 228.866,62.2168 Q229.1316,61.9512 229.2722,61.873 Q229.4285,61.7949 229.6316,61.7949 Q229.9597,61.7949 230.2097,62.0605 Q230.4753,62.3105 230.4753,62.6543 Q230.4753,62.998 230.1316,63.4043 Q229.6316,63.9824 228.8347,64.3105 Q227.7566,64.7637 226.4597,64.7637 Q224.9441,64.7637 223.741,64.1387 Q222.7566,63.6387 222.0691,62.5762 Q221.3816,61.498 221.3816,60.2168 L221.3816,59.0605 Q221.3816,57.7324 221.991,56.5918 Q222.616,55.4355 223.7097,54.8262 Q224.8035,54.2012 226.0378,54.2012 Q226.7722,54.2012 227.4128,54.373 Q228.0691,54.5293 228.616,54.8887 Z " fill="#000000"/><text fill="#000000" font-family="sans-serif" font-size="14" lengthAdjust="spacing" textLength="41.248" x="241.0393" y="64.8105">Author</text><line style="stroke:#181818;stroke-width:0.5;" x1="206.5" x2="289.6377" y1="75.0137" y2="75.0137"/><rect fill="none" height="6" style="stroke:#C82930;stroke-width:1;" width="6" x="213.5" y="86.8242"/><text fill="#000000" font-family="sans-serif" font-size="14" lengthAdjust="spacing" textLength="59.1377" x="225.5" y="94.1211">id : String</text><rect fill="none" height="6" style="stroke:#C82930;stroke-width:1;" width="6" x="213.5" y="105.4453"/><text fill="#000000" font-family="sans-serif" font-size="14" lengthAdjust="spacing" textLength="11.6689" x="225.5" y="112.7422">...</text><line style="stroke:#181818;stroke-width:0.5;" x1="206.5" x2="289.6377" y1="120.2559" y2="120.2559"/></g><!--link Lending to LendingNumber--><g class="link" data-entity-1="Lending" data-entity-2="LendingNumber" data-source-line="25" data-uid="lnk8" id="link_Lending_LendingNumber"><path codeLine="25" d="M94.79,128.1037 C93.92,157.8937 92.9045,192.4662 91.9345,225.7962" fill="none" id="Lending-to-LendingNumber" style="stroke:#181818;stroke-width:1;"/><polygon fill="#181818" points="91.76,231.7937,96.0201,222.9138,91.9055,226.7958,88.0235,222.6811,91.76,231.7937" style="stroke:#181818;stroke-width:1;"/><polygon fill="#000000" points="98.8539,174.657,102.0559,165.7017,96.1805,165.53,98.8539,174.657" style="stroke:#000000;stroke-width:1;"/><text fill="#000000" font-family="sans-serif" font-size="13" lengthAdjust="spacing" textLength="27.46" x="108" y="175.042">uses</text></g><!--link Author to AuthorIdGenerator--><g class="link" data-entity-1="Author" data-entity-2="AuthorIdGenerator" data-source-line="26" data-uid="lnk9" id="link_Author_AuthorIdGenerator"><path codeLine="26" d="M258.12,128.1037 C267.53,166.8037 279.9622,217.8736 288.6122,253.4436" fill="none" id="Author-to-AuthorIdGenerator" style="stroke:#181818;stroke-width:1;"/><polygon fill="#181818" points="290.03,259.2737,291.7901,249.5834,288.8485,254.4153,284.0166,251.4737,290.03,259.2737" style="stroke:#181818;stroke-width:1;"/><polygon fill="#000000" points="276.1819,174.5175,276.8995,165.034,271.1882,166.4234,276.1819,174.5175" style="stroke:#000000;stroke-width:1;"/><text fill="#000000" font-family="sans-serif" font-size="13" lengthAdjust="spacing" textLength="27.46" x="284" y="175.042">uses</text></g><!--SRC=[TL3B3e8m4Bpp5HjE608Vm874H6D8Z1U_eCAAZTAITfje3FzkaKSArJtEpixEJClAEwiHmc871nIe64cbGtW7OATyCAtXYABYeZwPve9gtFIJGAlmof-GmPcKPJYR5p9bSIx80Kjf1E4QZu7aS1zjbb9TuBZO6hf9LLIpIyT93FM0OZISWs0DUcfMhvtoxWLnulWxwY8ahwpEeWDdcQRfFwk-YDVIwdhwdYJvglGCZ4OD-PSsolSilvIPsNq0]--></g></svg>