<svg xmlns="http://www.w3.org/2000/svg" xmlns:xlink="http://www.w3.org/1999/xlink" contentStyleType="text/css" data-diagram-type="DESCRIPTION" height="268px" preserveAspectRatio="none" style="width:398px;height:268px;background:#FFFFFF;" version="1.1" viewBox="0 0 398 268" width="398px" zoomAndPan="magnify"><defs/><g><!--cluster Application Layer--><g class="cluster" data-entity="Application Layer" data-source-line="1" data-uid="ent0002" id="cluster_Application Layer"><path d="M8.5,6.0137 L126.9688,6.0137 A3.75,3.75 0 0 1 129.4688,8.5137 L136.4688,30.6348 L388.5,30.6348 A2.5,2.5 0 0 1 391,33.1348 L391,105.5137 A2.5,2.5 0 0 1 388.5,108.0137 L8.5,108.0137 A2.5,2.5 0 0 1 6,105.5137 L6,8.5137 A2.5,2.5 0 0 1 8.5,6.0137" fill="none" style="stroke:#000000;stroke-width:1.5;"/><line style="stroke:#000000;stroke-width:1.5;" x1="6" x2="136.4688" y1="30.6348" y2="30.6348"/><text fill="#000000" font-family="sans-serif" font-size="14" font-weight="bold" lengthAdjust="spacing" textLength="117.4688" x="10" y="23.1211">Application Layer</text></g><!--cluster Utilities--><g class="cluster" data-entity="Utilities" data-source-line="6" data-uid="ent0005" id="cluster_Utilities"><path d="M27.5,159.0137 L79.0654,159.0137 A3.75,3.75 0 0 1 81.5654,161.5137 L88.5654,183.6348 L385.5,183.6348 A2.5,2.5 0 0 1 388,186.1348 L388,258.5137 A2.5,2.5 0 0 1 385.5,261.0137 L27.5,261.0137 A2.5,2.5 0 0 1 25,258.5137 L25,161.5137 A2.5,2.5 0 0 1 27.5,159.0137" fill="none" style="stroke:#000000;stroke-width:1.5;"/><line style="stroke:#000000;stroke-width:1.5;" x1="25" x2="88.5654" y1="183.6348" y2="183.6348"/><text fill="#000000" font-family="sans-serif" font-size="14" font-weight="bold" lengthAdjust="spacing" textLength="50.5654" x="29" y="176.1211">Utilities</text></g><!--entity LendingServiceImpl--><g class="entity" data-entity="LendingServiceImpl" data-source-line="2" data-uid="ent0003" id="entity_LendingServiceImpl"><rect fill="#F1F1F1" height="48.6211" rx="2.5" ry="2.5" style="stroke:#181818;stroke-width:0.5;" width="162.958" x="22.5" y="43.0137"/><rect fill="#F1F1F1" height="10" style="stroke:#181818;stroke-width:0.5;" width="15" x="165.458" y="48.0137"/><rect fill="#F1F1F1" height="2" style="stroke:#181818;stroke-width:0.5;" width="4" x="163.458" y="50.0137"/><rect fill="#F1F1F1" height="2" style="stroke:#181818;stroke-width:0.5;" width="4" x="163.458" y="54.0137"/><text fill="#000000" font-family="sans-serif" font-size="14" lengthAdjust="spacing" textLength="122.958" x="37.5" y="78.1211">LendingServiceImpl</text></g><!--entity AuthorServiceImpl--><g class="entity" data-entity="AuthorServiceImpl" data-source-line="3" data-uid="ent0004" id="entity_AuthorServiceImpl"><rect fill="#F1F1F1" height="48.6211" rx="2.5" ry="2.5" style="stroke:#181818;stroke-width:0.5;" width="154.3789" x="221" y="43.0137"/><rect fill="#F1F1F1" height="10" style="stroke:#181818;stroke-width:0.5;" width="15" x="355.3789" y="48.0137"/><rect fill="#F1F1F1" height="2" style="stroke:#181818;stroke-width:0.5;" width="4" x="353.3789" y="50.0137"/><rect fill="#F1F1F1" height="2" style="stroke:#181818;stroke-width:0.5;" width="4" x="353.3789" y="54.0137"/><text fill="#000000" font-family="sans-serif" font-size="14" lengthAdjust="spacing" textLength="114.3789" x="236" y="78.1211">AuthorServiceImpl</text></g><!--entity LendingNumber--><g class="entity" data-entity="LendingNumber" data-source-line="7" data-uid="ent0006" id="entity_LendingNumber"><rect fill="#F1F1F1" height="48.6211" rx="2.5" ry="2.5" style="stroke:#181818;stroke-width:0.5;" width="139.6201" x="41" y="196.0137"/><rect fill="#F1F1F1" height="10" style="stroke:#181818;stroke-width:0.5;" width="15" x="160.6201" y="201.0137"/><rect fill="#F1F1F1" height="2" style="stroke:#181818;stroke-width:0.5;" width="4" x="158.6201" y="203.0137"/><rect fill="#F1F1F1" height="2" style="stroke:#181818;stroke-width:0.5;" width="4" x="158.6201" y="207.0137"/><text fill="#000000" font-family="sans-serif" font-size="14" lengthAdjust="spacing" textLength="99.6201" x="56" y="231.1211">LendingNumber</text></g><!--entity AuthorIdGenerator--><g class="entity" data-entity="AuthorIdGenerator" data-source-line="8" data-uid="ent0007" id="entity_AuthorIdGenerator"><rect fill="#F1F1F1" height="48.6211" rx="2.5" ry="2.5" style="stroke:#181818;stroke-width:0.5;" width="155.958" x="216" y="196.0137"/><rect fill="#F1F1F1" height="10" style="stroke:#181818;stroke-width:0.5;" width="15" x="351.958" y="201.0137"/><rect fill="#F1F1F1" height="2" style="stroke:#181818;stroke-width:0.5;" width="4" x="349.958" y="203.0137"/><rect fill="#F1F1F1" height="2" style="stroke:#181818;stroke-width:0.5;" width="4" x="349.958" y="207.0137"/><text fill="#000000" font-family="sans-serif" font-size="14" lengthAdjust="spacing" textLength="115.958" x="231" y="231.1211">AuthorIdGenerator</text></g><!--link LendingServiceImpl to LendingNumber--><g class="link" data-entity-1="LendingServiceImpl" data-entity-2="LendingNumber" data-source-line="11" data-uid="lnk8" id="link_LendingServiceImpl_LendingNumber"><path d="M105.09,92.1037 C106.4,120.3137 108.3029,161.2501 109.6129,189.5901" fill="none" id="LendingServiceImpl-to-LendingNumber" style="stroke:#181818;stroke-width:1;"/><polygon fill="#181818" points="109.89,195.5837,113.4702,186.4086,109.6591,190.589,105.4787,186.778,109.89,195.5837" style="stroke:#181818;stroke-width:1;"/><text fill="#000000" font-family="sans-serif" font-size="13" lengthAdjust="spacing" textLength="74.4326" x="109" y="139.042">generates ID</text></g><!--link AuthorServiceImpl to AuthorIdGenerator--><g class="link" data-entity-1="AuthorServiceImpl" data-entity-2="AuthorIdGenerator" data-source-line="12" data-uid="lnk9" id="link_AuthorServiceImpl_AuthorIdGenerator"><path d="M297.38,92.1037 C296.63,120.3137 295.5387,161.2458 294.7887,189.5858" fill="none" id="AuthorServiceImpl-to-AuthorIdGenerator" style="stroke:#181818;stroke-width:1;"/><polygon fill="#181818" points="294.63,195.5837,298.8667,186.6926,294.7623,190.5854,290.8695,186.481,294.63,195.5837" style="stroke:#181818;stroke-width:1;"/><text fill="#000000" font-family="sans-serif" font-size="13" lengthAdjust="spacing" textLength="74.4326" x="297" y="139.042">generates ID</text></g><!--SRC=[AqXCpavCJrLGSYmeoCbCJYp9pCzJy4ciJ2rIKgZcKW22Q9_Kl9JClFJWrAAopEHKpzo2d5Y8X6DfIKP-4OfuBHTN0Sp4q9BCdCoIpDHYT9FyIdEJKejG3F5CSK_DIorABCal0Xk2pL85NLqxT3CKh1JI8HfJYnKyNRYmk0cY3TCQDAq0]--></g></svg>