<svg xmlns="http://www.w3.org/2000/svg" xmlns:xlink="http://www.w3.org/1999/xlink" contentStyleType="text/css" data-diagram-type="SEQUENCE" height="343px" preserveAspectRatio="none" style="width:520px;height:343px;background:#FFFFFF;" version="1.1" viewBox="0 0 520 343" width="520px" zoomAndPan="magnify"> <rect width="100%" height="100%" fill="#FFFFFF"/><defs/><g><g><title>Admin</title><rect fill="#000000" fill-opacity="0.00000" height="176.4551" width="8" x="23.8413" y="83.6211"/><line style="stroke:#181818;stroke-width:0.5;stroke-dasharray:5.0,5.0;" x1="27" x2="27" y1="83.6211" y2="260.0762"/></g><g><title>AuthorController</title><rect fill="#000000" fill-opacity="0.00000" height="176.4551" width="8" x="174.293" y="83.6211"/><line style="stroke:#181818;stroke-width:0.5;stroke-dasharray:5.0,5.0;" x1="177.3242" x2="177.3242" y1="83.6211" y2="260.0762"/></g><g><title>AuthorServiceImpl</title><rect fill="#000000" fill-opacity="0.00000" height="176.4551" width="8" x="306.4512" y="83.6211"/><line style="stroke:#181818;stroke-width:0.5;stroke-dasharray:5.0,5.0;" x1="310.2617" x2="310.2617" y1="83.6211" y2="260.0762"/></g><g><title>AuthorIdGenerator</title><rect fill="#000000" fill-opacity="0.00000" height="176.4551" width="8" x="445.6196" y="83.6211"/><line style="stroke:#181818;stroke-width:0.5;stroke-dasharray:5.0,5.0;" x1="448.6406" x2="448.6406" y1="83.6211" y2="260.0762"/></g><g class="participant participant-head" data-participant="Admin"><text fill="#000000" font-family="sans-serif" font-size="14" lengthAdjust="spacing" textLength="39.6826" x="5" y="80.1074">Admin</text><ellipse cx="27.8413" cy="13.5" fill="#E2E2F0" rx="8" ry="8" style="stroke:#181818;stroke-width:0.5;"/><path d="M27.8413,21.5 L27.8413,48.5 M14.8413,29.5 L40.8413,29.5 M27.8413,48.5 L14.8413,63.5 M27.8413,48.5 L40.8413,63.5" fill="none" style="stroke:#181818;stroke-width:0.5;"/></g><g class="participant participant-tail" data-participant="Admin"><text fill="#000000" font-family="sans-serif" font-size="14" lengthAdjust="spacing" textLength="39.6826" x="5" y="274.1836">Admin</text><ellipse cx="27.8413" cy="286.1973" fill="#E2E2F0" rx="8" ry="8" style="stroke:#181818;stroke-width:0.5;"/><path d="M27.8413,294.1973 L27.8413,321.1973 M14.8413,302.1973 L40.8413,302.1973 M27.8413,321.1973 L14.8413,336.1973 M27.8413,321.1973 L40.8413,336.1973" fill="none" style="stroke:#181818;stroke-width:0.5;"/></g><g class="participant participant-head" data-participant="AuthorController"><rect fill="#E2E2F0" height="32.6211" rx="2.5" ry="2.5" style="stroke:#181818;stroke-width:0.5;" width="115.9375" x="120.3242" y="50"/><text fill="#000000" font-family="sans-serif" font-size="14" lengthAdjust="spacing" textLength="101.9375" x="127.3242" y="72.1074">AuthorController</text></g><g class="participant participant-tail" data-participant="AuthorController"><rect fill="#E2E2F0" height="32.6211" rx="2.5" ry="2.5" style="stroke:#181818;stroke-width:0.5;" width="115.9375" x="120.3242" y="259.0762"/><text fill="#000000" font-family="sans-serif" font-size="14" lengthAdjust="spacing" textLength="101.9375" x="127.3242" y="281.1836">AuthorController</text></g><g class="participant participant-head" data-participant="AuthorServiceImpl"><rect fill="#E2E2F0" height="32.6211" rx="2.5" ry="2.5" style="stroke:#181818;stroke-width:0.5;" width="128.3789" x="246.2617" y="50"/><text fill="#000000" font-family="sans-serif" font-size="14" lengthAdjust="spacing" textLength="114.3789" x="253.2617" y="72.1074">AuthorServiceImpl</text></g><g class="participant participant-tail" data-participant="AuthorServiceImpl"><rect fill="#E2E2F0" height="32.6211" rx="2.5" ry="2.5" style="stroke:#181818;stroke-width:0.5;" width="128.3789" x="246.2617" y="259.0762"/><text fill="#000000" font-family="sans-serif" font-size="14" lengthAdjust="spacing" textLength="114.3789" x="253.2617" y="281.1836">AuthorServiceImpl</text></g><g class="participant participant-head" data-participant="AuthorIdGenerator"><rect fill="#E2E2F0" height="32.6211" rx="2.5" ry="2.5" style="stroke:#181818;stroke-width:0.5;" width="129.958" x="384.6406" y="50"/><text fill="#000000" font-family="sans-serif" font-size="14" lengthAdjust="spacing" textLength="115.958" x="391.6406" y="72.1074">AuthorIdGenerator</text></g><g class="participant participant-tail" data-participant="AuthorIdGenerator"><rect fill="#E2E2F0" height="32.6211" rx="2.5" ry="2.5" style="stroke:#181818;stroke-width:0.5;" width="129.958" x="384.6406" y="259.0762"/><text fill="#000000" font-family="sans-serif" font-size="14" lengthAdjust="spacing" textLength="115.958" x="391.6406" y="281.1836">AuthorIdGenerator</text></g><g class="message" data-participant-1="Admin" data-participant-2="AuthorController"><polygon fill="#181818" points="166.293,112.9121,176.293,116.9121,166.293,120.9121,170.293,116.9121" style="stroke:#181818;stroke-width:1;"/><line style="stroke:#181818;stroke-width:1;" x1="27.8413" x2="172.293" y1="116.9121" y2="116.9121"/><text fill="#000000" font-family="sans-serif" font-size="13" lengthAdjust="spacing" textLength="126.4517" x="34.8413" y="111.6494">createAuthor(request)</text></g><g class="message" data-participant-1="AuthorController" data-participant-2="AuthorServiceImpl"><polygon fill="#181818" points="298.4512,144.2031,308.4512,148.2031,298.4512,152.2031,302.4512,148.2031" style="stroke:#181818;stroke-width:1;"/><line style="stroke:#181818;stroke-width:1;" x1="178.293" x2="304.4512" y1="148.2031" y2="148.2031"/><text fill="#000000" font-family="sans-serif" font-size="13" lengthAdjust="spacing" textLength="83.0908" x="185.293" y="142.9404">createAuthor()</text></g><g class="message" data-participant-1="AuthorServiceImpl" data-participant-2="AuthorIdGenerator"><polygon fill="#181818" points="437.6196,175.4941,447.6196,179.4941,437.6196,183.4941,441.6196,179.4941" style="stroke:#181818;stroke-width:1;"/><line style="stroke:#181818;stroke-width:1;" x1="310.4512" x2="443.6196" y1="179.4941" y2="179.4941"/><text fill="#000000" font-family="sans-serif" font-size="13" lengthAdjust="spacing" textLength="92.498" x="317.4512" y="174.2314">generate(name)</text></g><g class="message" data-participant-1="AuthorIdGenerator" data-participant-2="AuthorServiceImpl"><polygon fill="#181818" points="321.4512,206.7852,311.4512,210.7852,321.4512,214.7852,317.4512,210.7852" style="stroke:#181818;stroke-width:1;"/><line style="stroke:#181818;stroke-width:1;stroke-dasharray:2.0,2.0;" x1="315.4512" x2="448.6196" y1="210.7852" y2="210.7852"/><text fill="#000000" font-family="sans-serif" font-size="13" lengthAdjust="spacing" textLength="10.1182" x="327.4512" y="205.5225">id</text></g><g class="message" data-participant-1="AuthorServiceImpl" data-participant-2="AuthorController"><polygon fill="#181818" points="189.293,238.0762,179.293,242.0762,189.293,246.0762,185.293,242.0762" style="stroke:#181818;stroke-width:1;"/><line style="stroke:#181818;stroke-width:1;stroke-dasharray:2.0,2.0;" x1="183.293" x2="309.4512" y1="242.0762" y2="242.0762"/><text fill="#000000" font-family="sans-serif" font-size="13" lengthAdjust="spacing" textLength="66.479" x="195.293" y="236.8135">AuthorView</text></g><!--SRC=[TO-z3i8m38JtF4N6ClG5690g1jGPYTrAJX0fVnYNlZuLKQk8XitotNTdav74Uh31HPM9nHcNAOeU9daaFgSedBm7DyGh-EqCnf1zGntj1H5CIxnIttpTdtQn-gWDWmH5w1ZF2Iyvg9rnWwlQNth5Qil6LGSjtBtCw285h5njwVyKEjigQRzMLZU7-GC0]--></g></svg>