<svg xmlns="http://www.w3.org/2000/svg" xmlns:xlink="http://www.w3.org/1999/xlink" contentStyleType="text/css" data-diagram-type="DESCRIPTION" height="184px" preserveAspectRatio="none" style="width:322px;height:184px;background:#FFFFFF;" version="1.1" viewBox="0 0 322 184" width="322px" zoomAndPan="magnify"><defs/><g><!--entity Admin--><g class="entity" data-entity="Admin" data-source-line="1" data-uid="ent0002" id="entity_Admin"><ellipse cx="156.3413" cy="14" fill="#F1F1F1" rx="8" ry="8" style="stroke:#181818;stroke-width:0.5;"/><path d="M156.3413,22 L156.3413,49 M143.3413,30 L169.3413,30 M156.3413,49 L143.3413,64 M156.3413,49 L169.3413,64" fill="none" style="stroke:#181818;stroke-width:0.5;"/><text fill="#000000" font-family="sans-serif" font-size="14" lengthAdjust="spacing" textLength="39.6826" x="136.5" y="80.6074">Admin</text></g><!--entity UC1--><g class="entity" data-entity="UC1" data-source-line="2" data-uid="ent0003" id="entity_UC1"><ellipse cx="70.6302" cy="161.6671" fill="#F1F1F1" rx="64.6302" ry="16.1671" style="stroke:#181818;stroke-width:0.5;"/><text fill="#000000" font-family="sans-serif" font-size="14" lengthAdjust="spacing" textLength="87.1582" x="27.0511" y="167.4776">Create Author</text></g><!--entity UC2--><g class="entity" data-entity="UC2" data-source-line="3" data-uid="ent0004" id="entity_UC2"><ellipse cx="243.4847" cy="161.5969" fill="#F1F1F1" rx="73.4847" ry="17.0969" style="stroke:#181818;stroke-width:0.5;"/><text fill="#000000" font-family="sans-serif" font-size="14" lengthAdjust="spacing" textLength="105.8477" x="190.5608" y="167.4075">Register Lending</text></g><!--link Admin to UC1--><g class="link" data-entity-1="Admin" data-entity-2="UC1" data-source-line="5" data-uid="lnk5" id="link_Admin_UC1"><path d="M136.34,72.85 C119.26,95.58 99.0129,122.5422 85.2029,140.9322" fill="none" id="Admin-to-UC1" style="stroke:#181818;stroke-width:1;"/><polygon fill="#181818" points="81.6,145.73,90.2029,140.9352,84.6024,141.7318,83.8058,136.1313,81.6,145.73" style="stroke:#181818;stroke-width:1;"/></g><!--link Admin to UC2--><g class="link" data-entity-1="Admin" data-entity-2="UC2" data-source-line="6" data-uid="lnk6" id="link_Admin_UC2"><path d="M176.68,72.56 C193.64,94.89 213.7001,121.2826 227.8401,139.8926" fill="none" id="Admin-to-UC2" style="stroke:#181818;stroke-width:1;"/><polygon fill="#181818" points="231.47,144.67,229.2101,135.0839,228.4451,140.6888,222.8402,139.9238,231.47,144.67" style="stroke:#181818;stroke-width:1;"/></g><!--SRC=[IqmkoIzIS4p9pSpZAYrEJKuiJbLGSYvAJIn9LN0iBSd8Br9II2nM27KsH4W7fQPd5fUa5YdufEQbPEQbGrKOSN61pL7GrRK3Qq3c6G40]--></g></svg>