<svg xmlns="http://www.w3.org/2000/svg" xmlns:xlink="http://www.w3.org/1999/xlink" contentStyleType="text/css" data-diagram-type="ACTIVITY" height="426px" preserveAspectRatio="none" style="width:334px;height:426px;background:#FFFFFF;" version="1.1" viewBox="0 0 334 426" width="334px" zoomAndPan="magnify"> <rect width="100%" height="100%" fill="#FFFFFF"/><defs/><g><ellipse cx="171.3901" cy="20" fill="#222222" rx="10" ry="10" style="stroke:#222222;stroke-width:1;"/><rect fill="#F1F1F1" height="35.9609" rx="12.5" ry="12.5" style="stroke:#181818;stroke-width:0.5;" width="189.4297" x="76.6753" y="50"/><text fill="#000000" font-family="sans-serif" font-size="12" lengthAdjust="spacing" textLength="169.4297" x="86.6753" y="72.9492">Reader submits lending request</text><rect fill="#F1F1F1" height="35.9609" rx="12.5" ry="12.5" style="stroke:#181818;stroke-width:0.5;" width="190.7656" x="76.0073" y="105.9609"/><text fill="#000000" font-family="sans-serif" font-size="12" lengthAdjust="spacing" textLength="170.7656" x="86.0073" y="128.9102">Validate Book ID and Reader ID</text><polygon fill="#F1F1F1" points="112.6868,161.9219,230.0935,161.9219,242.0935,173.9219,230.0935,185.9219,112.6868,185.9219,100.6868,173.9219,112.6868,161.9219" style="stroke:#181818;stroke-width:0.5;"/><text fill="#000000" font-family="sans-serif" font-size="11" lengthAdjust="spacing" textLength="117.4067" x="112.6868" y="178.4766">Book and Reader exist?</text><text fill="#000000" font-family="sans-serif" font-size="11" lengthAdjust="spacing" textLength="17.1177" x="83.5691" y="171.1611">yes</text><text fill="#000000" font-family="sans-serif" font-size="11" lengthAdjust="spacing" textLength="12.2354" x="242.0935" y="171.1611">no</text><rect fill="#F1F1F1" height="35.9609" rx="12.5" ry="12.5" style="stroke:#181818;stroke-width:0.5;" width="137.416" x="19.6543" y="195.9219"/><text fill="#000000" font-family="sans-serif" font-size="12" lengthAdjust="spacing" textLength="117.416" x="29.6543" y="218.8711">Create Lending object</text><rect fill="#F1F1F1" height="35.9609" rx="12.5" ry="12.5" style="stroke:#181818;stroke-width:0.5;" width="113.4043" x="31.6602" y="251.8828"/><text fill="#000000" font-family="sans-serif" font-size="12" lengthAdjust="spacing" textLength="93.4043" x="41.6602" y="274.832">Save to database</text><rect fill="#F1F1F1" height="35.9609" rx="12.5" ry="12.5" style="stroke:#181818;stroke-width:0.5;" width="154.7246" x="11" y="307.8438"/><text fill="#000000" font-family="sans-serif" font-size="12" lengthAdjust="spacing" textLength="134.7246" x="21" y="330.793">Return success message</text><rect fill="#F1F1F1" height="35.9609" rx="12.5" ry="12.5" style="stroke:#181818;stroke-width:0.5;" width="137.3867" x="185.7246" y="195.9219"/><text fill="#000000" font-family="sans-serif" font-size="12" lengthAdjust="spacing" textLength="117.3867" x="195.7246" y="218.8711">Return error response</text><polygon fill="#F1F1F1" points="171.3901,349.8047,183.3901,361.8047,171.3901,373.8047,159.3901,361.8047,171.3901,349.8047" style="stroke:#181818;stroke-width:0.5;"/><ellipse cx="171.3901" cy="404.8047" fill="none" rx="11" ry="11" style="stroke:#222222;stroke-width:1;"/><ellipse cx="171.3901" cy="404.8047" fill="#222222" rx="6" ry="6" style="stroke:#222222;stroke-width:1;"/><line style="stroke:#181818;stroke-width:1;" x1="171.3901" x2="171.3901" y1="30" y2="50"/><polygon fill="#181818" points="167.3901,40,171.3901,50,175.3901,40,171.3901,44" style="stroke:#181818;stroke-width:1;"/><line style="stroke:#181818;stroke-width:1;" x1="171.3901" x2="171.3901" y1="85.9609" y2="105.9609"/><polygon fill="#181818" points="167.3901,95.9609,171.3901,105.9609,175.3901,95.9609,171.3901,99.9609" style="stroke:#181818;stroke-width:1;"/><line style="stroke:#181818;stroke-width:1;" x1="88.3623" x2="88.3623" y1="231.8828" y2="251.8828"/><polygon fill="#181818" points="84.3623,241.8828,88.3623,251.8828,92.3623,241.8828,88.3623,245.8828" style="stroke:#181818;stroke-width:1;"/><line style="stroke:#181818;stroke-width:1;" x1="88.3623" x2="88.3623" y1="287.8438" y2="307.8438"/><polygon fill="#181818" points="84.3623,297.8438,88.3623,307.8438,92.3623,297.8438,88.3623,301.8438" style="stroke:#181818;stroke-width:1;"/><line style="stroke:#181818;stroke-width:1;" x1="100.6868" x2="88.3623" y1="173.9219" y2="173.9219"/><line style="stroke:#181818;stroke-width:1;" x1="88.3623" x2="88.3623" y1="173.9219" y2="195.9219"/><polygon fill="#181818" points="84.3623,185.9219,88.3623,195.9219,92.3623,185.9219,88.3623,189.9219" style="stroke:#181818;stroke-width:1;"/><line style="stroke:#181818;stroke-width:1;" x1="242.0935" x2="254.418" y1="173.9219" y2="173.9219"/><line style="stroke:#181818;stroke-width:1;" x1="254.418" x2="254.418" y1="173.9219" y2="195.9219"/><polygon fill="#181818" points="250.418,185.9219,254.418,195.9219,258.418,185.9219,254.418,189.9219" style="stroke:#181818;stroke-width:1;"/><line style="stroke:#181818;stroke-width:1;" x1="88.3623" x2="88.3623" y1="343.8047" y2="361.8047"/><line style="stroke:#181818;stroke-width:1;" x1="88.3623" x2="159.3901" y1="361.8047" y2="361.8047"/><polygon fill="#181818" points="149.3901,357.8047,159.3901,361.8047,149.3901,365.8047,153.3901,361.8047" style="stroke:#181818;stroke-width:1;"/><line style="stroke:#181818;stroke-width:1;" x1="254.418" x2="254.418" y1="231.8828" y2="361.8047"/><line style="stroke:#181818;stroke-width:1;" x1="254.418" x2="183.3901" y1="361.8047" y2="361.8047"/><polygon fill="#181818" points="193.3901,357.8047,183.3901,361.8047,193.3901,365.8047,189.3901,361.8047" style="stroke:#181818;stroke-width:1;"/><line style="stroke:#181818;stroke-width:1;" x1="171.3901" x2="171.3901" y1="141.9219" y2="161.9219"/><polygon fill="#181818" points="167.3901,151.9219,171.3901,161.9219,175.3901,151.9219,171.3901,155.9219" style="stroke:#181818;stroke-width:1;"/><line style="stroke:#181818;stroke-width:1;" x1="171.3901" x2="171.3901" y1="373.8047" y2="393.8047"/><polygon fill="#181818" points="167.3901,383.8047,171.3901,393.8047,175.3901,383.8047,171.3901,387.8047" style="stroke:#181818;stroke-width:1;"/><!--SRC=[JOuz3e9048NxFSMKS0KeJ9I6n0eJ-u5zu2hiuivWzFOkX89cYlSptnFbgAPem1QHP6adfq8Zl7L-e8Zt0j7I57SUdMK5dKDuKLqHUqjxgwvAuthADkkWu-j4Jpdf0vwo7oGtHCKbOlrptH6XVQ9BXEJS-0FIG8d3BGisiO4kqQTbNGSHcjBX8LaO1PJva1z2Y374D5hcuDVwYkYDQ9ZD7m00]--></g></svg>