<svg xmlns="http://www.w3.org/2000/svg" xmlns:xlink="http://www.w3.org/1999/xlink" contentStyleType="text/css" data-diagram-type="CLASS" height="572px" preserveAspectRatio="none" style="width:549px;height:572px;background:#FFFFFF;" version="1.1" viewBox="0 0 549 572" width="549px" zoomAndPan="magnify"> <rect width="100%" height="100%" fill="#FFFFFF"/><defs/><g><!--cluster Entities (JPA)--><g class="cluster" data-entity="Entities (JPA)" data-source-line="2" data-uid="ent0002" id="cluster_Entities (JPA)"><path d="M8.5,6.0137 L100.5137,6.0137 A3.75,3.75 0 0 1 103.0137,8.5137 L110.0137,30.6348 L539.5,30.6348 A2.5,2.5 0 0 1 542,33.1348 L542,562.5137 A2.5,2.5 0 0 1 539.5,565.0137 L8.5,565.0137 A2.5,2.5 0 0 1 6,562.5137 L6,8.5137 A2.5,2.5 0 0 1 8.5,6.0137" fill="none" style="stroke:#000000;stroke-width:1.5;"/><line style="stroke:#000000;stroke-width:1.5;" x1="6" x2="110.0137" y1="30.6348" y2="30.6348"/><text fill="#000000" font-family="sans-serif" font-size="14" font-weight="bold" lengthAdjust="spacing" textLength="91.0137" x="10" y="23.1211">Entities (JPA)</text></g><!--class Book--><g class="entity" data-entity="Book" data-source-line="3" data-uid="ent0003" id="entity_Book"><rect fill="#F1F1F1" height="122.4844" rx="2.5" ry="2.5" style="stroke:#181818;stroke-width:0.5;" width="163.751" x="362" y="244.0137"/><ellipse cx="423.6704" cy="260.0137" fill="#ADD1B2" rx="11" ry="11" style="stroke:#181818;stroke-width:1;"/><path d="M426.436,255.8887 Q426.5923,255.6699 426.7798,255.5605 Q426.9673,255.4512 427.186,255.4512 Q427.561,255.4512 427.7954,255.7168 Q428.0298,255.9668 428.0298,256.5762 L428.0298,258.0293 Q428.0298,258.6387 427.7954,258.9043 Q427.561,259.1699 427.186,259.1699 Q426.8423,259.1699 426.6392,258.9668 Q426.436,258.7793 426.3267,258.2637 Q426.2798,257.9043 426.0923,257.7168 Q425.7642,257.3418 425.1548,257.123 Q424.5454,256.9043 423.9204,256.9043 Q423.1548,256.9043 422.5142,257.2324 Q421.8892,257.5605 421.3892,258.3105 Q420.9048,259.0605 420.9048,260.0918 L420.9048,261.1855 Q420.9048,262.4199 421.7954,263.248 Q422.686,264.0605 424.2798,264.0605 Q425.2173,264.0605 425.8735,263.8105 Q426.2642,263.6543 426.686,263.2168 Q426.9517,262.9512 427.0923,262.873 Q427.2485,262.7949 427.4517,262.7949 Q427.7798,262.7949 428.0298,263.0605 Q428.2954,263.3105 428.2954,263.6543 Q428.2954,263.998 427.9517,264.4043 Q427.4517,264.9824 426.6548,265.3105 Q425.5767,265.7637 424.2798,265.7637 Q422.7642,265.7637 421.561,265.1387 Q420.5767,264.6387 419.8892,263.5762 Q419.2017,262.498 419.2017,261.2168 L419.2017,260.0605 Q419.2017,258.7324 419.811,257.5918 Q420.436,256.4355 421.5298,255.8262 Q422.6235,255.2012 423.8579,255.2012 Q424.5923,255.2012 425.2329,255.373 Q425.8892,255.5293 426.436,255.8887 Z " fill="#000000"/><text fill="#000000" font-family="sans-serif" font-size="14" lengthAdjust="spacing" textLength="31.9102" x="444.1704" y="265.8105">Book</text><line style="stroke:#181818;stroke-width:0.5;" x1="363" x2="524.751" y1="276.0137" y2="276.0137"/><rect fill="none" height="6" style="stroke:#C82930;stroke-width:1;" width="6" x="370" y="287.8242"/><text fill="#000000" font-family="sans-serif" font-size="14" lengthAdjust="spacing" textLength="53.71" x="382" y="295.1211">id : Long</text><rect fill="none" height="6" style="stroke:#C82930;stroke-width:1;" width="6" x="370" y="306.4453"/><text fill="#000000" font-family="sans-serif" font-size="14" lengthAdjust="spacing" textLength="70.0273" x="382" y="313.7422">title : String</text><rect fill="none" height="6" style="stroke:#C82930;stroke-width:1;" width="6" x="370" y="325.0664"/><text fill="#000000" font-family="sans-serif" font-size="14" lengthAdjust="spacing" textLength="73.9238" x="382" y="332.3633">isbn : String</text><rect fill="none" height="6" style="stroke:#C82930;stroke-width:1;" width="6" x="370" y="343.6875"/><text fill="#000000" font-family="sans-serif" font-size="14" lengthAdjust="spacing" textLength="137.751" x="382" y="350.9844">publicationDate : Date</text><line style="stroke:#181818;stroke-width:0.5;" x1="363" x2="524.751" y1="358.498" y2="358.498"/></g><!--class Genre--><g class="entity" data-entity="Genre" data-source-line="10" data-uid="ent0004" id="entity_Genre"><rect fill="#F1F1F1" height="85.2422" rx="2.5" ry="2.5" style="stroke:#181818;stroke-width:0.5;" width="109.2617" x="265.5" y="454.5137"/><ellipse cx="297.7582" cy="470.5137" fill="#ADD1B2" rx="11" ry="11" style="stroke:#181818;stroke-width:1;"/><path d="M300.5238,466.3887 Q300.6801,466.1699 300.8676,466.0605 Q301.0551,465.9512 301.2738,465.9512 Q301.6488,465.9512 301.8832,466.2168 Q302.1176,466.4668 302.1176,467.0762 L302.1176,468.5293 Q302.1176,469.1387 301.8832,469.4043 Q301.6488,469.6699 301.2738,469.6699 Q300.9301,469.6699 300.727,469.4668 Q300.5238,469.2793 300.4145,468.7637 Q300.3676,468.4043 300.1801,468.2168 Q299.852,467.8418 299.2426,467.623 Q298.6332,467.4043 298.0082,467.4043 Q297.2426,467.4043 296.602,467.7324 Q295.977,468.0605 295.477,468.8105 Q294.9926,469.5605 294.9926,470.5918 L294.9926,471.6855 Q294.9926,472.9199 295.8832,473.748 Q296.7738,474.5605 298.3676,474.5605 Q299.3051,474.5605 299.9613,474.3105 Q300.352,474.1543 300.7738,473.7168 Q301.0395,473.4512 301.1801,473.373 Q301.3363,473.2949 301.5395,473.2949 Q301.8676,473.2949 302.1176,473.5605 Q302.3832,473.8105 302.3832,474.1543 Q302.3832,474.498 302.0395,474.9043 Q301.5395,475.4824 300.7426,475.8105 Q299.6645,476.2637 298.3676,476.2637 Q296.852,476.2637 295.6488,475.6387 Q294.6645,475.1387 293.977,474.0762 Q293.2895,472.998 293.2895,471.7168 L293.2895,470.5605 Q293.2895,469.2324 293.8988,468.0918 Q294.5238,466.9355 295.6176,466.3262 Q296.7113,465.7012 297.9457,465.7012 Q298.6801,465.7012 299.3207,465.873 Q299.977,466.0293 300.5238,466.3887 Z " fill="#000000"/><text fill="#000000" font-family="sans-serif" font-size="14" lengthAdjust="spacing" textLength="38.9102" x="315.5934" y="476.3105">Genre</text><line style="stroke:#181818;stroke-width:0.5;" x1="266.5" x2="373.7617" y1="486.5137" y2="486.5137"/><rect fill="none" height="6" style="stroke:#C82930;stroke-width:1;" width="6" x="273.5" y="498.3242"/><text fill="#000000" font-family="sans-serif" font-size="14" lengthAdjust="spacing" textLength="53.71" x="285.5" y="505.6211">id : Long</text><rect fill="none" height="6" style="stroke:#C82930;stroke-width:1;" width="6" x="273.5" y="516.9453"/><text fill="#000000" font-family="sans-serif" font-size="14" lengthAdjust="spacing" textLength="83.2617" x="285.5" y="524.2422">name : String</text><line style="stroke:#181818;stroke-width:0.5;" x1="266.5" x2="373.7617" y1="531.7559" y2="531.7559"/></g><!--class Author--><g class="entity" data-entity="Author" data-source-line="15" data-uid="ent0005" id="entity_Author"><rect fill="#F1F1F1" height="103.8633" rx="2.5" ry="2.5" style="stroke:#181818;stroke-width:0.5;" width="109.2617" x="409.5" y="445.0137"/><ellipse cx="440.7062" cy="461.0137" fill="#ADD1B2" rx="11" ry="11" style="stroke:#181818;stroke-width:1;"/><path d="M443.4718,456.8887 Q443.628,456.6699 443.8155,456.5605 Q444.003,456.4512 444.2218,456.4512 Q444.5968,456.4512 444.8312,456.7168 Q445.0655,456.9668 445.0655,457.5762 L445.0655,459.0293 Q445.0655,459.6387 444.8312,459.9043 Q444.5968,460.1699 444.2218,460.1699 Q443.878,460.1699 443.6749,459.9668 Q443.4718,459.7793 443.3624,459.2637 Q443.3155,458.9043 443.128,458.7168 Q442.7999,458.3418 442.1905,458.123 Q441.5812,457.9043 440.9562,457.9043 Q440.1905,457.9043 439.5499,458.2324 Q438.9249,458.5605 438.4249,459.3105 Q437.9405,460.0605 437.9405,461.0918 L437.9405,462.1855 Q437.9405,463.4199 438.8312,464.248 Q439.7218,465.0605 441.3155,465.0605 Q442.253,465.0605 442.9093,464.8105 Q443.2999,464.6543 443.7218,464.2168 Q443.9874,463.9512 444.128,463.873 Q444.2843,463.7949 444.4874,463.7949 Q444.8155,463.7949 445.0655,464.0605 Q445.3312,464.3105 445.3312,464.6543 Q445.3312,464.998 444.9874,465.4043 Q444.4874,465.9824 443.6905,466.3105 Q442.6124,466.7637 441.3155,466.7637 Q439.7999,466.7637 438.5968,466.1387 Q437.6124,465.6387 436.9249,464.5762 Q436.2374,463.498 436.2374,462.2168 L436.2374,461.0605 Q436.2374,459.7324 436.8468,458.5918 Q437.4718,457.4355 438.5655,456.8262 Q439.6593,456.2012 440.8937,456.2012 Q441.628,456.2012 442.2687,456.373 Q442.9249,456.5293 443.4718,456.8887 Z " fill="#000000"/><text fill="#000000" font-family="sans-serif" font-size="14" lengthAdjust="spacing" textLength="41.248" x="458.3075" y="466.8105">Author</text><line style="stroke:#181818;stroke-width:0.5;" x1="410.5" x2="517.7617" y1="477.0137" y2="477.0137"/><rect fill="none" height="6" style="stroke:#C82930;stroke-width:1;" width="6" x="417.5" y="488.8242"/><text fill="#000000" font-family="sans-serif" font-size="14" lengthAdjust="spacing" textLength="53.71" x="429.5" y="496.1211">id : Long</text><rect fill="none" height="6" style="stroke:#C82930;stroke-width:1;" width="6" x="417.5" y="507.4453"/><text fill="#000000" font-family="sans-serif" font-size="14" lengthAdjust="spacing" textLength="83.2617" x="429.5" y="514.7422">name : String</text><rect fill="none" height="6" style="stroke:#C82930;stroke-width:1;" width="6" x="417.5" y="526.0664"/><text fill="#000000" font-family="sans-serif" font-size="14" lengthAdjust="spacing" textLength="66.9238" x="429.5" y="533.3633">bio : String</text><line style="stroke:#181818;stroke-width:0.5;" x1="410.5" x2="517.7617" y1="540.877" y2="540.877"/></g><!--class Reader--><g class="entity" data-entity="Reader" data-source-line="21" data-uid="ent0006" id="entity_Reader"><rect fill="#F1F1F1" height="103.8633" rx="2.5" ry="2.5" style="stroke:#181818;stroke-width:0.5;" width="109.2617" x="199.5" y="253.0137"/><ellipse cx="228.6051" cy="269.0137" fill="#ADD1B2" rx="11" ry="11" style="stroke:#181818;stroke-width:1;"/><path d="M231.3708,264.8887 Q231.527,264.6699 231.7145,264.5605 Q231.902,264.4512 232.1208,264.4512 Q232.4958,264.4512 232.7301,264.7168 Q232.9645,264.9668 232.9645,265.5762 L232.9645,267.0293 Q232.9645,267.6387 232.7301,267.9043 Q232.4958,268.1699 232.1208,268.1699 Q231.777,268.1699 231.5739,267.9668 Q231.3708,267.7793 231.2614,267.2637 Q231.2145,266.9043 231.027,266.7168 Q230.6989,266.3418 230.0895,266.123 Q229.4801,265.9043 228.8551,265.9043 Q228.0895,265.9043 227.4489,266.2324 Q226.8239,266.5605 226.3239,267.3105 Q225.8395,268.0605 225.8395,269.0918 L225.8395,270.1855 Q225.8395,271.4199 226.7301,272.248 Q227.6208,273.0605 229.2145,273.0605 Q230.152,273.0605 230.8083,272.8105 Q231.1989,272.6543 231.6208,272.2168 Q231.8864,271.9512 232.027,271.873 Q232.1833,271.7949 232.3864,271.7949 Q232.7145,271.7949 232.9645,272.0605 Q233.2301,272.3105 233.2301,272.6543 Q233.2301,272.998 232.8864,273.4043 Q232.3864,273.9824 231.5895,274.3105 Q230.5114,274.7637 229.2145,274.7637 Q227.6989,274.7637 226.4958,274.1387 Q225.5114,273.6387 224.8239,272.5762 Q224.1364,271.498 224.1364,270.2168 L224.1364,269.0605 Q224.1364,267.7324 224.7458,266.5918 Q225.3708,265.4355 226.4645,264.8262 Q227.5583,264.2012 228.7926,264.2012 Q229.527,264.2012 230.1676,264.373 Q230.8239,264.5293 231.3708,264.8887 Z " fill="#000000"/><text fill="#000000" font-family="sans-serif" font-size="14" lengthAdjust="spacing" textLength="45.917" x="245.7396" y="274.8105">Reader</text><line style="stroke:#181818;stroke-width:0.5;" x1="200.5" x2="307.7617" y1="285.0137" y2="285.0137"/><rect fill="none" height="6" style="stroke:#C82930;stroke-width:1;" width="6" x="207.5" y="296.8242"/><text fill="#000000" font-family="sans-serif" font-size="14" lengthAdjust="spacing" textLength="53.71" x="219.5" y="304.1211">id : Long</text><rect fill="none" height="6" style="stroke:#C82930;stroke-width:1;" width="6" x="207.5" y="315.4453"/><text fill="#000000" font-family="sans-serif" font-size="14" lengthAdjust="spacing" textLength="83.2617" x="219.5" y="322.7422">name : String</text><rect fill="none" height="6" style="stroke:#C82930;stroke-width:1;" width="6" x="207.5" y="334.0664"/><text fill="#000000" font-family="sans-serif" font-size="14" lengthAdjust="spacing" textLength="81.6963" x="219.5" y="341.3633">email : String</text><line style="stroke:#181818;stroke-width:0.5;" x1="200.5" x2="307.7617" y1="348.877" y2="348.877"/></g><!--class Lending--><g class="entity" data-entity="Lending" data-source-line="27" data-uid="ent0007" id="entity_Lending"><rect fill="#F1F1F1" height="103.8633" rx="2.5" ry="2.5" style="stroke:#181818;stroke-width:0.5;" width="141.9648" x="384" y="52.0137"/><ellipse cx="426.062" cy="68.0137" fill="#ADD1B2" rx="11" ry="11" style="stroke:#181818;stroke-width:1;"/><path d="M428.8276,63.8887 Q428.9838,63.6699 429.1713,63.5605 Q429.3588,63.4512 429.5776,63.4512 Q429.9526,63.4512 430.187,63.7168 Q430.4213,63.9668 430.4213,64.5762 L430.4213,66.0293 Q430.4213,66.6387 430.187,66.9043 Q429.9526,67.1699 429.5776,67.1699 Q429.2338,67.1699 429.0307,66.9668 Q428.8276,66.7793 428.7182,66.2637 Q428.6713,65.9043 428.4838,65.7168 Q428.1557,65.3418 427.5463,65.123 Q426.937,64.9043 426.312,64.9043 Q425.5463,64.9043 424.9057,65.2324 Q424.2807,65.5605 423.7807,66.3105 Q423.2963,67.0605 423.2963,68.0918 L423.2963,69.1855 Q423.2963,70.4199 424.187,71.248 Q425.0776,72.0605 426.6713,72.0605 Q427.6088,72.0605 428.2651,71.8105 Q428.6557,71.6543 429.0776,71.2168 Q429.3432,70.9512 429.4838,70.873 Q429.6401,70.7949 429.8432,70.7949 Q430.1713,70.7949 430.4213,71.0605 Q430.687,71.3105 430.687,71.6543 Q430.687,71.998 430.3432,72.4043 Q429.8432,72.9824 429.0463,73.3105 Q427.9682,73.7637 426.6713,73.7637 Q425.1557,73.7637 423.9526,73.1387 Q422.9682,72.6387 422.2807,71.5762 Q421.5932,70.498 421.5932,69.2168 L421.5932,68.0605 Q421.5932,66.7324 422.2026,65.5918 Q422.8276,64.4355 423.9213,63.8262 Q425.0151,63.2012 426.2495,63.2012 Q426.9838,63.2012 427.6245,63.373 Q428.2807,63.5293 428.8276,63.8887 Z " fill="#000000"/><text fill="#000000" font-family="sans-serif" font-size="14" lengthAdjust="spacing" textLength="49.8271" x="446.0757" y="73.8105">Lending</text><line style="stroke:#181818;stroke-width:0.5;" x1="385" x2="524.9648" y1="84.0137" y2="84.0137"/><rect fill="none" height="6" style="stroke:#C82930;stroke-width:1;" width="6" x="392" y="95.8242"/><text fill="#000000" font-family="sans-serif" font-size="14" lengthAdjust="spacing" textLength="53.71" x="404" y="103.1211">id : Long</text><rect fill="none" height="6" style="stroke:#C82930;stroke-width:1;" width="6" x="392" y="114.4453"/><text fill="#000000" font-family="sans-serif" font-size="14" lengthAdjust="spacing" textLength="115.9648" x="404" y="121.7422">lendingDate : Date</text><rect fill="none" height="6" style="stroke:#C82930;stroke-width:1;" width="6" x="392" y="133.0664"/><text fill="#000000" font-family="sans-serif" font-size="14" lengthAdjust="spacing" textLength="107.3857" x="404" y="140.3633">returnDate : Date</text><line style="stroke:#181818;stroke-width:0.5;" x1="385" x2="524.9648" y1="147.877" y2="147.877"/></g><!--class Fine--><g class="entity" data-entity="Fine" data-source-line="33" data-uid="ent0008" id="entity_Fine"><rect fill="#F1F1F1" height="103.8633" rx="2.5" ry="2.5" style="stroke:#181818;stroke-width:0.5;" width="155.165" x="193.5" y="52.0137"/><ellipse cx="253.2153" cy="68.0137" fill="#ADD1B2" rx="11" ry="11" style="stroke:#181818;stroke-width:1;"/><path d="M255.981,63.8887 Q256.1372,63.6699 256.3247,63.5605 Q256.5122,63.4512 256.731,63.4512 Q257.106,63.4512 257.3403,63.7168 Q257.5747,63.9668 257.5747,64.5762 L257.5747,66.0293 Q257.5747,66.6387 257.3403,66.9043 Q257.106,67.1699 256.731,67.1699 Q256.3872,67.1699 256.1841,66.9668 Q255.981,66.7793 255.8716,66.2637 Q255.8247,65.9043 255.6372,65.7168 Q255.3091,65.3418 254.6997,65.123 Q254.0903,64.9043 253.4653,64.9043 Q252.6997,64.9043 252.0591,65.2324 Q251.4341,65.5605 250.9341,66.3105 Q250.4497,67.0605 250.4497,68.0918 L250.4497,69.1855 Q250.4497,70.4199 251.3403,71.248 Q252.231,72.0605 253.8247,72.0605 Q254.7622,72.0605 255.4185,71.8105 Q255.8091,71.6543 256.231,71.2168 Q256.4966,70.9512 256.6372,70.873 Q256.7935,70.7949 256.9966,70.7949 Q257.3247,70.7949 257.5747,71.0605 Q257.8403,71.3105 257.8403,71.6543 Q257.8403,71.998 257.4966,72.4043 Q256.9966,72.9824 256.1997,73.3105 Q255.1216,73.7637 253.8247,73.7637 Q252.3091,73.7637 251.106,73.1387 Q250.1216,72.6387 249.4341,71.5762 Q248.7466,70.498 248.7466,69.2168 L248.7466,68.0605 Q248.7466,66.7324 249.356,65.5918 Q249.981,64.4355 251.0747,63.8262 Q252.1685,63.2012 253.4028,63.2012 Q254.1372,63.2012 254.7778,63.373 Q255.4341,63.5293 255.981,63.8887 Z " fill="#000000"/><text fill="#000000" font-family="sans-serif" font-size="14" lengthAdjust="spacing" textLength="27.2344" x="273.7153" y="73.8105">Fine</text><line style="stroke:#181818;stroke-width:0.5;" x1="194.5" x2="347.665" y1="84.0137" y2="84.0137"/><rect fill="none" height="6" style="stroke:#C82930;stroke-width:1;" width="6" x="201.5" y="95.8242"/><text fill="#000000" font-family="sans-serif" font-size="14" lengthAdjust="spacing" textLength="53.71" x="213.5" y="103.1211">id : Long</text><rect fill="none" height="6" style="stroke:#C82930;stroke-width:1;" width="6" x="201.5" y="114.4453"/><text fill="#000000" font-family="sans-serif" font-size="14" lengthAdjust="spacing" textLength="129.165" x="213.5" y="121.7422">amount : BigDecimal</text><rect fill="none" height="6" style="stroke:#C82930;stroke-width:1;" width="6" x="201.5" y="133.0664"/><text fill="#000000" font-family="sans-serif" font-size="14" lengthAdjust="spacing" textLength="111.2822" x="213.5" y="140.3633">issuedDate : Date</text><line style="stroke:#181818;stroke-width:0.5;" x1="194.5" x2="347.665" y1="147.877" y2="147.877"/></g><!--class User--><g class="entity" data-entity="User" data-source-line="39" data-uid="ent0009" id="entity_User"><rect fill="#F1F1F1" height="122.4844" rx="2.5" ry="2.5" style="stroke:#181818;stroke-width:0.5;" width="136.4961" x="22" y="43.0137"/><ellipse cx="71.2188" cy="59.0137" fill="#ADD1B2" rx="11" ry="11" style="stroke:#181818;stroke-width:1;"/><path d="M73.9844,54.8887 Q74.1406,54.6699 74.3281,54.5605 Q74.5156,54.4512 74.7344,54.4512 Q75.1094,54.4512 75.3438,54.7168 Q75.5781,54.9668 75.5781,55.5762 L75.5781,57.0293 Q75.5781,57.6387 75.3438,57.9043 Q75.1094,58.1699 74.7344,58.1699 Q74.3906,58.1699 74.1875,57.9668 Q73.9844,57.7793 73.875,57.2637 Q73.8281,56.9043 73.6406,56.7168 Q73.3125,56.3418 72.7031,56.123 Q72.0938,55.9043 71.4688,55.9043 Q70.7031,55.9043 70.0625,56.2324 Q69.4375,56.5605 68.9375,57.3105 Q68.4531,58.0605 68.4531,59.0918 L68.4531,60.1855 Q68.4531,61.4199 69.3438,62.248 Q70.2344,63.0605 71.8281,63.0605 Q72.7656,63.0605 73.4219,62.8105 Q73.8125,62.6543 74.2344,62.2168 Q74.5,61.9512 74.6406,61.873 Q74.7969,61.7949 75,61.7949 Q75.3281,61.7949 75.5781,62.0605 Q75.8438,62.3105 75.8438,62.6543 Q75.8438,62.998 75.5,63.4043 Q75,63.9824 74.2031,64.3105 Q73.125,64.7637 71.8281,64.7637 Q70.3125,64.7637 69.1094,64.1387 Q68.125,63.6387 67.4375,62.5762 Q66.75,61.498 66.75,60.2168 L66.75,59.0605 Q66.75,57.7324 67.3594,56.5918 Q67.9844,55.4355 69.0781,54.8262 Q70.1719,54.2012 71.4063,54.2012 Q72.1406,54.2012 72.7813,54.373 Q73.4375,54.5293 73.9844,54.8887 Z " fill="#000000"/><text fill="#000000" font-family="sans-serif" font-size="14" lengthAdjust="spacing" textLength="29.5586" x="91.7188" y="64.8105">User</text><line style="stroke:#181818;stroke-width:0.5;" x1="23" x2="157.4961" y1="75.0137" y2="75.0137"/><rect fill="none" height="6" style="stroke:#C82930;stroke-width:1;" width="6" x="30" y="86.8242"/><text fill="#000000" font-family="sans-serif" font-size="14" lengthAdjust="spacing" textLength="53.71" x="42" y="94.1211">id : Long</text><rect fill="none" height="6" style="stroke:#C82930;stroke-width:1;" width="6" x="30" y="105.4453"/><text fill="#000000" font-family="sans-serif" font-size="14" lengthAdjust="spacing" textLength="110.4961" x="42" y="112.7422">username : String</text><rect fill="none" height="6" style="stroke:#C82930;stroke-width:1;" width="6" x="30" y="124.0664"/><text fill="#000000" font-family="sans-serif" font-size="14" lengthAdjust="spacing" textLength="108.1582" x="42" y="131.3633">password : String</text><rect fill="none" height="6" style="stroke:#C82930;stroke-width:1;" width="6" x="30" y="142.6875"/><text fill="#000000" font-family="sans-serif" font-size="14" lengthAdjust="spacing" textLength="71.5859" x="42" y="149.9844">role : String</text><line style="stroke:#181818;stroke-width:0.5;" x1="23" x2="157.4961" y1="157.498" y2="157.498"/></g><!--link Book to Genre--><g class="link" data-entity-1="Book" data-entity-2="Genre" data-source-line="46" data-uid="lnk10" id="link_Book_Genre"><path codeLine="46" d="M403.5,366.4237 C396.95,376.2937 390.26,386.4237 384,396.0137 C371.6,414.9937 361.2653,431.0643 349.8353,448.9943" fill="none" id="Book-to-Genre" style="stroke:#181818;stroke-width:1;"/><polygon fill="#181818" points="346.61,454.0537,354.8208,448.6147,349.2977,449.8375,348.075,444.3144,346.61,454.0537" style="stroke:#181818;stroke-width:1;"/><text fill="#000000" font-family="sans-serif" font-size="13" lengthAdjust="spacing" textLength="60.709" x="385" y="411.042">belongsTo</text></g><!--link Book to Author--><g class="link" data-entity-1="Book" data-entity-2="Author" data-source-line="47" data-uid="lnk11" id="link_Book_Author"><path codeLine="47" d="M450.33,366.1337 C452.99,391.4637 455.4433,414.6665 457.9933,438.9465" fill="none" id="Book-to-Author" style="stroke:#181818;stroke-width:1;"/><polygon fill="#181818" points="458.62,444.9137,461.6581,435.5451,458.0977,439.941,453.7018,436.3807,458.62,444.9137" style="stroke:#181818;stroke-width:1;"/><text fill="#000000" font-family="sans-serif" font-size="13" lengthAdjust="spacing" textLength="53.46" x="456" y="411.042">writtenBy</text></g><!--link Lending to Book--><g class="link" data-entity-1="Lending" data-entity-2="Book" data-source-line="48" data-uid="lnk12" id="link_Lending_Book"><path codeLine="48" d="M452.17,156.2637 C450.69,182.9737 449.2125,209.8329 447.6625,237.7629" fill="none" id="Lending-to-Book" style="stroke:#181818;stroke-width:1;"/><polygon fill="#181818" points="447.33,243.7537,451.8226,234.9891,447.6071,238.7614,443.8348,234.5459,447.33,243.7537" style="stroke:#181818;stroke-width:1;"/><text fill="#000000" font-family="sans-serif" font-size="13" lengthAdjust="spacing" textLength="31.0781" x="450" y="210.042">lends</text></g><!--link Lending to Reader--><g class="link" data-entity-1="Lending" data-entity-2="Reader" data-source-line="49" data-uid="lnk13" id="link_Lending_Reader"><path codeLine="49" d="M403.24,156.2637 C373.23,185.9737 339.8332,219.0317 309.8532,248.7217" fill="none" id="Lending-to-Reader" style="stroke:#181818;stroke-width:1;"/><polygon fill="#181818" points="305.59,252.9437,314.7995,249.4529,309.1427,249.4254,309.1702,243.7686,305.59,252.9437" style="stroke:#181818;stroke-width:1;"/><text fill="#000000" font-family="sans-serif" font-size="13" lengthAdjust="spacing" textLength="69.3672" x="361" y="210.042">borrowedBy</text></g><!--link Fine to Reader--><g class="link" data-entity-1="Fine" data-entity-2="Reader" data-source-line="50" data-uid="lnk14" id="link_Fine_Reader"><path codeLine="50" d="M251.47,156.2137 C247.55,168.7237 244.01,182.2037 242,195.0137 C239.04,213.8237 239.4051,228.6206 241.9451,246.9206" fill="none" id="Fine-to-Reader" style="stroke:#181818;stroke-width:1;"/><polygon fill="#181818" points="242.77,252.8637,245.4947,243.3992,242.0826,247.9111,237.5707,244.4991,242.77,252.8637" style="stroke:#181818;stroke-width:1;"/><text fill="#000000" font-family="sans-serif" font-size="13" lengthAdjust="spacing" textLength="66.479" x="243" y="210.042">imposedOn</text></g><!--SRC=[dL9BQiCm5Dpx52AhTk4BU568ILieWPH-3Y1R3_SHwJsZ3wQKtBsox4ASkdQ9DeAPqGoCffNrKJOWDlVaqICuSVFqlBtTYAzCn5DhwPmecOyZq9zSe1A5s3CrPrXyhY72hzxYX41NqHpUXafZBJqoxQJld_PN4fooi_H780khyIJDHVh4P1ly1zihN0QyGbumVm6fu7fpC1BrWlqUI4LYrLyFkiio1zA23tQvw0UazPwbuK0-uYKsEwZHI3tvQnT0BQQyktzK5QBehxhQwDAnLNESPJs_WZJXFByRrrI82dICT6yyfSUT5AApw3rG-Pdudo_e9KbRfBRTBtASGlHdQxa3DHgaRYS2D2qxK0VAJjat]--></g></svg>