<svg xmlns="http://www.w3.org/2000/svg" xmlns:xlink="http://www.w3.org/1999/xlink" contentStyleType="text/css" data-diagram-type="DESCRIPTION" height="476px" preserveAspectRatio="none" style="width:1100px;height:476px;background:#FFFFFF;" version="1.1" viewBox="0 0 1100 476" width="1100px" zoomAndPan="magnify"><defs/><g><!--cluster Database Layer--><g class="cluster" data-entity="Database Layer" data-source-line="2" data-uid="ent0002" id="cluster_Database Layer"><path d="M8.5,258.0137 L113.0029,258.0137 A3.75,3.75 0 0 1 115.5029,260.5137 L122.5029,282.6348 L1090.5,282.6348 A2.5,2.5 0 0 1 1093,285.1348 L1093,466.5137 A2.5,2.5 0 0 1 1090.5,469.0137 L8.5,469.0137 A2.5,2.5 0 0 1 6,466.5137 L6,260.5137 A2.5,2.5 0 0 1 8.5,258.0137" fill="none" style="stroke:#000000;stroke-width:1.5;"/><line style="stroke:#000000;stroke-width:1.5;" x1="6" x2="122.5029" y1="282.6348" y2="282.6348"/><text fill="#000000" font-family="sans-serif" font-size="14" font-weight="bold" lengthAdjust="spacing" textLength="103.5029" x="10" y="275.1211">Database Layer</text></g><!--cluster Service Layer--><g class="cluster" data-entity="Service Layer" data-source-line="12" data-uid="ent0010" id="cluster_Service Layer"><path d="M48.5,132.0137 L140.5684,132.0137 A3.75,3.75 0 0 1 143.0684,134.5137 L150.0684,156.6348 L686.5,156.6348 A2.5,2.5 0 0 1 689,159.1348 L689,231.5137 A2.5,2.5 0 0 1 686.5,234.0137 L48.5,234.0137 A2.5,2.5 0 0 1 46,231.5137 L46,134.5137 A2.5,2.5 0 0 1 48.5,132.0137" fill="none" style="stroke:#000000;stroke-width:1.5;"/><line style="stroke:#000000;stroke-width:1.5;" x1="46" x2="150.0684" y1="156.6348" y2="156.6348"/><text fill="#000000" font-family="sans-serif" font-size="14" font-weight="bold" lengthAdjust="spacing" textLength="91.0684" x="50" y="149.1211">Service Layer</text></g><!--cluster Controller Layer--><g class="cluster" data-entity="Controller Layer" data-source-line="19" data-uid="ent0015" id="cluster_Controller Layer"><path d="M23.5,6.0137 L132.6377,6.0137 A3.75,3.75 0 0 1 135.1377,8.5137 L142.1377,30.6348 L717.5,30.6348 A2.5,2.5 0 0 1 720,33.1348 L720,105.5137 A2.5,2.5 0 0 1 717.5,108.0137 L23.5,108.0137 A2.5,2.5 0 0 1 21,105.5137 L21,8.5137 A2.5,2.5 0 0 1 23.5,6.0137" fill="none" style="stroke:#000000;stroke-width:1.5;"/><line style="stroke:#000000;stroke-width:1.5;" x1="21" x2="142.1377" y1="30.6348" y2="30.6348"/><text fill="#000000" font-family="sans-serif" font-size="14" font-weight="bold" lengthAdjust="spacing" textLength="108.1377" x="25" y="23.1211">Controller Layer</text></g><!--entity BookRepository--><g class="entity" data-entity="BookRepository" data-source-line="3" data-uid="ent0003" id="entity_BookRepository"><rect fill="#F1F1F1" height="48.6211" rx="2.5" ry="2.5" style="stroke:#181818;stroke-width:0.5;" width="138.8271" x="573.5" y="295.0137"/><rect fill="#F1F1F1" height="10" style="stroke:#181818;stroke-width:0.5;" width="15" x="692.3271" y="300.0137"/><rect fill="#F1F1F1" height="2" style="stroke:#181818;stroke-width:0.5;" width="4" x="690.3271" y="302.0137"/><rect fill="#F1F1F1" height="2" style="stroke:#181818;stroke-width:0.5;" width="4" x="690.3271" y="306.0137"/><text fill="#000000" font-family="sans-serif" font-size="14" lengthAdjust="spacing" textLength="98.8271" x="588.5" y="330.1211">BookRepository</text></g><!--entity ReaderRepository--><g class="entity" data-entity="ReaderRepository" data-source-line="4" data-uid="ent0004" id="entity_ReaderRepository"><rect fill="#F1F1F1" height="48.6211" rx="2.5" ry="2.5" style="stroke:#181818;stroke-width:0.5;" width="152.834" x="385.5" y="295.0137"/><rect fill="#F1F1F1" height="10" style="stroke:#181818;stroke-width:0.5;" width="15" x="518.334" y="300.0137"/><rect fill="#F1F1F1" height="2" style="stroke:#181818;stroke-width:0.5;" width="4" x="516.334" y="302.0137"/><rect fill="#F1F1F1" height="2" style="stroke:#181818;stroke-width:0.5;" width="4" x="516.334" y="306.0137"/><text fill="#000000" font-family="sans-serif" font-size="14" lengthAdjust="spacing" textLength="112.834" x="400.5" y="330.1211">ReaderRepository</text></g><!--entity LendingRepository--><g class="entity" data-entity="LendingRepository" data-source-line="5" data-uid="ent0005" id="entity_LendingRepository"><rect fill="#F1F1F1" height="48.6211" rx="2.5" ry="2.5" style="stroke:#181818;stroke-width:0.5;" width="156.7441" x="193.5" y="295.0137"/><rect fill="#F1F1F1" height="10" style="stroke:#181818;stroke-width:0.5;" width="15" x="330.2441" y="300.0137"/><rect fill="#F1F1F1" height="2" style="stroke:#181818;stroke-width:0.5;" width="4" x="328.2441" y="302.0137"/><rect fill="#F1F1F1" height="2" style="stroke:#181818;stroke-width:0.5;" width="4" x="328.2441" y="306.0137"/><text fill="#000000" font-family="sans-serif" font-size="14" lengthAdjust="spacing" textLength="116.7441" x="208.5" y="330.1211">LendingRepository</text></g><!--entity AuthorRepository--><g class="entity" data-entity="AuthorRepository" data-source-line="6" data-uid="ent0006" id="entity_AuthorRepository"><rect fill="#F1F1F1" height="48.6211" rx="2.5" ry="2.5" style="stroke:#181818;stroke-width:0.5;" width="148.165" x="748" y="295.0137"/><rect fill="#F1F1F1" height="10" style="stroke:#181818;stroke-width:0.5;" width="15" x="876.165" y="300.0137"/><rect fill="#F1F1F1" height="2" style="stroke:#181818;stroke-width:0.5;" width="4" x="874.165" y="302.0137"/><rect fill="#F1F1F1" height="2" style="stroke:#181818;stroke-width:0.5;" width="4" x="874.165" y="306.0137"/><text fill="#000000" font-family="sans-serif" font-size="14" lengthAdjust="spacing" textLength="108.165" x="763" y="330.1211">AuthorRepository</text></g><!--entity GenreRepository--><g class="entity" data-entity="GenreRepository" data-source-line="7" data-uid="ent0007" id="entity_GenreRepository"><rect fill="#F1F1F1" height="48.6211" rx="2.5" ry="2.5" style="stroke:#181818;stroke-width:0.5;" width="145.8271" x="931" y="295.0137"/><rect fill="#F1F1F1" height="10" style="stroke:#181818;stroke-width:0.5;" width="15" x="1056.8271" y="300.0137"/><rect fill="#F1F1F1" height="2" style="stroke:#181818;stroke-width:0.5;" width="4" x="1054.8271" y="302.0137"/><rect fill="#F1F1F1" height="2" style="stroke:#181818;stroke-width:0.5;" width="4" x="1054.8271" y="306.0137"/><text fill="#000000" font-family="sans-serif" font-size="14" lengthAdjust="spacing" textLength="105.8271" x="946" y="330.1211">GenreRepository</text></g><!--entity FineRepository--><g class="entity" data-entity="FineRepository" data-source-line="8" data-uid="ent0008" id="entity_FineRepository"><rect fill="#F1F1F1" height="48.6211" rx="2.5" ry="2.5" style="stroke:#181818;stroke-width:0.5;" width="134.1514" x="755" y="404.0137"/><rect fill="#F1F1F1" height="10" style="stroke:#181818;stroke-width:0.5;" width="15" x="869.1514" y="409.0137"/><rect fill="#F1F1F1" height="2" style="stroke:#181818;stroke-width:0.5;" width="4" x="867.1514" y="411.0137"/><rect fill="#F1F1F1" height="2" style="stroke:#181818;stroke-width:0.5;" width="4" x="867.1514" y="415.0137"/><text fill="#000000" font-family="sans-serif" font-size="14" lengthAdjust="spacing" textLength="94.1514" x="770" y="439.1211">FineRepository</text></g><!--entity UserRepository--><g class="entity" data-entity="UserRepository" data-source-line="9" data-uid="ent0009" id="entity_UserRepository"><rect fill="#F1F1F1" height="48.6211" rx="2.5" ry="2.5" style="stroke:#181818;stroke-width:0.5;" width="136.4756" x="22" y="295.0137"/><rect fill="#F1F1F1" height="10" style="stroke:#181818;stroke-width:0.5;" width="15" x="138.4756" y="300.0137"/><rect fill="#F1F1F1" height="2" style="stroke:#181818;stroke-width:0.5;" width="4" x="136.4756" y="302.0137"/><rect fill="#F1F1F1" height="2" style="stroke:#181818;stroke-width:0.5;" width="4" x="136.4756" y="306.0137"/><text fill="#000000" font-family="sans-serif" font-size="14" lengthAdjust="spacing" textLength="96.4756" x="37" y="330.1211">UserRepository</text></g><!--entity BookService--><g class="entity" data-entity="BookService" data-source-line="13" data-uid="ent0011" id="entity_BookService"><rect fill="#F1F1F1" height="48.6211" rx="2.5" ry="2.5" style="stroke:#181818;stroke-width:0.5;" width="118.5928" x="553.5" y="169.0137"/><rect fill="#F1F1F1" height="10" style="stroke:#181818;stroke-width:0.5;" width="15" x="652.0928" y="174.0137"/><rect fill="#F1F1F1" height="2" style="stroke:#181818;stroke-width:0.5;" width="4" x="650.0928" y="176.0137"/><rect fill="#F1F1F1" height="2" style="stroke:#181818;stroke-width:0.5;" width="4" x="650.0928" y="180.0137"/><text fill="#000000" font-family="sans-serif" font-size="14" lengthAdjust="spacing" textLength="78.5928" x="568.5" y="204.1211">BookService</text></g><!--entity ReaderService--><g class="entity" data-entity="ReaderService" data-source-line="14" data-uid="ent0012" id="entity_ReaderService"><rect fill="#F1F1F1" height="48.6211" rx="2.5" ry="2.5" style="stroke:#181818;stroke-width:0.5;" width="132.5996" x="385.5" y="169.0137"/><rect fill="#F1F1F1" height="10" style="stroke:#181818;stroke-width:0.5;" width="15" x="498.0996" y="174.0137"/><rect fill="#F1F1F1" height="2" style="stroke:#181818;stroke-width:0.5;" width="4" x="496.0996" y="176.0137"/><rect fill="#F1F1F1" height="2" style="stroke:#181818;stroke-width:0.5;" width="4" x="496.0996" y="180.0137"/><text fill="#000000" font-family="sans-serif" font-size="14" lengthAdjust="spacing" textLength="92.5996" x="400.5" y="204.1211">ReaderService</text></g><!--entity LendingService--><g class="entity" data-entity="LendingService" data-source-line="15" data-uid="ent0013" id="entity_LendingService"><rect fill="#F1F1F1" height="48.6211" rx="2.5" ry="2.5" style="stroke:#181818;stroke-width:0.5;" width="136.5098" x="213.5" y="169.0137"/><rect fill="#F1F1F1" height="10" style="stroke:#181818;stroke-width:0.5;" width="15" x="330.0098" y="174.0137"/><rect fill="#F1F1F1" height="2" style="stroke:#181818;stroke-width:0.5;" width="4" x="328.0098" y="176.0137"/><rect fill="#F1F1F1" height="2" style="stroke:#181818;stroke-width:0.5;" width="4" x="328.0098" y="180.0137"/><text fill="#000000" font-family="sans-serif" font-size="14" lengthAdjust="spacing" textLength="96.5098" x="228.5" y="204.1211">LendingService</text></g><!--entity UserService--><g class="entity" data-entity="UserService" data-source-line="16" data-uid="ent0014" id="entity_UserService"><rect fill="#F1F1F1" height="48.6211" rx="2.5" ry="2.5" style="stroke:#181818;stroke-width:0.5;" width="116.2412" x="62" y="169.0137"/><rect fill="#F1F1F1" height="10" style="stroke:#181818;stroke-width:0.5;" width="15" x="158.2412" y="174.0137"/><rect fill="#F1F1F1" height="2" style="stroke:#181818;stroke-width:0.5;" width="4" x="156.2412" y="176.0137"/><rect fill="#F1F1F1" height="2" style="stroke:#181818;stroke-width:0.5;" width="4" x="156.2412" y="180.0137"/><text fill="#000000" font-family="sans-serif" font-size="14" lengthAdjust="spacing" textLength="76.2412" x="77" y="204.1211">UserService</text></g><!--entity BookController--><g class="entity" data-entity="BookController" data-source-line="20" data-uid="ent0016" id="entity_BookController"><rect fill="#F1F1F1" height="48.6211" rx="2.5" ry="2.5" style="stroke:#181818;stroke-width:0.5;" width="132.5996" x="570.5" y="43.0137"/><rect fill="#F1F1F1" height="10" style="stroke:#181818;stroke-width:0.5;" width="15" x="683.0996" y="48.0137"/><rect fill="#F1F1F1" height="2" style="stroke:#181818;stroke-width:0.5;" width="4" x="681.0996" y="50.0137"/><rect fill="#F1F1F1" height="2" style="stroke:#181818;stroke-width:0.5;" width="4" x="681.0996" y="54.0137"/><text fill="#000000" font-family="sans-serif" font-size="14" lengthAdjust="spacing" textLength="92.5996" x="585.5" y="78.1211">BookController</text></g><!--entity ReaderController--><g class="entity" data-entity="ReaderController" data-source-line="21" data-uid="ent0017" id="entity_ReaderController"><rect fill="#F1F1F1" height="48.6211" rx="2.5" ry="2.5" style="stroke:#181818;stroke-width:0.5;" width="146.6064" x="388.5" y="43.0137"/><rect fill="#F1F1F1" height="10" style="stroke:#181818;stroke-width:0.5;" width="15" x="515.1064" y="48.0137"/><rect fill="#F1F1F1" height="2" style="stroke:#181818;stroke-width:0.5;" width="4" x="513.1064" y="50.0137"/><rect fill="#F1F1F1" height="2" style="stroke:#181818;stroke-width:0.5;" width="4" x="513.1064" y="54.0137"/><text fill="#000000" font-family="sans-serif" font-size="14" lengthAdjust="spacing" textLength="106.6064" x="403.5" y="78.1211">ReaderController</text></g><!--entity LendingController--><g class="entity" data-entity="LendingController" data-source-line="22" data-uid="ent0018" id="entity_LendingController"><rect fill="#F1F1F1" height="48.6211" rx="2.5" ry="2.5" style="stroke:#181818;stroke-width:0.5;" width="150.5166" x="202.5" y="43.0137"/><rect fill="#F1F1F1" height="10" style="stroke:#181818;stroke-width:0.5;" width="15" x="333.0166" y="48.0137"/><rect fill="#F1F1F1" height="2" style="stroke:#181818;stroke-width:0.5;" width="4" x="331.0166" y="50.0137"/><rect fill="#F1F1F1" height="2" style="stroke:#181818;stroke-width:0.5;" width="4" x="331.0166" y="54.0137"/><text fill="#000000" font-family="sans-serif" font-size="14" lengthAdjust="spacing" textLength="110.5166" x="217.5" y="78.1211">LendingController</text></g><!--entity UserController--><g class="entity" data-entity="UserController" data-source-line="23" data-uid="ent0019" id="entity_UserController"><rect fill="#F1F1F1" height="48.6211" rx="2.5" ry="2.5" style="stroke:#181818;stroke-width:0.5;" width="130.248" x="37" y="43.0137"/><rect fill="#F1F1F1" height="10" style="stroke:#181818;stroke-width:0.5;" width="15" x="147.248" y="48.0137"/><rect fill="#F1F1F1" height="2" style="stroke:#181818;stroke-width:0.5;" width="4" x="145.248" y="50.0137"/><rect fill="#F1F1F1" height="2" style="stroke:#181818;stroke-width:0.5;" width="4" x="145.248" y="54.0137"/><text fill="#000000" font-family="sans-serif" font-size="14" lengthAdjust="spacing" textLength="90.248" x="52" y="78.1211">UserController</text></g><!--link BookController to BookService--><g class="link" data-entity-1="BookController" data-entity-2="BookService" data-source-line="26" data-uid="lnk20" id="link_BookController_BookService"><path d="M632.43,92.1337 C628.16,114.1937 622.9617,141.0633 618.6917,163.0933" fill="none" id="BookController-to-BookService" style="stroke:#181818;stroke-width:1;"/><polygon fill="#181818" points="617.55,168.9837,623.1895,160.9093,618.5014,164.075,615.3357,159.387,617.55,168.9837" style="stroke:#181818;stroke-width:1;"/></g><!--link ReaderController to ReaderService--><g class="link" data-entity-1="ReaderController" data-entity-2="ReaderService" data-source-line="27" data-uid="lnk21" id="link_ReaderController_ReaderService"><path d="M460.1,92.1337 C458.32,114.1937 456.1505,140.9729 454.3805,163.0029" fill="none" id="ReaderController-to-ReaderService" style="stroke:#181818;stroke-width:1;"/><polygon fill="#181818" points="453.9,168.9837,458.6079,160.3329,454.3004,163.9997,450.6336,159.6922,453.9,168.9837" style="stroke:#181818;stroke-width:1;"/></g><!--link LendingController to LendingService--><g class="link" data-entity-1="LendingController" data-entity-2="LendingService" data-source-line="28" data-uid="lnk22" id="link_LendingController_LendingService"><path d="M278.76,92.1337 C279.47,114.1937 280.3367,140.9568 281.0467,162.9868" fill="none" id="LendingController-to-LendingService" style="stroke:#181818;stroke-width:1;"/><polygon fill="#181818" points="281.24,168.9837,284.948,159.8595,281.0789,163.9863,276.9522,160.1172,281.24,168.9837" style="stroke:#181818;stroke-width:1;"/></g><!--link UserController to UserService--><g class="link" data-entity-1="UserController" data-entity-2="UserService" data-source-line="29" data-uid="lnk23" id="link_UserController_UserService"><path d="M105.43,92.1337 C108.63,114.1937 112.5302,141.0156 115.7202,163.0456" fill="none" id="UserController-to-UserService" style="stroke:#181818;stroke-width:1;"/><polygon fill="#181818" points="116.58,168.9837,119.2489,159.5033,115.8635,164.0353,111.3315,160.6498,116.58,168.9837" style="stroke:#181818;stroke-width:1;"/></g><!--link BookService to BookRepository--><g class="link" data-entity-1="BookService" data-entity-2="BookRepository" data-source-line="31" data-uid="lnk24" id="link_BookService_BookRepository"><path d="M618.71,218.1337 C624.05,240.1937 630.5691,267.1219 635.8991,289.1519" fill="none" id="BookService-to-BookRepository" style="stroke:#181818;stroke-width:1;"/><polygon fill="#181818" points="637.31,294.9837,639.0814,285.2954,636.1342,290.1239,631.3057,287.1767,637.31,294.9837" style="stroke:#181818;stroke-width:1;"/></g><!--link ReaderService to ReaderRepository--><g class="link" data-entity-1="ReaderService" data-entity-2="ReaderRepository" data-source-line="32" data-uid="lnk25" id="link_ReaderService_ReaderRepository"><path d="M453.9,218.1337 C455.68,240.1937 457.8495,266.9729 459.6195,289.0029" fill="none" id="ReaderService-to-ReaderRepository" style="stroke:#181818;stroke-width:1;"/><polygon fill="#181818" points="460.1,294.9837,463.3664,285.6922,459.6996,289.9997,455.3921,286.3329,460.1,294.9837" style="stroke:#181818;stroke-width:1;"/></g><!--link LendingService to LendingRepository--><g class="link" data-entity-1="LendingService" data-entity-2="LendingRepository" data-source-line="33" data-uid="lnk26" id="link_LendingService_LendingRepository"><path d="M280.1,218.1337 C278.32,240.1937 276.1505,266.9729 274.3805,289.0029" fill="none" id="LendingService-to-LendingRepository" style="stroke:#181818;stroke-width:1;"/><polygon fill="#181818" points="273.9,294.9837,278.6079,286.3329,274.3004,289.9997,270.6336,285.6922,273.9,294.9837" style="stroke:#181818;stroke-width:1;"/></g><!--link UserService to UserRepository--><g class="link" data-entity-1="UserService" data-entity-2="UserRepository" data-source-line="34" data-uid="lnk27" id="link_UserService_UserRepository"><path d="M114.29,218.1337 C108.95,240.1937 102.4309,267.1219 97.1009,289.1519" fill="none" id="UserService-to-UserRepository" style="stroke:#181818;stroke-width:1;"/><polygon fill="#181818" points="95.69,294.9837,101.6943,287.1767,96.8658,290.1239,93.9186,285.2954,95.69,294.9837" style="stroke:#181818;stroke-width:1;"/></g><!--SRC=[RP7D3e8m40RlVOg6EwzWua_qmWdZoNYeiC46qfAscX3ZkmifIdSNZiCNPbfwLRMg0PaTL51tvK4MQW2NoRUGutFTMTkMq5klWtN3BS8IL0sEuG9ChKt3-FOP7fRFJs0SC7hKXiEBnxgF4Fql_0pkfQkrxlaDYiPiBiPmalr9QjfR4vpjEd0hikKbyZ4yAncVh2aSnVIxCiytv6JS4aVai2lMkACNG3FY2js8G0LBK_f_Y3zjGZEYHqrec1OiJUda2m00]--></g></svg>