<svg xmlns="http://www.w3.org/2000/svg" xmlns:xlink="http://www.w3.org/1999/xlink" contentStyleType="text/css" data-diagram-type="DESCRIPTION" height="528px" preserveAspectRatio="none" style="width:755px;height:528px;background:#FFFFFF;" version="1.1" viewBox="0 0 755 528" width="755px" zoomAndPan="magnify"><defs/><g><!--cluster pt.psoft.g1--><g class="cluster" data-entity="pt.psoft.g1" data-source-line="2" data-uid="ent0002" id="cluster_pt.psoft.g1"><path d="M8.5,6.0137 L81.0449,6.0137 A3.75,3.75 0 0 1 83.5449,8.5137 L90.5449,30.6348 L745.5,30.6348 A2.5,2.5 0 0 1 748,33.1348 L748,518.5137 A2.5,2.5 0 0 1 745.5,521.0137 L8.5,521.0137 A2.5,2.5 0 0 1 6,518.5137 L6,8.5137 A2.5,2.5 0 0 1 8.5,6.0137" fill="none" style="stroke:#000000;stroke-width:1.5;"/><line style="stroke:#000000;stroke-width:1.5;" x1="6" x2="90.5449" y1="30.6348" y2="30.6348"/><text fill="#000000" font-family="sans-serif" font-size="14" font-weight="bold" lengthAdjust="spacing" textLength="71.5449" x="10" y="23.1211">pt.psoft.g1</text></g><!--cluster controller--><g class="cluster" data-entity="controller" data-source-line="3" data-uid="ent0003" id="cluster_controller"><path d="M377.5,51.0137 L443.0654,51.0137 A3.75,3.75 0 0 1 445.5654,53.5137 L452.5654,75.6348 L721.5,75.6348 A2.5,2.5 0 0 1 724,78.1348 L724,259.5137 A2.5,2.5 0 0 1 721.5,262.0137 L377.5,262.0137 A2.5,2.5 0 0 1 375,259.5137 L375,53.5137 A2.5,2.5 0 0 1 377.5,51.0137" fill="none" style="stroke:#000000;stroke-width:1.5;"/><line style="stroke:#000000;stroke-width:1.5;" x1="375" x2="452.5654" y1="75.6348" y2="75.6348"/><text fill="#000000" font-family="sans-serif" font-size="14" font-weight="bold" lengthAdjust="spacing" textLength="64.5654" x="379" y="68.1211">controller</text></g><!--cluster service--><g class="cluster" data-entity="service" data-source-line="10" data-uid="ent0008" id="cluster_service"><path d="M32.5,51.0137 L81.7686,51.0137 A3.75,3.75 0 0 1 84.2686,53.5137 L91.2686,75.6348 L348.5,75.6348 A2.5,2.5 0 0 1 351,78.1348 L351,259.5137 A2.5,2.5 0 0 1 348.5,262.0137 L32.5,262.0137 A2.5,2.5 0 0 1 30,259.5137 L30,53.5137 A2.5,2.5 0 0 1 32.5,51.0137" fill="none" style="stroke:#000000;stroke-width:1.5;"/><line style="stroke:#000000;stroke-width:1.5;" x1="30" x2="91.2686" y1="75.6348" y2="75.6348"/><text fill="#000000" font-family="sans-serif" font-size="14" font-weight="bold" lengthAdjust="spacing" textLength="48.2686" x="34" y="68.1211">service</text></g><!--cluster repository--><g class="cluster" data-entity="repository" data-source-line="17" data-uid="ent0013" id="cluster_repository"><path d="M365.5,286.0137 L434.9619,286.0137 A3.75,3.75 0 0 1 437.4619,288.5137 L444.4619,310.6348 L721.5,310.6348 A2.5,2.5 0 0 1 724,313.1348 L724,494.5137 A2.5,2.5 0 0 1 721.5,497.0137 L365.5,497.0137 A2.5,2.5 0 0 1 363,494.5137 L363,288.5137 A2.5,2.5 0 0 1 365.5,286.0137" fill="none" style="stroke:#000000;stroke-width:1.5;"/><line style="stroke:#000000;stroke-width:1.5;" x1="363" x2="444.4619" y1="310.6348" y2="310.6348"/><text fill="#000000" font-family="sans-serif" font-size="14" font-weight="bold" lengthAdjust="spacing" textLength="68.4619" x="367" y="303.1211">repository</text></g><!--cluster model--><g class="cluster" data-entity="model" data-source-line="24" data-uid="ent0018" id="cluster_model"><path d="M114.5,286.0137 L156.7275,286.0137 A3.75,3.75 0 0 1 159.2275,288.5137 L166.2275,310.6348 L336.5,310.6348 A2.5,2.5 0 0 1 339,313.1348 L339,494.5137 A2.5,2.5 0 0 1 336.5,497.0137 L114.5,497.0137 A2.5,2.5 0 0 1 112,494.5137 L112,288.5137 A2.5,2.5 0 0 1 114.5,286.0137" fill="none" style="stroke:#000000;stroke-width:1.5;"/><line style="stroke:#000000;stroke-width:1.5;" x1="112" x2="166.2275" y1="310.6348" y2="310.6348"/><text fill="#000000" font-family="sans-serif" font-size="14" font-weight="bold" lengthAdjust="spacing" textLength="41.2275" x="116" y="303.1211">model</text></g><!--entity BookController--><g class="entity" data-entity="BookController" data-source-line="4" data-uid="ent0004" id="entity_BookController"><rect fill="#F1F1F1" height="48.6211" rx="2.5" ry="2.5" style="stroke:#181818;stroke-width:0.5;" width="132.5996" x="391.5" y="88.0137"/><rect fill="#F1F1F1" height="10" style="stroke:#181818;stroke-width:0.5;" width="15" x="504.0996" y="93.0137"/><rect fill="#F1F1F1" height="2" style="stroke:#181818;stroke-width:0.5;" width="4" x="502.0996" y="95.0137"/><rect fill="#F1F1F1" height="2" style="stroke:#181818;stroke-width:0.5;" width="4" x="502.0996" y="99.0137"/><text fill="#000000" font-family="sans-serif" font-size="14" lengthAdjust="spacing" textLength="92.5996" x="406.5" y="123.1211">BookController</text></g><!--entity ReaderController--><g class="entity" data-entity="ReaderController" data-source-line="5" data-uid="ent0005" id="entity_ReaderController"><rect fill="#F1F1F1" height="48.6211" rx="2.5" ry="2.5" style="stroke:#181818;stroke-width:0.5;" width="146.6064" x="559.5" y="88.0137"/><rect fill="#F1F1F1" height="10" style="stroke:#181818;stroke-width:0.5;" width="15" x="686.1064" y="93.0137"/><rect fill="#F1F1F1" height="2" style="stroke:#181818;stroke-width:0.5;" width="4" x="684.1064" y="95.0137"/><rect fill="#F1F1F1" height="2" style="stroke:#181818;stroke-width:0.5;" width="4" x="684.1064" y="99.0137"/><text fill="#000000" font-family="sans-serif" font-size="14" lengthAdjust="spacing" textLength="106.6064" x="574.5" y="123.1211">ReaderController</text></g><!--entity LendingController--><g class="entity" data-entity="LendingController" data-source-line="6" data-uid="ent0006" id="entity_LendingController"><rect fill="#F1F1F1" height="48.6211" rx="2.5" ry="2.5" style="stroke:#181818;stroke-width:0.5;" width="150.5166" x="391.5" y="197.0137"/><rect fill="#F1F1F1" height="10" style="stroke:#181818;stroke-width:0.5;" width="15" x="522.0166" y="202.0137"/><rect fill="#F1F1F1" height="2" style="stroke:#181818;stroke-width:0.5;" width="4" x="520.0166" y="204.0137"/><rect fill="#F1F1F1" height="2" style="stroke:#181818;stroke-width:0.5;" width="4" x="520.0166" y="208.0137"/><text fill="#000000" font-family="sans-serif" font-size="14" lengthAdjust="spacing" textLength="110.5166" x="406.5" y="232.1211">LendingController</text></g><!--entity UserController--><g class="entity" data-entity="UserController" data-source-line="7" data-uid="ent0007" id="entity_UserController"><rect fill="#F1F1F1" height="48.6211" rx="2.5" ry="2.5" style="stroke:#181818;stroke-width:0.5;" width="130.248" x="578" y="197.0137"/><rect fill="#F1F1F1" height="10" style="stroke:#181818;stroke-width:0.5;" width="15" x="688.248" y="202.0137"/><rect fill="#F1F1F1" height="2" style="stroke:#181818;stroke-width:0.5;" width="4" x="686.248" y="204.0137"/><rect fill="#F1F1F1" height="2" style="stroke:#181818;stroke-width:0.5;" width="4" x="686.248" y="208.0137"/><text fill="#000000" font-family="sans-serif" font-size="14" lengthAdjust="spacing" textLength="90.248" x="593" y="232.1211">UserController</text></g><!--entity BookService--><g class="entity" data-entity="BookService" data-source-line="11" data-uid="ent0009" id="entity_BookService"><rect fill="#F1F1F1" height="48.6211" rx="2.5" ry="2.5" style="stroke:#181818;stroke-width:0.5;" width="118.5928" x="47.5" y="88.0137"/><rect fill="#F1F1F1" height="10" style="stroke:#181818;stroke-width:0.5;" width="15" x="146.0928" y="93.0137"/><rect fill="#F1F1F1" height="2" style="stroke:#181818;stroke-width:0.5;" width="4" x="144.0928" y="95.0137"/><rect fill="#F1F1F1" height="2" style="stroke:#181818;stroke-width:0.5;" width="4" x="144.0928" y="99.0137"/><text fill="#000000" font-family="sans-serif" font-size="14" lengthAdjust="spacing" textLength="78.5928" x="62.5" y="123.1211">BookService</text></g><!--entity ReaderService--><g class="entity" data-entity="ReaderService" data-source-line="12" data-uid="ent0010" id="entity_ReaderService"><rect fill="#F1F1F1" height="48.6211" rx="2.5" ry="2.5" style="stroke:#181818;stroke-width:0.5;" width="132.5996" x="201.5" y="88.0137"/><rect fill="#F1F1F1" height="10" style="stroke:#181818;stroke-width:0.5;" width="15" x="314.0996" y="93.0137"/><rect fill="#F1F1F1" height="2" style="stroke:#181818;stroke-width:0.5;" width="4" x="312.0996" y="95.0137"/><rect fill="#F1F1F1" height="2" style="stroke:#181818;stroke-width:0.5;" width="4" x="312.0996" y="99.0137"/><text fill="#000000" font-family="sans-serif" font-size="14" lengthAdjust="spacing" textLength="92.5996" x="216.5" y="123.1211">ReaderService</text></g><!--entity LendingService--><g class="entity" data-entity="LendingService" data-source-line="13" data-uid="ent0011" id="entity_LendingService"><rect fill="#F1F1F1" height="48.6211" rx="2.5" ry="2.5" style="stroke:#181818;stroke-width:0.5;" width="136.5098" x="46.5" y="197.0137"/><rect fill="#F1F1F1" height="10" style="stroke:#181818;stroke-width:0.5;" width="15" x="163.0098" y="202.0137"/><rect fill="#F1F1F1" height="2" style="stroke:#181818;stroke-width:0.5;" width="4" x="161.0098" y="204.0137"/><rect fill="#F1F1F1" height="2" style="stroke:#181818;stroke-width:0.5;" width="4" x="161.0098" y="208.0137"/><text fill="#000000" font-family="sans-serif" font-size="14" lengthAdjust="spacing" textLength="96.5098" x="61.5" y="232.1211">LendingService</text></g><!--entity UserService--><g class="entity" data-entity="UserService" data-source-line="14" data-uid="ent0012" id="entity_UserService"><rect fill="#F1F1F1" height="48.6211" rx="2.5" ry="2.5" style="stroke:#181818;stroke-width:0.5;" width="116.2412" x="219" y="197.0137"/><rect fill="#F1F1F1" height="10" style="stroke:#181818;stroke-width:0.5;" width="15" x="315.2412" y="202.0137"/><rect fill="#F1F1F1" height="2" style="stroke:#181818;stroke-width:0.5;" width="4" x="313.2412" y="204.0137"/><rect fill="#F1F1F1" height="2" style="stroke:#181818;stroke-width:0.5;" width="4" x="313.2412" y="208.0137"/><text fill="#000000" font-family="sans-serif" font-size="14" lengthAdjust="spacing" textLength="76.2412" x="234" y="232.1211">UserService</text></g><!--entity BookRepository--><g class="entity" data-entity="BookRepository" data-source-line="18" data-uid="ent0014" id="entity_BookRepository"><rect fill="#F1F1F1" height="48.6211" rx="2.5" ry="2.5" style="stroke:#181818;stroke-width:0.5;" width="138.8271" x="380.5" y="323.0137"/><rect fill="#F1F1F1" height="10" style="stroke:#181818;stroke-width:0.5;" width="15" x="499.3271" y="328.0137"/><rect fill="#F1F1F1" height="2" style="stroke:#181818;stroke-width:0.5;" width="4" x="497.3271" y="330.0137"/><rect fill="#F1F1F1" height="2" style="stroke:#181818;stroke-width:0.5;" width="4" x="497.3271" y="334.0137"/><text fill="#000000" font-family="sans-serif" font-size="14" lengthAdjust="spacing" textLength="98.8271" x="395.5" y="358.1211">BookRepository</text></g><!--entity ReaderRepository--><g class="entity" data-entity="ReaderRepository" data-source-line="19" data-uid="ent0015" id="entity_ReaderRepository"><rect fill="#F1F1F1" height="48.6211" rx="2.5" ry="2.5" style="stroke:#181818;stroke-width:0.5;" width="152.834" x="554.5" y="323.0137"/><rect fill="#F1F1F1" height="10" style="stroke:#181818;stroke-width:0.5;" width="15" x="687.334" y="328.0137"/><rect fill="#F1F1F1" height="2" style="stroke:#181818;stroke-width:0.5;" width="4" x="685.334" y="330.0137"/><rect fill="#F1F1F1" height="2" style="stroke:#181818;stroke-width:0.5;" width="4" x="685.334" y="334.0137"/><text fill="#000000" font-family="sans-serif" font-size="14" lengthAdjust="spacing" textLength="112.834" x="569.5" y="358.1211">ReaderRepository</text></g><!--entity LendingRepository--><g class="entity" data-entity="LendingRepository" data-source-line="20" data-uid="ent0016" id="entity_LendingRepository"><rect fill="#F1F1F1" height="48.6211" rx="2.5" ry="2.5" style="stroke:#181818;stroke-width:0.5;" width="156.7441" x="379.5" y="432.0137"/><rect fill="#F1F1F1" height="10" style="stroke:#181818;stroke-width:0.5;" width="15" x="516.2441" y="437.0137"/><rect fill="#F1F1F1" height="2" style="stroke:#181818;stroke-width:0.5;" width="4" x="514.2441" y="439.0137"/><rect fill="#F1F1F1" height="2" style="stroke:#181818;stroke-width:0.5;" width="4" x="514.2441" y="443.0137"/><text fill="#000000" font-family="sans-serif" font-size="14" lengthAdjust="spacing" textLength="116.7441" x="394.5" y="467.1211">LendingRepository</text></g><!--entity UserRepository--><g class="entity" data-entity="UserRepository" data-source-line="21" data-uid="ent0017" id="entity_UserRepository"><rect fill="#F1F1F1" height="48.6211" rx="2.5" ry="2.5" style="stroke:#181818;stroke-width:0.5;" width="136.4756" x="572" y="432.0137"/><rect fill="#F1F1F1" height="10" style="stroke:#181818;stroke-width:0.5;" width="15" x="688.4756" y="437.0137"/><rect fill="#F1F1F1" height="2" style="stroke:#181818;stroke-width:0.5;" width="4" x="686.4756" y="439.0137"/><rect fill="#F1F1F1" height="2" style="stroke:#181818;stroke-width:0.5;" width="4" x="686.4756" y="443.0137"/><text fill="#000000" font-family="sans-serif" font-size="14" lengthAdjust="spacing" textLength="96.4756" x="587" y="467.1211">UserRepository</text></g><!--entity Book--><g class="entity" data-entity="Book" data-source-line="25" data-uid="ent0019" id="entity_Book"><rect fill="#F1F1F1" height="48.6211" rx="2.5" ry="2.5" style="stroke:#181818;stroke-width:0.5;" width="71.9102" x="130" y="323.0137"/><rect fill="#F1F1F1" height="10" style="stroke:#181818;stroke-width:0.5;" width="15" x="181.9102" y="328.0137"/><rect fill="#F1F1F1" height="2" style="stroke:#181818;stroke-width:0.5;" width="4" x="179.9102" y="330.0137"/><rect fill="#F1F1F1" height="2" style="stroke:#181818;stroke-width:0.5;" width="4" x="179.9102" y="334.0137"/><text fill="#000000" font-family="sans-serif" font-size="14" lengthAdjust="spacing" textLength="31.9102" x="145" y="358.1211">Book</text></g><!--entity Reader--><g class="entity" data-entity="Reader" data-source-line="26" data-uid="ent0020" id="entity_Reader"><rect fill="#F1F1F1" height="48.6211" rx="2.5" ry="2.5" style="stroke:#181818;stroke-width:0.5;" width="85.917" x="237" y="323.0137"/><rect fill="#F1F1F1" height="10" style="stroke:#181818;stroke-width:0.5;" width="15" x="302.917" y="328.0137"/><rect fill="#F1F1F1" height="2" style="stroke:#181818;stroke-width:0.5;" width="4" x="300.917" y="330.0137"/><rect fill="#F1F1F1" height="2" style="stroke:#181818;stroke-width:0.5;" width="4" x="300.917" y="334.0137"/><text fill="#000000" font-family="sans-serif" font-size="14" lengthAdjust="spacing" textLength="45.917" x="252" y="358.1211">Reader</text></g><!--entity Lending--><g class="entity" data-entity="Lending" data-source-line="27" data-uid="ent0021" id="entity_Lending"><rect fill="#F1F1F1" height="48.6211" rx="2.5" ry="2.5" style="stroke:#181818;stroke-width:0.5;" width="89.8271" x="128" y="432.0137"/><rect fill="#F1F1F1" height="10" style="stroke:#181818;stroke-width:0.5;" width="15" x="197.8271" y="437.0137"/><rect fill="#F1F1F1" height="2" style="stroke:#181818;stroke-width:0.5;" width="4" x="195.8271" y="439.0137"/><rect fill="#F1F1F1" height="2" style="stroke:#181818;stroke-width:0.5;" width="4" x="195.8271" y="443.0137"/><text fill="#000000" font-family="sans-serif" font-size="14" lengthAdjust="spacing" textLength="49.8271" x="143" y="467.1211">Lending</text></g><!--entity User--><g class="entity" data-entity="User" data-source-line="28" data-uid="ent0022" id="entity_User"><rect fill="#F1F1F1" height="48.6211" rx="2.5" ry="2.5" style="stroke:#181818;stroke-width:0.5;" width="69.5586" x="253" y="432.0137"/><rect fill="#F1F1F1" height="10" style="stroke:#181818;stroke-width:0.5;" width="15" x="302.5586" y="437.0137"/><rect fill="#F1F1F1" height="2" style="stroke:#181818;stroke-width:0.5;" width="4" x="300.5586" y="439.0137"/><rect fill="#F1F1F1" height="2" style="stroke:#181818;stroke-width:0.5;" width="4" x="300.5586" y="443.0137"/><text fill="#000000" font-family="sans-serif" font-size="14" lengthAdjust="spacing" textLength="29.5586" x="268" y="467.1211">User</text></g><!--SRC=[ROv12iCW403llaBoW42_q5vxIkcfz22w4ObrHQLGIlxUI6D2NFUuiphZXPo41jxvrFk8O-hrgUDVnfVnXKbqAQ2r40hAypWZJfSDFNSmW50GckWAJXcdc-mUwQEP7LEMaxUHG3fk_ps9eFkrW8AiFsnhTm2FqIGC7w8VDaGAccYDQBBSKOCwvOKABAaWRcgiFENtcVq0]--></g></svg>