<svg xmlns="http://www.w3.org/2000/svg" xmlns:xlink="http://www.w3.org/1999/xlink" contentStyleType="text/css" data-diagram-type="SEQUENCE" height="374px" preserveAspectRatio="none" style="width:789px;height:374px;background:#FFFFFF;" version="1.1" viewBox="0 0 789 374" width="789px" zoomAndPan="magnify"> <rect width="100%" height="100%" fill="#FFFFFF"/><defs/><g><g><title>Reader</title><rect fill="#000000" fill-opacity="0.00000" height="207.7461" width="8" x="26.9585" y="83.6211"/><line style="stroke:#181818;stroke-width:0.5;stroke-dasharray:5.0,5.0;" x1="30" x2="30" y1="83.6211" y2="291.3672"/></g><g><title>LendingController</title><rect fill="#000000" fill-opacity="0.00000" height="207.7461" width="8" x="142.0029" y="83.6211"/><line style="stroke:#181818;stroke-width:0.5;stroke-dasharray:5.0,5.0;" x1="145.7446" x2="145.7446" y1="83.6211" y2="291.3672"/></g><g><title>LendingService</title><rect fill="#000000" fill-opacity="0.00000" height="207.7461" width="8" x="323.5454" y="83.6211"/><line style="stroke:#181818;stroke-width:0.5;stroke-dasharray:5.0,5.0;" x1="327.2905" x2="327.2905" y1="83.6211" y2="291.3672"/></g><g><title>LendingRepository</title><rect fill="#000000" fill-opacity="0.00000" height="207.7461" width="8" x="454.1724" y="83.6211"/><line style="stroke:#181818;stroke-width:0.5;stroke-dasharray:5.0,5.0;" x1="457.8003" x2="457.8003" y1="83.6211" y2="291.3672"/></g><g><title>BookRepository</title><rect fill="#000000" fill-opacity="0.00000" height="207.7461" width="8" x="585.958" y="83.6211"/><line style="stroke:#181818;stroke-width:0.5;stroke-dasharray:5.0,5.0;" x1="589.5444" x2="589.5444" y1="83.6211" y2="291.3672"/></g><g><title>ReaderRepository</title><rect fill="#000000" fill-opacity="0.00000" height="207.7461" width="8" x="715.7886" y="83.6211"/><line style="stroke:#181818;stroke-width:0.5;stroke-dasharray:5.0,5.0;" x1="719.3716" x2="719.3716" y1="83.6211" y2="291.3672"/></g><g class="participant participant-head" data-participant="Reader"><text fill="#000000" font-family="sans-serif" font-size="14" lengthAdjust="spacing" textLength="45.917" x="5" y="80.1074">Reader</text><ellipse cx="30.9585" cy="13.5" fill="#E2E2F0" rx="8" ry="8" style="stroke:#181818;stroke-width:0.5;"/><path d="M30.9585,21.5 L30.9585,48.5 M17.9585,29.5 L43.9585,29.5 M30.9585,48.5 L17.9585,63.5 M30.9585,48.5 L43.9585,63.5" fill="none" style="stroke:#181818;stroke-width:0.5;"/></g><g class="participant participant-tail" data-participant="Reader"><text fill="#000000" font-family="sans-serif" font-size="14" lengthAdjust="spacing" textLength="45.917" x="5" y="305.4746">Reader</text><ellipse cx="30.9585" cy="317.4883" fill="#E2E2F0" rx="8" ry="8" style="stroke:#181818;stroke-width:0.5;"/><path d="M30.9585,325.4883 L30.9585,352.4883 M17.9585,333.4883 L43.9585,333.4883 M30.9585,352.4883 L17.9585,367.4883 M30.9585,352.4883 L43.9585,367.4883" fill="none" style="stroke:#181818;stroke-width:0.5;"/></g><g class="participant participant-head" data-participant="LendingController"><rect fill="#E2E2F0" height="32.6211" rx="2.5" ry="2.5" style="stroke:#181818;stroke-width:0.5;" width="124.5166" x="83.7446" y="50"/><text fill="#000000" font-family="sans-serif" font-size="14" lengthAdjust="spacing" textLength="110.5166" x="90.7446" y="72.1074">LendingController</text></g><g class="participant participant-tail" data-participant="LendingController"><rect fill="#E2E2F0" height="32.6211" rx="2.5" ry="2.5" style="stroke:#181818;stroke-width:0.5;" width="124.5166" x="83.7446" y="290.3672"/><text fill="#000000" font-family="sans-serif" font-size="14" lengthAdjust="spacing" textLength="110.5166" x="90.7446" y="312.4746">LendingController</text></g><g class="participant participant-head" data-participant="LendingService"><rect fill="#E2E2F0" height="32.6211" rx="2.5" ry="2.5" style="stroke:#181818;stroke-width:0.5;" width="110.5098" x="272.2905" y="50"/><text fill="#000000" font-family="sans-serif" font-size="14" lengthAdjust="spacing" textLength="96.5098" x="279.2905" y="72.1074">LendingService</text></g><g class="participant participant-tail" data-participant="LendingService"><rect fill="#E2E2F0" height="32.6211" rx="2.5" ry="2.5" style="stroke:#181818;stroke-width:0.5;" width="110.5098" x="272.2905" y="290.3672"/><text fill="#000000" font-family="sans-serif" font-size="14" lengthAdjust="spacing" textLength="96.5098" x="279.2905" y="312.4746">LendingService</text></g><g class="participant participant-head" data-participant="LendingRepository"><rect fill="#E2E2F0" height="32.6211" rx="2.5" ry="2.5" style="stroke:#181818;stroke-width:0.5;" width="130.7441" x="392.8003" y="50"/><text fill="#000000" font-family="sans-serif" font-size="14" lengthAdjust="spacing" textLength="116.7441" x="399.8003" y="72.1074">LendingRepository</text></g><g class="participant participant-tail" data-participant="LendingRepository"><rect fill="#E2E2F0" height="32.6211" rx="2.5" ry="2.5" style="stroke:#181818;stroke-width:0.5;" width="130.7441" x="392.8003" y="290.3672"/><text fill="#000000" font-family="sans-serif" font-size="14" lengthAdjust="spacing" textLength="116.7441" x="399.8003" y="312.4746">LendingRepository</text></g><g class="participant participant-head" data-participant="BookRepository"><rect fill="#E2E2F0" height="32.6211" rx="2.5" ry="2.5" style="stroke:#181818;stroke-width:0.5;" width="112.8271" x="533.5444" y="50"/><text fill="#000000" font-family="sans-serif" font-size="14" lengthAdjust="spacing" textLength="98.8271" x="540.5444" y="72.1074">BookRepository</text></g><g class="participant participant-tail" data-participant="BookRepository"><rect fill="#E2E2F0" height="32.6211" rx="2.5" ry="2.5" style="stroke:#181818;stroke-width:0.5;" width="112.8271" x="533.5444" y="290.3672"/><text fill="#000000" font-family="sans-serif" font-size="14" lengthAdjust="spacing" textLength="98.8271" x="540.5444" y="312.4746">BookRepository</text></g><g class="participant participant-head" data-participant="ReaderRepository"><rect fill="#E2E2F0" height="32.6211" rx="2.5" ry="2.5" style="stroke:#181818;stroke-width:0.5;" width="126.834" x="656.3716" y="50"/><text fill="#000000" font-family="sans-serif" font-size="14" lengthAdjust="spacing" textLength="112.834" x="663.3716" y="72.1074">ReaderRepository</text></g><g class="participant participant-tail" data-participant="ReaderRepository"><rect fill="#E2E2F0" height="32.6211" rx="2.5" ry="2.5" style="stroke:#181818;stroke-width:0.5;" width="126.834" x="656.3716" y="290.3672"/><text fill="#000000" font-family="sans-serif" font-size="14" lengthAdjust="spacing" textLength="112.834" x="663.3716" y="312.4746">ReaderRepository</text></g><g class="message" data-participant-1="Reader" data-participant-2="LendingController"><polygon fill="#181818" points="134.0029,112.9121,144.0029,116.9121,134.0029,120.9121,138.0029,116.9121" style="stroke:#181818;stroke-width:1;"/><line style="stroke:#181818;stroke-width:1;" x1="30.9585" x2="140.0029" y1="116.9121" y2="116.9121"/><text fill="#000000" font-family="sans-serif" font-size="13" lengthAdjust="spacing" textLength="91.0444" x="37.9585" y="111.6494">POST /lendings</text></g><g class="message" data-participant-1="LendingController" data-participant-2="LendingService"><polygon fill="#181818" points="315.5454,144.2031,325.5454,148.2031,315.5454,152.2031,319.5454,148.2031" style="stroke:#181818;stroke-width:1;"/><line style="stroke:#181818;stroke-width:1;" x1="146.0029" x2="321.5454" y1="148.2031" y2="148.2031"/><text fill="#000000" font-family="sans-serif" font-size="13" lengthAdjust="spacing" textLength="157.5425" x="153.0029" y="142.9404">lendBook(bookId, readerId)</text></g><g class="message" data-participant-1="LendingService" data-participant-2="BookRepository"><polygon fill="#181818" points="577.958,175.4941,587.958,179.4941,577.958,183.4941,581.958,179.4941" style="stroke:#181818;stroke-width:1;"/><line style="stroke:#181818;stroke-width:1;" x1="327.5454" x2="583.958" y1="179.4941" y2="179.4941"/><text fill="#000000" font-family="sans-serif" font-size="13" lengthAdjust="spacing" textLength="94.6626" x="334.5454" y="174.2314">findById(bookId)</text></g><g class="message" data-participant-1="LendingService" data-participant-2="ReaderRepository"><polygon fill="#181818" points="707.7886,206.7852,717.7886,210.7852,707.7886,214.7852,711.7886,210.7852" style="stroke:#181818;stroke-width:1;"/><line style="stroke:#181818;stroke-width:1;" x1="327.5454" x2="713.7886" y1="210.7852" y2="210.7852"/><text fill="#000000" font-family="sans-serif" font-size="13" lengthAdjust="spacing" textLength="104.0508" x="334.5454" y="205.5225">findById(readerId)</text></g><g class="message" data-participant-1="LendingService" data-participant-2="LendingRepository"><polygon fill="#181818" points="446.1724,238.0762,456.1724,242.0762,446.1724,246.0762,450.1724,242.0762" style="stroke:#181818;stroke-width:1;"/><line style="stroke:#181818;stroke-width:1;" x1="327.5454" x2="452.1724" y1="242.0762" y2="242.0762"/><text fill="#000000" font-family="sans-serif" font-size="13" lengthAdjust="spacing" textLength="78.0444" x="334.5454" y="236.8135">save(lending)</text></g><g class="message" data-participant-1="LendingController" data-participant-2="Reader"><polygon fill="#181818" points="41.9585,269.3672,31.9585,273.3672,41.9585,277.3672,37.9585,273.3672" style="stroke:#181818;stroke-width:1;"/><line style="stroke:#181818;stroke-width:1;stroke-dasharray:2.0,2.0;" x1="35.9585" x2="145.0029" y1="273.3672" y2="273.3672"/><text fill="#000000" font-family="sans-serif" font-size="13" lengthAdjust="spacing" textLength="81.6372" x="47.9585" y="268.1045">HTTP 200 OK</text></g><!--SRC=[VP3D3e8m48JlVOezGgAHUFJWGIyIJ2302rIwciQc9QKXuUrTX2W_rKiFdVawC-MLCnPov08jgxbrif8rrmwkg8NKZxFHpXgb_6g1jfKL-gGSQzD8UhoRgITZdZ-aeSH4PCCDR8_hDd20B2rAsAb1QTZQykN6dWJrzhv3SACZ5XkmxunOX6pX9NfUbkYx9BgBnKZxcEMAAVKlQ_Lj13QynM0S6Fe6VlB8V2dB3FPH16d2NW00]--></g></svg>