<svg xmlns="http://www.w3.org/2000/svg" xmlns:xlink="http://www.w3.org/1999/xlink" contentStyleType="text/css" data-diagram-type="DESCRIPTION" height="184px" preserveAspectRatio="none" style="width:861px;height:184px;background:#FFFFFF;" version="1.1" viewBox="0 0 861 184" width="861px" zoomAndPan="magnify"><defs/><g><!--entity Admin--><g class="entity" data-entity="Admin" data-source-line="2" data-uid="ent0002" id="entity_Admin"><ellipse cx="331.8413" cy="14" fill="#F1F1F1" rx="8" ry="8" style="stroke:#181818;stroke-width:0.5;"/><path d="M331.8413,22 L331.8413,49 M318.8413,30 L344.8413,30 M331.8413,49 L318.8413,64 M331.8413,49 L344.8413,64" fill="none" style="stroke:#181818;stroke-width:0.5;"/><text fill="#000000" font-family="sans-serif" font-size="14" lengthAdjust="spacing" textLength="39.6826" x="312" y="80.6074">Admin</text></g><!--entity Reader--><g class="entity" data-entity="Reader" data-source-line="3" data-uid="ent0003" id="entity_Reader"><ellipse cx="643.9585" cy="14" fill="#F1F1F1" rx="8" ry="8" style="stroke:#181818;stroke-width:0.5;"/><path d="M643.9585,22 L643.9585,49 M630.9585,30 L656.9585,30 M643.9585,49 L630.9585,64 M643.9585,49 L656.9585,64" fill="none" style="stroke:#181818;stroke-width:0.5;"/><text fill="#000000" font-family="sans-serif" font-size="14" lengthAdjust="spacing" textLength="45.917" x="621" y="80.6074">Reader</text></g><!--entity UC1--><g class="entity" data-entity="UC1" data-source-line="5" data-uid="ent0004" id="entity_UC1"><ellipse cx="74.9371" cy="161.6874" fill="#F1F1F1" rx="68.9371" ry="16.1874" style="stroke:#181818;stroke-width:0.5;"/><text fill="#000000" font-family="sans-serif" font-size="14" lengthAdjust="spacing" textLength="93.3926" x="28.2408" y="167.498">Manage Books</text></g><!--entity UC2--><g class="entity" data-entity="UC2" data-source-line="6" data-uid="ent0005" id="entity_UC2"><ellipse cx="644.1707" cy="161.6671" fill="#F1F1F1" rx="59.6707" ry="16.1671" style="stroke:#181818;stroke-width:0.5;"/><text fill="#000000" font-family="sans-serif" font-size="14" lengthAdjust="spacing" textLength="80.1445" x="604.0985" y="167.4776">Borrow Book</text></g><!--entity UC3--><g class="entity" data-entity="UC3" data-source-line="7" data-uid="ent0006" id="entity_UC3"><ellipse cx="797.0273" cy="161.6671" fill="#F1F1F1" rx="58.0273" ry="16.1671" style="stroke:#181818;stroke-width:0.5;"/><text fill="#000000" font-family="sans-serif" font-size="14" lengthAdjust="spacing" textLength="77.8203" x="758.1171" y="167.4776">Return Book</text></g><!--entity UC4--><g class="entity" data-entity="UC4" data-source-line="8" data-uid="ent0007" id="entity_UC4"><ellipse cx="253.0691" cy="161.7138" fill="#F1F1F1" rx="74.0691" ry="17.2138" style="stroke:#181818;stroke-width:0.5;"/><text fill="#000000" font-family="sans-serif" font-size="14" lengthAdjust="spacing" textLength="107.3994" x="199.3694" y="167.5244">Manage Readers</text></g><!--entity UC5--><g class="entity" data-entity="UC5" data-source-line="9" data-uid="ent0008" id="entity_UC5"><ellipse cx="411.1692" cy="161.6671" fill="#F1F1F1" rx="48.6692" ry="16.1671" style="stroke:#181818;stroke-width:0.5;"/><text fill="#000000" font-family="sans-serif" font-size="14" lengthAdjust="spacing" textLength="64.5859" x="378.8762" y="167.4776">Issue Fine</text></g><!--entity UC6--><g class="entity" data-entity="UC6" data-source-line="10" data-uid="ent0009" id="entity_UC6"><ellipse cx="522.2219" cy="161.6671" fill="#F1F1F1" rx="27.2219" ry="16.1671" style="stroke:#181818;stroke-width:0.5;"/><text fill="#000000" font-family="sans-serif" font-size="14" lengthAdjust="spacing" textLength="34.2549" x="505.0944" y="167.4776">Login</text></g><!--link Admin to UC1--><g class="link" data-entity-1="Admin" data-entity-2="UC1" data-source-line="12" data-uid="lnk10" id="link_Admin_UC1"><path d="M311.83,54.98 C266.87,75.02 163.6709,120.9987 110.6209,144.6287" fill="none" id="Admin-to-UC1" style="stroke:#181818;stroke-width:1;"/><polygon fill="#181818" points="105.14,147.07,114.9889,147.0619,109.7074,145.0356,111.7337,139.7541,105.14,147.07" style="stroke:#181818;stroke-width:1;"/></g><!--link Admin to UC4--><g class="link" data-entity-1="Admin" data-entity-2="UC4" data-source-line="13" data-uid="lnk11" id="link_Admin_UC4"><path d="M311.86,75.19 C296.68,97.19 279.8479,121.5918 267.4879,139.5018" fill="none" id="Admin-to-UC4" style="stroke:#181818;stroke-width:1;"/><polygon fill="#181818" points="264.08,144.44,272.4841,139.3046,266.92,140.3248,265.8998,134.7607,264.08,144.44" style="stroke:#181818;stroke-width:1;"/></g><!--link Admin to UC5--><g class="link" data-entity-1="Admin" data-entity-2="UC5" data-source-line="14" data-uid="lnk12" id="link_Admin_UC5"><path d="M352.14,75.19 C367.68,97.72 385.1314,123.0122 397.3914,140.7722" fill="none" id="Admin-to-UC5" style="stroke:#181818;stroke-width:1;"/><polygon fill="#181818" points="400.8,145.71,398.9789,136.031,397.9595,141.5952,392.3953,140.5758,400.8,145.71" style="stroke:#181818;stroke-width:1;"/></g><!--link Admin to UC6--><g class="link" data-entity-1="Admin" data-entity-2="UC6" data-source-line="15" data-uid="lnk13" id="link_Admin_UC6"><path d="M352.33,58.25 C389.57,80.7 463.0207,124.9637 498.6407,146.4237" fill="none" id="Admin-to-UC6" style="stroke:#181818;stroke-width:1;"/><polygon fill="#181818" points="503.78,149.52,498.1352,141.4493,499.4972,146.9397,494.0068,148.3018,503.78,149.52" style="stroke:#181818;stroke-width:1;"/></g><!--link Reader to UC2--><g class="link" data-entity-1="Reader" data-entity-2="UC2" data-source-line="17" data-uid="lnk14" id="link_Reader_UC2"><path d="M644,84.76 C644,105.53 644,123.92 644,139.3" fill="none" id="Reader-to-UC2" style="stroke:#181818;stroke-width:1;"/><polygon fill="#181818" points="644,145.3,648,136.3,644,140.3,640,136.3,644,145.3" style="stroke:#181818;stroke-width:1;"/></g><!--link Reader to UC3--><g class="link" data-entity-1="Reader" data-entity-2="UC3" data-source-line="18" data-uid="lnk15" id="link_Reader_UC3"><path d="M667.24,63.39 C697.5,86.04 745.0365,121.6047 773.1065,142.6147" fill="none" id="Reader-to-UC3" style="stroke:#181818;stroke-width:1;"/><polygon fill="#181818" points="777.91,146.21,773.1017,137.6147,773.9071,143.2139,768.3079,144.0193,777.91,146.21" style="stroke:#181818;stroke-width:1;"/></g><!--link Reader to UC6--><g class="link" data-entity-1="Reader" data-entity-2="UC6" data-source-line="19" data-uid="lnk16" id="link_Reader_UC6"><path d="M620.77,67.81 C595.6,91.42 560.6752,124.2042 540.0552,143.5542" fill="none" id="Reader-to-UC6" style="stroke:#181818;stroke-width:1;"/><polygon fill="#181818" points="535.68,147.66,544.98,144.4182,539.326,144.2385,539.5057,138.5845,535.68,147.66" style="stroke:#181818;stroke-width:1;"/></g><!--SRC=[POwx2iCm34LtVON8dg5vZOMcK2YqIo0V818HJAa5Lan_lyLnS4mt7HrqTMbQnU5bVXiB5EQ1QMO7u9KdKiRYIPOMnbxafGMIudWz9TkBS_89DiegoO5Nx-nHrd-vsxyzkKd-hkePRyPoT6ro3rcCZUiE8FJ7iZo7RaTgCcep-XrkpoDNETOvTl05]--></g></svg>